<svg width="24" height="24" viewBox="0 0 24 24" fill="none" xmlns="http://www.w3.org/2000/svg">
<path fill-rule="evenodd" clip-rule="evenodd" d="M12 1C12.5523 1 13 1.44772 13 2V3.05664C14.7355 3.24853 16.3216 3.93333 17.6162 4.96875L18.3643 4.22168C18.7548 3.83143 19.3879 3.83128 19.7783 4.22168C20.1688 4.61212 20.1686 5.2452 19.7783 5.63574L19.0303 6.38379C20.0659 7.67849 20.7514 9.26427 20.9434 11H22C22.5523 11 23 11.4477 23 12C23 12.5523 22.5523 13 22 13H20.9434C20.7515 14.7355 20.0656 16.3206 19.0303 17.6152L19.7783 18.3643C20.1686 18.7548 20.1688 19.3879 19.7783 19.7783C19.3879 20.1687 18.7548 20.1686 18.3643 19.7783L17.6162 19.0303C16.3215 20.0659 14.7357 20.7505 13 20.9424V22C13 22.5523 12.5523 23 12 23C11.4477 23 11 22.5523 11 22V20.9424C9.26404 20.7504 7.6776 20.0662 6.38281 19.0303L5.63574 19.7783C5.24522 20.1686 4.61212 20.1687 4.22168 19.7783C3.83125 19.3879 3.83143 18.7548 4.22168 18.3643L4.96875 17.6152C3.93359 16.3207 3.2485 14.7353 3.05664 13H2C1.44772 13 1 12.5523 1 12C1 11.4477 1.44772 11 2 11H3.05664C3.24853 9.26448 3.93333 7.6784 4.96875 6.38379L4.22168 5.63574C3.83142 5.2452 3.83125 4.61211 4.22168 4.22168C4.61212 3.83131 5.24522 3.83145 5.63574 4.22168L6.38281 4.96875C7.67754 3.93306 9.26421 3.24856 11 3.05664V2C11 1.44772 11.4477 1 12 1ZM12 5C10.0702 5 8.32191 5.77995 7.05566 7.04297C7.05354 7.04513 7.05195 7.04864 7.0498 7.05078C7.04752 7.05306 7.04429 7.05438 7.04199 7.05664C5.77954 8.32281 5 10.0707 5 12C5 13.929 5.77983 15.6763 7.04199 16.9424C7.04446 16.9448 7.04736 16.9468 7.0498 16.9492C7.05178 16.9512 7.05371 16.9541 7.05566 16.9561C8.32195 18.2194 10.07 19 12 19C15.866 19 19 15.866 19 12C19 10.0705 18.2198 8.32285 16.957 7.05664C16.9549 7.05455 16.9523 7.0529 16.9502 7.05078C16.9479 7.04849 16.9456 7.04528 16.9434 7.04297C15.6772 5.78023 13.9295 5 12 5Z" fill="#555555"/>
</svg>
