<svg width="24" height="24" viewBox="0 0 24 24" fill="none" xmlns="http://www.w3.org/2000/svg">
<path d="M4.28613 10.1171C4.98497 9.4183 6.09099 9.37499 6.84082 9.98625L6.98633 10.1171L13.8828 17.0136C14.6282 17.7591 14.6283 18.9683 13.8828 19.7138L13.6162 19.9794C12.6826 20.9131 11.3581 22.0394 9.6709 22.3329C8.11312 22.6038 6.46042 22.1374 4.74902 20.665L2.70703 22.707C2.31651 23.0975 1.68349 23.0975 1.29297 22.707C0.902445 22.3164 0.902445 21.6834 1.29297 21.2929L3.34766 19.2372C1.90277 17.5002 1.43568 15.8512 1.69531 14.3046C1.97741 12.6244 3.08582 11.3184 4.02051 10.3837L4.28613 10.1171ZM5.43457 11.7978C4.55109 12.6813 3.84043 13.6085 3.66797 14.6357C3.50944 15.5799 3.77113 16.8654 5.44238 18.5732C7.10451 20.2715 8.38215 20.5269 9.3291 20.3622C10.3689 20.1812 11.3178 19.4497 12.2021 18.5654L12.4033 18.3632L5.63574 11.5956L5.43457 11.7978ZM21.293 1.29289C21.6835 0.902369 22.3165 0.902369 22.707 1.29289C23.0976 1.68342 23.0976 2.31643 22.707 2.70696L20.6621 4.7509C22.1234 6.46227 22.5883 8.11388 22.3223 9.66887C22.0335 11.3558 20.9159 12.6798 19.9795 13.6161L19.7139 13.8827C18.9684 14.6282 17.7592 14.6281 17.0137 13.8827L16.0908 12.9599L14.5254 14.5253C14.1349 14.9158 13.5019 14.9157 13.1113 14.5253C12.7208 14.1348 12.7208 13.5018 13.1113 13.1113L14.6768 11.5458L12.4541 9.32317L10.8887 10.8886C10.4981 11.2791 9.86513 11.2791 9.47461 10.8886C9.08426 10.4981 9.08415 9.865 9.47461 9.47453L11.04 7.9091L10.1172 6.98625C9.37181 6.2407 9.37172 5.03155 10.1172 4.28606L10.3838 4.02043C11.3208 3.0834 12.6338 1.97702 14.3164 1.69524C15.8643 1.4361 17.5126 1.90174 19.2393 3.34563L21.293 1.29289ZM18.5703 5.43938C16.8804 3.77166 15.5953 3.50905 14.6465 3.66789C13.6142 3.84085 12.6788 4.55351 11.7979 5.43449L11.5957 5.63567L18.3633 12.4032L18.5654 12.2021C19.4472 11.3203 20.1726 10.3712 20.3506 9.33098C20.5131 8.3805 20.2543 7.10127 18.5703 5.43938Z" fill="#555555"/>
</svg>
