<svg width="24" height="24" viewBox="0 0 24 24" fill="none" xmlns="http://www.w3.org/2000/svg">
<path d="M7 14C7.55228 14 8 14.4477 8 15C8 15.5523 7.55228 16 7 16H6C5.44772 16 5 15.5523 5 15C5 14.4477 5.44772 14 6 14H7Z" fill="#000"/>
<path d="M9 10C9.55228 10 10 10.4477 10 11C10 11.5523 9.55228 12 9 12H6C5.44772 12 5 11.5523 5 11C5 10.4477 5.44772 10 6 10H9Z" fill="#000"/>
<path fill-rule="evenodd" clip-rule="evenodd" d="M16 1C18.7614 1 21 3.23858 21 6V12.6523L21.4932 12.7354C22.9397 12.9765 24 14.2278 24 15.6943V19.333C24 19.9009 23.8392 20.456 23.5381 20.9336L23.4004 21.1338L22.7002 22.0664C22.5704 22.2395 22.5 22.4506 22.5 22.667V23C22.5 23.5523 22.0523 24 21.5 24C20.9477 24 20.5 23.5523 20.5 23V22.667C20.5 22.0179 20.7101 21.3855 21.0996 20.8662L21.7998 19.9336L21.8857 19.7969C21.9603 19.6545 22 19.4953 22 19.333V15.6943C22 15.2055 21.6462 14.7884 21.1641 14.708L17.6709 14.126C16.7068 13.9652 16.0002 13.1307 16 12.1533V7.5C16 7.22386 15.7761 7 15.5 7C15.2239 7 15 7.22386 15 7.5V19.1719C15.0001 19.437 15.1055 19.6914 15.293 19.8789L16.1211 20.707L16.3203 20.9268C16.7578 21.4606 16.9999 22.1319 17 22.8281V23C17 23.5523 16.5523 24 16 24C15.4477 24 15 23.5523 15 23V22.8281C14.9999 22.5961 14.9193 22.3722 14.7734 22.1943L14.707 22.1211L13.8789 21.293C13.7869 21.201 13.7035 21.1019 13.625 21H6C3.23858 21 1 18.7614 1 16V6C1 3.23858 3.23858 1 6 1H16ZM6 3C4.34315 3 3 4.34315 3 6V16C3 17.6569 4.34315 19 6 19H13V8H6C5.44772 8 5 7.55228 5 7C5 6.44772 5.44772 6 6 6H13.5029C13.9591 5.39363 14.6828 5 15.5 5C16.8807 5 18 6.11929 18 7.5V12.1533L19 12.3193V6C19 4.34315 17.6569 3 16 3H6Z" fill="#000"/>
</svg>
