<svg width="24" height="25" viewBox="0 0 24 25" fill="none" xmlns="http://www.w3.org/2000/svg">
<path fill-rule="evenodd" clip-rule="evenodd" d="M17 2.70996C18.1414 2.70996 19.6407 2.99208 20.875 3.97949C22.1506 5.00019 23 6.65998 23 9.11035C22.9999 11.0062 22.2851 12.8599 21.2979 14.5283C20.3065 16.2037 18.9998 17.7605 17.7178 19.0811C16.4326 20.4048 15.151 21.5136 14.1924 22.29C13.7123 22.6789 13.3109 22.9862 13.0283 23.1973C12.887 23.3029 12.7747 23.3845 12.6973 23.4404C12.6588 23.4682 12.6292 23.4901 12.6084 23.5049C12.598 23.5123 12.5898 23.5184 12.584 23.5225C12.5811 23.5245 12.5788 23.5262 12.5771 23.5273C12.5763 23.5279 12.5748 23.5279 12.5742 23.5283C12.574 23.5285 12.572 23.5271 12 22.71L12.5732 23.5293C12.229 23.7701 11.771 23.7701 11.4268 23.5293L12 22.71C11.428 23.5271 11.427 23.5295 11.4268 23.5293L11.4258 23.5283C11.4252 23.5279 11.4237 23.5279 11.4229 23.5273C11.4212 23.5262 11.4189 23.5245 11.416 23.5225C11.4102 23.5184 11.402 23.5123 11.3916 23.5049C11.3708 23.4901 11.3412 23.4682 11.3027 23.4404C11.2253 23.3845 11.113 23.3029 10.9717 23.1973C10.6891 22.9862 10.2877 22.6789 9.80762 22.29C8.84901 21.5136 7.56737 20.4048 6.28223 19.0811C5.00021 17.7605 3.69351 16.2037 2.70215 14.5283C1.71491 12.8599 1.0001 11.0062 1 9.11035C1 6.65998 1.84937 5.00019 3.125 3.97949C4.35927 2.99208 5.85855 2.70996 7 2.70996C8.3213 2.70996 9.53781 3.36069 10.4932 4.11133C10.925 4.45069 11.3251 4.83029 11.6865 5.21777C11.8495 4.99059 12.0494 4.74649 12.293 4.50293C13.2179 3.57802 14.7174 2.70996 17 2.70996ZM17 4.70996C16.5262 4.70996 16.0022 4.88202 15.458 5.19727C14.8201 5.63461 14.3068 6.33279 13.8945 7.15723C13.6243 7.69767 13.4251 8.24512 13.2812 8.70996H14C14.3565 8.70996 14.6863 8.89969 14.8652 9.20801C15.0441 9.5163 15.045 9.89659 14.8682 10.2061L12.8682 13.7061C12.6432 14.0997 12.1814 14.2931 11.7432 14.1768C11.305 14.0603 11 13.6634 11 13.21V11.71H10C9.67857 11.71 9.37643 11.5557 9.18848 11.2949C9.00052 11.0342 8.95011 10.6985 9.05176 10.3936C9.05199 10.3929 9.05234 10.3908 9.05273 10.3896C9.05357 10.3871 9.0551 10.3835 9.05664 10.3789C9.05973 10.3697 9.06353 10.356 9.06934 10.3389C9.08095 10.3045 9.09855 10.2551 9.12012 10.1924C9.16327 10.0669 9.22489 9.88845 9.30078 9.67676C9.45201 9.25493 9.66091 8.69237 9.8877 8.1416C10.0676 7.70471 10.2727 7.2454 10.4775 6.86328C10.1195 6.44837 9.70485 6.0356 9.25684 5.68359C8.46229 5.05938 7.67861 4.70996 7 4.70996C6.14148 4.70996 5.14072 4.92849 4.375 5.54102C3.65084 6.12034 3 7.16096 3 9.11035C3.0001 10.5142 3.53539 12.0099 4.42285 13.5098C5.30639 15.0029 6.49992 16.4341 7.71777 17.6885C8.93241 18.9395 10.1511 19.9941 11.0674 20.7363C11.4342 21.0335 11.7525 21.2782 12 21.4658C12.2475 21.2782 12.5658 21.0335 12.9326 20.7363C13.8489 19.9941 15.0676 18.9395 16.2822 17.6885C17.5001 16.4341 18.6936 15.0029 19.5771 13.5098C20.4646 12.0099 20.9999 10.5142 21 9.11035C21 7.16096 20.3492 6.12034 19.625 5.54102C18.8593 4.92849 17.8585 4.70996 17 4.70996Z" fill="#555555"/>
</svg>
