<svg width="24" height="24" viewBox="0 0 24 24" fill="none" xmlns="http://www.w3.org/2000/svg">
<path fill-rule="evenodd" clip-rule="evenodd" d="M17 2C18.1414 2 19.6407 2.28212 20.875 3.26953C22.1506 4.29023 23 5.95002 23 8.40039C22.9999 10.2962 22.2851 12.1499 21.2979 13.8184C20.3065 15.4938 18.9998 17.0506 17.7178 18.3711C16.4326 19.6948 15.151 20.8036 14.1924 21.5801C13.7123 21.9689 13.3109 22.2762 13.0283 22.4873C12.887 22.5929 12.7747 22.6746 12.6973 22.7305C12.6588 22.7582 12.6292 22.7801 12.6084 22.7949C12.598 22.8023 12.5898 22.8084 12.584 22.8125C12.5811 22.8145 12.5788 22.8162 12.5771 22.8174C12.5763 22.818 12.5748 22.818 12.5742 22.8184C12.574 22.8185 12.572 22.8172 12 22L12.5732 22.8193C12.229 23.0602 11.771 23.0602 11.4268 22.8193L12 22C11.428 22.8172 11.427 22.8195 11.4268 22.8193L11.4258 22.8184C11.4252 22.818 11.4237 22.818 11.4229 22.8174C11.4212 22.8162 11.4189 22.8145 11.416 22.8125C11.4102 22.8084 11.402 22.8023 11.3916 22.7949C11.3708 22.7801 11.3412 22.7582 11.3027 22.7305C11.2253 22.6746 11.113 22.5929 10.9717 22.4873C10.6891 22.2762 10.2877 21.9689 9.80762 21.5801C8.84901 20.8036 7.56737 19.6948 6.28223 18.3711C5.00021 17.0506 3.69351 15.4938 2.70215 13.8184C1.71491 12.1499 1.0001 10.2962 1 8.40039C1 5.95002 1.84937 4.29023 3.125 3.26953C4.35927 2.28212 5.85855 2 7 2C8.3213 2 9.53781 2.65073 10.4932 3.40137C10.925 3.74073 11.3251 4.12033 11.6865 4.50781C11.8495 4.28063 12.0494 4.03653 12.293 3.79297C13.2179 2.86806 14.7174 2 17 2ZM17 4C16.5262 4 16.0022 4.17206 15.458 4.4873C14.8201 4.92465 14.3068 5.62282 13.8945 6.44727C13.6243 6.98771 13.4251 7.53516 13.2812 8H14C14.3565 8 14.6863 8.18973 14.8652 8.49805C15.0441 8.80634 15.045 9.18663 14.8682 9.49609L12.8682 12.9961C12.6432 13.3898 12.1814 13.5832 11.7432 13.4668C11.305 13.3504 11 12.9534 11 12.5V11H10C9.67857 11 9.37643 10.8457 9.18848 10.585C9.00052 10.3242 8.95011 9.98854 9.05176 9.68359C9.05199 9.68291 9.05234 9.68086 9.05273 9.67969C9.05357 9.67719 9.0551 9.67355 9.05664 9.66895C9.05973 9.65974 9.06353 9.64608 9.06934 9.62891C9.08095 9.59457 9.09855 9.54513 9.12012 9.48242C9.16327 9.35696 9.22489 9.17849 9.30078 8.9668C9.45201 8.54497 9.66091 7.98241 9.8877 7.43164C10.0676 6.99475 10.2727 6.53544 10.4775 6.15332C10.1195 5.73841 9.70485 5.32564 9.25684 4.97363C8.46229 4.34942 7.67861 4 7 4C6.14148 4 5.14072 4.21853 4.375 4.83105C3.65084 5.41038 3 6.451 3 8.40039C3.0001 9.80419 3.53539 11.2999 4.42285 12.7998C5.30639 14.293 6.49992 15.7241 7.71777 16.9785C8.93241 18.2296 10.1511 19.2842 11.0674 20.0264C11.4342 20.3235 11.7525 20.5682 12 20.7559C12.2475 20.5682 12.5658 20.3235 12.9326 20.0264C13.8489 19.2842 15.0676 18.2296 16.2822 16.9785C17.5001 15.7241 18.6936 14.293 19.5771 12.7998C20.4646 11.2999 20.9999 9.80419 21 8.40039C21 6.451 20.3492 5.41038 19.625 4.83105C18.8593 4.21853 17.8585 4 17 4Z" fill="#555555"/>
</svg>
