<svg width="24" height="24" viewBox="0 0 24 24" fill="none" xmlns="http://www.w3.org/2000/svg">
<path d="M12 1C18.0751 1 23 5.92487 23 12C23 18.0751 18.0751 23 12 23C6.54101 23 2.01315 19.023 1.15039 13.8086C0.471151 13.489 0 12.8004 0 12C0 10.8954 0.89543 10 2 10C3.10457 10 4 10.8954 4 12C4 12.6758 3.66363 13.2717 3.15039 13.6338C3.91905 17.8241 7.5875 21 12 21C16.9706 21 21 16.9706 21 12C21 7.02944 16.9706 3 12 3C9.54689 3 7.32457 3.98 5.7002 5.57227C5.30584 5.95885 4.67277 5.95287 4.28613 5.55859C3.89954 5.16424 3.90553 4.53116 4.2998 4.14453C6.28291 2.20046 9.00234 1 12 1ZM7.0498 7.0498C9.78347 4.31613 14.2165 4.31613 16.9502 7.0498C19.6839 9.78347 19.6839 14.2165 16.9502 16.9502C16.5597 17.3407 15.9257 17.3407 15.5352 16.9502C15.1446 16.5597 15.1446 15.9257 15.5352 15.5352C17.4878 13.5825 17.4878 10.4175 15.5352 8.46484C13.5825 6.51222 10.4175 6.51222 8.46484 8.46484C6.51222 10.4175 6.51222 13.5825 8.46484 15.5352C9.03887 16.1092 9.71755 16.5134 10.4395 16.75C10.806 16.293 11.3686 16 12 16C13.1046 16 14 16.8954 14 18C14 19.1046 13.1046 20 12 20C11.1605 20 10.4431 19.4822 10.1465 18.749C9.01265 18.4388 7.94035 17.8407 7.0498 16.9502C4.31613 14.2165 4.31613 9.78347 7.0498 7.0498ZM12 9C13.6569 9 15 10.3431 15 12C15 13.6569 13.6569 15 12 15C10.3431 15 9 13.6569 9 12C9 10.3431 10.3431 9 12 9ZM12 11C11.4477 11 11 11.4477 11 12C11 12.5523 11.4477 13 12 13C12.5523 13 13 12.5523 13 12C13 11.4477 12.5523 11 12 11Z" fill="#000"/>
</svg>
