<svg width="24" height="24" viewBox="0 0 24 24" fill="none" xmlns="http://www.w3.org/2000/svg">
<path d="M12 7C12.5523 7 13 7.44772 13 8V12.5859L15.707 15.293C16.0976 15.6835 16.0976 16.3165 15.707 16.707C15.3165 17.0976 14.6835 17.0976 14.293 16.707L11.293 13.707C11.1054 13.5195 11 13.2652 11 13V8C11 7.44772 11.4477 7 12 7Z" fill="#000"/>
<path fill-rule="evenodd" clip-rule="evenodd" d="M19.5 1C21.8892 1 24 3.11084 24 5.5C24 7.15046 23.3298 8.50133 22.3857 9.37402C22.7821 10.5096 23 11.7292 23 13C23 15.6777 22.0422 18.1306 20.4521 20.0381L22.707 22.293C23.0976 22.6835 23.0976 23.3165 22.707 23.707C22.3165 24.0976 21.6835 24.0976 21.293 23.707L19.0381 21.4521C17.1306 23.0422 14.6777 24 12 24C9.32205 24 6.86847 23.0424 4.96094 21.4521L2.70703 23.707C2.31651 24.0976 1.68349 24.0976 1.29297 23.707C0.902445 23.3165 0.902445 22.6835 1.29297 22.293L3.54688 20.0381C1.9571 18.1307 1 15.6775 1 13C1 11.7293 1.21698 10.5095 1.61328 9.37402C0.669483 8.50131 0 7.15015 0 5.5C0 3.11084 2.11084 1 4.5 1C6.15015 1 7.50131 1.66948 8.37402 2.61328C9.50949 2.21698 10.7293 2 12 2C13.2704 2 14.4898 2.21718 15.625 2.61328C16.4977 1.66923 17.8496 1 19.5 1ZM12 4C7.02895 4 3 8.02895 3 13C3 17.9711 7.02895 22 12 22C16.9711 22 21 17.9711 21 13C21 8.02895 16.9711 4 12 4ZM4.5 3C3.21541 3 2 4.21541 2 5.5C2 6.27603 2.21956 6.91225 2.53613 7.39258C3.47788 5.80644 4.80644 4.47788 6.39258 3.53613C5.91225 3.21956 5.27603 3 4.5 3ZM19.5 3C18.7236 3 18.0869 3.21932 17.6064 3.53613C19.1928 4.47782 20.521 5.80639 21.4629 7.39258C21.7796 6.9122 22 6.27627 22 5.5C22 4.21541 20.7846 3 19.5 3Z" fill="#000"/>
</svg>
