<svg width="24" height="24" viewBox="0 0 24 24" fill="none" xmlns="http://www.w3.org/2000/svg">
<path d="M21.0001 20C21.5524 20.0001 22.0001 20.4478 22.0001 21C22.0001 21.5522 21.5524 21.9999 21.0001 22H7.00015C6.44786 22 6.00015 21.5523 6.00015 21C6.00016 20.4477 6.44787 20 7.00015 20H21.0001Z" fill="#000"/>
<path d="M21.0001 16C21.5524 16.0001 22.0001 16.4478 22.0001 17C22.0001 17.5522 21.5524 17.9999 21.0001 18H11.0001C10.4479 18 10.0001 17.5523 10.0001 17C10.0002 16.4477 10.4479 16 11.0001 16H21.0001Z" fill="#000"/>
<path d="M6.96108 2.00001C7.19306 1.99904 7.41732 2.07868 7.59585 2.22364L7.66909 2.29005L11.7042 6.29005C12.0962 6.67887 12.0988 7.31196 11.7101 7.70411C11.3213 8.09617 10.6882 8.0987 10.296 7.70997L8.00015 5.43263V13C8.00015 13.5522 7.55236 13.9999 7.00015 14C6.44786 14 6.00015 13.5523 6.00015 13V5.39356L3.71011 7.70411C3.3213 8.09616 2.68822 8.09868 2.29605 7.70997C1.90397 7.32114 1.90141 6.68808 2.29019 6.29591L6.25503 2.29591C6.44173 2.10762 6.69593 2.00118 6.96108 2.00001Z" fill="#000"/>
<path d="M21.0001 12C21.5524 12.0001 22.0001 12.4478 22.0001 13C22.0001 13.5522 21.5524 13.9999 21.0001 14H15.0001C14.4479 14 14.0001 13.5523 14.0001 13C14.0002 12.4477 14.4479 12 15.0001 12H21.0001Z" fill="#000"/>
<path d="M21.0001 8.00001C21.5524 8.00009 22.0001 8.44778 22.0001 9.00001C22.0001 9.55224 21.5524 9.99993 21.0001 10H19.0001C18.4479 10 18.0001 9.55229 18.0001 9.00001C18.0002 8.44773 18.4479 8.00001 19.0001 8.00001H21.0001Z" fill="#000"/>
</svg>
