<svg width="24" height="24" viewBox="0 0 24 24" fill="none" xmlns="http://www.w3.org/2000/svg">
<path d="M17 7H7V21H17V7ZM22 6C22 4.34315 20.6569 3 19 3H5C3.34315 3 2 4.34315 2 6C2 7.65685 3.34315 9 5 9V7H4C3.44772 7 3 6.55228 3 6C3 5.44772 3.44772 5 4 5H20C20.5523 5 21 5.44772 21 6C21 6.55228 20.5523 7 20 7H19V9C20.6569 9 22 7.65685 22 6ZM24 6C24 8.76142 21.7614 11 19 11V21C19 22.1046 18.1046 23 17 23H7C5.89543 23 5 22.1046 5 21V11C2.23858 11 0 8.76142 0 6C0 3.23858 2.23858 1 5 1H19C21.7614 1 24 3.23858 24 6Z" fill="#555555"/>
<path d="M9 21C9 19.8954 8.10457 19 7 19C6.44772 19 6 18.5523 6 18C6 17.4477 6.44772 17 7 17L7.20605 17.0049C9.31944 17.1121 11 18.86 11 21C11 21.5523 10.5523 22 10 22C9.44772 22 9 21.5523 9 21ZM13 21C13 18.7909 14.7909 17 17 17C17.5523 17 18 17.4477 18 18C18 18.5523 17.5523 19 17 19C15.8954 19 15 19.8954 15 21C15 21.5523 14.5523 22 14 22C13.4477 22 13 21.5523 13 21Z" fill="#555555"/>
<path d="M14 12C14 11.0909 13.7223 10.3062 13.3213 9.77148C12.9205 9.2371 12.4431 9 12 9C11.5569 9 11.0795 9.2371 10.6787 9.77148C10.2777 10.3062 10 11.0909 10 12C10 12.9091 10.2777 13.6938 10.6787 14.2285C11.0795 14.7629 11.5569 15 12 15C12.4431 15 12.9205 14.7629 13.3213 14.2285C13.7223 13.6938 14 12.9091 14 12ZM16 12C16 13.3 15.6056 14.5157 14.9209 15.4287C14.2359 16.3418 13.2136 17 12 17C10.7864 17 9.76406 16.3418 9.0791 15.4287C8.39437 14.5157 8 13.3 8 12C8 10.7 8.39437 9.48426 9.0791 8.57129C9.76406 7.65821 10.7864 7 12 7C13.2136 7 14.2359 7.65821 14.9209 8.57129C15.6056 9.48426 16 10.7 16 12Z" fill="#555555"/>
</svg>
