<svg width="24" height="25" viewBox="0 0 24 25" fill="none" xmlns="http://www.w3.org/2000/svg">
<path d="M13.9996 14.71C14.2334 14.71 14.4605 14.7918 14.6402 14.9414L17.6402 17.4414C17.856 17.6213 17.9859 17.8844 17.9986 18.165C18.0112 18.4456 17.9052 18.7184 17.7066 18.917L15.2066 21.417C14.8161 21.8073 14.183 21.8075 13.7926 21.417C13.4023 21.0265 13.4023 20.3934 13.7926 20.0029L15.5172 18.2773L14.1275 17.1191C14.1123 17.1348 14.0973 17.1513 14.0816 17.167C13.8601 17.3885 13.5768 17.6361 13.2486 17.833C12.9257 18.0267 12.4953 18.21 11.9996 18.21C11.5039 18.2099 11.0735 18.0267 10.7506 17.833C10.4499 17.6526 10.1875 17.4291 9.97518 17.2227L8.91561 18.3887L10.6685 19.9668C11.079 20.3363 11.1122 20.9684 10.7428 21.3789C10.3733 21.7892 9.74108 21.8225 9.33065 21.4531L6.83065 19.2031C6.63304 19.0251 6.51389 18.7754 6.50057 18.5098C6.48734 18.2442 6.58059 17.9839 6.75936 17.7871L9.25936 15.0371L9.33456 14.9629C9.51666 14.8008 9.75338 14.7101 9.9996 14.71H13.9996Z" fill="#000"/>
<path d="M13.9996 8.70996C14.2266 8.70996 14.4473 8.78698 14.6246 8.92871L19.6246 12.9287C20.0559 13.2737 20.1259 13.9037 19.7808 14.335C19.4358 14.7661 18.8058 14.8362 18.3746 14.4912L14.9996 11.791V12.71C14.9996 13.2622 14.5519 13.71 13.9996 13.71H9.9996C9.44749 13.7098 8.9996 13.2621 8.9996 12.71V11.791L5.6246 14.4912C5.19334 14.836 4.56329 14.7661 4.21835 14.335C3.87357 13.9038 3.9436 13.2737 4.3746 12.9287L9.3746 8.92871L9.51522 8.83496C9.66255 8.75341 9.82939 8.71003 9.9996 8.70996H13.9996Z" fill="#000"/>
<path d="M11.9996 3.70996C13.1042 3.70996 13.9996 4.60539 13.9996 5.70996C13.9996 6.81453 13.1042 7.70996 11.9996 7.70996C10.8952 7.70976 9.9996 6.8144 9.9996 5.70996C9.9996 4.60552 10.8952 3.71017 11.9996 3.70996Z" fill="#000"/>
</svg>
