<svg width="24" height="24" viewBox="0 0 24 24" fill="none" xmlns="http://www.w3.org/2000/svg">
<path d="M6.5 8C7.32843 8 8 8.67157 8 9.5V14.5C8 15.3284 7.32843 16 6.5 16C5.67157 16 5 15.3284 5 14.5V9.5C5 8.67157 5.67157 8 6.5 8Z" fill="#555555"/>
<path fill-rule="evenodd" clip-rule="evenodd" d="M17 4C19.7614 4 22 6.23858 22 9C23.1046 9 24 9.89543 24 11V13C24 14.1046 23.1046 15 22 15C22 17.7614 19.7614 20 17 20H6C3.23858 20 1 17.7614 1 15V9C1 6.23858 3.23858 4 6 4H17ZM6 6C4.34315 6 3 7.34315 3 9V15C3 16.6569 4.34315 18 6 18H17C18.6569 18 20 16.6569 20 15V9C20 7.34315 18.6569 6 17 6H6Z" fill="#555555"/>
</svg>
