<svg width="24" height="24" viewBox="0 0 24 24" fill="none" xmlns="http://www.w3.org/2000/svg">
<path fill-rule="evenodd" clip-rule="evenodd" d="M13.4639 1C14.8227 1.00019 16.012 1.91364 16.3623 3.22656L18.7031 12.0088C18.8014 12.003 18.9003 12 19 12C21.7614 12 24 14.2386 24 17C24 19.7614 21.7614 22 19 22C16.2386 22 14 19.7614 14 17C14 15.0394 15.1287 13.3428 16.7715 12.5234L16.4863 11.457L9.73535 15.3955C9.90599 15.8993 10 16.4386 10 17C10 19.7614 7.76142 22 5 22C2.23858 22 0 19.7614 0 17C0 14.2386 2.23858 12 5 12C5.34622 12 5.68434 12.0346 6.01074 12.1016L6.93066 9.95508L6.50684 8.68359C6.37066 8.27543 5.98889 8.00005 5.55859 8H3C2.44772 8 2 7.55228 2 7C2 6.44772 2.44772 6 3 6H5.55859C6.84984 6.00005 7.99597 6.82677 8.4043 8.05176L8.7207 9H15.832L14.4297 3.74219C14.3129 3.30464 13.9167 3.00019 13.4639 3H12C11.4477 3 11 2.55228 11 2C11 1.44772 11.4477 1 12 1H13.4639ZM5 14C3.34315 14 2 15.3431 2 17C2 18.6569 3.34315 20 5 20C6.65685 20 8 18.6569 8 17C8 16.808 7.98076 16.6204 7.94629 16.4385L5.50391 17.8643C5.13124 18.0815 4.66114 18.0347 4.33789 17.749C4.0147 17.4633 3.91124 17.003 4.08105 16.6064L5.19434 14.0068C5.13007 14.0027 5.0653 14 5 14ZM19.9658 16.7422C20.1081 17.2757 19.7913 17.8234 19.2578 17.9658C18.7243 18.1081 18.1766 17.7913 18.0342 17.2578L17.3047 14.5244C16.5167 15.065 16 15.9722 16 17C16 18.6569 17.3431 20 19 20C20.6569 20 22 18.6569 22 17C22 15.423 20.7832 14.1308 19.2373 14.0098L19.9658 16.7422ZM7.84766 12.8906C8.17025 13.1146 8.46537 13.3752 8.72656 13.667L13.2998 11H8.65918L7.84766 12.8906Z" fill="#555555"/>
</svg>
