<svg width="24" height="24" viewBox="0 0 24 24" fill="none" xmlns="http://www.w3.org/2000/svg">
<path fill-rule="evenodd" clip-rule="evenodd" d="M19.1543 16.0039C20.7394 16.0842 22 17.3949 22 19C22 20.6051 20.7394 21.9158 19.1543 21.9961L19 22H5C3.34315 22 2 20.6569 2 19C2 17.3431 3.34315 16 5 16H19L19.1543 16.0039ZM5 18C4.44772 18 4 18.4477 4 19C4 19.5523 4.44772 20 5 20H12.1738C12.0631 19.6869 12 19.351 12 19C12 18.649 12.0631 18.3131 12.1738 18H5ZM15 18C14.4477 18 14 18.4477 14 19C14 19.5523 14.4477 20 15 20H19L19.1025 19.9951C19.6067 19.9438 20 19.5177 20 19C20 18.4823 19.6067 18.0562 19.1025 18.0049L19 18H15Z" fill="#555555"/>
<path fill-rule="evenodd" clip-rule="evenodd" d="M19.1543 9.00391C20.7394 9.08421 22 10.3949 22 12C22 13.6051 20.7394 14.9158 19.1543 14.9961L19 15H5C3.34315 15 2 13.6569 2 12C2 10.3431 3.34315 9 5 9H19L19.1543 9.00391ZM5 11C4.44772 11 4 11.4477 4 12C4 12.5523 4.44772 13 5 13H12.1738C12.0631 12.6869 12 12.351 12 12C12 11.649 12.0631 11.3131 12.1738 11H5ZM15 11C14.4477 11 14 11.4477 14 12C14 12.5523 14.4477 13 15 13H19L19.1025 12.9951C19.6067 12.9438 20 12.5177 20 12C20 11.4823 19.6067 11.0562 19.1025 11.0049L19 11H15Z" fill="#555555"/>
<path fill-rule="evenodd" clip-rule="evenodd" d="M19.1543 2.00391C20.7394 2.08421 22 3.39489 22 5C22 6.60511 20.7394 7.91579 19.1543 7.99609L19 8H5C3.34315 8 2 6.65685 2 5C2 3.34315 3.34315 2 5 2H19L19.1543 2.00391ZM5 4C4.44772 4 4 4.44772 4 5C4 5.55228 4.44772 6 5 6H12.1738C12.0631 5.68694 12 5.351 12 5C12 4.649 12.0631 4.31306 12.1738 4H5ZM15 4C14.4477 4 14 4.44772 14 5C14 5.55228 14.4477 6 15 6H19L19.1025 5.99512C19.6067 5.94379 20 5.51768 20 5C20 4.48232 19.6067 4.05621 19.1025 4.00488L19 4H15Z" fill="#555555"/>
</svg>
