<svg width="24" height="24" viewBox="0 0 24 24" fill="none" xmlns="http://www.w3.org/2000/svg">
<path fill-rule="evenodd" clip-rule="evenodd" d="M2 4C2 2.89543 2.89543 2 4 2H20C21.1046 2 22 2.89543 22 4V6C22 7.10457 21.1046 8 20 8H4C2.89543 8 2 7.10457 2 6V4ZM4 4L4 6H16V4H4ZM18 4V6H20V4H18ZM2 11C2 9.89543 2.89543 9 4 9H20C21.1046 9 22 9.89543 22 11V13C22 14.1046 21.1046 15 20 15H4C2.89543 15 2 14.1046 2 13V11ZM4 11L4 13H16V11H4ZM20 13H18V11H20V13ZM4 16C2.89543 16 2 16.8954 2 18V20C2 21.1046 2.89543 22 4 22H20C21.1046 22 22 21.1046 22 20V18C22 16.8954 21.1046 16 20 16H4ZM4 20L4 18H16V20H4ZM18 20H20V18H18V20Z" fill="black"/>
</svg>
