<svg width="24" height="24" viewBox="0 0 24 24" fill="none" xmlns="http://www.w3.org/2000/svg">
<path fill-rule="evenodd" clip-rule="evenodd" d="M11.5527 2.10542C11.8915 1.93606 12.2966 1.97299 12.5996 2.20015L18.5996 6.70015L18.6895 6.77534C18.8866 6.9629 19 7.22448 19 7.49995C19 7.77541 18.8866 8.03702 18.6895 8.22456L18.5996 8.29976L13.957 11.7802L18.6445 15.7353L18.7275 15.8134C18.9083 16.005 19.0075 16.2619 19 16.5283C18.9912 16.8328 18.8433 17.117 18.5996 17.2998L12.5996 21.7998C12.2966 22.0269 11.8914 22.0638 11.5527 21.8945C11.214 21.7251 11 21.3787 11 21V13.999L6.59961 17.2998C6.15781 17.6309 5.53153 17.5413 5.2002 17.0996C4.86898 16.6578 4.95867 16.0315 5.4004 15.7001L10.7471 11.6894L5.35547 7.1396L5.28028 7.06929C4.92809 6.7051 4.90188 6.12611 5.23536 5.73042C5.56928 5.33466 6.14505 5.26266 6.56348 5.54878L6.64454 5.6103L11 9.28511V2.99995L11.0098 2.85933C11.0555 2.53716 11.2564 2.25359 11.5527 2.10542ZM13 19L16.3945 16.4541L13 13.5888V19ZM13 9.99995L16.334 7.49995L13 4.99898V9.99995Z" fill="#000"/>
</svg>
