<svg width="24" height="24" viewBox="0 0 24 24" fill="none" xmlns="http://www.w3.org/2000/svg">
<path fill-rule="evenodd" clip-rule="evenodd" d="M11.5527 2.10542C11.8914 1.93606 12.2966 1.97299 12.5996 2.20015L18.5996 6.70015L18.6894 6.77534C18.8866 6.9629 19 7.22448 19 7.49995C18.9999 7.77541 18.8866 8.03702 18.6894 8.22456L18.5996 8.29976L13.957 11.7802L18.6445 15.7353L18.7275 15.8134C18.9083 16.005 19.0075 16.2619 19 16.5283C18.9912 16.8328 18.8433 17.117 18.5996 17.2998L12.5996 21.7998C12.2966 22.0269 11.8914 22.0638 11.5527 21.8945C11.214 21.7251 11 21.3787 11 21V13.999L6.59958 17.2998C6.15778 17.6309 5.53149 17.5413 5.20017 17.0996C4.86895 16.6578 4.95864 16.0315 5.40036 15.7001L10.747 11.6894L5.35544 7.1396L5.28025 7.06929C4.92806 6.7051 4.90185 6.12611 5.23533 5.73042C5.56925 5.33466 6.14502 5.26266 6.56345 5.54878L6.64451 5.6103L11 9.28511V2.99995L11.0097 2.85933C11.0554 2.53716 11.2564 2.25359 11.5527 2.10542ZM13 19L16.3945 16.4541L13 13.5888V19ZM13 9.99995L16.334 7.49995L13 4.99898V9.99995Z" fill="#000"/>
</svg>
