<svg width="24" height="24" viewBox="0 0 24 24" fill="none" xmlns="http://www.w3.org/2000/svg">
<path d="M9 17C9 15.8954 8.10457 15 7 15C5.89543 15 5 15.8954 5 17C5 18.1046 5.89543 19 7 19C8.10457 19 9 18.1046 9 17ZM13 17C13 14.7909 14.7909 13 17 13C19.2091 13 21 14.7909 21 17C21 19.2091 19.2091 21 17 21C14.7909 21 13 19.2091 13 17ZM3 7C3 4.79086 4.79086 3 7 3C9.20914 3 11 4.79086 11 7C11 9.20914 9.20914 11 7 11C4.79086 11 3 9.20914 3 7ZM19 7C19 5.89543 18.1046 5 17 5C15.8954 5 15 5.89543 15 7C15 8.10457 15.8954 9 17 9C18.1046 9 19 8.10457 19 7ZM11 17C11 19.2091 9.20914 21 7 21C4.79086 21 3 19.2091 3 17C3 14.7909 4.79086 13 7 13C9.20914 13 11 14.7909 11 17ZM21 7C21 9.20914 19.2091 11 17 11C14.7909 11 13 9.20914 13 7C13 4.79086 14.7909 3 17 3C19.2091 3 21 4.79086 21 7Z" fill="#555555"/>
</svg>
