<svg width="24" height="24" viewBox="0 0 24 24" fill="none" xmlns="http://www.w3.org/2000/svg">
<path fill-rule="evenodd" clip-rule="evenodd" d="M18 0C18.5523 0 19 0.447715 19 1C19 1.55228 18.5523 2 18 2C17.5744 2 17.3331 2.0541 17.2061 2.10352C17.0976 2.14567 17.082 2.17969 17.082 2.17969C17.0718 2.19498 17.0423 2.24914 17.0225 2.39746C17.0016 2.55419 17 2.73605 17 3V5.10156C17.8588 5.97809 18.4869 7.07981 18.792 8.30957C20.6989 7.30477 22 5.30523 22 3C22 2.44772 22.4477 2 23 2C23.5523 2 24 2.44772 24 3C24 6.35705 21.9314 9.22903 19 10.416V15.582C21.931 16.7686 24 19.6415 24 23C24 23.5523 23.5523 24 23 24C22.4477 24 22 23.5523 22 23C22 20.6958 20.7004 18.6936 18.793 17.6885C18.0373 20.7386 15.2837 23 12 23C8.71625 23 5.96161 20.7387 5.20605 17.6885C3.29908 18.6937 2 20.6961 2 23C2 23.5523 1.55228 24 1 24C0.447715 24 0 23.5523 0 23C0 19.6416 2.06912 16.7697 5 15.583V10.416C2.06862 9.22903 0 6.35705 0 3C0 2.44772 0.447715 2 1 2C1.55228 2 2 2.44772 2 3C2 5.30492 3.30055 7.30464 5.20703 8.30957C5.51207 7.07972 6.14111 5.97815 7 5.10156V3C7 2.73605 6.99844 2.55419 6.97754 2.39746C6.95773 2.24914 6.92816 2.19498 6.91797 2.17969C6.91797 2.17969 6.90236 2.14568 6.79395 2.10352C6.66688 2.0541 6.42561 2 6 2C5.44772 2 5 1.55228 5 1C5 0.447715 5.44772 0 6 0C7.13206 0 8.05709 0.2829 8.58203 1.07031C9.03257 1.74612 9 2.58635 9 3V3.67383C9.90928 3.24187 10.9264 3 12 3C13.0736 3 14.0907 3.24187 15 3.67383V3C15 2.58635 14.9674 1.74612 15.418 1.07031C15.9429 0.2829 16.8679 0 18 0ZM17 10.9355C16.6723 10.9764 16.3388 11 16 11H8C7.66123 11 7.32769 10.9764 7 10.9355V16C7 18.7614 9.23858 21 12 21C14.7614 21 17 18.7614 17 16V10.9355ZM12 5C9.60458 5 7.60287 6.68455 7.11426 8.93359C7.40337 8.97638 7.69899 9 8 9H16C16.3007 9 16.596 8.97629 16.8848 8.93359C16.3961 6.68465 14.3953 5 12 5Z" fill="#000"/>
</svg>
