<svg width="24" height="24" viewBox="0 0 24 24" fill="none" xmlns="http://www.w3.org/2000/svg">
<path fill-rule="evenodd" clip-rule="evenodd" d="M2 1C2.5522 1 2.99986 1.44783 3 2V8C3.0001 9.10448 3.89549 10 5 10H8C9.10451 10 9.9999 9.10448 10 8V2H12V8C11.9999 9.86376 10.7252 11.43 9 11.874V20.5C8.9999 21.8806 7.88065 23 6.5 23C5.11935 23 4.0001 21.8806 4 20.5V11.874C2.27483 11.43 1.00009 9.86376 1 8V2C1.00014 1.44783 1.4478 1 2 1ZM6 20.5C6.0001 20.7761 6.22392 21 6.5 21C6.77608 21 6.9999 20.7761 7 20.5V12H6V20.5Z" fill="#000"/>
<path fill-rule="evenodd" clip-rule="evenodd" d="M17.1631 0.11719L17.5381 0.191409C18.4617 0.392942 19.7063 0.81843 20.7822 1.73047C22.0522 2.80719 22.9999 4.49002 23 7V9C22.9999 10.5752 22.3209 11.6057 21.4561 12.2158C21.0289 12.5171 20.6441 12.8305 20.3721 13.1602C20.1035 13.4856 20.0001 13.7591 20 14V20.4951C20 21.8832 18.8814 23 17.5 23C16.111 23 15.0001 21.8781 15 20.5V1.99512C15.0001 0.98472 15.8063 0.0280005 16.9336 0.0908228L17.1631 0.11719ZM17 20.5C17.0001 20.7788 17.2208 21 17.5 21C17.7755 21 18 20.7799 18 20.4951V14C18.0001 13.1367 18.3849 12.4272 18.8301 11.8877C19.272 11.3522 19.8273 10.9163 20.3027 10.5811C20.6461 10.3389 21 9.91337 21 9V7C20.9999 5.05851 20.2959 3.94049 19.4883 3.25586C18.7047 2.59171 17.7448 2.27179 17 2.12207V20.5Z" fill="#000"/>
<path d="M5 1C5.5522 1 5.99986 1.44783 6 2V6C5.9999 6.5522 5.55222 7 5 7C4.44778 7 4.0001 6.5522 4 6V2C4.00014 1.44783 4.4478 1 5 1Z" fill="#000"/>
<path d="M8 1C8.5522 1 8.99986 1.44783 9 2V6C8.9999 6.5522 8.55222 7 8 7C7.44778 7 7.0001 6.5522 7 6V2C7.00014 1.44783 7.4478 1 8 1Z" fill="#000"/>
</svg>
