<svg width="24" height="24" viewBox="0 0 24 24" fill="none" xmlns="http://www.w3.org/2000/svg">
<path d="M7 16C7.55228 16 8 16.4477 8 17C8 17.5523 7.55228 18 7 18H6C5.44772 18 5 17.5523 5 17C5 16.4477 5.44772 16 6 16H7ZM18 16C18.5523 16 19 16.4477 19 17C19 17.5523 18.5523 18 18 18H11C10.4477 18 10 17.5523 10 17C10 16.4477 10.4477 16 11 16H18ZM7 12C7.55228 12 8 12.4477 8 13C8 13.5523 7.55228 14 7 14H6C5.44772 14 5 13.5523 5 13C5 12.4477 5.44772 12 6 12H7ZM18 12C18.5523 12 19 12.4477 19 13C19 13.5523 18.5523 14 18 14H11C10.4477 14 10 13.5523 10 13C10 12.4477 10.4477 12 11 12H18ZM7 8C7.55228 8 8 8.44772 8 9C8 9.55228 7.55228 10 7 10H6C5.44772 10 5 9.55228 5 9C5 8.44772 5.44772 8 6 8H7ZM18 8C18.5523 8 19 8.44772 19 9C19 9.55228 18.5523 10 18 10H11C10.4477 10 10 9.55228 10 9C10 8.44772 10.4477 8 11 8H18ZM15 4V3H9V4C9 4.55228 8.55228 5 8 5C7.44772 5 7 4.55228 7 4V3H6C4.34315 3 3 4.34315 3 6V18C3 19.6569 4.34315 21 6 21H18C19.6569 21 21 19.6569 21 18V6C21 4.34315 19.6569 3 18 3H17V4C17 4.55228 16.5523 5 16 5C15.4477 5 15 4.55228 15 4ZM23 18C23 20.7614 20.7614 23 18 23H6C3.23858 23 1 20.7614 1 18V6C1 3.23858 3.23858 1 6 1H7C7 0.447715 7.44772 0 8 0C8.55228 0 9 0.447715 9 1H15C15 0.447715 15.4477 0 16 0C16.5523 0 17 0.447715 17 1H18C20.7614 1 23 3.23858 23 6V18Z" fill="#555555"/>
</svg>
