<svg width="24" height="25" viewBox="0 0 24 25" fill="none" xmlns="http://www.w3.org/2000/svg">
<path d="M10 8.27686C11.1046 8.27686 12 9.17229 12 10.2769V14.2769C12 15.3814 11.1046 16.2769 10 16.2769H7C5.89543 16.2769 5 15.3814 5 14.2769V10.2769C5 9.17229 5.89543 8.27686 7 8.27686H10Z" fill="#555555"/>
<path fill-rule="evenodd" clip-rule="evenodd" d="M17 4.27686C19.7614 4.27686 22 6.51543 22 9.27686C23.1046 9.27686 24 10.1723 24 11.2769V13.2769C24 14.3814 23.1046 15.2769 22 15.2769C22 18.0383 19.7614 20.2769 17 20.2769H6C3.23858 20.2769 1 18.0383 1 15.2769V9.27686C1 6.51543 3.23858 4.27686 6 4.27686H17ZM6 6.27686C4.34315 6.27686 3 7.62 3 9.27686V15.2769C3 16.9337 4.34315 18.2769 6 18.2769H17C18.6569 18.2769 20 16.9337 20 15.2769V9.27686C20 7.62 18.6569 6.27686 17 6.27686H6Z" fill="#555555"/>
</svg>
