<?xml version="1.0" encoding="UTF-8"?>
<svg width="24px" height="24px" viewBox="0 0 24 24" version="1.1" xmlns="http://www.w3.org/2000/svg" xmlns:xlink="http://www.w3.org/1999/xlink">
    <!-- Generator: Sketch 46 (44423) - http://www.bohemiancoding.com/sketch -->
    <title>cart</title>
    <desc>Created with Sketch.</desc>
    <defs></defs>
    <g id="Icons" stroke="none" stroke-width="1" fill="none" fill-rule="evenodd">
        <g id="cart" stroke="#000000" stroke-width="2">
            <path d="M5,5 L22,5 L20,14 L7,14 L4,2 L0,2 M7,14 L8,18 L21,18 M19,23 C18.4475,23 18,22.5525 18,22 C18,21.4475 18.4475,21 19,21 C19.5525,21 20,21.4475 20,22 C20,22.5525 19.5525,23 19,23 Z M9,23 C8.4475,23 8,22.5525 8,22 C8,21.4475 8.4475,21 9,21 C9.5525,21 10,21.4475 10,22 C10,22.5525 9.5525,23 9,23 Z" id="Cart"></path>
        </g>
    </g>
</svg>