<svg width="24" height="25" viewBox="0 0 24 25" fill="none" xmlns="http://www.w3.org/2000/svg">
<path d="M12 16.354C12.5523 16.354 13 16.8017 13 17.354V17.4536C13 18.0059 12.5523 18.4536 12 18.4536C11.4477 18.4536 11 18.0059 11 17.4536V17.354C11 16.8017 11.4477 16.354 12 16.354Z" fill="#555555"/>
<path d="M12 6.95361C12.5523 6.95361 13 7.40133 13 7.95361V13.9536C13 14.5059 12.5523 14.9536 12 14.9536C11.4477 14.9536 11 14.5059 11 13.9536V7.95361C11 7.40133 11.4477 6.95361 12 6.95361Z" fill="#555555"/>
<path fill-rule="evenodd" clip-rule="evenodd" d="M12 1.45361C18.0751 1.45361 23 6.37848 23 12.4536C23 18.5287 18.0751 23.4536 12 23.4536C5.92487 23.4536 1 18.5287 1 12.4536C1 6.37848 5.92487 1.45361 12 1.45361ZM12 3.45361C7.02944 3.45361 3 7.48305 3 12.4536C3 17.4242 7.02944 21.4536 12 21.4536C16.9706 21.4536 21 17.4242 21 12.4536C21 7.48305 16.9706 3.45361 12 3.45361Z" fill="#555555"/>
</svg>
