<svg width="24" height="25" viewBox="0 0 24 25" fill="none" xmlns="http://www.w3.org/2000/svg">
<path d="M18 17.2769C18.5523 17.2769 19 17.7246 19 18.2769C19 18.8291 18.5523 19.2769 18 19.2769H6C5.44772 19.2769 5 18.8291 5 18.2769C5 17.7246 5.44772 17.2769 6 17.2769H18Z" fill="#555555"/>
<path d="M6.29297 7.56982C6.65908 7.20371 7.23808 7.18111 7.63086 7.50146L7.70703 7.56982L10.707 10.5698L10.7734 10.6431C10.9193 10.821 11 11.0447 11 11.2769C11 11.509 10.9193 11.7327 10.7734 11.9106L10.707 11.9839L7.70703 14.9839C7.3165 15.3744 6.68349 15.3744 6.29297 14.9839C5.90246 14.5934 5.90245 13.9603 6.29297 13.5698L8.58594 11.2769L6.29297 8.98389L6.22461 8.90771C5.90426 8.51495 5.92687 7.93594 6.29297 7.56982Z" fill="#555555"/>
<path d="M13 4.27686C13.5523 4.27686 14 4.72457 14 5.27686V5.28662C14 5.83891 13.5523 6.28662 13 6.28662C12.4477 6.28662 12 5.83891 12 5.28662V5.27686C12 4.72457 12.4477 4.27686 13 4.27686Z" fill="#555555"/>
<path d="M16 4.27686C16.5523 4.27686 17 4.72457 17 5.27686V5.28662C17 5.83891 16.5523 6.28662 16 6.28662C15.4477 6.28662 15 5.83891 15 5.28662V5.27686C15 4.72457 15.4477 4.27686 16 4.27686Z" fill="#555555"/>
<path d="M19 4.27686C19.5523 4.27686 20 4.72457 20 5.27686V5.28662C20 5.83891 19.5523 6.28662 19 6.28662C18.4477 6.28662 18 5.83891 18 5.28662V5.27686C18 4.72457 18.4477 4.27686 19 4.27686Z" fill="#555555"/>
<path fill-rule="evenodd" clip-rule="evenodd" d="M20 1.27686C21.6569 1.27686 23 2.62 23 4.27686V20.2769C23 21.9337 21.6569 23.2769 20 23.2769H4C2.34315 23.2769 1 21.9337 1 20.2769V4.27686C1 2.62 2.34315 1.27686 4 1.27686H20ZM4 3.27686C3.44772 3.27686 3 3.72457 3 4.27686V20.2769C3 20.8291 3.44772 21.2769 4 21.2769H20C20.5523 21.2769 21 20.8291 21 20.2769V4.27686C21 3.72457 20.5523 3.27686 20 3.27686H4Z" fill="#555555"/>
</svg>
