<svg width="24" height="24" viewBox="0 0 24 24" fill="none" xmlns="http://www.w3.org/2000/svg">
<path d="M21.293 1.29302C21.6835 0.902492 22.3166 0.902492 22.7071 1.29302C23.0975 1.68355 23.0976 2.31658 22.7071 2.70708L13.4141 12L22.7071 21.293C23.0975 21.6835 23.0976 22.3166 22.7071 22.7071C22.3166 23.0976 21.6835 23.0975 21.293 22.7071L12 13.4141L2.70708 22.7071C2.31658 23.0976 1.68355 23.0975 1.29302 22.7071C0.902492 22.3166 0.902492 21.6835 1.29302 21.293L10.586 12L1.29302 2.70708C0.902491 2.31655 0.902491 1.68354 1.29302 1.29302C1.68354 0.902491 2.31655 0.902491 2.70708 1.29302L12 10.586L21.293 1.29302Z" fill="#000"/>
</svg>
