<svg width="24" height="24" viewBox="0 0 24 24" fill="none" xmlns="http://www.w3.org/2000/svg">
<path d="M7.75 7C8.6466 7 9.50833 7.2265 10.1699 7.74316C10.8574 8.28003 11.25 9.07302 11.25 10V11H8.96094L8.97852 9.98242C8.98404 9.65251 8.86507 9.44009 8.69238 9.29297C8.50147 9.13036 8.18269 9 7.75 9C7.31731 9 6.99853 9.13036 6.80762 9.29297C6.63493 9.44009 6.51596 9.65251 6.52148 9.98242V14C6.52148 14.3354 6.64561 14.5556 6.82324 14.707C7.01704 14.8721 7.33233 15 7.75 15C8.16767 15 8.48297 14.8721 8.67676 14.707C8.85439 14.5556 8.97852 14.3354 8.97852 14V13H11.25V14C11.25 14.9051 11.0194 15.7757 10.2656 16.3555C9.58251 16.8807 8.66726 17 7.75 17C6.83274 17 5.91748 16.8807 5.23438 16.3555C4.48065 15.7757 4.25 14.9051 4.25 14V10C4.25 9.07302 4.64263 8.28003 5.33008 7.74316C5.99167 7.2265 6.8534 7 7.75 7Z" fill="#000"/>
<path d="M15.75 7C16.6466 7 17.5083 7.2265 18.1699 7.74316C18.8574 8.28003 19.25 9.07302 19.25 10V11H16.9609L16.9785 9.98242C16.984 9.65251 16.8651 9.44009 16.6924 9.29297C16.5015 9.13036 16.1827 9 15.75 9C15.3173 9 14.9985 9.13036 14.8076 9.29297C14.6349 9.44009 14.516 9.65251 14.5215 9.98242V14C14.5215 14.3354 14.6456 14.5556 14.8232 14.707C15.017 14.8721 15.3323 15 15.75 15C16.1677 15 16.483 14.8721 16.6768 14.707C16.8544 14.5556 16.9785 14.3354 16.9785 14V13H19.25V14C19.25 14.9051 19.0194 15.7757 18.2656 16.3555C17.5825 16.8807 16.6673 17 15.75 17C14.8327 17 13.9175 16.8807 13.2344 16.3555C12.4806 15.7757 12.25 14.9051 12.25 14V10C12.25 9.07302 12.6426 8.28003 13.3301 7.74316C13.9917 7.2265 14.8534 7 15.75 7Z" fill="#000"/>
<path fill-rule="evenodd" clip-rule="evenodd" d="M12 3C14.3807 3 16.3143 3.06231 17.8633 3.27539C19.4058 3.48763 20.6721 3.86202 21.6465 4.56348C23.6723 6.02204 24 8.55789 24 12C24 15.4421 23.6723 17.978 21.6465 19.4365C20.6721 20.138 19.4058 20.5124 17.8633 20.7246C16.3143 20.9377 14.3807 21 12 21C9.61931 21 7.68568 20.9377 6.13672 20.7246C4.59419 20.5124 3.32786 20.138 2.35352 19.4365C0.327727 17.978 0 15.4421 0 12C0 8.55789 0.327727 6.02204 2.35352 4.56348C3.32786 3.86202 4.59419 3.48763 6.13672 3.27539C7.68568 3.06231 9.61931 3 12 3ZM12 5C9.63096 5 7.81426 5.06275 6.41016 5.25586C4.99989 5.44986 4.10951 5.76315 3.52148 6.18652C2.42243 6.97799 2 8.44233 2 12C2 15.5577 2.42243 17.022 3.52148 17.8135C4.10951 18.2369 4.99989 18.5501 6.41016 18.7441C7.81426 18.9373 9.63096 19 12 19C14.369 19 16.1857 18.9373 17.5898 18.7441C19.0001 18.5501 19.8905 18.2369 20.4785 17.8135C21.5776 17.022 22 15.5577 22 12C22 8.44233 21.5776 6.97799 20.4785 6.18652C19.8905 5.76315 19.0001 5.44986 17.5898 5.25586C16.1857 5.06275 14.369 5 12 5Z" fill="#000"/>
</svg>
