<svg width="24" height="24" viewBox="0 0 24 24" fill="none" xmlns="http://www.w3.org/2000/svg">
<path fill-rule="evenodd" clip-rule="evenodd" d="M14 10C15.6569 10 17 11.3431 17 13V16C17 17.6569 15.6569 19 14 19H13V21H15C15.5523 21 16 21.4477 16 22C16 22.5523 15.5523 23 15 23H9C8.44771 23 8 22.5523 8 22C8 21.4477 8.44771 21 9 21H11V19H10C8.34315 19 7 17.6569 7 16V13C7 11.3431 8.34315 10 10 10H14ZM10 12C9.44772 12 9 12.4477 9 13V16C9 16.5523 9.44772 17 10 17H14C14.5523 17 15 16.5523 15 16V13C15 12.4477 14.5523 12 14 12H10Z" fill="#000"/>
<path d="M13 1C14.5767 1 16.079 1.25646 17.2061 2.06152C18.4004 2.91461 19 4.25341 19 6L19.0215 6.03027C19.0546 6.06549 19.1157 6.10291 19.1914 6.11816L19.4463 6.17578C22.0612 6.82336 24 9.18419 24 12C24 14.9038 21.9382 17.3238 19.1992 17.8799L19.0977 17.8955C18.5933 17.9456 18.1225 17.606 18.0195 17.0986C17.9099 16.5576 18.2598 16.0299 18.8008 15.9199L18.9707 15.8818C20.7109 15.4485 22 13.8736 22 12C22 10.1246 20.7084 8.54886 18.9658 8.11719L18.7959 8.0791C17.9096 7.90039 17 7.14253 17 6C17 4.74659 16.5996 4.08539 16.0439 3.68848C15.421 3.24354 14.4233 3 13 3H11C9.57673 3 8.57896 3.24354 7.95605 3.68848C7.40038 4.08539 7 4.74659 7 6H11C11.5523 6 12 6.44772 12 7C12 7.55228 11.5523 8 11 8H6C3.79086 8 2 9.79086 2 12C2 13.8736 3.2891 15.4485 5.0293 15.8818L5.19922 15.9199L5.29785 15.9453C5.78187 16.0957 6.08327 16.5913 5.98047 17.0986C5.87747 17.606 5.40668 17.9456 4.90234 17.8955L4.80078 17.8799L4.5459 17.8223C1.93491 17.1719 0 14.813 0 12C0 9.02706 2.16237 6.56013 5 6.08398V6C5 4.25341 5.59962 2.91461 6.79395 2.06152C7.92104 1.25646 9.42327 1 11 1H13Z" fill="#000"/>
</svg>
