<?xml version="1.0" encoding="UTF-8"?>
<svg width="24px" height="24px" viewBox="0 0 24 24" version="1.1" xmlns="http://www.w3.org/2000/svg" xmlns:xlink="http://www.w3.org/1999/xlink">
    <!-- Generator: Sketch 46 (44423) - http://www.bohemiancoding.com/sketch -->
    <title>cloud-software</title>
    <desc>Created with Sketch.</desc>
    <defs></defs>
    <g id="Icons" stroke="none" stroke-width="1" fill="none" fill-rule="evenodd">
        <g id="cloud-software" stroke="#000000" stroke-width="2">
            <path d="M8,23 L16,23 L16,12 L8,12 L8,23 Z M8,16 L16,16 M12,12 L12,16 M6,6 L6,5 C6,2 7.5,1 10,1 L14,1 C16.5,1 18,2.5 18,5 L18,6 C21,6 23,8 23,11 C23,14 21,16 18,16 M14,6 L6,6 C3,6 1,7.5 1,11 C1,14.5 3,16 6,16" id="Group"></path>
        </g>
    </g>
</svg>