<svg width="24" height="24" viewBox="0 0 24 24" fill="none" xmlns="http://www.w3.org/2000/svg">
<path d="M23.4141 2L19.2764 6.13672C21.9768 6.72183 24 9.12434 24 12C24 14.9729 21.8376 17.4388 19 17.915V18C19 20.7614 16.7615 23 14 23H10C9.14929 23 8.3208 22.8599 7.7207 22.7266C7.41713 22.6591 7.16319 22.5914 6.9834 22.54C6.89348 22.5143 6.82129 22.4924 6.77051 22.4766C6.7451 22.4687 6.7245 22.4617 6.70996 22.457C6.70283 22.4547 6.69674 22.4526 6.69238 22.4512L6.6875 22.4502L6.68555 22.4492H6.68359L5.73535 22.1328L6.36719 20.2354L7.31543 20.5508C7.31543 20.5508 7.32034 20.5525 7.32422 20.5537C7.33235 20.5563 7.34584 20.5607 7.36426 20.5664C7.40129 20.5779 7.45841 20.5951 7.53223 20.6162C7.6805 20.6586 7.89569 20.716 8.1543 20.7734C8.67918 20.8901 9.35081 21 10 21H14C15.6568 21 17 19.6569 17 18H12V16H18C20.2091 16 22 14.2091 22 12C22 9.79086 20.2091 8 18 8H17.4141L2 23.4141L0.585938 22L4.72266 17.8623C2.02274 17.2768 0 14.8753 0 12C0 9.02706 2.16237 6.56013 5 6.08398V6C5 3.23862 7.23853 1 10 1H14C14.8507 1 15.6792 1.14009 16.2793 1.27344C16.5829 1.3409 16.8368 1.4086 17.0166 1.45996C17.1065 1.48565 17.1787 1.50764 17.2295 1.52344C17.2549 1.53134 17.2755 1.53828 17.29 1.54297C17.2972 1.54527 17.3033 1.5474 17.3076 1.54883L17.3125 1.5498L17.3145 1.55078H17.3164L18.2646 1.86719L17.6328 3.76465L16.6836 3.44824L16.6758 3.44629C16.6677 3.44367 16.6542 3.43932 16.6357 3.43359C16.5987 3.42207 16.5416 3.40488 16.4678 3.38379C16.3195 3.34142 16.1043 3.28404 15.8457 3.22656C15.3208 3.10992 14.6492 3 14 3H10C8.34319 3 7 4.3431 7 6H12V8H6C3.79086 8 2 9.79086 2 12C2 14.2091 3.79086 16 6 16H6.58594L22 0.585938L23.4141 2Z" fill="#000"/>
</svg>
