<svg width="24" height="25" viewBox="0 0 24 25" fill="none" xmlns="http://www.w3.org/2000/svg">
<path d="M23.4141 2.27686L19.2764 6.41357C21.9768 6.99869 24 9.4012 24 12.2769C24 15.2497 21.8376 17.7157 19 18.1919V18.2769C19 21.0382 16.7615 23.2769 14 23.2769H10C9.14929 23.2769 8.3208 23.1368 7.7207 23.0034C7.41713 22.936 7.16319 22.8683 6.9834 22.8169C6.89348 22.7912 6.82129 22.7692 6.77051 22.7534C6.7451 22.7455 6.7245 22.7386 6.70996 22.7339C6.70283 22.7316 6.69674 22.7295 6.69238 22.728L6.6875 22.7271L6.68555 22.7261H6.68359L5.73535 22.4097L6.36719 20.5122L7.31543 20.8276C7.31543 20.8276 7.32034 20.8293 7.32422 20.8306C7.33235 20.8332 7.34584 20.8375 7.36426 20.8433C7.40129 20.8548 7.45841 20.872 7.53223 20.8931C7.6805 20.9354 7.89569 20.9928 8.1543 21.0503C8.67918 21.1669 9.35081 21.2769 10 21.2769H14C15.6568 21.2769 17 19.9338 17 18.2769H12V16.2769H18C20.2091 16.2769 22 14.486 22 12.2769C22 10.0677 20.2091 8.27686 18 8.27686H17.4141L2 23.6909L0.585938 22.2769L4.72266 18.1392C2.02274 17.5536 0 15.1521 0 12.2769C0 9.30392 2.16237 6.83699 5 6.36084V6.27686C5 3.51547 7.23853 1.27686 10 1.27686H14C14.8507 1.27686 15.6792 1.41695 16.2793 1.55029C16.5829 1.61775 16.8368 1.68546 17.0166 1.73682C17.1065 1.76251 17.1787 1.7845 17.2295 1.80029C17.2549 1.8082 17.2755 1.81513 17.29 1.81982C17.2972 1.82212 17.3033 1.82425 17.3076 1.82568L17.3125 1.82666L17.3145 1.82764H17.3164L18.2646 2.14404L17.6328 4.0415L16.6836 3.7251L16.6758 3.72314C16.6677 3.72052 16.6542 3.71618 16.6357 3.71045C16.5987 3.69893 16.5416 3.68174 16.4678 3.66064C16.3195 3.61828 16.1043 3.56089 15.8457 3.50342C15.3208 3.38678 14.6492 3.27686 14 3.27686H10C8.34319 3.27686 7 4.61996 7 6.27686H12V8.27686H6C3.79086 8.27686 2 10.0677 2 12.2769C2 14.486 3.79086 16.2769 6 16.2769H6.58594L22 0.862793L23.4141 2.27686Z" fill="#555555"/>
</svg>
