<svg width="24" height="24" viewBox="0 0 24 24" fill="none" xmlns="http://www.w3.org/2000/svg">
<path fill-rule="evenodd" clip-rule="evenodd" d="M12 23C13.6569 23 15 21.6569 15 20V18.3652C15.1423 18.2831 15.2669 18.1655 15.3574 18.0146L18.3574 13.0146C18.3602 13.0099 18.3625 13.0047 18.3652 13H20C21.6569 13 23 11.6569 23 10V6C23 4.34315 21.6569 3 20 3H16C14.3431 3 13 4.34315 13 6V6.2793L11 5.6123V4C11 2.34315 9.65685 1 8 1H4C2.34315 1 1 2.34315 1 4V8C1 9.65685 2.34315 11 4 11H5.63477C5.64539 11.0183 5.65605 11.0368 5.66797 11.0547L7.06445 13.1494C5.86582 13.5426 5 14.6699 5 16V20C5 21.6569 6.34315 23 8 23H12ZM4 9C3.44772 9 3 8.55228 3 8V4C3 3.44772 3.44772 3 4 3H8C8.55228 3 9 3.44772 9 4V8C9 8.55228 8.55228 9 8 9H4ZM16 11C15.4477 11 15 10.5523 15 10V6C15 5.44772 15.4477 5 16 5H20C20.5523 5 21 5.44772 21 6V10C21 10.5523 20.5523 11 20 11H16ZM14.8281 15.0078C14.4182 13.8392 13.3087 13 12 13H9.36523C9.35461 12.9817 9.34395 12.9632 9.33203 12.9453L8.03418 10.999C9.67528 10.9807 11 9.64544 11 8V7.71973L13 8.38672V10C13 11.6569 14.3431 13 16 13H16.0342L14.8281 15.0078ZM8 21C7.44772 21 7 20.5523 7 20V16C7 15.4477 7.44772 15 8 15H12C12.5523 15 13 15.4477 13 16V20C13 20.5523 12.5523 21 12 21H8Z" fill="#000"/>
</svg>
