<svg width="24" height="24" viewBox="0 0 24 24" fill="none" xmlns="http://www.w3.org/2000/svg">
<path fill-rule="evenodd" clip-rule="evenodd" d="M12 1C14.2091 1 16 2.79086 16 5C16 5.55228 15.5523 6 15 6C14.4477 6 14 5.55228 14 5C14 3.89543 13.1046 3 12 3C10.8954 3 10 3.89543 10 5C10 5.65047 10.2894 6.21091 10.6934 6.51562C10.8542 6.63696 11.0269 6.73485 11.248 6.85449C11.4468 6.96202 11.7329 7.11161 11.9873 7.30273C12.2625 7.50955 12.5351 7.78746 12.7285 8.18457C12.9187 8.57523 13 9.01445 13 9.5V10.6846C13.3998 10.7878 13.7875 10.9526 14.1475 11.1816L22.3408 16.3955C23.3741 17.0531 24 18.1932 24 19.418C23.9998 21.3962 22.3962 22.9998 20.418 23H3.58203C1.60382 22.9998 0.000199949 21.3962 0 19.418C0 18.1932 0.625873 17.0531 1.65918 16.3955L9.85254 11.1816C10.2125 10.9526 10.6002 10.7878 11 10.6846V9.5C11 9.23565 10.9563 9.11216 10.9307 9.05957C10.9083 9.01371 10.874 8.96747 10.7861 8.90137C10.6769 8.81927 10.5413 8.74551 10.2969 8.61328C10.0751 8.49331 9.78178 8.33369 9.48828 8.1123C8.53353 7.39193 8 6.21253 8 5C8 2.79086 9.79086 1 12 1ZM13.0742 12.8682C12.4191 12.4513 11.5809 12.4513 10.9258 12.8682L2.73242 18.083C2.27628 18.3735 2 18.8771 2 19.418C2.0002 20.2916 2.70839 20.9998 3.58203 21H20.418C21.2916 20.9998 21.9998 20.2916 22 19.418C22 18.8771 21.7237 18.3735 21.2676 18.083L13.0742 12.8682Z" fill="#000"/>
</svg>
