<svg width="24" height="24" viewBox="0 0 24 24" fill="none" xmlns="http://www.w3.org/2000/svg">
<path d="M4 11.4111L7.98535 13.626L8.5 13.9111V19.4111L11 20.8008V12.0879L4 8.19922V11.4111ZM13 12.0879V20.8008L15.5 19.4111V13.9111L16.0146 13.626L20 11.4111V8.19922L13 12.0879ZM4 16.9111L6.5 18.3008V15.0879L4 13.6992V16.9111ZM17.5 15.0879V18.3008L20 16.9111V13.6992L17.5 15.0879ZM12 7.64355L7.5 5.14355L5.05859 6.5L12 10.3555L18.9414 6.5L16.5 5.14355L12 7.64355ZM9.55859 4L12 5.35547L14.4414 4L12 2.64355L9.55859 4ZM22 18.0889L21.4854 18.374L12 23.6436L2.51465 18.374L2 18.0889V5.91113L2.51465 5.62598L12 0.356445L18.5596 4L21.4854 5.62598L22 5.91113V18.0889Z" fill="#444444"/>
</svg>
