<svg width="24" height="24" viewBox="0 0 24 24" fill="none" xmlns="http://www.w3.org/2000/svg">
<path d="M10.3574 9.42277C10.7479 9.0324 11.381 9.03233 11.7715 9.42277C12.162 9.81325 12.1619 10.4463 11.7715 10.8368L9.67283 12.9355L11.0644 14.3271L13.1631 12.2284C13.5536 11.8381 14.1867 11.838 14.5771 12.2284C14.9675 12.6189 14.9674 13.252 14.5771 13.6425L12.4785 15.7411L12.9346 16.1972C13.715 16.9776 13.717 18.2437 12.9355 19.0253C12.5107 19.4502 11.8483 20.1116 10.8359 21.1239C9.52174 22.4381 8.09108 23.0711 6.62791 22.9941C5.19025 22.9183 3.91883 22.1668 2.87596 21.1239C1.83309 20.0811 1.08157 18.8097 1.00584 17.372C0.928833 15.9088 1.56181 14.4782 2.87596 13.164C3.88831 12.1516 4.54972 11.4892 4.97459 11.0644C5.75625 10.2829 7.02232 10.285 7.80272 11.0654L8.25877 11.5214L10.3574 9.42277ZM4.29002 14.578C3.26642 15.6017 2.96404 16.5087 3.00389 17.2665C3.04511 18.0498 3.4626 18.8825 4.29002 19.7099C5.11745 20.5373 5.95009 20.9548 6.73338 20.996C7.49118 21.0359 8.39821 20.7335 9.42186 19.7099L11.5205 17.6112L6.38865 12.4794L4.29002 14.578ZM17.3711 1.00676C18.8088 1.08243 20.0807 1.83409 21.124 2.87688C22.1675 3.91983 22.9186 5.19123 22.9941 6.62883C23.0708 8.09192 22.4375 9.52275 21.124 10.8368C20.1111 11.8501 19.4495 12.5125 19.0244 12.9374C18.2429 13.7187 16.9781 13.7162 16.1982 12.9364L11.0644 7.80363C10.2841 7.02293 10.2829 5.75708 11.0644 4.97551C11.4893 4.55068 12.1511 3.88893 13.1631 2.87688C14.4772 1.56262 15.9078 0.929749 17.3711 1.00676ZM17.2656 3.00481C16.5077 2.96501 15.6006 3.26738 14.5771 4.29094C13.5652 5.30299 12.9035 5.96466 12.4785 6.38957H12.4795L17.6113 11.5214C18.0362 11.0967 18.6981 10.435 19.7099 9.42277C20.733 8.39917 21.0357 7.49212 20.9961 6.7343C20.955 5.95111 20.5376 5.1182 19.7099 4.29094C18.882 3.46352 18.049 3.04603 17.2656 3.00481Z" fill="#000"/>
</svg>
