<svg width="24" height="24" viewBox="0 0 24 24" fill="none" xmlns="http://www.w3.org/2000/svg">
<path fill-rule="evenodd" clip-rule="evenodd" d="M9 9C10.657 9 12 10.343 12 12C12 12.9059 11.5966 13.7156 10.9619 14.2656C11.1515 14.3274 11.337 14.4015 11.5137 14.4932C11.9227 14.7055 12.3076 15.0157 12.5859 15.46C12.8658 15.9067 13 16.4279 13 17C13 17.5523 12.5523 18 12 18C11.4477 18 11 17.5523 11 17C11 16.7463 10.9437 16.6047 10.8916 16.5215C10.838 16.4359 10.7492 16.3498 10.5928 16.2686C10.246 16.0886 9.69453 16 9 16C8.28393 16 7.73666 16.0842 7.39648 16.2598C7.24531 16.3378 7.1611 16.421 7.10938 16.5049C7.05816 16.5879 7 16.7339 7 17C7 17.5523 6.55228 18 6 18C5.44772 18 5 17.5523 5 17C5 16.4276 5.12936 15.9042 5.40625 15.4551C5.68262 15.0068 6.06731 14.6947 6.47852 14.4824C6.65466 14.3915 6.84007 14.3185 7.0293 14.2578C6.39977 13.7079 6 12.9016 6 12C6 10.343 7.34305 9 9 9ZM9 11C8.44762 11 8 11.4476 8 12C8 12.5524 8.44762 13 9 13C9.55238 13 10 12.5524 10 12C10 11.4476 9.55238 11 9 11Z" fill="#000"/>
<path d="M16 16C16.5523 16 17 16.4477 17 17C17 17.5523 16.5523 18 16 18H15C14.4477 18 14 17.5523 14 17C14 16.4477 14.4477 16 15 16H16Z" fill="#000"/>
<path d="M18 13C18.5523 13 19 13.4477 19 14C19 14.5523 18.5523 15 18 15H15C14.4477 15 14 14.5523 14 14C14 13.4477 14.4477 13 15 13H18Z" fill="#000"/>
<path d="M18 10C18.5523 10 19 10.4477 19 11C19 11.5523 18.5523 12 18 12H15C14.4477 12 14 11.5523 14 11C14 10.4477 14.4477 10 15 10H18Z" fill="#000"/>
<path d="M15 4C15.5523 4 16 4.44772 16 5C16 5.55228 15.5523 6 15 6H11C10.4477 6 10 5.55228 10 5C10 4.44772 10.4477 4 11 4H15Z" fill="#000"/>
<path fill-rule="evenodd" clip-rule="evenodd" d="M18 1C20.7614 1 23 3.23858 23 6V18C23 20.7614 20.7614 23 18 23H6C3.23858 23 1 20.7614 1 18V6C1 3.23858 3.23858 1 6 1H18ZM6 3C4.34315 3 3 4.34315 3 6V18C3 19.6569 4.34315 21 6 21H18C19.6569 21 21 19.6569 21 18V6C21 4.34315 19.6569 3 18 3H6Z" fill="#000"/>
</svg>
