<svg width="24" height="25" viewBox="0 0 24 25" fill="none" xmlns="http://www.w3.org/2000/svg">
<path fill-rule="evenodd" clip-rule="evenodd" d="M14 8.27686C15.1046 8.27686 16 9.17229 16 10.2769V14.2769C16 15.3814 15.1046 16.2769 14 16.2769H10C8.89543 16.2769 8 15.3814 8 14.2769V10.2769C8 9.17229 8.89543 8.27686 10 8.27686H14ZM10 14.2769H14V10.2769H10V14.2769Z" fill="#555555"/>
<path fill-rule="evenodd" clip-rule="evenodd" d="M16 1.27686C16.5523 1.27686 17 1.72457 17 2.27686V3.37646C17.6382 3.506 18.2321 3.75755 18.7568 4.10498L20.293 2.56982L20.3691 2.50146C20.7619 2.18111 21.3409 2.20371 21.707 2.56982C22.0976 2.96035 22.0976 3.59336 21.707 3.98389L20.1709 5.51904C20.5187 6.04397 20.7698 6.63827 20.8994 7.27686H22C22.5523 7.27686 23 7.72457 23 8.27686C23 8.82914 22.5523 9.27686 22 9.27686H21V11.2769H22C22.5523 11.2769 23 11.7246 23 12.2769C23 12.8291 22.5523 13.2769 22 13.2769H21V15.2769H22C22.5523 15.2769 23 15.7246 23 16.2769C23 16.8291 22.5523 17.2769 22 17.2769H20.8994C20.7698 17.9152 20.5184 18.5089 20.1709 19.0337L21.707 20.5698L21.7754 20.646C22.0957 21.0388 22.0731 21.6178 21.707 21.9839C21.3409 22.35 20.7619 22.3726 20.3691 22.0522L20.293 21.9839L18.7568 20.4478C18.2321 20.7953 17.6383 21.0467 17 21.1763V22.2769C17 22.8291 16.5523 23.2769 16 23.2769C15.4477 23.2769 15 22.8291 15 22.2769V21.2769H13V22.2769C13 22.8291 12.5523 23.2769 12 23.2769C11.4477 23.2769 11 22.8291 11 22.2769V21.2769H9V22.2769C9 22.8291 8.55228 23.2769 8 23.2769C7.44772 23.2769 7 22.8291 7 22.2769V21.1763C6.36142 21.0466 5.76711 20.7955 5.24219 20.4478L3.70703 21.9839C3.31651 22.3744 2.68349 22.3744 2.29297 21.9839C1.90244 21.5934 1.90244 20.9603 2.29297 20.5698L3.82812 19.0337C3.48073 18.509 3.23013 17.915 3.10059 17.2769H2C1.44772 17.2769 1 16.8291 1 16.2769C1 15.7246 1.44772 15.2769 2 15.2769H3V13.2769H2C1.44772 13.2769 1 12.8291 1 12.2769C1 11.7246 1.44772 11.2769 2 11.2769H3V9.27686H2C1.44772 9.27686 1 8.82914 1 8.27686C1 7.72457 1.44772 7.27686 2 7.27686H3.10059C3.23019 6.63845 3.4805 6.04386 3.82812 5.51904L2.29297 3.98389L2.22461 3.90771C1.90426 3.51494 1.92685 2.93594 2.29297 2.56982C2.65908 2.20371 3.23809 2.18111 3.63086 2.50146L3.70703 2.56982L5.24219 4.10498C5.76706 3.75732 6.36153 3.50606 7 3.37646V2.27686C7 1.72457 7.44772 1.27686 8 1.27686C8.55228 1.27686 9 1.72457 9 2.27686V3.27686H11V2.27686C11 1.72457 11.4477 1.27686 12 1.27686C12.5523 1.27686 13 1.72457 13 2.27686V3.27686H15V2.27686C15 1.72457 15.4477 1.27686 16 1.27686ZM8 5.27686C6.34315 5.27686 5 6.62 5 8.27686V16.2769C5 17.9337 6.34315 19.2769 8 19.2769H16C17.6569 19.2769 19 17.9337 19 16.2769V8.27686C19 6.62 17.6569 5.27686 16 5.27686H8Z" fill="#555555"/>
</svg>
