<svg width="24" height="24" viewBox="0 0 24 24" fill="none" xmlns="http://www.w3.org/2000/svg">
<path fill-rule="evenodd" clip-rule="evenodd" d="M9 3H7V1H5V3C3.89543 3 3 3.89543 3 5H1V7H3V9H1V11H3V13H1V15H3V17H1V19H3C3 20.1046 3.89543 21 5 21V23H7V21H9V23H11V21H13V23H15V21H17V23H19V21C20.1046 21 21 20.1046 21 19H23V17H21V15H23V13H21V11H23V9H21V7H23V5H21C21 3.89543 20.1046 3 19 3V1H17V3H15V1H13V3H11V1H9V3ZM5 5H19V19H5V5ZM13 6H12V7V11V12H13H17H18V11V7V6H17H13ZM14 8H16V10H14V8Z" fill="black"/>
</svg>
