<svg width="24" height="25" viewBox="0 0 24 25" fill="none" xmlns="http://www.w3.org/2000/svg">
<path d="M6 15.2769H5V13.2769H6V15.2769Z" fill="#555555"/>
<path d="M19 15.2769H10V13.2769H19V15.2769Z" fill="#555555"/>
<path d="M6 7.27686H5V5.27686H6V7.27686Z" fill="#555555"/>
<path d="M19 7.27686H10V5.27686H19V7.27686Z" fill="#555555"/>
<path fill-rule="evenodd" clip-rule="evenodd" d="M20 1.27686C21.6569 1.27686 23 2.62 23 4.27686V8.27686C23 9.04633 22.7077 9.74582 22.2314 10.2769C22.7077 10.8079 23 11.5074 23 12.2769V16.2769C23 17.9337 21.6569 19.2769 20 19.2769H13V21.2769H22.5C23.0523 21.2769 23.5 21.7246 23.5 22.2769C23.5 22.8291 23.0523 23.2769 22.5 23.2769H2C1.44772 23.2769 1 22.8291 1 22.2769C1 21.7246 1.44772 21.2769 2 21.2769H11V19.2769H4C2.34315 19.2769 1 17.9337 1 16.2769V12.2769C1 11.5074 1.29228 10.8079 1.76855 10.2769C1.29228 9.74582 1 9.04633 1 8.27686V4.27686C1 2.62 2.34315 1.27686 4 1.27686H20ZM4 11.2769C3.44772 11.2769 3 11.7246 3 12.2769V16.2769C3 16.8291 3.44772 17.2769 4 17.2769H20C20.5523 17.2769 21 16.8291 21 16.2769V12.2769C21 11.7246 20.5523 11.2769 20 11.2769H4ZM4 3.27686C3.44772 3.27686 3 3.72457 3 4.27686V8.27686C3 8.82914 3.44772 9.27686 4 9.27686H20C20.5523 9.27686 21 8.82914 21 8.27686V4.27686C21 3.72457 20.5523 3.27686 20 3.27686H4Z" fill="#555555"/>
</svg>
