<svg width="24" height="24" viewBox="0 0 24 24" fill="none" xmlns="http://www.w3.org/2000/svg">
<path fill-rule="evenodd" clip-rule="evenodd" d="M12 7C15.866 7 19 10.134 19 14C19 17.866 15.866 21 12 21C8.13401 21 5 17.866 5 14C5 10.134 8.13401 7 12 7ZM12 9C10.5408 9 9.22753 9.62505 8.31348 10.6221L12.5146 13.1426C12.9881 13.4268 13.1415 14.0411 12.8574 14.5146C12.5732 14.9881 11.9589 15.1415 11.4854 14.8574L7.28418 12.3369C7.10067 12.8573 7 13.4168 7 14C7 16.7614 9.23858 19 12 19C14.7614 19 17 16.7614 17 14C17 11.2386 14.7614 9 12 9Z" fill="#000"/>
<path d="M3 13C3.55228 13 4 13.4477 4 14C4 14.5523 3.55228 15 3 15H1C0.447715 15 0 14.5523 0 14C0 13.4477 0.447715 13 1 13H3Z" fill="#000"/>
<path d="M23 13C23.5523 13 24 13.4477 24 14C24 14.5523 23.5523 15 23 15H21C20.4477 15 20 14.5523 20 14C20 13.4477 20.4477 13 21 13H23Z" fill="#000"/>
<path d="M1.66797 7.94531C1.97432 7.48578 2.59516 7.36162 3.05469 7.66797L4.55469 8.66797C5.01422 8.97432 5.13838 9.59516 4.83203 10.0547C4.52568 10.5142 3.90484 10.6384 3.44531 10.332L1.94531 9.33203C1.48578 9.02568 1.36162 8.40484 1.66797 7.94531Z" fill="#000"/>
<path d="M20.9453 7.66797C21.4048 7.36162 22.0257 7.48578 22.332 7.94531C22.6384 8.40484 22.5142 9.02568 22.0547 9.33203L20.5547 10.332C20.0952 10.6384 19.4743 10.5142 19.168 10.0547C18.8616 9.59516 18.9858 8.97432 19.4453 8.66797L20.9453 7.66797Z" fill="#000"/>
<path d="M5.44531 3.66797C5.90482 3.36163 6.52566 3.48582 6.83203 3.94531L7.83203 5.44531C8.13841 5.90482 8.0142 6.52565 7.55469 6.83203C7.09519 7.1383 6.47432 7.01415 6.16797 6.55469L5.16797 5.05469C4.86163 4.59518 4.98582 3.97434 5.44531 3.66797Z" fill="#000"/>
<path d="M17.168 3.94531C17.4743 3.48582 18.0952 3.36163 18.5547 3.66797C19.0142 3.97434 19.1384 4.59518 18.832 5.05469L17.832 6.55469C17.5257 7.01415 16.9048 7.1383 16.4453 6.83203C15.9858 6.52565 15.8616 5.90482 16.168 5.44531L17.168 3.94531Z" fill="#000"/>
<path d="M12 2C12.5523 2 13 2.44772 13 3V5C13 5.55228 12.5523 6 12 6C11.4477 6 11 5.55228 11 5V3C11 2.44772 11.4477 2 12 2Z" fill="#000"/>
</svg>
