<svg width="24" height="24" viewBox="0 0 24 24" fill="none" xmlns="http://www.w3.org/2000/svg">
<path d="M11.9136 1.26074C12.513 1.26074 13.1083 1.36871 13.6695 1.5791L16.8208 2.76074H21.6392C22.1913 2.76078 22.6389 3.20871 22.6392 3.76074C22.6392 4.313 22.1915 4.7607 21.6392 4.76074H16.6392C16.5194 4.76069 16.3998 4.73932 16.2876 4.69727L16.6392 3.76074V3.75879L16.2876 4.69727L12.9673 3.45215C12.6307 3.32597 12.2732 3.26074 11.9136 3.26074H7.02788C5.56157 3.26096 4.30998 4.32216 4.06889 5.76855L3.01323 12.0977C2.91231 12.7067 3.38314 13.2614 4.00054 13.2617L9.13921 13.2607C9.49703 13.2608 9.82799 13.4526 10.0064 13.7627C10.1847 14.0731 10.1828 14.4554 10.0025 14.7646L7.54253 18.9824C7.32666 19.3533 7.50652 19.8299 7.91362 19.9658L8.0103 19.9902C8.23751 20.0302 8.47286 19.9511 8.63042 19.7764L12.396 15.5918L12.4322 15.5537L15.9322 12.0537L16.0054 11.9873C16.1832 11.8416 16.4073 11.7608 16.6392 11.7607H21.6392C22.1913 11.7608 22.6389 12.2087 22.6392 12.7607C22.6392 13.313 22.1915 13.7607 21.6392 13.7607H17.0533L13.8638 16.9492L10.1167 21.1143C9.4489 21.8559 8.42833 22.1612 7.47124 21.9189L7.28081 21.8633C5.66957 21.3259 4.95953 19.4419 5.81499 17.9746L7.398 15.2617H4.00054C2.14716 15.2614 0.736263 13.5968 1.04057 11.7686L2.09526 5.43945C2.49714 3.02877 4.58395 1.26096 7.02788 1.26074H11.9136Z" fill="#555555"/>
</svg>
