<svg xmlns="http://www.w3.org/2000/svg" width="24" height="24" fill="none" viewBox="0 0 24 24">
  <path fill="#000" fill-rule="evenodd" d="M11 24h-.997L10 23.003 11 23l-1 .003v-.261l-.002-.698-.006-2.207a2728.33 2728.33 0 0 1-.008-4.163c0-.42-.155-.83-.454-1.132C9.243 14.251 8.763 14 8 14H1.001L1 13v1H0V0h1v1-1h19c1.154 0 2.203.29 2.957 1.043C23.711 1.797 24 2.846 24 4v9.999L23 14h1v1h-7v5c0 1.154-.29 2.203-1.043 2.957C15.203 23.711 14.154 24 13 24h-2ZM5 12V2H2v10h3Z" clip-rule="evenodd"/>
</svg>
