<svg width="24" height="24" viewBox="0 0 24 24" fill="none" xmlns="http://www.w3.org/2000/svg">
<path d="M10.9102 17.4014C11.02 16.8602 11.5477 16.5105 12.0889 16.6201C12.6301 16.73 12.9799 17.2576 12.8701 17.7988C12.2678 20.7663 9.64595 23.001 6.5 23.001C4.75214 23.001 3.16753 22.3096 2 21.1885V21.4502C2 22.0025 1.55228 22.4502 1 22.4502C0.447715 22.4502 0 22.0025 0 21.4502V18.7002C0 18.1479 0.447715 17.7002 1 17.7002H3.75C4.30228 17.7002 4.75 18.1479 4.75 18.7002C4.74999 19.2525 4.30228 19.7002 3.75 19.7002H3.33984C4.15308 20.5033 5.26824 21.001 6.5 21.001C8.67595 21.001 10.4933 19.4551 10.9102 17.4014Z" fill="#000"/>
<path fill-rule="evenodd" clip-rule="evenodd" d="M13.5205 1C14.714 1.00005 15.8682 1.42739 16.7744 2.2041L21.2529 6.04297C22.3612 6.99288 23 8.38022 23 9.83984V18C23 20.7614 20.7614 23 18 23H15C14.4477 23 14 22.5523 14 22C14 21.4477 14.4477 21 15 21H18C19.6569 21 21 19.6569 21 18V9.83984C21 9.55255 20.9577 9.27017 20.8789 9H17C15.3431 9 14 7.65685 14 6V3.04004C13.8423 3.01447 13.6821 3.00001 13.5205 3H6C4.34315 3 3 4.34315 3 6V8C3 8.55228 2.55228 9 2 9C1.44772 9 1 8.55228 1 8V6C1 3.23858 3.23858 1 6 1H13.5205ZM16 6C16 6.55228 16.4477 7 17 7H19.2969L16 4.17383V6Z" fill="#000"/>
<path d="M6.5 10C8.24711 10 9.83239 10.6891 11 11.8096V11.5498C11.0001 10.9977 11.4479 10.5499 12 10.5498C12.5522 10.5498 12.9999 10.9976 13 11.5498V14.2998C13 14.8521 12.5523 15.2998 12 15.2998H9.25C8.6978 15.2997 8.25 14.852 8.25 14.2998C8.25014 13.7477 8.69789 13.2999 9.25 13.2998H9.66016C8.84686 12.4969 7.7317 12 6.5 12C4.32422 12 2.50695 13.5452 2.08984 15.5986C1.97998 16.1398 1.45228 16.4896 0.911133 16.3799C0.369895 16.27 0.0200054 15.7424 0.129883 15.2012C0.732327 12.2338 3.35417 10 6.5 10Z" fill="#000"/>
</svg>
