<svg width="24" height="24" viewBox="0 0 24 24" fill="none" xmlns="http://www.w3.org/2000/svg">
<path d="M7.5 16H6C5.27136 16 4.79802 16.263 4.49707 16.6016C4.17976 16.9585 4 17.4631 4 18C4 18.5369 4.17976 19.0415 4.49707 19.3984C4.79802 19.737 5.27136 20 6 20H7.5V22H6C4.72864 22 3.70198 21.513 3.00293 20.7266C2.32024 19.9585 2 18.9631 2 18C2 17.0369 2.32024 16.0415 3.00293 15.2734C3.70198 14.487 4.72864 14 6 14H7.5V16Z" fill="#000"/>
<path d="M14 16H11C10.8381 16 10.7085 16.0548 10.6328 16.1221C10.5755 16.173 10.5 16.2714 10.5 16.5C10.5 16.7286 10.5755 16.827 10.6328 16.8779C10.7085 16.9452 10.8381 17 11 17H12C12.5881 17 13.2085 17.1952 13.6953 17.6279C14.2005 18.077 14.5 18.7286 14.5 19.5C14.5 20.2714 14.2005 20.923 13.6953 21.3721C13.2085 21.8048 12.5881 22 12 22H9V20H12C12.1619 20 12.2915 19.9452 12.3672 19.8779C12.4245 19.827 12.5 19.7286 12.5 19.5C12.5 19.2714 12.4245 19.173 12.3672 19.1221C12.2915 19.0548 12.1619 19 12 19H11C10.4119 19 9.79147 18.8048 9.30469 18.3721C8.7995 17.923 8.5 17.2714 8.5 16.5C8.5 15.7286 8.7995 15.077 9.30469 14.6279C9.79147 14.1952 10.4119 14 11 14H14V16Z" fill="#000"/>
<path d="M18.5 18.3076L20.2227 14H22.4766L19.2773 22H17.7227L14.5234 14H16.7773L18.5 18.3076Z" fill="#000"/>
<path fill-rule="evenodd" clip-rule="evenodd" d="M13.5205 1C14.714 1.00005 15.8682 1.42739 16.7744 2.2041L21.2529 6.04297C22.3612 6.99288 23 8.38022 23 9.83984V11C23 11.5523 22.5523 12 22 12C21.4477 12 21 11.5523 21 11V9.83984C21 9.55255 20.9577 9.27017 20.8789 9H17C15.3431 9 14 7.65685 14 6V3.04004C13.8423 3.01447 13.6821 3.00001 13.5205 3H6C4.34315 3 3 4.34315 3 6V11C3 11.5523 2.55228 12 2 12C1.44772 12 1 11.5523 1 11V6C1 3.23858 3.23858 1 6 1H13.5205ZM16 6C16 6.55228 16.4477 7 17 7H19.2969L16 4.17383V6Z" fill="#000"/>
</svg>
