<svg width="24" height="24" viewBox="0 0 24 24" fill="none" xmlns="http://www.w3.org/2000/svg">
<path fill-rule="evenodd" clip-rule="evenodd" d="M13.5205 1C14.714 1.00005 15.8682 1.42739 16.7744 2.2041L21.2529 6.04297C22.3612 6.99288 23 8.38022 23 9.83984V18C23 20.7614 20.7614 23 18 23H15C14.4477 23 14 22.5523 14 22C14 21.4477 14.4477 21 15 21H18C19.6569 21 21 19.6569 21 18V9.83984C21 9.55255 20.9577 9.27017 20.8789 9H17C15.3431 9 14 7.65685 14 6V3.04004C13.8423 3.01447 13.6821 3.00001 13.5205 3H6C4.34315 3 3 4.34315 3 6V8C3 8.55228 2.55228 9 2 9C1.44772 9 1 8.55228 1 8V6C1 3.23858 3.23858 1 6 1H13.5205ZM16 6C16 6.55228 16.4477 7 17 7H19.2969L16 4.17383V6Z" fill="#000"/>
<path fill-rule="evenodd" clip-rule="evenodd" d="M6.21191 13.0068C7.7301 13.0793 8.71457 13.9262 9.27734 14.9102C9.83568 15.8865 10 17.0097 10 17.75C10 18.4727 9.86036 19.5984 9.30957 20.582C8.7242 21.6273 7.66762 22.5 6 22.5C4.33238 22.5 3.2758 21.6273 2.69043 20.582C2.13964 19.5984 2 18.4727 2 17.75C2 17.0133 2.15896 15.889 2.71582 14.9111C3.27799 13.9241 4.26384 13.0792 5.78711 13.0068C5.85725 13.0025 5.92821 13 6 13C6.07146 13 6.14209 13.0026 6.21191 13.0068ZM6 15C5.28782 15 4.25 15.7828 4.25 17.75C4.25 19.7172 5.28782 20.5 6 20.5C6.71218 20.5 7.75 19.7172 7.75 17.75C7.75 15.7828 6.71218 15 6 15Z" fill="#000"/>
</svg>
