<?xml version="1.0" encoding="UTF-8"?>
<svg width="24px" height="24px" viewBox="0 0 24 24" version="1.1" xmlns="http://www.w3.org/2000/svg" xmlns:xlink="http://www.w3.org/1999/xlink">
    <!-- Generator: Sketch 46 (44423) - http://www.bohemiancoding.com/sketch -->
    <title>document-user</title>
    <desc>Created with Sketch.</desc>
    <defs></defs>
    <g id="Icons" stroke="none" stroke-width="1" fill="none" fill-rule="evenodd">
        <g id="document-user" stroke="#000000" stroke-width="2">
            <path d="M4.99787498,8.99999999 L4.99787498,0.999999992 L19.4999998,0.999999992 L22.9999998,4.50000005 L23,23 L16,23 M18,1 L18,6 L23,6 M8,11 C6.34325,11 5,12.34325 5,14 C5,15.65675 6.34325,17 8,17 C9.65675,17 11,15.65675 11,14 C11,12.34325 9.65675,11 8,11 L8,11 Z M3,23 L3,22 C3,18 6,17 8,17 C10,17 13,18 13,22 L13,23 L3,23 Z" id="Group"></path>
        </g>
    </g>
</svg>