<svg width="24" height="24" viewBox="0 0 24 24" fill="none" xmlns="http://www.w3.org/2000/svg">
<path d="M6.5 13C7.05228 13 7.5 13.4477 7.5 14V15.9424L9.11816 17.2139C9.55217 17.5551 9.62727 18.184 9.28613 18.6182C8.94487 19.0522 8.31601 19.1273 7.88184 18.7861L5.88184 17.2148C5.64073 17.0253 5.50004 16.7354 5.5 16.4287V14C5.5 13.4477 5.94772 13 6.5 13Z" fill="#000"/>
<path fill-rule="evenodd" clip-rule="evenodd" d="M7 9C10.866 9 14 12.134 14 16C14 19.866 10.866 23 7 23C3.13401 23 0 19.866 0 16C0 12.134 3.13401 9 7 9ZM7 11C4.23858 11 2 13.2386 2 16C2 18.7614 4.23858 21 7 21C9.76142 21 12 18.7614 12 16C12 13.2386 9.76142 11 7 11Z" fill="#000"/>
<path fill-rule="evenodd" clip-rule="evenodd" d="M13.5205 1C14.714 1.00005 15.8682 1.42739 16.7744 2.2041L21.2529 6.04297C22.3612 6.99288 23 8.38022 23 9.83984V18C23 20.7614 20.7614 23 18 23H15C14.4477 23 14 22.5523 14 22C14 21.4477 14.4477 21 15 21H18C19.6569 21 21 19.6569 21 18V9.83984C21 9.55255 20.9577 9.27017 20.8789 9H17C15.3431 9 14 7.65685 14 6V3.04004C13.8423 3.01447 13.6821 3.00001 13.5205 3H6C4.34315 3 3 4.34315 3 6V8C3 8.55228 2.55228 9 2 9C1.44772 9 1 8.55228 1 8V6C1 3.23858 3.23858 1 6 1H13.5205ZM16 6C16 6.55228 16.4477 7 17 7H19.2969L16 4.17383V6Z" fill="#000"/>
</svg>
