<svg width="24" height="24" viewBox="0 0 24 24" fill="none" xmlns="http://www.w3.org/2000/svg">
<path fill-rule="evenodd" clip-rule="evenodd" d="M4.5 14C4.74433 14 5.56628 13.9904 6.34375 14.3359C6.75001 14.5165 7.17775 14.808 7.50098 15.2734C7.82837 15.7449 8 16.3257 8 17C8 17.6743 7.82837 18.2551 7.50098 18.7266C7.26381 19.0681 6.96991 19.3151 6.66992 19.4941L8.5498 22H6L4.5 19.999L4 20V22H2V14H4.5ZM4 18H4.5C4.75567 18 5.18372 17.9904 5.53125 17.8359C5.68748 17.7665 5.791 17.683 5.8584 17.5859C5.92162 17.4949 6 17.3257 6 17C6 16.6743 5.92162 16.5051 5.8584 16.4141C5.791 16.317 5.68748 16.2335 5.53125 16.1641C5.18372 16.0096 4.75567 16 4.5 16H4V18Z" fill="#000"/>
<path d="M15.25 16H13.25V22H11.25V16H9.25V14H15.25V16Z" fill="#000"/>
<path d="M22 16H18.5V17.5H21V19.5H18.5V22H16.5V14H22V16Z" fill="#000"/>
<path fill-rule="evenodd" clip-rule="evenodd" d="M13.5205 1C14.714 1.00005 15.8682 1.42739 16.7744 2.2041L21.2529 6.04297C22.3612 6.99288 23 8.38022 23 9.83984V11C23 11.5523 22.5523 12 22 12C21.4477 12 21 11.5523 21 11V9.83984C21 9.55255 20.9577 9.27017 20.8789 9H17C15.3431 9 14 7.65685 14 6V3.04004C13.8423 3.01447 13.6821 3.00001 13.5205 3H6C4.34315 3 3 4.34315 3 6V11C3 11.5523 2.55228 12 2 12C1.44772 12 1 11.5523 1 11V6C1 3.23858 3.23858 1 6 1H13.5205ZM16 6C16 6.55228 16.4477 7 17 7H19.2969L16 4.17383V6Z" fill="#000"/>
</svg>
