<svg width="24" height="24" viewBox="0 0 24 24" fill="none" xmlns="http://www.w3.org/2000/svg">
<path fill-rule="evenodd" clip-rule="evenodd" d="M10 8C12.2091 8 14 9.79086 14 12C16.2091 12 18 13.7909 18 16C18 18.2091 16.2091 20 14 20C14 22.2091 12.2091 24 10 24H8C5.79086 24 4 22.2091 4 20C1.79086 20 0 18.2091 0 16C0 13.86 1.68056 12.1121 3.79395 12.0049L4 12C4 9.79086 5.79086 8 8 8H10ZM8 10C6.89543 10 6 10.8954 6 12H8C8.55228 12 9 12.4477 9 13C9 13.5523 8.55228 14 8 14H4C2.89543 14 2 14.8954 2 16C2 17.1046 2.89543 18 4 18H5C5.55228 18 6 18.4477 6 19V20C6 21.1046 6.89543 22 8 22H10C11.1046 22 12 21.1046 12 20H10C9.44771 20 9 19.5523 9 19C9 18.4477 9.44771 18 10 18H14C15.1046 18 16 17.1046 16 16C16 14.8954 15.1046 14 14 14H13C12.4477 14 12 13.5523 12 13V12C12 10.8954 11.1046 10 10 10H8Z" fill="#000"/>
<path fill-rule="evenodd" clip-rule="evenodd" d="M13.5205 1C14.714 1.00005 15.8682 1.42739 16.7744 2.2041L21.2529 6.04297C22.3612 6.99288 23 8.38022 23 9.83984V18C23 20.7614 20.7614 23 18 23H17.5C16.9477 23 16.5 22.5523 16.5 22C16.5 21.4477 16.9477 21 17.5 21H18C19.6569 21 21 19.6569 21 18V9.83984C21 9.55255 20.9577 9.27017 20.8789 9H17C15.3431 9 14 7.65685 14 6V3.04004C13.8423 3.01447 13.6821 3.00001 13.5205 3H6C4.34315 3 3 4.34315 3 6V8C3 8.55228 2.55228 9 2 9C1.44772 9 1 8.55228 1 8V6C1 3.23858 3.23858 1 6 1H13.5205ZM16 6C16 6.55228 16.4477 7 17 7H19.2969L16 4.17383V6Z" fill="#000"/>
</svg>
