<svg width="24" height="24" viewBox="0 0 24 24" fill="none" xmlns="http://www.w3.org/2000/svg">
<path d="M7 18C7.55228 18 8 18.4477 8 19C8 19.5523 7.55228 20 7 20H5C4.44772 20 4 19.5523 4 19C4 18.4477 4.44772 18 5 18H7Z" fill="#000"/>
<path fill-rule="evenodd" clip-rule="evenodd" d="M6 9C8.20914 9 10 10.7909 10 13V14.1738C11.1647 14.5859 12 15.6941 12 17V21C12 22.6569 10.6569 24 9 24H3C1.34315 24 0 22.6569 0 21V17C0 15.6941 0.835321 14.5859 2 14.1738V13C2 10.7909 3.79086 9 6 9ZM3 16C2.44772 16 2 16.4477 2 17V21C2 21.5523 2.44772 22 3 22H9C9.55228 22 10 21.5523 10 21V17C10 16.4477 9.55228 16 9 16H3ZM6 11C4.89543 11 4 11.8954 4 13V14H8V13C8 11.8954 7.10457 11 6 11Z" fill="#000"/>
<path fill-rule="evenodd" clip-rule="evenodd" d="M13.5205 1C14.714 1.00005 15.8682 1.42739 16.7744 2.2041L21.2529 6.04297C22.3612 6.99288 23 8.38022 23 9.83984V18C23 20.7614 20.7614 23 18 23H15C14.4477 23 14 22.5523 14 22C14 21.4477 14.4477 21 15 21H18C19.6569 21 21 19.6569 21 18V9.83984C21 9.55255 20.9577 9.27017 20.8789 9H17C15.3431 9 14 7.65685 14 6V3.04004C13.8423 3.01447 13.6821 3.00001 13.5205 3H6C4.34315 3 3 4.34315 3 6V8C3 8.55228 2.55228 9 2 9C1.44772 9 1 8.55228 1 8V6C1 3.23858 3.23858 1 6 1H13.5205ZM16 6C16 6.55228 16.4477 7 17 7H19.2969L16 4.17383V6Z" fill="#000"/>
</svg>
