<?xml version="1.0" encoding="UTF-8"?>
<svg width="24px" height="24px" viewBox="0 0 24 24" version="1.1" xmlns="http://www.w3.org/2000/svg" xmlns:xlink="http://www.w3.org/1999/xlink">
    <!-- Generator: Sketch 46 (44423) - http://www.bohemiancoding.com/sketch -->
    <title>document-outlook</title>
    <desc>Created with Sketch.</desc>
    <defs></defs>
    <g id="Icons" stroke="none" stroke-width="1" fill="none" fill-rule="evenodd">
        <g id="document-outlook" stroke="#000000" stroke-width="2">
            <path d="M2.99787498,8.99999999 L2.99787498,0.999999992 L17.4999998,0.999999992 L20.9999998,4.50000005 L21,23 L2,23 M16,1 L16,6 L21,6 M7.75,15.75 C7.75,13.5 6.49999991,12 5,12 C3.50000009,12 2.25,13.5 2.25,15.75 C2.25,18 3.50000006,19.5000002 5.00000003,19.5000001 C6.5,19.5 7.75,18 7.75,15.75 Z M5,12 C7.42537405,12 8,14.5 8,15.75 C8,17 7.5,19.5 5,19.5 C2.5,19.5 2,17 2,15.75 C2,14.5 2.559,12 5,12 Z" id="Group"></path>
        </g>
    </g>
</svg>