<svg width="24" height="24" viewBox="0 0 24 24" fill="none" xmlns="http://www.w3.org/2000/svg">
<path fill-rule="evenodd" clip-rule="evenodd" d="M8 10C8.55228 10 8.99999 10.4477 9 11V11.2871C9.8563 11.436 10.6476 11.7725 11.3311 12.2529L11.5352 12.0498C11.9257 11.6593 12.5597 11.6593 12.9502 12.0498C13.3407 12.4403 13.3407 13.0743 12.9502 13.4648L12.7461 13.668C13.227 14.3517 13.564 15.1432 13.7129 16H14C14.5523 16 15 16.4477 15 17C15 17.5523 14.5523 18 14 18H13.7129C13.564 18.8565 13.2267 19.6475 12.7461 20.3311L12.9502 20.5352C13.3407 20.9257 13.3407 21.5597 12.9502 21.9502C12.5597 22.3407 11.9257 22.3407 11.5352 21.9502L11.3311 21.7461C10.6476 22.2267 9.85644 22.563 9 22.7119V23C8.99999 23.5523 8.55228 24 8 24C7.44772 24 6.99999 23.5523 7 23V22.7119C6.14329 22.563 5.35161 22.2269 4.66797 21.7461L4.46484 21.9492C4.07432 22.3397 3.44033 22.3397 3.0498 21.9492C2.65976 21.5587 2.65951 20.9255 3.0498 20.5352L3.25293 20.3311C2.77248 19.6476 2.43595 18.8563 2.28711 18H2C1.44773 18 0.999999 17.5523 1 17C1.00002 16.4477 1.44774 16 2 16H2.28711C2.43601 15.1434 2.77223 14.3515 3.25293 13.668L3.0498 13.4648C2.65951 13.0745 2.65976 12.4413 3.0498 12.0508C3.44033 11.6603 4.07432 11.6603 4.46484 12.0508L4.66797 12.2529C5.35155 11.7722 6.14343 11.436 7 11.2871V11C7 10.4477 7.44772 10 8 10ZM8 13.2002C5.90134 13.2002 4.20022 14.9013 4.2002 17C4.2002 18.0461 4.62272 18.9935 5.30664 19.6807C5.30876 19.6827 5.31137 19.6844 5.31348 19.6865C5.31543 19.6885 5.3174 19.6904 5.31934 19.6924C6.00653 20.3766 6.95363 20.7998 8 20.7998C9.04612 20.7998 9.99351 20.3773 10.6807 19.6934C10.6826 19.6914 10.6846 19.6895 10.6865 19.6875C10.6885 19.6855 10.6904 19.6826 10.6924 19.6807C11.3766 18.9935 11.7998 18.0464 11.7998 17C11.7998 14.9013 10.0987 13.2002 8 13.2002Z" fill="#000"/>
<path fill-rule="evenodd" clip-rule="evenodd" d="M13.5205 1C14.714 1.00005 15.8682 1.42739 16.7744 2.2041L21.2529 6.04297C22.3612 6.99288 23 8.38022 23 9.83984V18C23 20.7614 20.7614 23 18 23H17.5C16.9477 23 16.5 22.5523 16.5 22C16.5 21.4477 16.9477 21 17.5 21H18C19.6569 21 21 19.6569 21 18V9.83984C21 9.55255 20.9577 9.27017 20.8789 9H17C15.3431 9 14 7.65685 14 6V3.04004C13.8423 3.01447 13.6821 3.00001 13.5205 3H6C4.34315 3 3 4.34315 3 6V8C3 8.55228 2.55228 9 2 9C1.44772 9 1 8.55228 1 8V6C1 3.23858 3.23858 1 6 1H13.5205ZM16 6C16 6.55228 16.4477 7 17 7H19.2969L16 4.17383V6Z" fill="#000"/>
</svg>
