<?xml version="1.0" encoding="UTF-8"?>
<svg width="24px" height="24px" viewBox="0 0 24 24" version="1.1" xmlns="http://www.w3.org/2000/svg" xmlns:xlink="http://www.w3.org/1999/xlink">
    <!-- Generator: Sketch 46 (44423) - http://www.bohemiancoding.com/sketch -->
    <title>drag</title>
    <desc>Created with Sketch.</desc>
    <defs></defs>
    <g id="Icons" stroke="none" stroke-width="1" fill="none" fill-rule="evenodd">
        <g id="drag" stroke="#000000" stroke-width="2">
            <path d="M15,5 L17,5 L17,3 L15,3 L15,5 Z M7,5 L9,5 L9,3 L7,3 L7,5 Z M15,13 L17,13 L17,11 L15,11 L15,13 Z M7,13 L9,13 L9,11 L7,11 L7,13 Z M15,21 L17,21 L17,19 L15,19 L15,21 Z M7,21 L9,21 L9,19 L7,19 L7,21 Z" id="Drag"></path>
        </g>
    </g>
</svg>