<svg width="24" height="24" viewBox="0 0 24 24" fill="none" xmlns="http://www.w3.org/2000/svg">
<path d="M11.4318 8.6351C9.66122 5.48571 7.76571 2.91918 7.62857 2.73061C4.77061 4.08 2.63755 6.71265 1.97143 9.88653C2.24082 9.89143 6.51184 9.94286 11.4318 8.6351ZM12.7102 12.0784C12.8449 12.0367 12.9796 11.9951 13.1143 11.9559C12.8571 11.3731 12.5755 10.7902 12.2816 10.2147C7.00408 11.7943 1.93959 11.6792 1.76082 11.6743C1.75837 11.782 1.75347 11.8898 1.75347 12C1.75347 14.6351 2.74776 17.0376 4.38367 18.8522C4.38122 18.8498 4.37633 18.8424 4.37633 18.8424C4.37633 18.8424 7.18041 13.8661 12.7102 12.0784ZM5.70122 20.0792L5.70367 20.0743C5.62775 20.0155 5.54694 19.9592 5.47102 19.898C5.60816 20.0082 5.70122 20.0792 5.70122 20.0792ZM9.61918 2.07622C9.58282 2.08622 9.55555 2.09622 9.51918 2.10622C9.57373 2.08622 9.61009 2.07622 9.61918 2.07622ZM18.769 4.3102C16.9641 2.71837 14.5959 1.75102 12 1.75102C11.1673 1.75102 10.3592 1.85388 9.58531 2.04C9.74204 2.24571 11.6645 4.80245 13.4155 8.01796C17.28 6.57061 18.742 4.35184 18.769 4.3102ZM12 24C5.37306 24 0 18.6269 0 12C0 5.37306 5.37306 0 12 0C18.6269 0 24 5.37306 24 12C24 18.6269 18.6269 24 12 24ZM13.7437 13.6776C7.72898 15.7739 5.74286 19.9886 5.70367 20.0743C7.44245 21.431 9.62449 22.2465 12 22.2465C13.4204 22.2465 14.7722 21.9576 16.0016 21.4359C15.8498 20.5371 15.2547 17.3976 13.8122 13.6531C13.7878 13.6629 13.7657 13.6678 13.7437 13.6776ZM14.2041 9.54612C14.4441 10.0359 14.6718 10.5306 14.8849 11.0327C14.9608 11.209 15.0343 11.3853 15.1053 11.5616C18.6441 11.1159 22.129 11.8727 22.2441 11.8971C22.2196 9.46531 21.3502 7.23673 19.9127 5.49061C19.8931 5.52 18.2498 7.89551 14.2041 9.54612ZM15.7322 13.1804C17.0792 16.8784 17.6229 19.8882 17.7257 20.5004C20.0278 18.9478 21.6612 16.4841 22.1167 13.6261C21.9135 13.56 19.0457 12.649 15.7322 13.1804Z" fill="#E74D89"/>
</svg>
