<svg width="24" height="24" viewBox="0 0 24 24" fill="none" xmlns="http://www.w3.org/2000/svg">
<path d="M3.10338 9.31232C1.4106 9.31232 0 10.0245 0 12.1733C0 13.8756 0.948525 14.9476 3.14709 14.9476C5.73491 14.9476 5.9008 13.257 5.9008 13.257H4.64688C4.64688 13.257 4.37803 14.1673 3.0706 14.1673C2.00574 14.1673 1.23985 13.4539 1.23985 12.454H6.03193V11.8265C6.03193 10.8373 5.3987 9.31232 3.10338 9.31232ZM3.05968 10.1143C4.07332 10.1143 4.76435 10.7301 4.76435 11.6531H1.26758C1.26758 10.6732 2.16956 10.1143 3.05968 10.1143Z" fill="#E53238"/>
<path d="M6.03105 7.2316V13.8685C6.03105 14.2452 6.00394 14.7742 6.00394 14.7742H7.19991C7.19991 14.7742 7.24284 14.3943 7.24284 14.0471C7.24284 14.0471 7.83373 14.9639 9.4404 14.9639C11.1323 14.9639 12.2815 13.799 12.2815 12.13C12.2815 10.5773 11.2259 9.32858 9.44313 9.32858C7.77368 9.32858 7.25492 10.2226 7.25492 10.2226V7.2316H6.03105ZM9.13443 10.1495C10.2834 10.1495 11.0139 10.9951 11.0139 12.13C11.0139 13.3469 10.1701 14.143 9.14263 14.143C7.91638 14.143 7.25492 13.1934 7.25492 12.1408C7.25492 11.16 7.84847 10.1495 9.13443 10.1495Z" fill="#0064D2"/>
<path d="M15.2538 9.31232C12.7071 9.31232 12.5438 10.6952 12.5438 10.9162H13.8114C13.8114 10.9162 13.8778 10.1088 15.1664 10.1088C16.0037 10.1088 16.6525 10.4889 16.6525 11.2196V11.4797H15.1664C13.1934 11.4797 12.1504 12.0521 12.1504 13.2137C12.1504 14.3568 13.1141 14.9788 14.4165 14.9788C16.1914 14.9788 16.7631 14.0061 16.7631 14.0061C16.7631 14.393 16.7932 14.7742 16.7932 14.7742H17.9201C17.9201 14.7742 17.8764 14.3017 17.8764 13.9994V11.3863C17.8764 9.6729 16.4828 9.31232 15.2538 9.31232ZM16.6525 12.26V12.6068C16.6525 13.0591 16.3711 14.1836 14.7142 14.1836C13.807 14.1836 13.418 13.7345 13.418 13.2137C13.418 12.2661 14.7279 12.26 16.6525 12.26Z" fill="#F5AF02"/>
<path d="M17.1939 9.52919H18.6196L20.6662 13.5955L22.7083 9.52919H24L20.2807 16.7684H18.9258L19.9989 14.7503L17.1939 9.52919Z" fill="#86B817"/>
</svg>
