<svg width="24" height="24" viewBox="0 0 24 24" fill="none" xmlns="http://www.w3.org/2000/svg">
<path d="M2 22.0002L2.27441 22.9611L0.543945 23.4563L1.03809 21.7248L2 22.0002Z" fill="#555555"/>
<path d="M13.293 9.29317C13.6835 8.9027 14.3165 8.9027 14.707 9.29317C15.0974 9.68369 15.0975 10.3168 14.707 10.7072L8.70703 16.7072C8.31655 17.0976 7.68345 17.0976 7.29297 16.7072C6.90254 16.3168 6.90261 15.6837 7.29297 15.2932L13.293 9.29317Z" fill="#555555"/>
<path fill-rule="evenodd" clip-rule="evenodd" d="M15.9902 1.60078C17.1679 0.53654 18.986 0.572234 20.1211 1.70723L22.293 3.87813L22.3994 3.99043C23.4634 5.16807 23.4279 6.98633 22.293 8.12129L10.4404 19.9738C9.83964 20.5746 9.09527 21.0128 8.27832 21.2463L2.27441 22.9611L2 22.0002L1.03809 21.7248L2.75391 15.7219C2.98733 14.905 3.42465 14.1606 4.02539 13.5598L15.8789 1.70723L15.9902 1.60078ZM5.44043 14.9738C5.07994 15.3343 4.81683 15.7815 4.67676 16.2717L3.89746 19.0002H5V20.1027L7.72852 19.3234C8.21865 19.1834 8.66492 18.9202 9.02539 18.5598L18.085 9.49922L14.5 5.91426L5.44043 14.9738ZM18.707 3.12129C18.3165 2.73083 17.6835 2.73083 17.293 3.12129L15.9141 4.5002L19.499 8.08516L20.8789 6.70723C21.2451 6.34103 21.2678 5.76112 20.9473 5.36836L20.8789 5.29316L18.707 3.12129Z" fill="#555555"/>
</svg>
