<svg width="24" height="24" viewBox="0 0 24 24" fill="none" xmlns="http://www.w3.org/2000/svg">
<path d="M14.0637 1C14.6336 1 15.0955 1.44772 15.0955 2V6.80371L19.3883 4.40234L19.479 4.35645C19.6952 4.26162 19.9399 4.24179 20.1712 4.30176C20.4354 4.37037 20.6612 4.53806 20.798 4.76758L22.8617 8.23242C23.1465 8.71068 22.9773 9.32156 22.4839 9.59766L18.1911 12L22.4839 14.4023C22.9773 14.6784 23.1464 15.2893 22.8617 15.7676L20.798 19.2324C20.6612 19.462 20.4355 19.6296 20.1712 19.6982C19.907 19.7668 19.6252 19.7302 19.3883 19.5977L15.0955 17.1953V22C15.0955 22.5523 14.6336 23 14.0637 23H9.93622C9.36643 22.9999 8.90435 22.5522 8.90435 22V17.1953L4.61163 19.5977C4.11815 19.8738 3.48687 19.7106 3.20189 19.2324L1.13816 15.7676C1.00152 15.538 0.964586 15.2648 1.03538 15.0088C1.10624 14.7528 1.27927 14.5349 1.51604 14.4023L5.80775 12L1.51604 9.59766C1.02277 9.32153 0.853555 8.7106 1.13816 8.23242L3.20189 4.76758C3.33873 4.53799 3.5644 4.37038 3.82867 4.30176C4.09298 4.23315 4.37466 4.26975 4.61163 4.40234L8.90435 6.80371V2C8.90435 1.44778 9.36643 1.00011 9.93622 1H14.0637ZM10.9681 8.53613C10.968 8.89333 10.7714 9.22374 10.4522 9.40234C10.133 9.5808 9.73944 9.58091 9.42029 9.40234L4.47257 6.63379L3.44071 8.36621L8.38842 11.1338C8.70767 11.3124 8.90434 11.6427 8.90435 12C8.90435 12.3573 8.70768 12.6876 8.38842 12.8662L3.44071 15.6328L4.47257 17.3652L9.42029 14.5977C9.73943 14.4191 10.133 14.4192 10.4522 14.5977C10.7713 14.7762 10.968 15.1067 10.9681 15.4639V21H13.0318V15.4639C13.0319 15.1067 13.2286 14.7762 13.5477 14.5977C13.8669 14.4191 14.2604 14.4192 14.5796 14.5977L19.5263 17.3652L20.5582 15.6328L15.6115 12.8662C15.2922 12.6876 15.0955 12.3572 15.0955 12C15.0956 11.6428 15.2922 11.3124 15.6115 11.1338L20.5582 8.36621L19.5263 6.63379L14.5796 9.40234C14.2604 9.58078 13.8669 9.58089 13.5477 9.40234C13.2286 9.22375 13.0319 8.89331 13.0318 8.53613V3H10.9681V8.53613Z" fill="#555555"/>
</svg>
