<svg width="24" height="24" viewBox="0 0 24 24" fill="none" xmlns="http://www.w3.org/2000/svg">
<path fill-rule="evenodd" clip-rule="evenodd" d="M11.9998 0C5.3753 0 0.00469667 5.36825 0 11.9919V21.2781C0.0035225 22.7821 1.22334 23.9996 2.7282 23.9996H12.0047C18.6301 23.997 24 18.6262 24 12.0003C24 5.37285 18.6273 0 11.9998 0ZM16.5953 5.57655C16.2163 5.57655 16.0785 5.5037 15.5231 5.5037C13.8832 5.5037 12.5532 6.83187 12.5504 8.47172V11.0548C12.5504 11.2863 12.7383 11.4739 12.9703 11.4739L14.9232 11.4743C15.6508 11.4743 16.2387 12.0547 16.2387 12.7842C16.2391 13.5184 15.6447 14.0965 14.9094 14.0965H12.5504V17.0814C12.5504 20.1916 10.0288 22.7135 6.91853 22.7135C6.44665 22.7135 6.11112 22.6601 5.67429 22.5461C5.03737 22.3793 4.51688 21.857 4.5167 21.2496C4.5167 20.5157 5.04963 19.9815 5.84628 19.9815C6.22549 19.9815 6.36296 20.0543 6.91858 20.0543C8.55832 20.0543 9.88838 18.7261 9.89133 17.0864V14.5031C9.89133 14.2715 9.70314 14.084 9.47141 14.084L7.51848 14.0838C6.79083 14.0838 6.20294 13.5034 6.20294 12.7738C6.20257 12.0395 6.79688 11.4616 7.53234 11.4616H9.89101V8.47646C9.89101 5.36628 12.4129 2.84449 15.5231 2.84449C15.9949 2.84449 16.3305 2.89775 16.7672 3.01198C17.4043 3.17857 17.9246 3.70084 17.925 4.30826C17.925 5.04249 17.392 5.57655 16.5953 5.57655Z" fill="#4F6DB1"/>
</svg>
