<svg width="24" height="25" viewBox="0 0 24 25" fill="none" xmlns="http://www.w3.org/2000/svg">
<path fill-rule="evenodd" clip-rule="evenodd" d="M4.24955 1C4.2002 2.26603 4.15312 3.47137 4.10547 4.68409C4.72941 4.52981 5.34031 4.43848 5.93476 4.6943C7.22631 2.92628 9.08339 2.31822 11.1294 2.0936C11.1418 2.11402 11.1549 2.13444 11.1674 2.15486C11.1265 2.19853 11.0868 2.24278 11.0448 2.28532C10.2252 3.118 9.56609 4.06412 9.097 5.13219C8.96257 5.43792 8.93138 5.7896 8.85877 6.12142C8.83041 6.25075 8.89564 6.31995 9.02667 6.3381C9.63359 6.42092 10.2394 6.51791 10.8486 6.58768C11.2309 6.63135 11.6177 6.6393 12.0029 6.65518C12.1832 6.66255 12.261 6.75217 12.2649 6.92234C12.2802 7.6064 12.0516 8.19234 11.506 8.61265C10.9802 9.01708 10.3761 9.27573 9.72492 9.4164C9.65742 9.43115 9.59048 9.451 9.51675 9.47029C9.58198 10.3024 9.64664 11.1192 9.71527 11.9848C9.08339 11.6819 8.47873 11.3926 7.86103 11.0971C7.67498 11.489 7.66137 11.877 7.77879 12.2729C8.09529 13.3455 9.21045 13.9678 10.3647 13.6825C10.7692 13.5826 11.16 13.4125 11.5412 13.2395C11.9172 13.0682 12.27 12.8481 12.637 12.6564C13.2593 12.3319 13.886 12.3603 14.5111 12.6496C14.6002 12.691 14.6904 12.7454 14.7596 12.8146C14.9944 13.0494 15.177 13.3177 15.0829 13.6717C14.9915 14.0137 14.7431 14.2117 14.4056 14.2831C14.2116 14.3246 14.0097 14.3421 13.8117 14.3416C13.6801 14.341 13.6098 14.3841 13.5378 14.4902C12.8582 15.4987 11.9762 16.2418 10.7476 16.4545C10.2314 16.5435 9.69769 16.5288 9.17188 16.5583C9.10211 16.5622 9.03234 16.552 8.91663 16.5458C8.9864 16.6104 9.02156 16.6502 9.06354 16.6813C10.4538 17.708 11.991 18.0586 13.6784 17.6547C15.059 17.3251 16.2871 16.7063 17.3007 15.6904C18.2667 14.7216 18.7085 13.5401 18.7227 12.1941C18.7369 10.8413 18.4346 9.56048 17.7426 8.3869C17.6217 8.18156 17.4641 7.99779 17.2888 7.75615C18.4799 8.29614 19.5299 8.90987 20.016 10.1765C20.1595 8.5945 19.8679 7.09704 19.2576 5.65177C18.6478 4.20763 17.7726 2.95747 16.5764 1.9206C16.6263 1.93137 16.6768 1.93932 16.725 1.95463C19.4193 2.79865 21.4879 4.40445 22.7806 6.94616C23.4068 8.17646 23.7273 9.49751 23.8924 10.8588C24.0693 12.316 24.0483 13.7647 23.6762 15.1969C23.054 17.5946 21.7409 19.556 19.923 21.21C18.1929 22.7841 16.1776 23.8051 13.8707 24.0972C8.73171 24.7483 4.6812 22.8986 1.80823 18.5708C0.665287 16.8487 0.125861 14.9218 0.0226275 12.8594C-0.144135 9.50943 0.611401 6.38518 2.27165 3.47761C2.75492 2.63019 3.33746 1.85423 4.04875 1.18094C4.09923 1.1333 4.15142 1.08792 4.24955 1Z" fill="#E66000"/>
</svg>
