<svg width="24" height="24" viewBox="0 0 24 24" fill="none" xmlns="http://www.w3.org/2000/svg">
<path d="M21.9062 19.251C22.0438 18.7163 22.5883 18.394 23.123 18.5312C23.6579 18.6689 23.9803 19.2142 23.8428 19.749C23.2879 21.9055 21.3313 23.5 19 23.5C17.8297 23.5 16.7545 23.0974 15.9033 22.4248C15.7434 22.7642 15.4001 23 15 23C14.4477 23 14 22.5523 14 22V20C14 19.4477 14.4477 19 15 19H17C17.5523 19 18 19.4477 18 20C18 20.4545 17.6965 20.8374 17.2812 20.959C17.7685 21.3003 18.361 21.5 19 21.5C20.3966 21.5 21.5732 20.5452 21.9062 19.251Z" fill="#000"/>
<path d="M9 2C9.94427 2 10.8338 2.44478 11.4004 3.2002L13.2002 5.59961L13.2754 5.68945C13.463 5.88661 13.7245 6 14 6H20C21.6569 6 23 7.34315 23 9V10.5C23 11.0523 22.5523 11.5 22 11.5C21.4477 11.5 21 11.0523 21 10.5V9C21 8.44771 20.5523 8 20 8H14C13.1146 8 12.2779 7.60895 11.71 6.9375L11.5996 6.7998L9.7998 4.40039C9.61095 4.14858 9.31476 4 9 4H4C3.44772 4 3 4.44772 3 5V19C3 19.5523 3.44772 20 4 20H11.5C12.0523 20 12.5 20.4477 12.5 21C12.5 21.5523 12.0523 22 11.5 22H4C2.34315 22 1 20.6569 1 19V5C1 3.34315 2.34315 2 4 2H9Z" fill="#000"/>
<path d="M19 12.75C20.1383 12.75 21.1864 13.1317 22.0264 13.7715C22.1297 13.3293 22.5263 13 23 13C23.5523 13 24 13.4477 24 14V16C24 16.5523 23.5523 17 23 17H21C20.4477 17 20 16.5523 20 16C20 15.6364 20.1942 15.3186 20.4844 15.1436C20.0462 14.8936 19.5399 14.75 19 14.75C17.6036 14.75 16.428 15.7051 16.0947 16.999C15.9571 17.5337 15.4117 17.8562 14.877 17.7188C14.3423 17.5811 14.0198 17.0357 14.1572 16.501C14.7123 14.3448 16.6689 12.75 19 12.75Z" fill="#000"/>
</svg>
