<svg width="24" height="24" viewBox="0 0 24 24" fill="none" xmlns="http://www.w3.org/2000/svg">
<path d="M12 1C15.7455 1 19.0616 2.87413 21 5.74023V4C21 3.44772 21.4477 3 22 3C22.5523 3 23 3.44772 23 4V8C23 8.55228 22.5523 9 22 9H18C17.4477 9 17 8.55228 17 8C17 7.44772 17.4477 7 18 7H19.4346C17.8759 4.596 15.1294 3 12 3C7.02944 3 3 7.02944 3 12C3 16.9706 7.02944 21 12 21C16.353 21 19.9865 17.9084 20.8203 13.8008C20.9303 13.2597 21.4579 12.9097 21.999 13.0195C22.5403 13.1294 22.8901 13.658 22.7803 14.1992C21.7609 19.2205 17.3228 23 12 23C5.92487 23 1 18.0751 1 12C1 5.92487 5.92487 1 12 1Z" fill="#000"/>
<path fill-rule="evenodd" clip-rule="evenodd" d="M13.75 8C14.5371 8 15.2073 8.20612 15.7471 8.59375C16.2788 8.97567 16.6152 9.48435 16.8281 9.98047C17.2391 10.9382 17.25 12.0011 17.25 12.5C17.25 12.9752 17.2611 14.0481 16.8604 15.0098C16.6513 15.5113 16.3146 16.025 15.7744 16.4092C15.2281 16.7975 14.5487 17 13.75 17C12.9513 17 12.2719 16.7975 11.7256 16.4092C11.1854 16.025 10.8487 15.5113 10.6396 15.0098C10.2389 14.0481 10.25 12.9752 10.25 12.5C10.25 12.006 10.2562 10.9411 10.665 9.98242C10.8771 9.48522 11.2136 8.97612 11.7471 8.59375C12.2883 8.20583 12.9604 8 13.75 8ZM13.75 10C13.3192 10 13.0685 10.1067 12.9121 10.2188C12.7481 10.3363 12.6126 10.5149 12.5049 10.7676C12.274 11.3089 12.25 11.9941 12.25 12.5C12.25 13.0248 12.2611 13.702 12.4854 14.2402C12.5887 14.4884 12.7212 14.6625 12.8838 14.7783C13.0405 14.8898 13.299 15 13.75 15C14.201 15 14.4595 14.8898 14.6162 14.7783C14.7788 14.6625 14.9113 14.4884 15.0146 14.2402C15.2389 13.702 15.25 13.0248 15.25 12.5C15.25 11.9989 15.2229 11.3118 14.9902 10.7695C14.8813 10.5157 14.7444 10.3368 14.5801 10.2188C14.4238 10.1065 14.1754 10 13.75 10Z" fill="#000"/>
<path d="M9 16.75H7V11.1641C6.7637 11.2765 6.54411 11.3598 6.36719 11.4297L5.63281 9.57031C6.00901 9.42162 6.23639 9.33157 6.42676 9.19629C6.57794 9.08881 6.70512 8.95008 6.79395 8.68359L7.02148 8H9V16.75Z" fill="#000"/>
</svg>
