<svg width="24" height="25" viewBox="0 0 24 25" fill="none" xmlns="http://www.w3.org/2000/svg">
<path d="M7 9.27686C7.55228 9.27686 8 9.72457 8 10.2769V11.2769H9C9.55229 11.2769 10 11.7246 10 12.2769C10 12.8291 9.55229 13.2769 9 13.2769H8V14.2769C8 14.8291 7.55228 15.2769 7 15.2769C6.44772 15.2769 6 14.8291 6 14.2769V13.2769H5C4.44772 13.2769 4 12.8291 4 12.2769C4 11.7246 4.44772 11.2769 5 11.2769H6V10.2769C6 9.72457 6.44772 9.27686 7 9.27686Z" fill="#555555"/>
<path d="M13.5 11.2769C14.3284 11.2769 15 11.9484 15 12.7769C15 13.6053 14.3284 14.2769 13.5 14.2769C12.6716 14.2769 12 13.6053 12 12.7769C12 11.9484 12.6716 11.2769 13.5 11.2769Z" fill="#555555"/>
<path d="M17.5 9.27686C18.3284 9.27686 19 9.94843 19 10.7769C19 11.6053 18.3284 12.2769 17.5 12.2769C16.6716 12.2769 16 11.6053 16 10.7769C16 9.94843 16.6716 9.27686 17.5 9.27686Z" fill="#555555"/>
<path fill-rule="evenodd" clip-rule="evenodd" d="M12 2.27686C12.5523 2.27686 13 2.72457 13 3.27686V5.2876C14.9072 5.30666 16.1152 5.27686 17 5.27686C18.0674 5.27686 19.2999 5.40603 20.416 6.12354C21.5521 6.85402 22.4165 8.09334 22.9619 10.0024C23.9999 13.6354 24 15.7447 24 18.2769C24 19.8524 23.3363 20.9472 22.2539 21.5786C21.2675 22.1539 20.0454 22.2769 19 22.2769C18.1452 22.2769 17.4756 21.844 16.9697 21.4146C16.4915 21.0086 15.9596 20.4181 15.5254 19.9868C14.5787 19.0465 13.5717 18.2769 12 18.2769C10.4283 18.2769 9.42127 19.0465 8.47461 19.9868C8.04041 20.4181 7.50846 21.0086 7.03027 21.4146C6.52443 21.844 5.85484 22.2769 5 22.2769C3.9546 22.2769 2.73248 22.1539 1.74609 21.5786C0.663712 20.9472 0 19.8524 0 18.2769C0 15.7447 0.000129223 13.6354 1.03809 10.0024C1.58354 8.09334 2.44788 6.85402 3.58398 6.12354C4.70011 5.40603 5.93265 5.27686 7 5.27686C7.88478 5.27686 9.09283 5.30666 11 5.2876V3.27686C11 2.72457 11.4477 2.27686 12 2.27686ZM17 7.27686C16.0414 7.27686 14.4962 7.32089 12 7.27686C9.50375 7.32089 7.95857 7.27686 7 7.27686C6.06752 7.27686 5.29983 7.39786 4.66602 7.80518C4.05234 8.19968 3.41639 8.96083 2.96191 10.5513C1.99998 13.918 2 15.8091 2 18.2769C2 19.2012 2.33637 19.6065 2.75391 19.8501C3.26749 20.1497 4.04547 20.2769 5 20.2769C5.14516 20.2769 5.3577 20.2097 5.73535 19.8892C6.14042 19.5453 6.493 19.1355 7.06543 18.5669C8.13235 17.5072 9.62614 16.2769 12 16.2769C14.3739 16.2769 15.8677 17.5072 16.9346 18.5669C17.507 19.1355 17.8596 19.5453 18.2646 19.8892C18.6423 20.2097 18.8548 20.2769 19 20.2769C19.9545 20.2769 20.7325 20.1497 21.2461 19.8501C21.6636 19.6065 22 19.2012 22 18.2769C22 15.8091 22 13.918 21.0381 10.5513C20.5836 8.96083 19.9477 8.19968 19.334 7.80518C18.7002 7.39786 17.9325 7.27686 17 7.27686Z" fill="#555555"/>
</svg>
