<svg width="24" height="24" viewBox="0 0 24 24" fill="none" xmlns="http://www.w3.org/2000/svg">
<path fill-rule="evenodd" clip-rule="evenodd" d="M19.5 1C21.9853 1 24 3.01472 24 5.5C24 7.15034 23.1103 8.5894 21.7891 9.37207C21.8445 9.61198 21.8859 9.85365 21.916 10.0947C22.0317 11.0194 22.0008 12.05 22 13.001C21.9983 15.0004 21.9986 17.2502 21.999 19C21.9992 19.8745 21.9988 20.6242 21.999 21.1553C21.9992 21.4206 21.9999 21.6319 22 21.7764V21.999L20 22.001V21.7783C19.9999 21.6338 19.9992 21.4227 19.999 21.1572C19.9988 20.6259 19.9992 19.8751 19.999 19C19.9986 17.2499 19.9983 14.9995 20 12.999C20.0009 11.9501 20.0271 11.1055 19.9316 10.3428C19.8399 9.60967 19.6459 9.07323 19.2842 8.65039C18.9206 8.22546 18.2941 7.80702 17.1338 7.49707C15.9658 7.18511 14.3195 7 12 7C9.68049 7 8.0342 7.18512 6.86621 7.49707C5.7059 7.80702 5.07941 8.22546 4.71582 8.65039C4.35409 9.07324 4.16008 9.60965 4.06836 10.3428C3.97294 11.1055 3.9991 11.9501 4 12.999C4.00171 14.9995 4.0014 17.2499 4.00098 19C4.00076 19.8751 4.00027 20.6259 4 21.1572V22.001C3.99946 22.5531 3.55121 23.0004 2.99902 23C2.44686 22.9995 1.99962 22.5512 2 21.999V21.1553C2.00027 20.6242 2.00076 19.8745 2.00098 19C2.0014 17.2502 2.00171 15.0004 2 13.001C1.99919 12.05 1.96832 11.0194 2.08398 10.0947C2.11413 9.85371 2.15452 9.61191 2.20996 9.37207C0.889099 8.5893 0 7.15004 0 5.5C0 3.01472 2.01472 1 4.5 1C6.85927 1 8.79224 2.81578 8.98242 5.12598C9.8738 5.04332 10.8752 5 12 5C13.1244 5 14.1255 5.04337 15.0166 5.12598C15.2067 2.81574 17.1407 1 19.5 1ZM4.5 3C3.11929 3 2 4.11929 2 5.5C2 6.33759 2.41295 7.0789 3.04785 7.5332C3.09513 7.4714 3.1446 7.41002 3.19629 7.34961C3.90222 6.52466 4.93642 5.94296 6.34961 5.56543C6.55523 5.5105 6.77047 5.46005 6.99512 5.41309C6.94926 4.07267 5.85158 3 4.5 3ZM19.5 3C18.1484 3 17.0497 4.07266 17.0039 5.41309C17.2289 5.4601 17.4445 5.51043 17.6504 5.56543C19.0636 5.94297 20.0978 6.52465 20.8037 7.34961C20.8553 7.40988 20.904 7.47154 20.9512 7.5332C21.5864 7.07894 22 6.33788 22 5.5C22 4.11929 20.8807 3 19.5 3Z" fill="#555555"/>
<path d="M7.29297 19.293C7.68219 18.9037 8.3123 18.9024 8.70312 19.2891L8.69336 19.2793L8.68457 19.2715C8.69251 19.278 8.71642 19.2966 8.75781 19.3242C8.84105 19.3797 8.99834 19.4722 9.24609 19.5713C9.74022 19.7689 10.6127 20 12 20C13.3873 20 14.2598 19.7689 14.7539 19.5713C15.0017 19.4722 15.159 19.3797 15.2422 19.3242L15.3154 19.2715C15.3135 19.2732 15.3104 19.2758 15.3066 19.2793L15.2939 19.292L16.7061 20.708L16.7051 20.709L16.7031 20.7119C16.7031 20.7119 16.6998 20.7143 16.6982 20.7158C16.695 20.719 16.6913 20.7229 16.6875 20.7266C16.6799 20.7339 16.671 20.742 16.6611 20.751C16.6412 20.7691 16.6161 20.7904 16.5869 20.8145C16.5282 20.8628 16.4504 20.9224 16.3516 20.9883C16.1536 21.1203 15.8731 21.2779 15.4961 21.4287C14.7402 21.731 13.6125 22 12 22C10.3875 22 9.25978 21.731 8.50391 21.4287C8.12685 21.2779 7.84641 21.1203 7.64844 20.9883C7.54963 20.9224 7.4718 20.8628 7.41309 20.8145C7.38385 20.7904 7.35878 20.7691 7.33887 20.751C7.32902 20.742 7.32014 20.7339 7.3125 20.7266C7.30867 20.7229 7.30504 20.719 7.30176 20.7158C7.30022 20.7143 7.29688 20.7119 7.29688 20.7119L7.29492 20.709L7.29395 20.708C7.29495 20.706 7.32627 20.6737 8 20L7.29297 20.707C6.90244 20.3165 6.90244 19.6835 7.29297 19.293Z" fill="#555555"/>
<path d="M11.9902 14.9297C12.2511 14.9272 12.5271 14.9302 12.7471 14.9434C12.8511 14.9496 12.9755 14.9597 13.0879 14.9795C13.1356 14.9879 13.239 15.0073 13.3516 15.0527C13.4039 15.0738 13.5228 15.1254 13.6445 15.2295C13.7664 15.3337 14 15.5906 14 16C14 16.6063 13.7663 17.1369 13.3486 17.5049C12.951 17.8551 12.4539 18 12 18C11.5461 18 11.049 17.8551 10.6514 17.5049C10.2337 17.1369 10 16.6063 10 16C10 15.4185 10.455 15.1579 10.4902 15.1367C10.6007 15.0702 10.6998 15.039 10.7354 15.0283C10.8208 15.0027 10.8999 14.9903 10.9404 14.9844C11.035 14.9705 11.1453 14.9608 11.2471 14.9541C11.4585 14.9402 11.728 14.9322 11.9902 14.9297Z" fill="#555555"/>
<path d="M7 11C8.10457 11 9 11.8954 9 13C9 14.1046 8.10457 15 7 15C5.89543 15 5 14.1046 5 13C5 11.8954 5.89543 11 7 11Z" fill="#555555"/>
<path d="M17 11C18.1046 11 19 11.8954 19 13C19 14.1046 18.1046 15 17 15C15.8954 15 15 14.1046 15 13C15 11.8954 15.8954 11 17 11Z" fill="#555555"/>
</svg>
