<svg width="24" height="24" viewBox="0 0 24 24" fill="none" xmlns="http://www.w3.org/2000/svg">
<path fill-rule="evenodd" clip-rule="evenodd" d="M19.9999 1V2.13574C20.0011 3.53061 20.0025 5.33979 18.914 6.73926C17.858 8.09663 15.9928 8.84624 12.9999 8.97852V15H17.9999C18.5522 15 18.9999 15.4477 18.9999 16C18.9999 16.5523 18.5522 17 17.9999 17H17.8476L17.2646 20.4932C17.0235 21.9397 15.7721 23 14.3056 23H9.69426C8.22776 23 6.97638 21.9397 6.73528 20.4932L6.15325 17H5.99993C5.44768 17 4.99993 16.5523 4.99993 16C4.99993 15.4477 5.44768 15 5.99993 15H10.9999V12.9785C8.00703 12.8462 6.14182 12.0967 5.08586 10.7393C3.99739 9.33979 3.99873 7.53061 3.99993 6.13574V5H4.99993C7.82658 5 9.76833 5.471 11.0361 6.40723C11.1124 5.34106 11.3498 4.20715 12.0859 3.26074C13.2548 1.75804 15.4155 1.00002 18.9999 1H19.9999ZM8.18059 17L8.70793 20.1641C8.7883 20.6462 9.20544 21 9.69426 21H14.3056C14.7944 21 15.2116 20.6463 15.2919 20.1641L15.8193 17H8.18059ZM6.01262 7.02344C6.04865 8.08573 6.18245 8.89136 6.66399 9.51074C7.18379 10.1791 8.31072 10.8439 10.9872 10.9766C10.9512 9.9142 10.8175 9.10866 10.3359 8.48926C9.81607 7.82095 8.68914 7.15608 6.01262 7.02344ZM17.9872 3.02344C15.3107 3.15608 14.1838 3.82095 13.664 4.48926C13.1825 5.10864 13.0486 5.91427 13.0126 6.97656C15.6891 6.84392 16.8161 6.17905 17.3359 5.51074C17.8175 4.89134 17.9512 4.08579 17.9872 3.02344Z" fill="#000"/>
</svg>
