<svg width="24" height="24" viewBox="0 0 24 24" fill="none" xmlns="http://www.w3.org/2000/svg">
<path fill-rule="evenodd" clip-rule="evenodd" d="M22.6149 8.51459C22.4528 9.15578 22.1254 9.70111 21.4473 9.94261C21.1149 10.061 20.9001 9.93918 20.561 9.84144C20.8938 9.8731 21.0852 9.92425 21.3833 9.77672C21.9397 9.50159 22.3497 9.05203 22.6149 8.51459ZM23.9697 12.7295C23.8906 13.5067 23.6832 14.2617 23.3137 14.9016C22.9828 15.4754 22.5217 15.9578 21.9075 16.2867C21.4901 16.5086 21.0051 16.6371 20.5037 16.6896C19.9832 16.7438 19.4459 16.7148 18.9446 16.6297C18.9211 16.7074 18.8969 16.7864 18.8738 16.8635C18.8445 16.9606 18.8149 17.0582 18.7855 17.1547C18.6832 17.491 18.4387 17.7942 18.134 18.0188C17.8196 18.2508 17.4362 18.4023 17.0787 18.4184C16.7373 18.435 16.4734 18.3545 16.2395 18.2164C16.0129 18.0832 15.8192 17.8979 15.6078 17.6938L15.3309 17.4274C15.2688 17.3668 15.2067 17.3065 15.1438 17.2465C15.1372 17.29 15.131 17.3316 15.1243 17.3697C15.222 17.5672 15.2911 17.7523 15.3614 17.9422C15.4057 18.0607 15.4512 18.1831 15.5061 18.3152C15.588 18.5105 15.6497 18.6734 15.6927 18.8424C15.7356 19.0129 15.7593 19.1863 15.7646 19.3988C15.7696 19.5799 15.7745 19.7606 15.7795 19.9412C15.784 20.1117 15.7884 20.2823 15.7938 20.4528C15.8692 20.5895 15.9138 20.6832 15.936 20.7867C15.961 20.8971 15.9585 21.0047 15.9458 21.1801C15.918 21.5743 15.7878 21.7939 15.5688 21.9186C15.3634 22.035 15.0913 22.0524 14.7548 22.0508C14.7036 22.05 14.6206 22.05 14.52 22.05C14.1935 22.05 13.6884 22.0508 13.5339 22.0399C13.3263 22.0248 13.1536 22.009 13.0087 21.9742C12.897 21.9477 12.8051 21.909 12.7284 21.8527C12.6169 21.9428 12.5188 22.0242 12.4203 22.1053C12.1304 22.3442 11.8361 22.5875 11.7176 22.6664C11.6722 22.7363 11.6311 22.8068 11.5934 22.8723C11.4717 23.0856 11.3816 23.2433 11.0947 23.399C10.5312 23.7033 10.0951 23.6768 9.71258 23.442C9.34812 23.2183 9.04706 22.8074 8.73229 22.3219C8.58256 22.0914 8.3435 21.7117 8.22712 21.3394C8.09843 20.9274 8.11627 20.5265 8.52681 20.3156C8.54635 20.3055 8.56617 20.2953 8.58472 20.2855C8.62751 20.2632 8.66785 20.243 8.70815 20.2222C8.55255 20.2304 8.39615 20.2367 8.24055 20.2347C7.93508 20.2328 7.62815 20.2117 7.31516 20.1714C7.32024 20.2088 7.32456 20.2386 7.32695 20.258C7.35091 20.4656 7.36748 20.6015 7.34776 20.7377C7.32794 20.8781 7.27219 21.0031 7.1535 21.18C7.14561 21.1918 7.11903 21.2302 7.0963 21.2625C6.98626 21.4246 6.92121 21.5211 6.76983 21.856C6.78477 22.0211 6.78965 22.1539 6.77871 22.2861C6.76669 22.4285 6.73672 22.5734 6.68605 22.7629C6.55684 23.2406 6.07647 23.3507 5.54424 23.3173C5.05588 23.2869 4.52121 23.1332 4.21231 23.0492C4.14524 23.0314 4.09086 23.0173 4.03802 23.0035C3.77735 22.9355 3.49649 22.8621 3.26011 22.7546C2.78678 22.5386 2.48342 22.1996 2.77884 21.5505C2.82642 21.4476 2.86789 21.3429 2.90561 21.2374C2.92007 21.2 2.92956 21.164 2.94182 21.1265C2.70083 21.164 2.44482 21.1183 2.19552 21.0236C1.75938 20.8578 1.3426 20.541 1.08762 20.2859C0.883739 20.0816 0.725132 19.8617 0.606448 19.6359C0.478041 19.3914 0.395896 19.1379 0.354096 18.8883C0.285243 18.4797 0.33329 18.4332 0.574792 18.2013C0.610816 18.166 0.65116 18.1275 0.661023 18.118C0.780365 18 0.898909 17.8817 1.01797 17.7642C1.14501 17.6383 1.27352 17.5113 1.40009 17.3848C1.45828 17.2273 1.51619 17.0703 1.57457 16.9115C1.6121 16.8102 1.6493 16.708 1.6864 16.6071C1.66855 16.5129 1.6524 16.4182 1.63882 16.3213C1.62313 16.2082 1.61078 16.1044 1.60261 16.0106C1.56588 15.5788 1.55358 15.2074 1.5664 14.8711C1.57607 14.6147 1.59998 14.3788 1.63934 14.153C1.43992 14.1974 1.23679 14.194 1.05272 14.1356C0.825265 14.0621 0.626737 13.9051 0.503779 13.647C0.457704 13.5523 0.421446 13.4565 0.38716 13.3483C0.357008 13.2529 0.329157 13.1463 0.299286 13.0256C0.136171 12.8576 0.0437403 12.6812 0.0130711 12.5006C-0.023375 12.2934 0.0186132 12.0867 0.111419 11.8886C0.20028 11.6983 0.336718 11.5172 0.49462 11.353C0.919903 10.9112 1.52441 10.5792 1.80574 10.5304L2.01676 10.4935L1.94655 10.6956C1.91005 10.798 1.86736 10.9052 1.82608 11.0107C1.81443 11.0414 1.80264 11.0723 1.78987 11.1056C1.91926 11.208 1.9968 11.35 2.03301 11.5116C2.08956 11.7615 2.05302 12.0494 2.00479 12.2648L1.94725 12.5227L1.78381 12.316C1.74426 12.2672 1.71134 12.2165 1.67968 12.1672C1.65047 12.1223 1.62276 12.08 1.59444 12.0453C1.57194 12.3807 1.53113 12.7172 1.29207 12.9465C1.29883 12.9753 1.30202 12.9907 1.30681 12.9941C1.31062 12.9961 1.35124 12.9739 1.44931 12.9357C1.61764 12.8714 1.76737 12.7642 1.90822 12.6382C2.05302 12.5078 2.18547 12.3589 2.31946 12.2117C2.47093 11.9175 2.64428 11.6393 2.84671 11.3747C3.05247 11.1047 3.28796 10.8494 3.5598 10.6085C4.22513 10.0193 4.87238 9.6269 5.60708 9.34261C6.32623 9.06471 7.12795 8.88957 8.11285 8.73167C8.23679 8.60317 8.36257 8.47589 8.49154 8.35002C8.6299 8.2172 8.77287 8.08437 8.9226 7.9516C9.13296 7.76664 9.30876 7.65355 9.48361 7.58357C9.64152 7.51932 9.7973 7.49419 9.9724 7.48142C10.2731 7.08056 10.5472 6.73662 10.8697 6.43866C11.2074 6.12638 11.5952 5.86647 12.1174 5.64695C13.1988 5.19081 14.1156 4.9532 14.9828 5.00768C15.8562 5.0623 16.6734 5.41197 17.5492 6.13455C17.7145 6.27109 17.8828 6.41856 18.0506 6.5659C18.4176 6.88856 18.7777 7.2045 19.2008 7.46911C19.3601 7.56783 19.4949 7.6536 19.6281 7.75457C19.7598 7.85508 19.8813 7.96738 20.0078 8.11678C20.1607 8.29986 20.3004 8.4827 20.4229 8.6785C20.5258 8.84209 20.6156 9.01572 20.6949 9.20622C20.8742 9.13394 21.064 9.05428 21.216 8.92583C21.3473 8.81325 21.4566 8.65337 21.5656 8.49402C21.6633 8.35053 21.7613 8.20837 21.8777 8.09118C21.9157 8.05183 21.959 8.0197 22.0059 7.99608C22.1844 7.90181 22.4104 7.91736 22.6243 7.99119C22.8262 8.06033 23.0211 8.18319 23.1536 8.31385C23.2145 8.37336 23.2633 8.43709 23.2954 8.4989C23.5614 9.0075 23.7528 9.71463 23.8684 10.4424C23.9973 11.2598 24.0324 12.1067 23.9697 12.7295ZM20.245 9.38187C20.2063 9.38286 20.1684 9.38385 20.1317 9.38521C20.1868 9.43931 20.23 9.50356 20.2616 9.57458C20.2772 9.55964 20.295 9.54518 20.3141 9.53212C20.2914 9.4814 20.2684 9.4311 20.245 9.38187ZM1.49914 11.6539C1.59749 11.6428 1.65864 11.6945 1.73473 11.7703C1.72097 11.5887 1.68659 11.454 1.55912 11.3791C1.54996 11.4086 1.54273 11.4383 1.53423 11.4682C1.51779 11.5266 1.50764 11.5887 1.49914 11.6539ZM1.88995 13.6347C1.89916 13.6021 1.90879 13.5699 1.91935 13.5371C1.98116 13.342 2.04738 13.1526 2.1184 12.969C1.96984 13.1033 1.80278 13.2173 1.60012 13.2984C1.07607 13.5081 1.08673 13.3269 0.861148 12.872C1.34072 12.489 1.11876 12.0185 1.2714 11.4898C1.30696 11.3683 1.35843 11.2496 1.43128 11.0931C0.929015 11.3954 0.00597912 12.2399 0.622792 12.88C0.689673 13.1215 0.741336 13.3094 0.833156 13.5003C1.02196 13.8948 1.51516 13.7936 1.88995 13.6347ZM3.27852 20.033C2.74235 19.2215 2.25798 18.2555 1.97374 17.2731C1.92128 17.4139 1.86868 17.5536 1.8165 17.6942C1.57617 17.9367 1.33593 18.1801 1.09561 18.4236C0.917555 18.6043 0.8828 18.6105 0.918823 18.8658C0.967386 19.2162 1.17413 19.5887 1.48299 19.9039C1.76549 20.1924 2.74071 20.9449 3.12419 20.432C3.20582 20.3227 3.24424 20.1875 3.27852 20.048V20.033ZM15.0622 18.4969C14.9774 18.2953 14.9305 18.1063 14.8715 17.9154C14.744 18.3717 14.5719 18.8012 14.4157 19.2949C14.2676 19.7621 13.5071 21.1168 13.0602 21.4461C13.1473 21.511 13.3071 21.5359 13.5918 21.5606C13.7934 21.5778 14.587 21.5824 14.7869 21.5854C15.226 21.5934 15.3926 21.56 15.4372 21.0604C15.4586 20.8152 15.4391 20.7697 15.3168 20.5551C15.3063 20.1727 15.2957 19.7894 15.2852 19.407C15.2741 19.0447 15.2044 18.8352 15.0622 18.4969ZM22.9516 8.87327C22.8495 8.6259 22.4411 8.25519 22.1817 8.50717C21.92 8.76215 21.7231 9.12102 21.4379 9.3466C21.0493 9.65207 20.3809 9.54701 20.502 10.1962C20.5905 10.6691 20.6156 11.1984 20.5145 11.6389C20.418 12.062 20.3176 12.6633 20.0969 12.9466C20.1621 12.7069 20.2719 12.0801 20.3026 11.6573C20.3192 11.4259 20.2932 11.1467 20.25 10.8657C20.2012 10.8667 20.1526 10.8678 20.1028 10.8693C19.9246 10.8729 19.6344 11.1284 19.5563 11.2878C19.3383 11.7317 19.3235 12.1442 19.0793 12.5668C19.2758 12.0944 19.1653 11.6684 19.3447 11.1618C19.4079 10.9831 19.5682 10.829 19.7535 10.7352C19.6504 10.7198 19.5473 10.7649 19.3949 10.8005C18.7429 10.9555 18.7723 11.4679 18.3713 11.9573C18.7578 11.2482 18.5605 10.778 19.3986 10.5867C19.6744 10.5242 19.8757 10.4991 20.057 10.644C20.0609 10.644 20.0649 10.644 20.0683 10.6432C20.116 10.6396 20.1633 10.6357 20.2113 10.6324C20.1875 10.5022 20.1621 10.374 20.1367 10.2532C19.7535 10.2029 19.4004 10.2136 19.0074 10.273C19.0924 10.2361 19.175 10.202 19.2551 10.173C19.3801 10.1271 19.5016 10.0908 19.6224 10.0702C19.6343 10.0463 19.6413 10.0199 19.6447 9.99145C19.6572 9.85906 19.5592 9.74079 19.4269 9.72769C19.2941 9.7151 19.1812 9.81275 19.1683 9.94557C19.1636 9.9977 19.182 10.06 19.2113 10.1117C19.2048 10.1 19.1986 10.0885 19.1929 10.0762C19.1423 9.97868 19.1187 9.86535 19.129 9.74868C19.1382 9.66062 19.1657 9.57942 19.2077 9.50746C19.1949 9.51056 19.1819 9.5147 19.1691 9.51925C19.0759 9.55664 18.8773 9.54466 18.7874 9.5139C18.9636 9.48468 19.2261 9.39103 19.3956 9.30842C19.4003 9.30645 19.4048 9.30452 19.4085 9.30217C19.5144 9.23694 19.6413 9.20481 19.7737 9.21712C19.8409 9.22383 19.9042 9.24121 19.962 9.26878C20.0409 9.29203 20.1292 9.3234 20.2354 9.36158C20.0741 9.02446 19.8919 8.71969 19.6726 8.41394C19.4652 8.12533 19.2909 8.02567 18.9843 7.84451C18.9175 7.80487 18.8522 7.76528 18.7878 7.72372C18.5612 7.6822 18.3085 7.64138 18.0905 7.6829C18.2702 7.61222 18.4054 7.58371 18.5628 7.5707C18.1288 7.25955 17.7544 6.91035 17.3261 6.55011C15.6732 5.16028 14.3356 5.259 12.2308 6.17288C11.3766 6.54476 11.0709 6.91866 10.5453 7.59146C10.5499 7.59146 10.5555 7.59099 10.5618 7.59099C11.0962 7.57751 11.6276 7.55915 12.177 7.50748C11.6088 7.63979 11.0654 7.74556 10.5075 7.83005C9.89185 7.92398 9.70281 7.90834 9.23845 8.36026C8.38276 9.19269 7.66601 10.1336 6.88279 10.9778C6.42956 11.4671 6.20417 11.9574 5.93805 12.5147C5.6741 13.0692 5.71064 13.2793 6.06482 13.7585C6.42665 14.249 6.64537 14.4709 6.79877 14.9064C7.19887 14.2888 7.68089 13.7768 8.18912 13.1629C7.77417 13.828 7.39576 14.4564 7.05281 15.1326C6.83916 15.5533 6.73423 15.7677 6.74109 16.233C7.14214 16.6951 7.39365 16.9416 7.766 17.0439C8.16709 17.1541 8.54508 17.1357 8.90761 16.9478C9.80956 16.4811 10.6669 15.8721 11.6679 15.7953C12.1847 14.8742 12.0395 13.716 11.8541 12.6684C11.7004 11.7977 11.7394 11.03 11.9468 10.1567C11.9988 11.0049 12.0666 11.7924 12.2349 12.6239C12.48 13.842 12.5316 14.8935 12.0193 16.1521C10.913 16.1787 10.0049 16.8269 9.02372 17.3287C8.58251 17.5545 8.16982 17.5771 7.67615 17.4597C7.17285 17.34 6.78698 16.9517 6.26912 16.3847C6.31989 15.956 6.37583 15.6896 6.52847 15.3748C6.3438 14.8185 6.11479 14.5627 5.69148 13.9937C5.20054 13.3342 5.19208 13.0484 5.56345 12.2973C5.83111 11.7528 6.08201 11.2504 6.50536 10.7537C6.92215 10.2615 7.30544 9.8034 7.69287 9.37037C6.08271 9.61478 5.05489 10.0031 3.95517 10.9676C3.13983 11.6834 2.63127 12.5722 2.26846 13.5986C2.03855 14.2463 1.97412 14.8988 2.08252 15.9575C2.22187 17.3222 2.94656 18.8619 3.72696 19.9849C3.63176 20.6841 3.50833 21.2109 3.31318 21.7107C3.09197 22.2775 3.97227 22.4509 4.39755 22.5673C4.74289 22.662 6.05449 23.022 6.18416 22.5571C6.26142 22.2786 6.26142 22.0841 6.24207 21.7903C6.47587 21.3241 6.54688 21.2618 6.71376 20.9861C6.89228 20.6909 6.90721 20.5731 6.90867 20.2265C6.90937 19.7794 6.89782 18.981 6.91665 18.6923C6.97719 18.9505 7.04919 19.3099 7.10884 19.6548C8.04108 19.8216 8.96628 19.8095 9.89791 19.6192C9.90974 19.5542 9.9313 19.4833 9.95544 19.3962C10.0177 19.1782 10.1428 18.9603 10.2058 18.7419C10.1882 18.9569 10.1718 19.1714 10.1543 19.3858C10.137 19.6071 10.1363 19.7856 10.1635 20.0063C10.1785 20.1278 10.194 20.2489 10.2085 20.3702C10.1411 20.2591 10.0361 20.1524 9.97474 20.0407C9.55979 20.3137 9.33158 20.4683 8.92415 20.6833C8.49374 20.911 8.98741 21.7258 9.16513 22.0091C9.55585 22.6292 10.0225 23.3643 10.7482 22.9804C10.9863 22.8548 11.1257 22.5634 11.2846 22.3536C11.4975 22.2282 12.6284 21.2749 12.8081 21.171C13.0616 21.0255 13.9751 19.5288 14.0909 19.1555C14.3463 18.329 14.6463 17.6999 14.7311 16.8376C14.1495 16.593 13.8667 16.3214 13.4499 15.8313C14.0358 16.2657 14.5416 16.4979 15.1733 16.6979C15.4035 16.9008 15.6358 17.106 15.8774 17.321C16.2276 17.6329 16.5491 17.9508 17.0568 17.96C17.6061 17.9694 18.2272 17.5495 18.3869 17.0287C18.4483 16.8286 18.5101 16.6278 18.5713 16.4274C18.4627 16.4012 18.3561 16.3719 18.2533 16.3405C18.1394 16.6143 18.1484 16.7204 18.0947 16.9215C18.0021 17.2656 17.5285 17.5045 17.0322 17.3848C16.8558 17.3422 16.7521 17.3176 16.6892 17.2723C16.7389 17.4078 16.8361 17.5233 17.0166 17.5562C17.2166 17.5933 17.3642 17.6094 17.6549 17.5434C17.2955 17.7297 17.1799 17.7377 16.9252 17.6809C16.2551 17.532 16.491 16.725 16.6371 16.2315C16.7289 15.9208 16.6978 15.5911 16.6283 15.2797C16.8822 15.4402 17.0833 15.5817 17.3722 15.6794C18.7255 16.1352 20.3314 16.5998 21.6935 15.8389C22.7619 15.2426 23.3477 13.9201 23.4793 12.7087C23.5965 11.6288 23.3942 9.94411 22.9516 8.87327ZM16.0434 15.3758C16.0169 15.544 15.9807 15.7516 15.9542 15.9198C16.0256 15.7299 16.1106 15.5102 16.1933 15.3289C16.281 15.1374 16.3299 15.12 16.5149 15.0188C16.647 14.9469 16.886 14.8485 17.0175 14.7774C16.8821 14.8 16.6394 14.8494 16.5046 14.8723C16.143 14.9334 16.1 15.0199 16.0434 15.3758ZM9.86541 8.90807C9.44618 9.3234 9.03875 10.7473 8.90855 11.3168C9.11314 10.8429 9.6271 9.52 10.0207 9.18316C10.1294 9.08988 10.2059 9.03268 10.2869 8.99107C10.0051 9.46449 10.0256 9.58176 10.1246 10.2151C10.2085 9.57124 10.432 9.32194 10.7969 8.84218C11.1975 8.74092 11.5733 8.62116 11.9838 8.46081C11.5201 8.51346 11.0579 8.56099 10.5934 8.60476C10.2045 8.64144 10.1417 8.6359 9.86541 8.90807ZM16.8286 10.4872C16.7386 10.2981 16.5804 10.1626 16.3973 10.0959C16.5639 10.0061 16.7266 9.9134 16.8543 9.79767C16.4809 9.97065 16.0465 9.92814 15.727 10.1449C15.4438 10.3348 15.0546 10.9391 14.768 11.1946C14.9754 11.1141 15.1754 10.9747 15.3594 10.8284C15.3608 10.9371 15.3852 11.0482 15.4341 11.153C15.4852 11.2598 15.5594 11.3477 15.6458 11.4172C15.6212 11.3926 15.5998 11.3646 15.5841 11.332C15.5075 11.1718 15.5758 10.9792 15.736 10.9034C15.8965 10.8261 16.0901 10.8946 16.1666 11.0545C16.1735 11.07 16.1801 11.0854 16.1844 11.1009C16.0309 11.2154 15.8903 11.3492 15.7727 11.5042C15.67 11.6394 15.584 11.792 15.5227 11.9611C16.0684 11.3139 16.8601 10.8244 17.6043 10.616C17.3961 10.6135 17.1497 10.6526 16.8988 10.7342C16.8899 10.6514 16.8671 10.5676 16.8286 10.4872ZM14.1629 9.90396C14.2885 9.34811 14.5118 8.81236 15.3754 8.3975C14.2309 8.68414 14.0161 9.16479 14.1629 9.90396Z" fill="#92CCF4"/>
</svg>
