<svg width="24" height="24" viewBox="0 0 24 24" fill="none" xmlns="http://www.w3.org/2000/svg">
<path fill-rule="evenodd" clip-rule="evenodd" d="M20.4426 0H3.16169C1.96912 0 1 0.966467 1 2.16169V21.8403C1 23.0335 1.96912 24 3.16169 24H20.4426C21.6355 24 22.6016 23.0335 22.6016 21.8403V2.16169C22.6016 0.966467 21.6355 0 20.4426 0ZM21.4014 21.8403C21.4014 22.3702 20.9721 22.7991 20.4426 22.7991H3.16169C2.63247 22.7991 2.2002 22.3702 2.2002 21.8403V2.16169C2.2002 1.62981 2.63247 1.2002 3.16169 1.2002H20.4426C20.9721 1.2002 21.4014 1.62981 21.4014 2.16169V21.8403ZM6.40037 20.4014L9.10222 18.0003L6.40037 15.5999V20.4014ZM16.1577 10.6723C15.672 10.1839 14.7852 9.60056 13.3022 9.60056C11.675 9.60056 9.99904 10.0245 8.80116 10.4126V3.60123H6.40043V14.0086L8.09698 13.24C8.1252 13.2274 10.8603 12.0013 13.3022 12.0013C14.5203 12.0013 14.7902 12.6719 14.8032 13.2324V20.4014H17.2012V13.2015C17.2039 13.0474 17.1886 11.7158 16.1577 10.6723ZM13.0013 7.5004H15.402C16.4867 6.27165 17.0395 4.96355 17.2015 3.601H14.8031C14.5358 4.96089 13.9445 6.26135 13.0013 7.5004Z" fill="#6762A6"/>
</svg>
