<svg width="24" height="24" viewBox="0 0 24 24" fill="none" xmlns="http://www.w3.org/2000/svg">
<path d="M16.5 5C17.0523 5.00001 17.5 5.44772 17.5 6C17.5 6.55228 17.0523 6.99999 16.5 7H8.60546L8.90526 10H16.25C16.526 10 16.7895 10.1143 16.9785 10.3154C17.1675 10.5166 17.2653 10.787 17.248 11.0625L16.998 15.0625C16.9758 15.4181 16.766 15.7352 16.4473 15.8945L12.4473 17.8945C12.1842 18.026 11.8767 18.0347 11.6064 17.9189L8.10644 16.4189C7.59889 16.2014 7.36366 15.614 7.58105 15.1064C7.79857 14.5989 8.38597 14.3637 8.89355 14.5811L11.9668 15.8975L15.0371 14.3623L15.1855 12H7.99999C7.48627 12 7.05604 11.6108 7.00487 11.0996L6.50487 6.09961C6.47676 5.81848 6.5692 5.53858 6.75878 5.3291C6.94836 5.11966 7.21749 5 7.49999 5H16.5Z" fill="#555555"/>
<path fill-rule="evenodd" clip-rule="evenodd" d="M21 1C21.276 1.00001 21.5395 1.1143 21.7285 1.31543C21.9175 1.51662 22.0153 1.78699 21.998 2.0625L20.998 18.0625C20.9758 18.4181 20.766 18.7352 20.4473 18.8945L12.4473 22.8945C12.1657 23.0353 11.8343 23.0353 11.5527 22.8945L3.55273 18.8945C3.234 18.7352 3.02422 18.4181 3.00194 18.0625L2.00194 2.0625C1.98473 1.78699 2.08247 1.51662 2.27148 1.31543C2.46048 1.1143 2.72399 1 2.99999 1H21ZM4.96191 17.3623L12 20.8818L19.0371 17.3623L19.9355 3H4.06444L4.96191 17.3623Z" fill="#555555"/>
</svg>
