<svg width="24" height="24" viewBox="0 0 24 24" fill="none" xmlns="http://www.w3.org/2000/svg">
<path fill-rule="evenodd" clip-rule="evenodd" d="M21 1C21.5523 1 22 1.44772 22 2C22 2.55228 21.5523 3 21 3V4.40039C20.9998 7.98092 18.4196 10.9189 15 11.7578V12.2412C18.4197 13.08 20.9998 16.019 21 19.5996V21C21.5523 21 22 21.4477 22 22C22 22.5523 21.5523 23 21 23H3C2.44772 23 2 22.5523 2 22C2 21.4477 2.44772 21 3 21V19.5996C3.00019 16.019 5.58033 13.08 9 12.2412V11.7578C5.58044 10.9189 3.00019 7.98092 3 4.40039V3C2.44772 3 2 2.55228 2 2C2 1.44772 2.44772 1 3 1H21ZM11 14C7.63019 14 5.00023 16.5616 5 19.5996V21H6.5V20.5C6.5 18.9637 7.13273 17.6843 8.17188 16.8047C9.19515 15.9385 10.5608 15.5 12 15.5C13.4392 15.5 14.8049 15.9385 15.8281 16.8047C16.8673 17.6843 17.5 18.9637 17.5 20.5V21H19V19.5996C18.9998 16.5616 16.3698 14 13 14H11ZM5 4.40039C5.00023 7.43839 7.63019 10 11 10H13C16.3698 10 18.9998 7.43839 19 4.40039V3H5V4.40039Z" fill="#000"/>
</svg>
