<svg width="24" height="24" viewBox="0 0 24 24" fill="none" xmlns="http://www.w3.org/2000/svg">
<path fill-rule="evenodd" clip-rule="evenodd" d="M12 5C14.2091 5 16 6.79086 16 9C16 11.2091 14.2091 13 12 13C9.79086 13 8 11.2091 8 9C8 6.79086 9.79086 5 12 5ZM12 7C10.8954 7 10 7.89543 10 9C10 10.1046 10.8954 11 12 11C13.1046 11 14 10.1046 14 9C14 7.89543 13.1046 7 12 7Z" fill="#555555"/>
<path fill-rule="evenodd" clip-rule="evenodd" d="M12 1C16.4183 1 20 4.58172 20 9C20 10.0644 19.8606 10.9495 19.4873 11.8555C19.1246 12.7357 18.5603 13.5856 17.7998 14.5996C17.3888 15.1476 16.9817 15.5882 16.6211 15.9648C16.2472 16.3553 15.9608 16.6412 15.7119 16.9453C15.2754 17.4788 15 18.0109 15 19V21C15 22.6569 13.6569 24 12 24C10.3431 24 9 22.6569 9 21V19C9 18.0109 8.72461 17.4788 8.28809 16.9453C8.03921 16.6412 7.75278 16.3553 7.37891 15.9648C7.01827 15.5882 6.61115 15.1476 6.2002 14.5996C5.43968 13.5856 4.87543 12.7357 4.5127 11.8555C4.13943 10.9495 4 10.0644 4 9C4 4.58172 7.58172 1 12 1ZM12 3C8.68629 3 6 5.68629 6 9C6 9.86846 6.11071 10.4832 6.3623 11.0938C6.62455 11.7302 7.06038 12.4145 7.7998 13.4004C8.13871 13.8523 8.48183 14.2244 8.82422 14.582C9.15322 14.9256 9.52346 15.2966 9.83691 15.6797C10.5252 16.521 11 17.4894 11 19V21C11 21.5523 11.4477 22 12 22C12.5523 22 13 21.5523 13 21V19C13 17.4894 13.4748 16.521 14.1631 15.6797C14.4765 15.2966 14.8468 14.9256 15.1758 14.582C15.5182 14.2244 15.8613 13.8523 16.2002 13.4004C16.9396 12.4145 17.3754 11.7302 17.6377 11.0938C17.8893 10.4832 18 9.86846 18 9C18 5.68629 15.3137 3 12 3Z" fill="#555555"/>
</svg>
