<?xml version="1.0" encoding="UTF-8"?>
<svg width="24px" height="24px" viewBox="0 0 24 24" version="1.1" xmlns="http://www.w3.org/2000/svg" xmlns:xlink="http://www.w3.org/1999/xlink">
    <!-- Generator: Sketch 46 (44423) - http://www.bohemiancoding.com/sketch -->
    <title>inspect</title>
    <desc>Created with Sketch.</desc>
    <defs></defs>
    <g id="Icons" stroke="none" stroke-width="1" fill="none" fill-rule="evenodd">
        <g id="inspect" stroke="#000000" stroke-width="2">
            <path d="M5.5,21 C7.98528137,21 10,18.9852814 10,16.5 C10,14.0147186 7.98528137,12 5.5,12 C3.01471863,12 1,14.0147186 1,16.5 C1,18.9852814 3.01471863,21 5.5,21 Z M1,16 L1,7 L1,6.5 C1,4.01471863 3.01471863,2 5.5,2 L6,2 M23,16 L23,7 L23,6.5 C23,4.01471863 20.9852814,2 18.5,2 L18,2 M18.5,21 C20.9852814,21 23,18.9852814 23,16.5 C23,14.0147186 20.9852814,12 18.5,12 C16.0147186,12 14,14.0147186 14,16.5 C14,18.9852814 16.0147186,21 18.5,21 Z M10,17 C10,17 10,15 12,15 C14,15 14,17 14,17" id="Group"></path>
        </g>
    </g>
</svg>