<svg width="24" height="24" viewBox="0 0 24 24" fill="none" xmlns="http://www.w3.org/2000/svg">
<path fill-rule="evenodd" clip-rule="evenodd" d="M15.0463 1.10827C15.3535 0.951881 15.7252 0.963936 16.0248 1.14831L22.5248 5.14831C22.8098 5.32393 22.9879 5.63107 22.9994 5.96569C23.0109 6.30038 22.8539 6.61858 22.5814 6.81334L19.8695 8.74987L22.5814 10.6864C22.8539 10.8811 23.0108 11.1994 22.9994 11.534C22.9879 11.8687 22.8098 12.1757 22.5248 12.3514L20.0004 13.9042V16.4081C20.0004 17.4287 19.4809 18.3795 18.6225 18.9315L13.6225 22.1454C12.6962 22.7409 11.5239 22.7785 10.5668 22.2577L10.3783 22.1454L5.37832 18.9315C4.51968 18.3795 4.00042 17.4288 4.00039 16.4081V13.9042L1.47597 12.3514C1.19076 12.1758 1.01285 11.8688 1.00137 11.534C0.989977 11.1993 1.14675 10.8811 1.41933 10.6864L4.13027 8.74987L1.41933 6.81334C1.1467 6.6186 0.989909 6.30054 1.00137 5.96569C1.01292 5.631 1.19082 5.32391 1.47597 5.14831L7.97597 1.14831L8.10879 1.07995C8.426 0.944993 8.79519 0.981924 9.08144 1.18639L12.0004 3.27135L14.9193 1.18639L15.0463 1.10827ZM9.08144 16.3133C8.75422 16.5471 8.31849 16.5621 7.97597 16.3514L6.00039 15.1356V16.4081C6.00042 16.7482 6.17336 17.0649 6.45937 17.2489L11.0004 20.1678V14.9423L9.08144 16.3133ZM13.0004 20.1678L17.5414 17.2489L17.643 17.1737C17.8675 16.9851 18.0004 16.7055 18.0004 16.4081V15.1356L16.0248 16.3514C15.6823 16.5622 15.2466 16.547 14.9193 16.3133L13.0004 14.9423V20.1678ZM3.80703 11.4374L8.45937 14.2997L10.2621 13.0126L5.86367 9.96764L3.80703 11.4374ZM13.7377 13.0126L15.5404 14.2997L20.1928 11.4374L18.1361 9.96764L13.7377 13.0126ZM7.32851 8.5487L12.0004 11.7831L16.6713 8.5487L12.0004 5.6737L7.32851 8.5487ZM3.80703 6.06139L5.54043 7.29967L10.1928 4.43737L8.45937 3.19909L3.80703 6.06139ZM13.807 4.43737L18.4594 7.29967L20.1928 6.06139L15.5404 3.19909L13.807 4.43737Z" fill="#555555"/>
</svg>
