<svg width="24" height="24" viewBox="0 0 24 24" fill="none" xmlns="http://www.w3.org/2000/svg">
<path fill-rule="evenodd" clip-rule="evenodd" d="M15.0463 1.10827C15.3535 0.951881 15.7252 0.963936 16.0248 1.14831L22.5248 5.14831C22.8099 5.32393 22.9879 5.63107 22.9994 5.96569C23.0109 6.30038 22.8539 6.61858 22.5815 6.81334L19.8695 8.74987L22.5815 10.6864C22.8539 10.8811 23.0108 11.1994 22.9994 11.534C22.9879 11.8687 22.8098 12.1757 22.5248 12.3514L20.0004 13.9042V16.4081C20.0004 17.4287 19.4809 18.3795 18.6225 18.9315L13.6225 22.1454C12.6962 22.7409 11.5239 22.7785 10.5668 22.2577L10.3783 22.1454L5.37833 18.9315C4.5197 18.3795 4.00044 17.4288 4.0004 16.4081V13.9042L1.47599 12.3514C1.19078 12.1758 1.01287 11.8688 1.00138 11.534C0.989993 11.1993 1.14676 10.8811 1.41935 10.6864L4.13029 8.74987L1.41935 6.81334C1.14671 6.6186 0.989924 6.30054 1.00138 5.96569C1.01294 5.631 1.19084 5.32391 1.47599 5.14831L7.97599 1.14831L8.1088 1.07995C8.42602 0.944993 8.7952 0.981924 9.08146 1.18639L12.0004 3.27135L14.9193 1.18639L15.0463 1.10827ZM9.08146 16.3133C8.75423 16.5471 8.3185 16.5621 7.97599 16.3514L6.0004 15.1356V16.4081C6.00044 16.7482 6.17337 17.0649 6.45939 17.2489L11.0004 20.1678V14.9423L9.08146 16.3133ZM13.0004 20.1678L17.5414 17.2489L17.643 17.1737C17.8675 16.9851 18.0004 16.7055 18.0004 16.4081V15.1356L16.0248 16.3514C15.6823 16.5622 15.2466 16.547 14.9193 16.3133L13.0004 14.9423V20.1678ZM3.80704 11.4374L8.45939 14.2997L10.2621 13.0126L5.86369 9.96764L3.80704 11.4374ZM13.7377 13.0126L15.5404 14.2997L20.1928 11.4374L18.1361 9.96764L13.7377 13.0126ZM7.32853 8.5487L12.0004 11.7831L16.6713 8.5487L12.0004 5.6737L7.32853 8.5487ZM3.80704 6.06139L5.54044 7.29967L10.1928 4.43737L8.45939 3.19909L3.80704 6.06139ZM13.807 4.43737L18.4594 7.29967L20.1928 6.06139L15.5404 3.19909L13.807 4.43737Z" fill="#000"/>
</svg>
