<svg width="24" height="24" viewBox="0 0 24 24" fill="none" xmlns="http://www.w3.org/2000/svg">
<path d="M17.3183 0.0772037C18.5359 0.132773 19.3776 0.311686 20.1565 0.614412C20.9358 0.917264 21.5259 1.30118 22.1124 1.88767C22.6988 2.47415 23.0827 3.06422 23.3857 3.84362C23.6884 4.62264 23.8672 5.46418 23.9228 6.68173C23.9916 8.19171 24 8.72395 24 12C24 15.2761 23.9916 15.8083 23.9228 17.3183C23.8672 18.5358 23.6884 19.3774 23.3856 20.1566C23.0827 20.9358 22.6988 21.5259 22.1124 22.1123C21.526 22.6988 20.9358 23.0827 20.1564 23.3856C19.3772 23.6884 18.5357 23.8672 17.3183 23.9227C15.8087 23.9916 15.2766 24 12 24C8.72344 24 8.19131 23.9916 6.68172 23.9227C5.46426 23.8672 4.62271 23.6884 3.84342 23.3856C3.06417 23.0827 2.47399 22.6988 1.88763 22.1123C1.30117 21.5259 0.91722 20.9357 0.614318 20.1564C0.311643 19.3774 0.13277 18.5358 0.0772039 17.3183C0.00835294 15.8093 0 15.2775 0 12C0 8.72253 0.00835297 8.19071 0.0772047 6.68166C0.13277 5.46418 0.311643 4.62264 0.614363 3.8435C0.917191 3.0643 1.30114 2.47416 1.88757 1.88773C2.47399 1.30124 3.06417 0.9173 3.84345 0.614415C4.62236 0.311697 5.46409 0.132774 6.68164 0.0772036C8.19075 0.00835222 8.72253 0 12 0C15.2775 0 15.8093 0.00835235 17.3183 0.0772037ZM12 2.66667C8.75959 2.66667 8.26401 2.67445 6.8032 2.7411C5.87615 2.78341 5.31952 2.90173 4.80948 3.09996C4.37398 3.26922 4.09726 3.44924 3.77324 3.77329C3.44916 4.09737 3.26913 4.37409 3.09996 4.80937C2.9017 5.31966 2.78341 5.87618 2.7411 6.80322C2.67445 8.26397 2.66667 8.7596 2.66667 12C2.66667 15.2404 2.67445 15.736 2.7411 17.1968C2.78341 18.1238 2.9017 18.6803 3.0999 19.1905C3.26914 19.6259 3.4492 19.9027 3.7733 20.2268C4.09726 20.5508 4.37398 20.7308 4.80933 20.9C5.31972 21.0983 5.87621 21.2166 6.80324 21.2589C8.2646 21.3255 8.76051 21.3333 12 21.3333C15.2395 21.3333 15.7354 21.3255 17.1968 21.2588C18.1238 21.2166 18.6802 21.0983 19.1905 20.9C19.626 20.7308 19.9027 20.5508 20.2268 20.2267C20.5508 19.9027 20.7308 19.6259 20.9 19.1906C21.0983 18.6803 21.2166 18.1238 21.2589 17.1968C21.3255 15.7351 21.3333 15.239 21.3333 12C21.3333 8.76099 21.3255 8.26493 21.2589 6.80324C21.2166 5.87618 21.0983 5.31966 20.9001 4.80958C20.7308 4.37404 20.5508 4.09729 20.2268 3.77324C19.9028 3.44925 19.626 3.26923 19.1905 3.09997C18.6804 2.90172 18.1238 2.78341 17.1968 2.7411C15.736 2.67445 15.2404 2.66667 12 2.66667ZM12 18.2222C8.56356 18.2222 5.77778 15.4364 5.77778 12C5.77778 8.56356 8.56356 5.77778 12 5.77778C15.4364 5.77778 18.2222 8.56356 18.2222 12C18.2222 15.4364 15.4364 18.2222 12 18.2222ZM12 15.5556C13.9637 15.5556 15.5556 13.9637 15.5556 12C15.5556 10.0363 13.9637 8.44444 12 8.44444C10.0363 8.44444 8.44444 10.0363 8.44444 12C8.44444 13.9637 10.0363 15.5556 12 15.5556ZM18.2222 7.11111C17.4858 7.11111 16.8889 6.51416 16.8889 5.77778C16.8889 5.0414 17.4858 4.44444 18.2222 4.44444C18.9586 4.44444 19.5556 5.0414 19.5556 5.77778C19.5556 6.51416 18.9586 7.11111 18.2222 7.11111Z" fill="black"/>
</svg>
