<svg width="24" height="24" viewBox="0 0 24 24" fill="none" xmlns="http://www.w3.org/2000/svg">
<path fill-rule="evenodd" clip-rule="evenodd" d="M16 7C17.1046 7 18 7.89543 18 9H20.5C21.2374 9 21.8947 9.13086 22.4443 9.44727C23.0108 9.77338 23.3777 10.2477 23.6055 10.7754C23.824 11.2816 23.9151 11.8361 23.958 12.3613C24.001 12.8883 24 13.4577 24 14C24 14.5423 24.001 15.1117 23.958 15.6387C23.9151 16.1639 23.824 16.7184 23.6055 17.2246C23.3777 17.7523 23.0108 18.2266 22.4443 18.5527C21.8947 18.8691 21.2374 19 20.5 19H17.8027C17.5324 20.1986 16.9552 21.1654 15.8984 21.8418C14.4513 22.7679 12.2944 23 9.5 23C6.70555 23 4.54867 22.7679 3.10156 21.8418C1.50752 20.8215 1 19.1414 1 17V9C1 7.89543 1.89543 7 3 7H16ZM3 17C3 18.8585 3.43015 19.6785 4.17969 20.1582C5.07638 20.732 6.66968 21 9.5 21C12.3303 21 13.9236 20.732 14.8203 20.1582C15.5698 19.6785 16 18.8585 16 17V9H3V17ZM18 17H20.5C21.0123 17 21.2928 16.9076 21.4463 16.8193C21.5829 16.7407 21.6849 16.6286 21.7695 16.4326C21.8634 16.2151 21.9286 15.9074 21.9639 15.4756C21.999 15.0455 22 14.5624 22 14C22 13.4376 21.999 12.9545 21.9639 12.5244C21.9286 12.0926 21.8634 11.7849 21.7695 11.5674C21.6849 11.3714 21.5829 11.2593 21.4463 11.1807C21.2928 11.0924 21.0123 11 20.5 11H18V17Z" fill="#000"/>
<path d="M6 2C6.55228 2 7 2.44772 7 3V5C7 5.55228 6.55228 6 6 6C5.44772 6 5 5.55228 5 5V3C5 2.44772 5.44772 2 6 2Z" fill="#000"/>
<path d="M10 0C10.5523 0 11 0.447715 11 1V5C11 5.55228 10.5523 6 10 6C9.44772 6 9 5.55228 9 5V1C9 0.447715 9.44772 0 10 0Z" fill="#000"/>
<path d="M14 3C14.5523 3 15 3.44772 15 4V5C15 5.55228 14.5523 6 14 6C13.4477 6 13 5.55228 13 5V4C13 3.44772 13.4477 3 14 3Z" fill="#000"/>
</svg>
