<svg width="24" height="24" viewBox="0 0 24 24" fill="none" xmlns="http://www.w3.org/2000/svg">
<path d="M6 18C6.55228 18 7 18.4477 7 19C7 19.5523 6.55228 20 6 20H5C4.44772 20 4 19.5523 4 19C4 18.4477 4.44772 18 5 18H6Z" fill="#555555"/>
<path d="M15 18C15.5523 18 16 18.4477 16 19C16 19.5523 15.5523 20 15 20H9C8.44772 20 8 19.5523 8 19C8 18.4477 8.44772 18 9 18H15Z" fill="#555555"/>
<path d="M19 18C19.5523 18 20 18.4477 20 19C20 19.5523 19.5523 20 19 20H18C17.4477 20 17 19.5523 17 19C17 18.4477 17.4477 18 18 18H19Z" fill="#555555"/>
<path d="M7 15C7.55228 15 8 15.4477 8 16C8 16.5523 7.55228 17 7 17H5C4.44772 17 4 16.5523 4 16C4 15.4477 4.44772 15 5 15H7Z" fill="#555555"/>
<path d="M11 15C11.5523 15 12 15.4477 12 16C12 16.5523 11.5523 17 11 17H10C9.44771 17 9 16.5523 9 16C9 15.4477 9.44771 15 10 15H11Z" fill="#555555"/>
<path d="M19 15C19.5523 15 20 15.4477 20 16C20 16.5523 19.5523 17 19 17H14C13.4477 17 13 16.5523 13 16C13 15.4477 13.4477 15 14 15H19Z" fill="#555555"/>
<path d="M6 12C6.55228 12 7 12.4477 7 13C7 13.5523 6.55228 14 6 14H5C4.44772 14 4 13.5523 4 13C4 12.4477 4.44772 12 5 12H6Z" fill="#555555"/>
<path d="M10 12C10.5523 12 11 12.4477 11 13C11 13.5523 10.5523 14 10 14H9C8.44772 14 8 13.5523 8 13C8 12.4477 8.44772 12 9 12H10Z" fill="#555555"/>
<path d="M14 12C14.5523 12 15 12.4477 15 13C15 13.5523 14.5523 14 14 14H13C12.4477 14 12 13.5523 12 13C12 12.4477 12.4477 12 13 12H14Z" fill="#555555"/>
<path d="M19 12C19.5523 12 20 12.4477 20 13C20 13.5523 19.5523 14 19 14H17C16.4477 14 16 13.5523 16 13C16 12.4477 16.4477 12 17 12H19Z" fill="#555555"/>
<path fill-rule="evenodd" clip-rule="evenodd" d="M19 1C19.5523 1 20 1.44772 20 2C20 4.76142 17.7614 7 15 7H9C7.69415 7 6.58594 7.83532 6.17383 9H20C21.6569 9 23 10.3431 23 12V20C23 21.6569 21.6569 23 20 23H4C2.34315 23 1 21.6569 1 20V12C1 10.3431 2.34315 9 4 9H4.10059C4.5639 6.71781 6.58108 5 9 5H15C16.6569 5 18 3.65685 18 2C18 1.44772 18.4477 1 19 1ZM4 11C3.44772 11 3 11.4477 3 12V20C3 20.5523 3.44772 21 4 21H20C20.5523 21 21 20.5523 21 20V12C21 11.4477 20.5523 11 20 11H4Z" fill="#555555"/>
</svg>
