<svg width="24" height="25" viewBox="0 0 24 25" fill="none" xmlns="http://www.w3.org/2000/svg">
<path d="M6 18.2769C6.55228 18.2769 7 18.7246 7 19.2769C7 19.8291 6.55228 20.2769 6 20.2769H5C4.44772 20.2769 4 19.8291 4 19.2769C4 18.7246 4.44772 18.2769 5 18.2769H6Z" fill="#000"/>
<path d="M15 18.2769C15.5523 18.2769 16 18.7246 16 19.2769C16 19.8291 15.5523 20.2769 15 20.2769H9C8.44772 20.2769 8 19.8291 8 19.2769C8 18.7246 8.44772 18.2769 9 18.2769H15Z" fill="#000"/>
<path d="M19 18.2769C19.5523 18.2769 20 18.7246 20 19.2769C20 19.8291 19.5523 20.2769 19 20.2769H18C17.4477 20.2769 17 19.8291 17 19.2769C17 18.7246 17.4477 18.2769 18 18.2769H19Z" fill="#000"/>
<path d="M7 15.2769C7.55228 15.2769 8 15.7246 8 16.2769C8 16.8291 7.55228 17.2769 7 17.2769H5C4.44772 17.2769 4 16.8291 4 16.2769C4 15.7246 4.44772 15.2769 5 15.2769H7Z" fill="#000"/>
<path d="M11 15.2769C11.5523 15.2769 12 15.7246 12 16.2769C12 16.8291 11.5523 17.2769 11 17.2769H10C9.44771 17.2769 9 16.8291 9 16.2769C9 15.7246 9.44771 15.2769 10 15.2769H11Z" fill="#000"/>
<path d="M19 15.2769C19.5523 15.2769 20 15.7246 20 16.2769C20 16.8291 19.5523 17.2769 19 17.2769H14C13.4477 17.2769 13 16.8291 13 16.2769C13 15.7246 13.4477 15.2769 14 15.2769H19Z" fill="#000"/>
<path d="M6 12.2769C6.55228 12.2769 7 12.7246 7 13.2769C7 13.8291 6.55228 14.2769 6 14.2769H5C4.44772 14.2769 4 13.8291 4 13.2769C4 12.7246 4.44772 12.2769 5 12.2769H6Z" fill="#000"/>
<path d="M10 12.2769C10.5523 12.2769 11 12.7246 11 13.2769C11 13.8291 10.5523 14.2769 10 14.2769H9C8.44772 14.2769 8 13.8291 8 13.2769C8 12.7246 8.44772 12.2769 9 12.2769H10Z" fill="#000"/>
<path d="M14 12.2769C14.5523 12.2769 15 12.7246 15 13.2769C15 13.8291 14.5523 14.2769 14 14.2769H13C12.4477 14.2769 12 13.8291 12 13.2769C12 12.7246 12.4477 12.2769 13 12.2769H14Z" fill="#000"/>
<path d="M19 12.2769C19.5523 12.2769 20 12.7246 20 13.2769C20 13.8291 19.5523 14.2769 19 14.2769H17C16.4477 14.2769 16 13.8291 16 13.2769C16 12.7246 16.4477 12.2769 17 12.2769H19Z" fill="#000"/>
<path fill-rule="evenodd" clip-rule="evenodd" d="M19 1.27686C19.5523 1.27686 20 1.72457 20 2.27686C20 5.03828 17.7614 7.27686 15 7.27686H9C7.69415 7.27686 6.58594 8.11218 6.17383 9.27686H20C21.6569 9.27686 23 10.62 23 12.2769V20.2769C23 21.9337 21.6569 23.2769 20 23.2769H4C2.34315 23.2769 1 21.9337 1 20.2769V12.2769C1 10.62 2.34315 9.27686 4 9.27686H4.10059C4.5639 6.99467 6.58108 5.27686 9 5.27686H15C16.6569 5.27686 18 3.93371 18 2.27686C18 1.72457 18.4477 1.27686 19 1.27686ZM4 11.2769C3.44772 11.2769 3 11.7246 3 12.2769V20.2769C3 20.8291 3.44772 21.2769 4 21.2769H20C20.5523 21.2769 21 20.8291 21 20.2769V12.2769C21 11.7246 20.5523 11.2769 20 11.2769H4Z" fill="#000"/>
</svg>
