<svg width="24" height="24" viewBox="0 0 24 24" fill="none" xmlns="http://www.w3.org/2000/svg">
<path fill-rule="evenodd" clip-rule="evenodd" d="M13.6602 2.0041C14.3731 1.32119 15.4116 1.08306 16.3584 1.39863L16.5068 1.45234C17.9642 2.03329 18.6105 3.74922 17.8994 5.14765L17.8242 5.28633L16.2412 8.00019H19.6387C21.4346 8.00019 22.8148 9.56231 22.6221 11.3225L22.5986 11.4934L21.5439 17.8215C21.1421 20.2324 19.0555 22.0002 16.6113 22.0002H11.4922C11.1857 22.0002 10.8801 21.9711 10.5791 21.9152L10.2793 21.8508L7.16602 21.0715C6.61985 21.6423 5.85243 22.0002 5 22.0002H2C1.44786 22.0002 1.00024 21.5523 1 21.0002C1.00015 20.448 1.44781 20.0002 2 20.0002H5C5.55214 20.0002 5.99976 19.5523 6 19.0002V11.0002C5.99985 10.448 5.55219 10.0002 5 10.0002H2C1.44786 10.0002 1.00024 9.55227 1 9.00019C1.00015 8.44804 1.44781 8.00019 2 8.00019H5C5.63058 8.00019 6.21529 8.19519 6.69824 8.52754L9.23242 6.68476C9.62747 6.39744 9.99158 6.06934 10.3184 5.70625L13.5225 2.14668L13.6602 2.0041ZM15.7256 3.29609C15.5022 3.22168 15.259 3.26927 15.0811 3.41621L15.0088 3.48457L11.8047 7.04414C11.3846 7.51087 10.917 7.93259 10.4092 8.30195L7.87402 10.1447C7.95455 10.4158 7.99997 10.703 8 11.0002V19.0002C7.99999 19.0727 7.99628 19.1448 7.99121 19.216L10.7646 19.9103L10.9443 19.9494C11.1249 19.983 11.3083 20.0002 11.4922 20.0002H16.6113C18.0777 20.0002 19.329 18.9397 19.5703 17.4934L20.625 11.1643L20.6377 11.051C20.6675 10.4877 20.218 10.0002 19.6387 10.0002H12.7588L16.0967 4.27851L16.1318 4.2082C16.2784 3.87374 16.1305 3.48011 15.7998 3.32539L15.7256 3.29609Z" fill="#000"/>
<path d="M4.09961 17.0002C4.6518 17.0002 5.09946 17.448 5.09961 18.0002C5.09937 18.5523 4.65175 19.0002 4.09961 19.0002H4C3.44786 19.0002 3.00024 18.5523 3 18.0002C3.00015 17.448 3.44781 17.0002 4 17.0002H4.09961Z" fill="#000"/>
</svg>
