<svg width="24" height="24" viewBox="0 0 24 24" fill="none" xmlns="http://www.w3.org/2000/svg">
<path fill-rule="evenodd" clip-rule="evenodd" d="M22.0367 22H17.8849V15.5036C17.8849 13.9543 17.8586 11.9615 15.7276 11.9615C13.5677 11.9615 13.2379 13.6499 13.2379 15.3925V22H9.09037V8.64071H13.0708V10.4673H13.1276C13.6814 9.41667 15.0356 8.30916 17.0556 8.30916C21.2599 8.30916 22.0367 11.0753 22.0367 14.6734V22ZM4.40924 6.81585C3.07515 6.81585 2 5.73721 2 4.40749C2 3.07865 3.07515 2 4.40924 2C5.73721 2 6.81585 3.07865 6.81585 4.40749C6.81585 5.73721 5.73721 6.81585 4.40924 6.81585ZM6.48605 22H2.3298V8.64071H6.48605V22Z" fill="#0077B5"/>
</svg>
