<svg width="68" height="24" viewBox="0 0 68 24" fill="none" xmlns="http://www.w3.org/2000/svg">
<path d="M65.1288 8.15856H33.5303V2.2689H65.1288V8.15856ZM31.2728 0V10.427H67.386V0H31.2728Z" fill="#01A982"/>
<path d="M6.57735 21.4292V20.4949H5.19939V18.5025H8.77647V22.7208C7.81488 23.5801 6.56267 24.0369 5.27668 23.9976C2.30365 23.9976 0.445679 21.9736 0.445679 19.0944C0.445679 16.0896 2.505 14.1288 5.52479 14.1288C6.49451 14.1169 7.44852 14.3756 8.28073 14.8761V17.304C7.48245 16.7166 6.51382 16.4101 5.52479 16.432C4.00702 16.432 2.93871 17.4445 2.93871 19.0944C2.93871 20.7126 3.91399 21.7716 5.35445 21.7716C5.78822 21.7936 6.21736 21.6734 6.57735 21.4292ZM14.6466 19.1567C14.3345 19.0005 13.9884 18.9253 13.6399 18.938C12.9743 18.938 12.5253 19.234 12.4012 19.7318V23.8412H9.97021V16.8368H12.4012V17.4594C12.5828 17.2115 12.8211 17.0114 13.0961 16.8759C13.371 16.7405 13.6745 16.6738 13.9805 16.6814C14.2091 16.672 14.4368 16.7146 14.6466 16.8061L14.6466 19.1567ZM17.5118 20.8997C17.7132 21.74 18.3945 22.0824 19.2925 22.0824C20.004 22.1014 20.705 21.9063 21.3055 21.5222V23.3741C20.7635 23.7789 19.9118 23.9976 18.9055 23.9976C16.6759 23.9976 15.1581 22.6427 15.1581 20.386C15.1581 18.1917 16.6138 16.6814 18.5338 16.6814C20.7015 16.6814 21.8013 18.0977 21.8013 20.1841V20.8997L17.5118 20.8997ZM17.5428 19.5299H19.6332C19.5711 18.938 19.2152 18.5332 18.6269 18.5332C18.1001 18.5332 17.7132 18.8915 17.5428 19.5299V19.5299ZM24.8215 20.8997C25.0228 21.74 25.7042 22.0825 26.6022 22.0825C27.3137 22.1014 28.0147 21.9063 28.6152 21.5223V23.3741C28.0732 23.7789 27.2215 23.9976 26.2152 23.9976C23.9855 23.9976 22.4678 22.6427 22.4678 20.386C22.4678 18.1917 23.9235 16.6814 25.8435 16.6814C28.0112 16.6814 29.1109 18.0977 29.1109 20.1841V20.8997L24.8215 20.8997ZM24.8525 19.5299H26.9428C26.8808 18.9381 26.5249 18.5333 25.9366 18.5333C25.4098 18.5332 25.0228 18.8915 24.8525 19.5299L24.8525 19.5299ZM32.5181 16.8368V17.4445C32.7613 17.1944 33.0533 16.9975 33.3757 16.8662C33.6981 16.7349 34.0441 16.672 34.3919 16.6814C35.9402 16.6814 36.8539 17.693 36.8539 19.2498V23.8412H34.4381V19.8416C34.4381 19.2656 34.1442 18.845 33.5249 18.845C33.2954 18.8364 33.0699 18.9076 32.8865 19.0466C32.7031 19.1856 32.573 19.3839 32.5181 19.6081V23.8412H30.0871V16.8368L32.5181 16.8368ZM40.68 14.2842V21.6776H44.938V23.8412H38.187V14.2842H40.68ZM49.8481 19.6229C49.8481 19.0786 49.3524 18.6896 48.3614 18.6896C47.6944 18.6865 47.0381 18.8581 46.4571 19.1874V17.2258C47.235 16.8528 48.0884 16.6664 48.9501 16.6814C51.0095 16.6814 52.1861 17.6622 52.1861 19.5141V23.8412H49.8481V23.4839C49.6158 23.7165 48.9501 23.9659 48.2068 23.9659C46.8288 23.9659 45.6517 23.188 45.6517 21.7093C45.6517 20.3553 46.8288 19.4834 48.3308 19.4834C48.8618 19.4768 49.3851 19.611 49.8481 19.8723V19.6229ZM49.8481 21.4757C49.7422 21.316 49.5961 21.1872 49.4248 21.1024C49.2535 21.0176 49.0629 20.9798 48.8724 20.9927C48.3924 20.9927 47.9124 21.1956 47.9124 21.6628C47.9124 22.1448 48.3924 22.3477 48.8724 22.3477C49.0611 22.3598 49.2498 22.3232 49.4206 22.2415C49.5914 22.1597 49.7385 22.0355 49.8481 21.8805V21.4757ZM57.9789 23.8412L55.8729 20.775V23.8412H53.4419V13.724H55.8729V19.4834L57.8549 16.8368H60.6423L58.0562 20.0743L60.7043 23.8412L57.9789 23.8412ZM63.059 20.8997C63.2603 21.74 63.9417 22.0825 64.8396 22.0825C65.5512 22.1014 66.2521 21.9063 66.8527 21.5223V23.3741C66.3107 23.7789 65.459 23.9976 64.4527 23.9976C62.223 23.9976 60.7053 22.6427 60.7053 20.386C60.7053 18.1917 62.161 16.6814 64.081 16.6814C66.2486 16.6814 67.3484 18.0977 67.3484 20.1841V20.8997L63.059 20.8997ZM63.09 19.5299H65.1803C65.1183 18.9381 64.7624 18.5333 64.174 18.5333C63.6473 18.5332 63.2603 18.8915 63.09 19.5299V19.5299ZM10.3215 10.4268H7.60261V6.30155H3.60016V10.4268H0.881241V0.00390625H3.60017V3.95884H7.60262V0.00390625H10.3215L10.3215 10.4268ZM14.5443 10.4268H11.8592V0.00390625H16.4023C18.6482 0.00390625 20.1682 1.27693 20.1682 3.60243C20.1682 5.91118 18.6482 7.18421 16.4023 7.18421H14.5443V10.4268ZM16.1149 2.29544H14.5443V4.90988H16.1149C17.0943 4.90988 17.5336 4.38364 17.5336 3.60243C17.5336 2.80492 17.0943 2.29544 16.1149 2.29544ZM28.748 2.34615H24.0027V3.97605H28.3426V6.26759H24.0027V8.06732H28.748V10.4268H21.3342V0.00390625H28.748V2.34615Z" fill="#2E2E2E"/>
</svg>
