<svg width="24" height="24" viewBox="0 0 24 24" fill="none" xmlns="http://www.w3.org/2000/svg">
<path fill-rule="evenodd" clip-rule="evenodd" d="M17.7929 2.79297C18.7357 1.85026 20.2642 1.85027 21.207 2.79297C22.1497 3.73576 22.1497 5.26425 21.207 6.20703L6.207 21.207C5.32321 22.0908 3.92475 22.1462 2.97654 21.373L2.79294 21.207L2.62693 21.0234C1.85387 20.0752 1.90924 18.6767 2.79294 17.793L17.7929 2.79297ZM19.7929 4.20703C19.6312 4.04538 19.3687 4.04537 19.207 4.20703L15.8759 7.53711C15.9451 7.57859 16.0132 7.62364 16.0771 7.67578L16.207 7.79297L16.3242 7.92285C16.3761 7.98646 16.4206 8.05429 16.4619 8.12305L19.7929 4.79297C19.9546 4.63124 19.9546 4.36878 19.7929 4.20703Z" fill="#555555"/>
<path d="M19 16C20.1045 16.0001 21 16.8955 21 18C21 19.1045 20.1045 19.9999 19 20C17.8955 19.9999 17 19.1045 17 18C17 16.8955 17.8955 16.0001 19 16Z" fill="#555555"/>
<path d="M21 11C22.1045 11.0001 23 11.8955 23 13C23 14.1045 22.1045 14.9999 21 15C19.8955 14.9999 19 14.1045 19 13C19 11.8955 19.8955 11.0001 21 11Z" fill="#555555"/>
<path d="M5.99997 7C7.10445 7.0001 7.99996 7.8955 7.99997 9C7.99996 10.1045 7.10445 10.9999 5.99997 11C4.89547 10.9999 3.99999 10.1045 3.99997 9C3.99999 7.89549 4.89547 7.00007 5.99997 7Z" fill="#555555"/>
<path d="M12 2C13.1045 2.0001 14 2.89549 14 4C14 5.1045 13.1045 5.99991 12 6C10.8955 5.99993 9.99999 5.10451 9.99997 4C9.99997 2.89547 10.8955 2.00007 12 2Z" fill="#555555"/>
<path d="M5.99997 1C7.10446 1.0001 7.99997 1.89549 7.99997 3C7.99996 4.1045 7.10445 4.9999 5.99997 5C4.89547 4.99993 3.99999 4.10451 3.99997 3C3.99997 1.89547 4.89546 1.00007 5.99997 1Z" fill="#555555"/>
</svg>
