<svg width="24" height="25" viewBox="0 0 24 25" fill="none" xmlns="http://www.w3.org/2000/svg">
<path d="M18 13.71C18.5523 13.71 19 14.1577 19 14.71V17.71H22C22.5523 17.71 23 18.1577 23 18.71C23 19.2623 22.5523 19.71 22 19.71H19V22.71C19 23.2623 18.5523 23.71 18 23.71C17.4477 23.71 17 23.2623 17 22.71V19.71H14C13.4477 19.71 13 19.2623 13 18.71C13 18.1577 13.4477 17.71 14 17.71H17V14.71C17 14.1577 17.4477 13.71 18 13.71Z" fill="#000"/>
<path fill-rule="evenodd" clip-rule="evenodd" d="M15.748 1.74223C15.9811 1.68154 16.2297 1.70672 16.4473 1.81548L22.4473 4.81548C22.786 4.98486 23 5.33125 23 5.71001V14.21C23 14.7623 22.5523 15.21 22 15.21C21.4477 15.21 21 14.7623 21 14.21V6.32817L17 4.32817V11.21C17 11.7623 16.5523 12.21 16 12.21C15.4477 12.21 15 11.7623 15 11.21V4.15337L9 6.40337V21.2666L11.6484 20.2735C12.1654 20.0796 12.7425 20.3416 12.9365 20.8584C13.1304 21.3755 12.8685 21.9525 12.3516 22.1465L8.35156 23.6465C8.0912 23.7442 7.80145 23.7289 7.55273 23.6045L1.55273 20.6045C1.21396 20.4351 1 20.0888 1 19.71V2.71001L1.00781 2.5811C1.04627 2.28494 1.21673 2.0188 1.47461 1.85942C1.76938 1.67735 2.13736 1.66053 2.44727 1.81548L8.05664 4.62016L15.6484 1.77348L15.748 1.74223ZM3 19.0918L7 21.0918V6.32817L3 4.32817V19.0918Z" fill="#000"/>
</svg>
