<svg width="24" height="24" viewBox="0 0 24 24" fill="none" xmlns="http://www.w3.org/2000/svg">
<path d="M18 13C18.5523 13 19 13.4478 19 14V17H22C22.5523 17 23 17.4478 23 18C23 18.5523 22.5523 19 22 19H19V22C19 22.5523 18.5523 23 18 23C17.4477 23 17 22.5523 17 22V19H14C13.4477 19 13 18.5523 13 18C13 17.4478 13.4477 17 14 17H17V14C17 13.4478 17.4477 13 18 13Z" fill="#000"/>
<path fill-rule="evenodd" clip-rule="evenodd" d="M15.748 1.03227C15.9811 0.971582 16.2297 0.996762 16.4473 1.10552L22.4473 4.10552C22.786 4.2749 23 4.62129 23 5.00005V13.5C23 14.0523 22.5523 14.5 22 14.5C21.4477 14.5 21 14.0523 21 13.5V5.61821L17 3.61821V10.5C17 11.0523 16.5523 11.5 16 11.5C15.4477 11.5 15 11.0523 15 10.5V3.44341L9 5.69341V20.5567L11.6484 19.5635C12.1654 19.3697 12.7425 19.6316 12.9365 20.1485C13.1304 20.6655 12.8685 21.2425 12.3516 21.4366L8.35156 22.9366C8.0912 23.0342 7.80145 23.0189 7.55273 22.8946L1.55273 19.8946C1.21396 19.7252 1 19.3788 1 19V2.00005L1.00781 1.87114C1.04627 1.57498 1.21673 1.30884 1.47461 1.14946C1.76938 0.967393 2.13736 0.950571 2.44727 1.10552L8.05664 3.9102L15.6484 1.06352L15.748 1.03227ZM3 18.3819L7 20.3819V5.61821L3 3.61821V18.3819Z" fill="#000"/>
</svg>
