<svg width="24" height="24" viewBox="0 0 24 24" fill="none" xmlns="http://www.w3.org/2000/svg">
<path fill-rule="evenodd" clip-rule="evenodd" d="M15.748 1.03227C15.9811 0.971582 16.2298 0.996763 16.4473 1.10551L22.4473 4.10551C22.786 4.2749 23 4.62129 23 5.00005V22C23 22.3466 22.8202 22.6684 22.5254 22.8506C22.2306 23.0327 21.8626 23.0495 21.5527 22.8946L15.9424 20.0889L8.35156 22.9366C8.0912 23.0342 7.80145 23.0189 7.55273 22.8946L1.55273 19.8946C1.21396 19.7252 1 19.3788 1 19V2.00005L1.00781 1.87114C1.04627 1.57498 1.21673 1.30884 1.47461 1.14946C1.76938 0.967395 2.13736 0.950572 2.44727 1.10551L8.05664 3.9102L15.6484 1.06352L15.748 1.03227ZM9 5.69341V20.5567L15 18.3067V3.4434L9 5.69341ZM3 18.3819L7 20.3819V5.61821L3 3.61821V18.3819ZM17 18.3819L21 20.3819V5.61821L17 3.61821V18.3819Z" fill="#000"/>
</svg>
