<svg width="24" height="25" viewBox="0 0 24 25" fill="none" xmlns="http://www.w3.org/2000/svg">
<path d="M12 5.70996C13.1046 5.70996 14 6.60534 14 7.70996C14 8.81458 13.1046 9.70996 12 9.70996C10.8954 9.70996 10 8.81458 10 7.70996C10 6.60534 10.8954 5.70996 12 5.70996Z" fill="#555555"/>
<path fill-rule="evenodd" clip-rule="evenodd" d="M12 0.709961C15.2261 0.709961 18.5044 2.97465 18.9473 6.81738C18.9634 6.82551 18.9802 6.83271 18.9961 6.8418L22.4961 8.8418C22.8077 9.01984 23 9.3511 23 9.70996V22.71C23 23.0565 22.8202 23.3783 22.5254 23.5605C22.2306 23.7426 21.8626 23.7594 21.5527 23.6045L15.9424 20.7988L8.35156 23.6465C8.0912 23.7441 7.80145 23.7288 7.55273 23.6045L1.55273 20.6045C1.21395 20.4351 1 20.0887 1 19.71V6.70996C1 6.37388 1.16868 6.06006 1.44922 5.875C1.72977 5.69 2.08465 5.65872 2.39355 5.79102L5.03809 6.92383C5.43191 3.0163 8.74408 0.709961 12 0.709961ZM15 15.5264C14.4876 16.0723 14.0073 16.5406 13.6143 16.9023C13.3222 17.1712 13.0782 17.3844 12.9053 17.5312C12.8189 17.6046 12.7502 17.6618 12.7021 17.7012C12.6781 17.7209 12.6588 17.7363 12.6455 17.7471C12.6389 17.7524 12.6337 17.7567 12.6299 17.7598C12.628 17.7613 12.625 17.7637 12.625 17.7637L12.623 17.7646L12 16.9824L12.6221 17.7656C12.2578 18.055 11.7422 18.055 11.3779 17.7656L12 16.9824L11.377 17.7646L11.375 17.7637C11.375 17.7637 11.372 17.7613 11.3701 17.7598C11.3663 17.7567 11.3611 17.7524 11.3545 17.7471C11.3412 17.7363 11.3219 17.7209 11.2979 17.7012C11.2498 17.6618 11.1811 17.6046 11.0947 17.5312C10.9218 17.3844 10.6778 17.1712 10.3857 16.9023C9.99273 16.5406 9.51239 16.0723 9 15.5264V21.2666L15 19.0166V15.5264ZM3 19.0918L7 21.0918V13.71C7 13.5422 7.04123 13.384 7.11426 13.2451C6.25621 12.035 5.486 10.6259 5.16211 9.14941C5.14361 9.14274 5.12476 9.13675 5.10645 9.12891L3 8.22559V19.0918ZM18.8545 9.06348C18.542 10.5712 17.7595 12.0115 16.8848 13.2451C16.9579 13.3841 17 13.542 17 13.71V19.0918L21 21.0918V10.29L18.8545 9.06348ZM12 2.70996C9.4686 2.70996 7 4.59237 7 7.70996C7 9.57319 8.27892 11.6494 9.76074 13.3838C10.4779 14.2232 11.1974 14.9319 11.7393 15.4307C11.8313 15.5154 11.9195 15.5931 12 15.665C12.0805 15.5931 12.1687 15.5154 12.2607 15.4307C12.8026 14.9319 13.5221 14.2232 14.2393 13.3838C15.7211 11.6494 17 9.57319 17 7.70996C17 4.59237 14.5314 2.70996 12 2.70996Z" fill="#555555"/>
</svg>
