<svg width="24" height="25" viewBox="0 0 24 25" fill="none" xmlns="http://www.w3.org/2000/svg">
<path d="M12.0002 6.70996C13.1048 6.71014 14.0002 7.60529 14.0002 8.70996C14.0002 9.81463 13.1048 10.7098 12.0002 10.71C10.8955 10.7099 10.0002 9.81469 10.0002 8.70996C10.0002 7.60523 10.8955 6.71005 12.0002 6.70996Z" fill="#555555"/>
<path fill-rule="evenodd" clip-rule="evenodd" d="M12.0002 1.70996C15.8546 1.71014 19.0002 4.72972 19.0002 8.70996C19.0002 10.8858 18.0205 12.9871 16.8781 14.71H18.341C19.1408 14.7101 19.8637 15.1868 20.1789 15.9219L22.3224 20.9219C22.8879 22.2415 21.9192 23.7097 20.4836 23.71H3.51677C2.08099 23.7099 1.11329 22.2416 1.67888 20.9219L3.82146 15.9219C4.13664 15.1868 4.85956 14.7101 5.65935 14.71H7.12321C5.98069 12.987 5.00017 10.886 5.00017 8.70996C5.00017 4.72966 8.14569 1.71005 12.0002 1.70996ZM3.51677 21.71H20.4836L18.341 16.71H15.3683C14.7295 17.4655 14.1159 18.0998 13.6349 18.5674C13.3425 18.8517 13.0974 19.0767 12.924 19.2314C12.8375 19.3087 12.7681 19.3687 12.7199 19.4102C12.696 19.4307 12.6776 19.4477 12.6642 19.459C12.6577 19.4645 12.6515 19.4685 12.6476 19.4717C12.6458 19.4732 12.644 19.4746 12.6427 19.4756L12.6418 19.4775L12.0002 18.71L12.6408 19.4785C12.2701 19.7874 11.7313 19.7871 11.3605 19.4785L12.0002 18.71L11.3595 19.4775L11.3576 19.4756C11.3564 19.4746 11.3545 19.4732 11.3527 19.4717C11.3489 19.4685 11.3434 19.4643 11.3371 19.459C11.3237 19.4477 11.3045 19.4309 11.2804 19.4102C11.2322 19.3687 11.1629 19.3088 11.0763 19.2314C10.903 19.0767 10.6578 18.8517 10.3654 18.5674C9.88454 18.0999 9.27169 17.4653 8.63298 16.71H5.65935L3.51677 21.71ZM12.0002 3.70996C9.22765 3.71005 7.00017 5.85671 7.00017 8.70996C7.00017 10.8519 8.31101 13.1219 9.78142 14.96C10.4989 15.8568 11.2188 16.6077 11.7599 17.1338C11.8444 17.2159 11.9254 17.2917 12.0002 17.3623C12.0749 17.2917 12.1559 17.2159 12.2404 17.1338C12.7815 16.6077 13.5024 15.8568 14.2199 14.96C15.6901 13.122 17.0002 10.8518 17.0002 8.70996C17.0002 5.85677 14.7726 3.71013 12.0002 3.70996Z" fill="#555555"/>
</svg>
