<svg width="24" height="25" viewBox="0 0 24 25" fill="none" xmlns="http://www.w3.org/2000/svg">
<path d="M1 9.32812C1 7.84136 2.56473 6.87416 3.89453 7.53906C4.57207 7.87786 5 8.5706 5 9.32812V14.6562L8.31641 15.7617L8.43945 15.8115C8.71708 15.9473 8.91883 16.2058 8.98047 16.5137L9.98047 21.5137C10.0888 22.0552 9.73774 22.582 9.19629 22.6904C8.65479 22.7987 8.12793 22.4477 8.01953 21.9062L7.13281 17.4746L1.68359 15.6582C1.27541 15.522 1 15.1403 1 14.71V9.32812Z" fill="#555555"/>
<path d="M16 11.71C16.5523 11.71 17 12.1577 17 12.71C17 13.2622 16.5523 13.71 16 13.71H13V21.71C13 22.2622 12.5523 22.71 12 22.71C11.4477 22.71 11 22.2622 11 21.71V13.71H8C7.44772 13.71 7 13.2622 7 12.71C7 12.1577 7.44772 11.71 8 11.71H16Z" fill="#555555"/>
<path d="M20.1055 7.53906C21.4353 6.87416 23 7.84136 23 9.32812V14.71C23 15.1403 22.7246 15.522 22.3164 15.6582L16.8662 17.4746L15.9805 21.9062C15.8721 22.4477 15.3452 22.7987 14.8037 22.6904C14.2623 22.582 13.9112 22.0552 14.0195 21.5137L15.0195 16.5137L15.0547 16.3848C15.1551 16.0928 15.386 15.861 15.6836 15.7617L19 14.6562V9.32812C19 8.5706 19.4279 7.87786 20.1055 7.53906Z" fill="#555555"/>
<path d="M13 6.70996C14.1046 6.70996 15 7.60539 15 8.70996V9.20996C15 9.76225 14.5523 10.21 14 10.21H10C9.44772 10.21 9 9.76225 9 9.20996V8.70996C9 7.60539 9.89543 6.70996 11 6.70996H13Z" fill="#555555"/>
<path d="M4 2.70996C5.10457 2.70996 6 3.60539 6 4.70996C6 5.81453 5.10457 6.70996 4 6.70996C2.89543 6.70996 2 5.81453 2 4.70996C2 3.60539 2.89543 2.70996 4 2.70996Z" fill="#555555"/>
<path d="M20 2.70996C21.1046 2.70996 22 3.60539 22 4.70996C22 5.81453 21.1046 6.70996 20 6.70996C18.8954 6.70996 18 5.81453 18 4.70996C18 3.60539 18.8954 2.70996 20 2.70996Z" fill="#555555"/>
<path d="M12 1.70996C13.1046 1.70996 14 2.60539 14 3.70996C14 4.81453 13.1046 5.70996 12 5.70996C10.8954 5.70996 10 4.81453 10 3.70996C10 2.60539 10.8954 1.70996 12 1.70996Z" fill="#555555"/>
</svg>
