<svg width="24" height="24" viewBox="0 0 24 24" fill="none" xmlns="http://www.w3.org/2000/svg">
<path fill-rule="evenodd" clip-rule="evenodd" d="M5.46193 4.04008C5.18893 4.03502 4.99575 4.06968 4.7917 4.11446V4.15153H4.82901C4.95944 4.41909 5.18943 4.59139 5.35035 4.82189C5.47407 5.08262 5.59818 5.34297 5.72228 5.60332C5.73493 5.59093 5.74745 5.57865 5.7596 5.56626C5.99047 5.40395 6.09573 5.1441 6.09472 4.74738C6.00211 4.64997 5.98832 4.52827 5.90837 4.41226C5.80236 4.25754 5.59615 4.17013 5.46193 4.04008ZM23.4787 23.1369C23.6544 23.2658 23.7722 23.4657 24 23.5467V23.5094C23.8801 23.3573 23.8496 23.1474 23.7395 22.988C23.5786 22.8271 23.4164 22.6656 23.2555 22.504C22.7821 21.8759 22.1818 21.3246 21.5432 20.8664C21.0346 20.5007 19.8945 20.0073 19.6819 19.4148C19.6698 19.4022 19.6571 19.3897 19.6445 19.377C20.0054 19.3365 20.4283 19.206 20.7614 19.1165C21.3211 18.9665 21.8214 19.0055 22.3991 18.8561C22.66 18.7813 22.9204 18.7067 23.1809 18.6329V18.4835C22.8888 18.1837 22.6805 17.787 22.3622 17.5156C21.5283 16.8061 20.6188 16.0967 19.6818 15.5057C19.1626 15.1775 18.5201 14.9646 17.9694 14.6865C17.7842 14.5932 17.4591 14.5445 17.3365 14.3887C17.0477 14.0198 16.8899 13.5524 16.6668 13.1229C16.1997 12.2231 15.7404 11.2403 15.3263 10.2936C15.0443 9.64813 14.8597 9.01155 14.5077 8.43227C12.8174 5.65329 10.9976 3.97581 8.17942 2.32705C7.57928 1.9765 6.85743 1.8381 6.09472 1.65719C5.68547 1.63252 5.27546 1.60735 4.86621 1.58268C4.61636 1.47831 4.35651 1.17267 4.12184 1.02428C3.18797 0.434503 0.792811 -0.848657 0.101577 0.838313C-0.335125 1.90287 0.753847 2.94174 1.14361 3.48142C1.41725 3.8598 1.76704 4.28424 1.96287 4.70968C2.09128 4.98939 2.11316 5.2701 2.22386 5.566C2.49433 6.29519 2.72938 7.08839 3.0793 7.76242C3.25653 8.10323 3.45173 8.46263 3.6754 8.76739C3.81266 8.95449 4.0472 9.03685 4.08402 9.32579C3.85466 9.6475 3.8415 10.1467 3.71259 10.5542C3.13066 12.3888 3.35015 14.6687 4.19661 16.0266C4.45595 16.4432 5.06773 17.3375 5.90837 16.9943C6.64376 16.6947 6.4798 15.7661 6.69018 14.947C6.7375 14.7609 6.70865 14.6244 6.80176 14.5003V14.5374C7.02543 14.9841 7.24884 15.4308 7.472 15.8773C7.96816 16.676 8.84827 17.5112 9.59415 18.074C9.98038 18.366 10.2849 18.871 10.7852 19.0419V19.0041H10.7479C10.6505 18.8537 10.4989 18.7905 10.376 18.6695C10.0845 18.3837 9.76051 18.0287 9.51939 17.7014C8.8408 16.7806 8.24154 15.7726 7.69553 14.7236C7.43455 14.2225 7.20785 13.6698 6.98785 13.1601C6.90322 12.9634 6.90423 12.6662 6.72738 12.5644C6.48651 12.9378 6.13191 13.2402 5.94556 13.6812C5.64777 14.3863 5.60944 15.2462 5.499 16.1379C5.43372 16.1615 5.46269 16.1454 5.42423 16.175C4.90555 16.0503 4.72351 15.5164 4.53096 15.0584C4.04379 13.9007 3.95333 12.0361 4.38207 10.7031C4.49301 10.3583 4.99499 9.27202 4.79132 8.95348C4.69441 8.63544 4.37511 8.45188 4.19635 8.20886C3.97421 7.90853 3.75333 7.51345 3.59975 7.16644C3.2015 6.26369 3.01528 5.25024 2.59541 4.33749C2.39452 3.90142 2.0551 3.45966 1.77628 3.07167C1.4676 2.64205 1.12186 2.32578 0.882884 1.80584C0.797745 1.62126 0.681991 1.32587 0.808245 1.13598C0.848095 1.00783 0.905023 0.954446 1.03191 0.912573C1.24811 0.74609 1.84889 0.967983 2.07395 1.06147C2.67055 1.3093 3.16924 1.54549 3.67489 1.88035C3.91741 2.04127 4.16296 2.35273 4.45607 2.43888H4.79119C5.31569 2.55919 5.90281 2.47645 6.39201 2.6251C7.25744 2.8881 8.03293 3.29723 8.73719 3.74203C10.8826 5.09654 12.637 7.02526 13.8371 9.32579C14.0301 9.6962 14.1139 10.0497 14.2836 10.4427C14.6266 11.235 15.0591 12.0501 15.4004 12.8251C15.7409 13.5978 16.0728 14.378 16.5542 15.0214C16.8072 15.3594 17.7851 15.5408 18.2298 15.7288C18.5412 15.8603 19.0514 15.9976 19.3461 16.175C19.91 16.5152 20.4557 16.9197 20.9842 17.2922C21.2483 17.4785 22.0606 17.8866 22.1006 18.2224C20.7917 18.1877 19.7916 18.3093 18.9367 18.6696C18.6937 18.7717 18.3064 18.7747 18.2665 19.0787C18.4 19.2186 18.4212 19.4281 18.5274 19.6C18.731 19.9305 19.0756 20.3729 19.3834 20.6054C19.7195 20.859 20.0658 21.1304 20.4255 21.3499C21.0663 21.7408 21.7818 21.9638 22.3984 22.3551C22.7633 22.5861 23.1242 22.8765 23.4787 23.1369Z" fill="#00758F"/>
</svg>
