<svg width="24" height="24" viewBox="0 0 24 24" fill="none" xmlns="http://www.w3.org/2000/svg">
<path d="M19.0402 1.00001C19.3054 1.00159 19.5598 1.1083 19.7463 1.29689L22.7111 4.29689C23.0992 4.68958 23.0958 5.3227 22.7033 5.71095C22.3106 6.09911 21.6775 6.09566 21.2892 5.70314L20.0002 4.39845V9.50001C20.0002 11.9852 17.9854 13.9999 15.5002 14C14.1195 14 13.0002 15.1193 13.0002 16.5V22H11.0002C11.0002 20.6194 9.8808 19.5001 8.50017 19.5C6.01489 19.5 4.00017 17.4853 4.00017 15V10.3985L2.71111 11.7031C2.32286 12.0957 1.68977 12.0991 1.29704 11.711C0.90446 11.3227 0.90105 10.6896 1.28923 10.2969L4.25408 7.29689L4.32732 7.23048C4.50443 7.08363 4.72805 7.00135 4.96013 7.00001C5.22511 6.99863 5.47966 7.1028 5.66814 7.28908L8.70329 10.2891C9.09581 10.6773 9.09922 11.3104 8.71111 11.7031C8.32284 12.0957 7.68976 12.0991 7.29704 11.711L6.00017 10.4277V15C6.00017 16.3807 7.11946 17.5 8.50017 17.5C9.42519 17.5 10.2852 17.7792 11.0002 18.2578V16.5C11.0002 14.0147 13.0149 12 15.5002 12C16.7944 11.9999 17.8594 11.0164 17.9875 9.75587L18.0002 9.50001V4.42775L16.7033 5.71095C16.3106 6.09915 15.6775 6.09568 15.2892 5.70314C14.901 5.31043 14.9044 4.67737 15.297 4.28908L18.3322 1.28908L18.4054 1.22267C18.5841 1.07805 18.8083 0.998766 19.0402 1.00001Z" fill="#000"/>
</svg>
