<svg width="24" height="24" viewBox="0 0 24 24" fill="none" xmlns="http://www.w3.org/2000/svg">
<path fill-rule="evenodd" clip-rule="evenodd" d="M1 6C1 4.89543 1.89543 4 3 4H21C22.1046 4 23 4.89543 23 6V12C23 13.1046 22.1046 14 21 14H13V16.1707C14.1652 16.5825 15 17.6938 15 19C15 20.6569 13.6569 22 12 22C10.3431 22 9 20.6569 9 19C9 17.6938 9.83481 16.5825 11 16.1707V14H3C1.89543 14 1 13.1046 1 12V6ZM11 19C11 18.4477 11.4477 18 12 18C12.5523 18 13 18.4477 13 19C13 19.5523 12.5523 20 12 20C11.4477 20 11 19.5523 11 19ZM3 6L3 12H21V6H3ZM6 7C4.89543 7 4 7.89543 4 9C4 10.1046 4.89543 11 6 11C7.10457 11 8 10.1046 8 9C8 7.89543 7.10457 7 6 7Z" fill="black"/>
</svg>
