<svg width="24" height="24" viewBox="0 0 24 24" fill="none" xmlns="http://www.w3.org/2000/svg">
<path fill-rule="evenodd" clip-rule="evenodd" d="M12 17C13.6571 17 15 18.3429 15 20C15 21.6571 13.6571 23 12 23C10.3429 23 9 21.6571 9 20C9 18.3429 10.3429 17 12 17ZM12 19C11.4475 19 11 19.4475 11 20C11 20.5525 11.4475 21 12 21C12.5525 21 13 20.5525 13 20C13 19.4475 12.5525 19 12 19Z" fill="#000"/>
<path fill-rule="evenodd" clip-rule="evenodd" d="M5 13C6.65708 13 8 14.3429 8 16C8 17.6571 6.65708 19 5 19C3.34292 19 2 17.6571 2 16C2 14.3429 3.34292 13 5 13ZM5 15C4.44748 15 4 15.4475 4 16C4 16.5525 4.44748 17 5 17C5.55252 17 6 16.5525 6 16C6 15.4475 5.55252 15 5 15Z" fill="#000"/>
<path fill-rule="evenodd" clip-rule="evenodd" d="M19 13C20.6571 13 22 14.3429 22 16C22 17.6571 20.6571 19 19 19C17.3429 19 16 17.6571 16 16C16 14.3429 17.3429 13 19 13ZM19 15C18.4475 15 18 15.4475 18 16C18 16.5525 18.4475 17 19 17C19.5525 17 20 16.5525 20 16C20 15.4475 19.5525 15 19 15Z" fill="#000"/>
<path fill-rule="evenodd" clip-rule="evenodd" d="M5 5C6.65708 5 8 6.34292 8 8C8 9.65708 6.65708 11 5 11C3.34292 11 2 9.65708 2 8C2 6.34292 3.34292 5 5 5ZM5 7C4.44748 7 4 7.44748 4 8C4 8.55252 4.44748 9 5 9C5.55252 9 6 8.55252 6 8C6 7.44748 5.55252 7 5 7Z" fill="#000"/>
<path fill-rule="evenodd" clip-rule="evenodd" d="M19 5C20.6571 5 22 6.34292 22 8C22 9.65708 20.6571 11 19 11C17.3429 11 16 9.65708 16 8C16 6.34292 17.3429 5 19 5ZM19 7C18.4475 7 18 7.44748 18 8C18 8.55252 18.4475 9 19 9C19.5525 9 20 8.55252 20 8C20 7.44748 19.5525 7 19 7Z" fill="#000"/>
<path fill-rule="evenodd" clip-rule="evenodd" d="M12 1C13.6571 1 15 2.34292 15 4C15 5.65708 13.6571 7 12 7C10.3429 7 9 5.65708 9 4C9 2.34292 10.3429 1 12 1ZM12 3C11.4475 3 11 3.44748 11 4C11 4.55252 11.4475 5 12 5C12.5525 5 13 4.55252 13 4C13 3.44748 12.5525 3 12 3Z" fill="#000"/>
</svg>
