<svg width="24" height="24" viewBox="0 0 24 24" fill="none" xmlns="http://www.w3.org/2000/svg">
<path d="M2.35447 16.4551H4.35447V16.4701L3.66947 17.6801C4.09447 17.8001 4.36947 18.1251 4.36947 18.5601C4.36947 19.1951 3.84947 19.5801 3.24447 19.5801C2.81447 19.5801 2.54447 19.4701 2.32947 19.3201V18.7001C2.56947 18.9151 2.87447 19.0401 3.18947 19.0401C3.53447 19.0401 3.77947 18.8851 3.77947 18.5651C3.77947 18.1951 3.37447 18.0301 2.89447 18.0401V18.0251L3.46447 17.0151H2.35447V16.4551Z" fill="#555555"/>
<path d="M4.36447 12.9713V13.5262H2.20447V13.5063L3.09947 12.3363C3.38947 11.9663 3.58947 11.7162 3.58947 11.3962C3.58947 11.1562 3.43947 10.9962 3.14947 10.9962C2.80947 10.9962 2.49447 11.2062 2.28447 11.3962V10.7713C2.50447 10.5663 2.86447 10.4062 3.26447 10.4062C3.85447 10.4062 4.23447 10.7612 4.23447 11.3162C4.23447 11.7212 3.97447 12.0862 3.67947 12.4812L3.30447 12.9713H4.36447Z" fill="#555555"/>
<path d="M21 17.0254C21.5523 17.0254 22 17.4731 22 18.0254C22 18.5777 21.5523 19.0254 21 19.0254H7C6.44772 19.0254 6 18.5777 6 18.0254C6 17.4731 6.44772 17.0254 7 17.0254H21ZM21 11.0254C21.5523 11.0254 22 11.4731 22 12.0254C22 12.5777 21.5523 13.0254 21 13.0254H7C6.44772 13.0254 6 12.5777 6 12.0254C6 11.4731 6.44772 11.0254 7 11.0254H21ZM21 5.02539C21.5523 5.02539 22 5.47311 22 6.02539C22 6.57768 21.5523 7.02539 21 7.02539H7C6.44772 7.02539 6 6.57768 6 6.02539C6 5.47311 6.44772 5.02539 7 5.02539H21Z" fill="#555555"/>
<path d="M2.36438 6.97008H3.14938V5.18508L2.37438 5.57508V4.94508L3.36438 4.45508H3.76938V6.97008H4.45938V7.52508H2.36438V6.97008Z" fill="#555555"/>
</svg>
