<?xml version="1.0" encoding="UTF-8"?>
<svg width="24px" height="24px" viewBox="0 0 24 24" version="1.1" xmlns="http://www.w3.org/2000/svg" xmlns:xlink="http://www.w3.org/1999/xlink">
    <!-- Generator: Sketch 46 (44423) - http://www.bohemiancoding.com/sketch -->
    <title>organization</title>
    <desc>Created with Sketch.</desc>
    <defs></defs>
    <g id="Icons" stroke="none" stroke-width="1" fill="none" fill-rule="evenodd">
        <g id="organization" stroke="#000000" stroke-width="2">
            <path d="M20,3 L20,23 L4,23 L4,3 L20,3 Z M8.042,9 L10.042,9 L10.042,7 L8.042,7 L8.042,9 Z M14,9 L16,9 L16,7 L14,7 L14,9 Z M8.042,15 L10.042,15 L10.042,13 L8.042,13 L8.042,15 Z M10.042,23 L14.042,23 L14.042,19 L10.042,19 L10.042,23 Z M14,15 L16,15 L16,13 L14,13 L14,15 Z M2,3 L22,3 L22,1 L2,1 L2,3 Z" id="Building"></path>
        </g>
    </g>
</svg>