<svg width="24" height="24" viewBox="0 0 24 24" fill="none" xmlns="http://www.w3.org/2000/svg">
<path fill-rule="evenodd" clip-rule="evenodd" d="M16 2C17.1115 2 18.0804 2.60513 18.5977 3.49902L18.6934 3.67773C18.9275 4.14921 19.2461 4.98973 19.5781 5.91309C19.9742 7.01448 20.4318 8.35846 20.8643 9.65723C21.2971 10.9571 21.7064 12.217 22.0078 13.1514C22.1585 13.6184 22.2821 14.0049 22.3682 14.2744C22.4111 14.409 22.4449 14.5149 22.4678 14.5869C22.4791 14.6227 22.4882 14.6503 22.4941 14.6689C22.4971 14.6782 22.4995 14.6857 22.501 14.6904C22.5017 14.6928 22.5025 14.6951 22.5029 14.6963C22.5021 14.6966 22.4958 14.6991 22.4463 14.7148L22.5029 14.6982C22.526 14.7712 22.5398 14.8448 22.5459 14.918C22.8368 15.552 23 16.2568 23 17C23 19.7614 20.7614 22 18 22C15.3247 22 13.1405 19.8989 13.0068 17.2568L13 17H11C11 19.7614 8.76142 22 6 22C3.23858 22 1.00001 19.7614 1 17C1 16.2568 1.16326 15.552 1.4541 14.918C1.4602 14.8448 1.47397 14.7712 1.49707 14.6982V14.6963C1.49746 14.6951 1.49827 14.6928 1.49902 14.6904C1.50053 14.6857 1.50291 14.6782 1.50586 14.6689C1.51177 14.6503 1.52085 14.6227 1.53223 14.5869C1.55512 14.5149 1.58885 14.409 1.63184 14.2744C1.71792 14.0049 1.84152 13.6184 1.99219 13.1514C2.2936 12.217 2.70294 10.9571 3.13574 9.65723C3.56818 8.35846 4.02581 7.01448 4.42188 5.91309C4.80135 4.85784 5.16414 3.9108 5.40234 3.49902L5.50391 3.33496C6.04061 2.53175 6.95779 2 8 2C9.65685 2 11 3.34315 11 5V6H13V5C13 3.34316 14.3432 2.00002 16 2ZM6 14C4.34315 14 3 15.3431 3 17C3.00001 18.6568 4.34315 20 6 20C7.65685 20 8.99999 18.6568 9 17C9 15.3431 7.65685 14 6 14ZM18 14C16.3432 14 15 15.3432 15 17C15 18.6568 16.3432 20 18 20C19.6568 20 21 18.6568 21 17C21 15.3431 19.6569 14 18 14ZM11 15H13V8H11V15ZM8 4C7.67719 4 7.38889 4.1524 7.20508 4.39258L7.13281 4.50098C7.00576 4.72085 6.70828 5.46482 6.30371 6.58984C5.9156 7.6691 5.46475 8.99592 5.03418 10.2891C4.80618 10.9738 4.58356 11.6478 4.38086 12.2686C4.88872 12.0948 5.43326 12 6 12C7.12569 12 8.16431 12.3722 9 13V5C9 4.44771 8.55228 4 8 4ZM16 4C15.4477 4.00002 15 4.44773 15 5V13C15.8357 12.3722 16.8743 12 18 12C18.5664 12 19.1106 12.095 19.6182 12.2686C19.4155 11.6479 19.1938 10.9737 18.9658 10.2891C18.5353 8.99592 18.0844 7.6691 17.6963 6.58984C17.3928 5.74587 17.1494 5.11635 16.9932 4.76172L16.8672 4.50098C16.6928 4.19947 16.3689 4 16 4Z" fill="#555555"/>
</svg>
