<svg width="24" height="24" viewBox="0 0 24 24" fill="none" xmlns="http://www.w3.org/2000/svg">
<path fill-rule="evenodd" clip-rule="evenodd" d="M10.1426 1.16597C11.3346 0.689144 12.6654 0.689144 13.8574 1.16597L19.8574 3.56636C20.4778 3.81461 21.0272 4.17956 21.4873 4.62788L21.6289 4.57222L21.7725 4.93159C22.5461 5.82269 23 6.97777 23 8.20893V15.7919C22.9998 17.8361 21.7553 19.6751 19.8574 20.4345L13.8574 22.8349C12.6654 23.3117 11.3346 23.3117 10.1426 22.8349L4.14258 20.4345C2.24467 19.6751 1.00016 17.8361 1 15.7919V8.20893C1 6.97799 1.45318 5.82263 2.22656 4.93159L2.37109 4.57222L2.51172 4.62788C2.97193 4.17934 3.52196 3.8147 4.14258 3.56636L10.1426 1.16597ZM3.22559 7.06733C3.07946 7.42248 3 7.8095 3 8.20893V15.7919C3.00016 17.0185 3.74689 18.1225 4.88574 18.5781L10.8857 20.9775C10.9231 20.9924 10.9622 21.0032 11 21.0166V10.1708C10.9622 10.1575 10.9231 10.1467 10.8857 10.1318L3.22559 7.06733ZM13.1143 10.1318C13.0769 10.1467 13.0378 10.1575 13 10.1708V21.0166C13.0378 21.0032 13.0769 20.9924 13.1143 20.9775L19.1143 18.5781C20.2531 18.1225 20.9998 17.0185 21 15.7919V8.20893C21 7.80937 20.9197 7.42257 20.7734 7.06733L13.1143 10.1318ZM4.88574 5.4228C4.82308 5.44787 4.7614 5.47496 4.70117 5.50386L11.6289 8.27436C11.8672 8.3696 12.1328 8.3696 12.3711 8.27436L14.5566 7.39936L7.25 4.47651L4.88574 5.4228ZM13.1143 3.02339C12.4883 2.773 11.799 2.74175 11.1572 2.92964L10.8857 3.02339L9.94141 3.40034L17.249 6.32319L19.2979 5.50386L19.1143 5.4228L13.1143 3.02339Z" fill="#555555"/>
</svg>
