<svg width="24" height="24" viewBox="0 0 24 24" fill="none" xmlns="http://www.w3.org/2000/svg">
<path d="M14 16C14.5523 16 15 16.4477 15 17C15 17.5523 14.5523 18 14 18H10C9.44772 18 9 17.5523 9 17C9 16.4477 9.44772 16 10 16H14Z" fill="#000"/>
<path d="M16.293 6.29297C16.6835 5.90244 17.3165 5.90244 17.707 6.29297C18.0976 6.68349 18.0976 7.31651 17.707 7.70703L13.9297 11.4834C13.9738 11.6484 14 11.8211 14 12C14 13.1046 13.1046 14 12 14C10.8954 14 10 13.1046 10 12C10 10.8954 10.8954 10 12 10C12.1785 10 12.351 10.0255 12.5156 10.0693L16.293 6.29297Z" fill="#000"/>
<path fill-rule="evenodd" clip-rule="evenodd" d="M12 1C18.0751 1 23 5.92487 23 12C23 18.0751 18.0751 23 12 23C5.92487 23 1 18.0751 1 12C1 5.92487 5.92487 1 12 1ZM13 3.5C13 4.05228 12.5523 4.5 12 4.5C11.4477 4.5 11 4.05228 11 3.5V3.05664C9.26421 3.24856 7.67754 3.93306 6.38281 4.96875L6.70703 5.29297C7.09756 5.68349 7.09756 6.31651 6.70703 6.70703C6.31651 7.09756 5.68349 7.09756 5.29297 6.70703L4.96875 6.38281C3.93306 7.67754 3.24856 9.26421 3.05664 11H3.5C4.05228 11 4.5 11.4477 4.5 12C4.5 12.5523 4.05228 13 3.5 13H3.05664C3.24853 14.7355 3.93333 16.3216 4.96875 17.6162L5.29297 17.293C5.68349 16.9024 6.31651 16.9024 6.70703 17.293C7.09756 17.6835 7.09756 18.3165 6.70703 18.707L6.38281 19.0303C7.6776 20.0662 9.26404 20.7504 11 20.9424V20.5C11 19.9477 11.4477 19.5 12 19.5C12.5523 19.5 13 19.9477 13 20.5V20.9424C14.7357 20.7505 16.3215 20.0659 17.6162 19.0303L17.293 18.707C16.9024 18.3165 16.9024 17.6835 17.293 17.293C17.6835 16.9024 18.3165 16.9024 18.707 17.293L19.0303 17.6162C20.0659 16.3215 20.7514 14.7357 20.9434 13H20C19.4477 13 19 12.5523 19 12C19 11.4477 19.4477 11 20 11H20.9434C20.4821 6.82853 17.1715 3.51786 13 3.05664V3.5Z" fill="#000"/>
</svg>
