<svg width="24" height="24" viewBox="0 0 24 24" fill="none" xmlns="http://www.w3.org/2000/svg">
<path d="M14.9995 6H10.9995V4H14.9995V6Z" fill="#000"/>
<path fill-rule="evenodd" clip-rule="evenodd" d="M18.3813 1C19.8218 1 20.7747 2.46869 20.228 3.76953L20.1704 3.89453L16.1177 12L20.1704 20.1055C20.8353 21.4353 19.8681 23 18.3813 23H8.67626C7.90976 22.9997 7.21523 22.5621 6.88134 21.8818L6.81982 21.7432L3.21923 12.7432C3.02857 12.2664 3.02857 11.7336 3.21923 11.2568L6.81982 2.25684L6.88134 2.11816C7.21523 1.43787 7.90976 1.00028 8.67626 1H18.3813ZM8.67626 21H18.3813L17.3813 19H7.87646L8.67626 21ZM7.07665 17H16.3813L14.3813 13H5.47704L7.07665 17ZM5.47704 11H14.3813L18.3813 3H8.67626L5.47704 11Z" fill="#000"/>
</svg>
