<svg width="24" height="24" viewBox="0 0 24 24" fill="none" xmlns="http://www.w3.org/2000/svg">
<path d="M21 10.1816H3V18C3 19.6569 4.34315 21 6 21H18C19.6569 21 21 19.6569 21 18V10.1816ZM5.50977 16C6.06205 16 6.50977 16.4477 6.50977 17C6.50977 17.5523 6.06205 18 5.50977 18H5.5C4.94772 18 4.5 17.5523 4.5 17C4.5 16.4477 4.94772 16 5.5 16H5.50977ZM18.5 16C19.0523 16 19.5 16.4477 19.5 17C19.5 17.5523 19.0523 18 18.5 18H8.5C7.94772 18 7.5 17.5523 7.5 17C7.5 16.4477 7.94772 16 8.5 16H18.5ZM5.50977 12C6.06205 12 6.50977 12.4477 6.50977 13C6.50977 13.5523 6.06205 14 5.50977 14H5.5C4.94772 14 4.5 13.5523 4.5 13C4.5 12.4477 4.94772 12 5.5 12H5.50977ZM18.5 12C19.0523 12 19.5 12.4477 19.5 13C19.5 13.5523 19.0523 14 18.5 14H8.5C7.94772 14 7.5 13.5523 7.5 13C7.5 12.4477 7.94772 12 8.5 12H18.5ZM6 5.63672C4.49773 5.63672 3.2533 6.74057 3.03418 8.18164H20.9658C20.7467 6.74057 19.5023 5.63672 18 5.63672H6ZM23 18C23 20.7614 20.7614 23 18 23H6C3.23858 23 1 20.7614 1 18V8.63672C1 6.02838 2.9973 3.88669 5.5459 3.65723V2C5.5459 1.44772 5.99361 1 6.5459 1C7.09798 1.00024 7.5459 1.44786 7.5459 2V3.63672H16.4541V2C16.4541 1.44786 16.902 1.00024 17.4541 1C18.0064 1 18.4541 1.44772 18.4541 2V3.65723C21.0027 3.88669 23 6.02838 23 8.63672V18Z" fill="#000"/>
</svg>
