<?xml version="1.0" encoding="UTF-8"?>
<svg width="24px" height="24px" viewBox="0 0 24 24" version="1.1" xmlns="http://www.w3.org/2000/svg" xmlns:xlink="http://www.w3.org/1999/xlink">
    <!-- Generator: Sketch 46 (44423) - http://www.bohemiancoding.com/sketch -->
    <title>platform-dxc</title>
    <desc>Created with Sketch.</desc>
    <defs></defs>
    <g id="Icons" stroke="none" stroke-width="1" fill="none" fill-rule="evenodd">
        <g id="platform-dxc" fill="#000000">
            <path d="M12,14 L16,21 L8,21 L12,14 Z M12,10 L8,3 L16,3 L12,10 Z M2,18 C0.65763624,18 -0.00903042669,18 1.01172597e-13,18 L1.01172597e-13,6 L2,6 C5.3137085,6 8,8.6862915 8,12 C8,15.3137085 5.3137085,18 2,18 Z M22,18 C18.6862915,18 16,15.3137085 16,12 C16,8.6862915 18.6862915,6 22,6 L24,6 L24,18 C24.0090304,18 23.3423638,18 22,18 Z" id="dXc"></path>
        </g>
    </g>
</svg>