<svg width="24" height="24" viewBox="0 0 24 24" fill="none" xmlns="http://www.w3.org/2000/svg">
<path d="M1 12C1 5.92487 5.92487 1 12 1C16.1422 1 19.7487 3.28971 21.624 6.66797L19.875 7.63867C18.338 4.87002 15.3866 3 12 3C7.02944 3 3 7.02944 3 12C3 16.9706 7.02944 21 12 21C16.9706 21 21 16.9706 21 12C21 11.4477 21.4477 11 22 11C22.5523 11 23 11.4477 23 12C23 18.0751 18.0751 23 12 23C5.92487 23 1 18.0751 1 12Z" fill="#555555"/>
<path d="M11 15V9C11 8.44772 11.4477 8 12 8C12.5523 8 13 8.44772 13 9V15C13 15.5523 12.5523 16 12 16C11.4477 16 11 15.5523 11 15Z" fill="#555555"/>
<path d="M22 7.37012C21.9999 7.9941 21.4941 8.49994 20.8701 8.5H15C14.4477 8.5 14 8.05228 14 7.5C14 6.94772 14.4477 6.5 15 6.5H20V1.5C20 0.947715 20.4477 0.5 21 0.5C21.5523 0.5 22 0.947715 22 1.5V7.37012Z" fill="#555555"/>
</svg>
