<svg width="24" height="24" viewBox="0 0 24 24" fill="none" xmlns="http://www.w3.org/2000/svg">
<path fill-rule="evenodd" clip-rule="evenodd" d="M8.08673 0.000264754C7.96534 0.00402127 7.83622 0.0481048 7.68797 0.165058C7.32482 0.025023 6.97133 -0.024417 6.65647 0.260682C6.17026 0.197621 6.01323 0.328418 5.89353 0.480411C5.7868 0.478115 5.09389 0.371256 4.77657 0.844592C3.97916 0.750226 3.72808 1.31407 4.01364 1.83946C3.85078 2.0916 3.68159 2.33946 4.06246 2.8201C3.92772 3.08781 4.01161 3.37809 4.32898 3.72952C4.24521 4.10586 4.41005 4.371 4.70537 4.57792C4.65013 5.09291 5.17653 5.39291 5.33403 5.49956C5.39451 5.79965 5.52095 6.08355 6.12342 6.24012C6.22279 6.68726 6.58455 6.76475 6.93519 6.85862C5.77627 7.53229 4.78203 8.41722 4.78878 10.5919L4.61992 10.8951C3.29105 11.7032 2.09523 14.3015 3.96481 16.4127C4.08692 17.0735 4.29108 17.5475 4.47343 18.0729C4.74617 20.1897 6.52676 21.1824 6.99623 21.2996C7.68421 21.8236 8.41761 22.3206 9.40916 22.6688C10.3439 23.6328 11.3553 24 12.4141 24C13.473 24 14.4844 23.6328 15.4191 22.6688C16.4107 22.3206 17.1441 21.8236 17.832 21.2996C18.3015 21.1824 20.0821 20.1897 20.3548 18.0729C20.5372 17.5475 20.7413 17.0735 20.8635 16.4127C22.733 14.3015 21.5372 11.7032 20.2083 10.8951L20.0395 10.5919C20.0462 8.41722 19.052 7.53229 17.8931 6.85862C18.2437 6.76475 18.6055 6.68726 18.7049 6.24012C19.3073 6.08355 19.4338 5.79965 19.4942 5.49956C19.6517 5.39291 20.1782 5.09291 20.1229 4.57792C20.4182 4.371 20.5831 4.10586 20.4993 3.72952C20.8167 3.37809 20.9006 3.08781 20.7658 2.8201C21.1467 2.33946 20.9775 2.0916 20.8146 1.83946C21.1002 1.31407 20.8491 0.750226 20.0517 0.844592C19.7344 0.371256 19.0415 0.478129 18.9348 0.480411C18.815 0.328418 18.658 0.197621 18.1718 0.260682C17.8569 -0.024417 17.5035 0.025023 17.1403 0.165058C16.9921 0.0481048 16.8629 0.00404214 16.7415 0.000264754C16.5099 -0.00692133 16.3126 0.133997 16.0986 0.201684C15.5762 0.0310752 15.4579 0.26318 15.2014 0.358338C14.6321 0.237997 14.4595 0.500981 14.1862 0.777454L13.8668 0.771333C13.0082 1.27731 12.5838 2.30648 12.4141 2.30648C12.2445 2.30648 11.8201 1.27731 10.9615 0.771333L10.6421 0.777454C10.3688 0.500981 10.1962 0.237997 9.62685 0.358338C9.37039 0.26318 9.25205 0.0310752 8.72964 0.201684C8.5157 0.133997 8.31837 -0.00692133 8.08673 0.000264754ZM8.11724 0.608585C8.55334 0.770164 8.78003 0.978498 9.0165 1.18435C9.09675 1.07615 9.21854 0.995833 9.06939 0.73472C9.37909 0.913197 9.61296 1.12369 9.78555 1.35932C9.97707 1.23734 9.89848 1.07157 9.89948 0.917837C10.2213 1.1796 10.4267 1.45753 10.6767 1.7296C10.727 1.69288 10.77 1.5682 10.8089 1.37153C11.5767 2.11633 12.6612 3.99281 11.0876 4.73661C9.74915 3.63272 8.15102 2.8302 6.37977 2.22806C8.6569 3.40221 9.98173 4.35077 10.7072 5.15979C10.3355 6.64922 8.39685 6.71933 7.68797 6.67754C7.83315 6.60998 7.95433 6.52719 7.99721 6.40288C7.81933 6.27641 7.18837 6.38982 6.74802 6.14246C6.91716 6.10742 6.99651 6.07405 7.07557 5.94918C6.65962 5.81651 6.21199 5.70104 5.94845 5.48124C6.09068 5.48298 6.22253 5.51437 6.40826 5.38563C6.03566 5.18477 5.63887 5.02517 5.32996 4.7183C5.52262 4.71357 5.72937 4.71594 5.78977 4.64506C5.44872 4.43379 5.16124 4.19811 4.92306 3.94111C5.19266 3.97366 5.30547 3.94744 5.37065 3.90042C5.11288 3.63638 4.78767 3.41396 4.63213 3.08865C4.83229 3.1576 5.01483 3.18202 5.14686 3.08051C5.05925 2.88291 4.68341 2.76719 4.46733 2.30536C4.67805 2.32579 4.90278 2.35135 4.94747 2.30536C4.84966 1.90687 4.6828 1.68305 4.51819 1.45087C4.96919 1.44419 5.65185 1.4524 5.6209 1.41425L5.34217 1.12943C5.7827 1.01081 6.23362 1.14929 6.56084 1.25149C6.70778 1.13554 6.55702 0.988174 6.37774 0.838484C6.75212 0.888467 7.09126 0.974171 7.39702 1.09279C7.56041 0.945287 7.28933 0.798832 7.15899 0.651305C7.73738 0.761079 7.98363 0.914004 8.22711 1.06838C8.40386 0.89902 8.23647 0.756063 8.11724 0.608585ZM16.711 0.608585C16.5918 0.756063 16.4244 0.89902 16.6012 1.06838C16.8446 0.914004 17.0909 0.761079 17.6693 0.651305C17.539 0.798832 17.2679 0.945287 17.4312 1.09279C17.737 0.974171 18.0761 0.888467 18.4505 0.838484C18.2713 0.988174 18.1205 1.13554 18.2674 1.25149C18.5947 1.14929 19.0456 1.01081 19.4861 1.12943L19.2074 1.41425C19.1764 1.45236 19.8591 1.44422 20.3101 1.45087C20.1455 1.68305 19.9786 1.90687 19.8808 2.30536C19.9255 2.35135 20.1502 2.32579 20.3609 2.30536C20.1449 2.76719 19.769 2.88291 19.6814 3.08051C19.8134 3.18202 19.996 3.1576 20.1962 3.08865C20.0406 3.41396 19.7154 3.63638 19.4576 3.90042C19.5228 3.94744 19.6356 3.97366 19.9052 3.94111C19.667 4.19811 19.3796 4.43379 19.0385 4.64506C19.0989 4.7159 19.3057 4.71355 19.4983 4.7183C19.1894 5.02517 18.7926 5.18477 18.42 5.38563C18.6058 5.51437 18.7376 5.483 18.8798 5.48124C18.6163 5.70104 18.1687 5.81651 17.7527 5.94918C17.8318 6.07405 17.9111 6.10742 18.0803 6.14246C17.6399 6.38982 17.0089 6.27641 16.8311 6.40288C16.8739 6.52719 16.9951 6.60998 17.1403 6.67754C16.4314 6.71933 14.4927 6.64922 14.1211 5.15979C14.8465 4.35077 16.1714 3.40221 18.4485 2.22806C16.6773 2.8302 15.0791 3.63272 13.7406 4.73661C12.167 3.99281 13.2516 2.11633 14.0194 1.37153C14.0583 1.5682 14.1012 1.69288 14.1516 1.7296C14.4016 1.45753 14.607 1.1796 14.9288 0.917837C14.9298 1.07157 14.8512 1.23734 15.0427 1.35932C15.2153 1.12369 15.4492 0.913197 15.7589 0.73472C15.6097 0.995833 15.7315 1.07615 15.8118 1.18435C16.0482 0.978498 16.2749 0.770164 16.711 0.608585ZM12.4141 6.77007C13.7727 6.77007 14.9057 7.69321 14.9085 8.23597C14.912 8.91686 13.9141 9.61606 12.4324 9.63369C12.4263 9.63372 12.4203 9.63366 12.4141 9.63369C12.4079 9.63366 12.402 9.63372 12.3958 9.63369C10.9142 9.61606 9.91632 8.91686 9.91982 8.23597C9.92267 7.69321 11.0555 6.77007 12.4141 6.77007ZM8.60146 7.21669C8.62929 7.21599 8.6569 7.21599 8.68487 7.21669C8.90499 7.2178 9.13189 7.23677 9.36237 7.27569C10.1386 7.40612 5.64138 11.3335 5.57207 10.4577C5.51004 8.4548 6.85024 7.24468 8.60146 7.21669ZM16.1434 7.21669C16.1714 7.21599 16.199 7.21599 16.2268 7.21669C17.978 7.24468 19.3182 8.4548 19.2562 10.4577C19.1869 11.3335 14.6897 7.40612 15.4659 7.27569C15.6964 7.23677 15.9233 7.21786 16.1434 7.21669ZM9.31761 9.71711C9.57666 9.71516 9.83913 9.75334 10.0948 9.83917C11.4583 10.2969 12.1474 11.8916 11.6349 13.3996C11.1224 14.9076 9.60082 15.7595 8.23728 15.3018C6.87374 14.8441 6.18464 13.2494 6.69716 11.7414C7.11358 10.5162 8.1951 9.72545 9.31761 9.71711ZM15.5107 9.71711C16.6332 9.72545 17.7147 10.5162 18.1311 11.7414C18.6436 13.2494 17.9545 14.8441 16.591 15.3018C15.2275 15.7595 13.7059 14.9076 13.1934 13.3996C12.6808 11.8916 13.3699 10.2969 14.7335 9.83917C14.9891 9.75334 15.2516 9.71521 15.5107 9.71711ZM5.32996 11.3996C6.39247 11.4153 5.60278 16.4517 4.64026 16.0241C3.54756 15.1453 3.19627 12.5728 5.22214 11.4159C5.25075 11.4082 5.27711 11.4033 5.30351 11.4017C5.31212 11.401 5.32159 11.3995 5.32996 11.3996ZM19.4983 11.3996C19.5067 11.3996 19.5161 11.401 19.5248 11.4017C19.5512 11.4032 19.5775 11.4083 19.6061 11.4159C21.632 12.5727 21.2807 15.1452 20.188 16.0241C19.2255 16.4517 18.4358 11.4152 19.4983 11.3996ZM12.4141 14.8823C13.1303 14.8823 13.8011 15.1418 14.2879 15.5826C14.8072 16.0528 15.1098 16.7223 15.1058 17.3933C15.1058 18.0522 14.8115 18.7056 14.3062 19.1715C13.8097 19.6293 13.116 19.9008 12.4141 19.91C11.7122 19.9008 11.0185 19.6293 10.522 19.1715C10.0168 18.7056 9.72248 18.0522 9.72248 17.3933C9.71851 16.7223 10.0211 16.0528 10.5403 15.5826C11.0271 15.1418 11.698 14.8823 12.4141 14.8823ZM6.14784 16.1991C6.8513 16.1846 7.71644 16.74 8.41631 17.552C9.1969 18.4924 9.55194 20.1452 8.90054 20.6323C8.28421 21.0041 6.78638 20.8502 5.72262 19.322C5.00519 18.0397 5.09887 16.735 5.60259 16.3516C5.76736 16.2513 5.95087 16.2031 6.14784 16.1991ZM18.6133 16.1991C18.6356 16.1984 18.6584 16.1984 18.6804 16.1991C18.8774 16.203 19.0609 16.2513 19.2257 16.3516C19.7294 16.735 19.8231 18.0397 19.1057 19.322C18.0419 20.8502 16.5441 21.0041 15.9277 20.6323C15.2763 20.1452 15.6314 18.4924 16.412 17.552C17.09 16.7653 17.9223 16.2193 18.6133 16.1991ZM12.4141 20.7035C13.504 20.6911 15.1237 21.1498 15.1038 21.735C15.1212 22.1401 13.7921 23.3092 12.4365 23.2507C12.429 23.2507 12.4216 23.2506 12.4141 23.2507C12.4066 23.2506 12.3993 23.2507 12.3918 23.2507C11.0361 23.3092 9.70712 22.1401 9.72451 21.735C9.70456 21.1498 11.3243 20.6911 12.4141 20.7035Z" fill="#C7053D"/>
</svg>
