<svg width="24" height="24" viewBox="0 0 24 24" fill="none" xmlns="http://www.w3.org/2000/svg">
<path d="M16.1026 4.03702C16.4688 3.6708 17.0486 3.64803 17.4414 3.96866L17.5176 4.03702L21.668 8.18741C22.1093 8.6287 22.1093 9.34475 21.668 9.78605L17.5176 13.9364L17.4414 14.0048C17.0486 14.3254 16.4688 14.3026 16.1026 13.9364C15.7123 13.546 15.7123 12.9129 16.1026 12.5224L18.626 9.99991H7.95998C7.14188 9.99991 6.34405 10.2536 5.6758 10.7255C3.44205 12.3033 3.44205 15.6164 5.6758 17.1942C6.34405 17.6662 7.14188 17.9198 7.95998 17.9198H9.95803L10.0606 17.9247C10.5649 17.9758 10.958 18.402 10.958 18.9198C10.958 19.4377 10.5649 19.8638 10.0606 19.915L9.95803 19.9198H7.95998C6.72856 19.9198 5.52732 19.5385 4.5215 18.828C1.15958 16.4534 1.15958 11.4664 4.5215 9.09171C5.52732 8.38128 6.72856 7.99991 7.95998 7.99991H18.6524L16.1026 5.45108C15.7123 5.06061 15.7123 4.42749 16.1026 4.03702Z" fill="#000"/>
</svg>
