<svg width="24" height="24" viewBox="0 0 24 24" fill="none" xmlns="http://www.w3.org/2000/svg">
<path fill-rule="evenodd" clip-rule="evenodd" d="M10.7686 2.45753C11.5514 2.1053 12.4486 2.1053 13.2314 2.45753L22.4102 6.58741C22.7688 6.74881 22.9998 7.10624 23 7.49952C23 7.89298 22.7689 8.25012 22.4102 8.41163L18.8809 9.99952L22.4102 11.5874C22.7688 11.7488 22.9998 12.1062 23 12.4995C23 12.893 22.7689 13.2501 22.4102 13.4116L18.8809 14.9995L22.4102 16.5874C22.7688 16.7488 22.9998 17.1062 23 17.4995C23 17.893 22.7689 18.2501 22.4102 18.4116L13.2314 22.5425C12.4974 22.8728 11.6635 22.893 10.917 22.604L10.7686 22.5425L1.58984 18.4116C1.23108 18.2501 1 17.893 1 17.4995C1.00023 17.1062 1.23117 16.7488 1.58984 16.5874L5.11816 14.9995L1.58984 13.4116C1.23108 13.2501 1 12.893 1 12.4995C1.00023 12.1062 1.23117 11.7488 1.58984 11.5874L5.11816 9.99952L1.58984 8.41163C1.23108 8.25012 1 7.89298 1 7.49952C1.00023 7.10624 1.23117 6.74881 1.58984 6.58741L10.7686 2.45753ZM13.2314 17.5425C12.4974 17.8728 11.6635 17.893 10.917 17.604L10.7686 17.5425L7.54004 16.0894C7.49894 16.1157 7.45601 16.141 7.41016 16.1616L4.43652 17.4995L11.5898 20.7183L11.6895 20.7573C11.9249 20.8342 12.182 20.8209 12.4102 20.7183L19.5625 17.4995L16.5898 16.1616C16.5437 16.1409 16.5003 16.1159 16.459 16.0894L13.2314 17.5425ZM13.2314 12.5425C12.4485 12.8948 11.5515 12.8948 10.7686 12.5425L7.54004 11.0894C7.49894 11.1157 7.45601 11.141 7.41016 11.1616L4.43652 12.4995L11.5898 15.7183L11.6895 15.7573C11.9249 15.8342 12.182 15.8209 12.4102 15.7183L19.5625 12.4995L16.5898 11.1616C16.5437 11.1409 16.5003 11.1159 16.459 11.0894L13.2314 12.5425ZM12.4102 4.28077C12.1494 4.16357 11.8506 4.16357 11.5898 4.28077L4.43652 7.49952L11.5898 10.7183C11.8508 10.8356 12.1492 10.8356 12.4102 10.7183L19.5625 7.49952L12.4102 4.28077Z" fill="#555555"/>
</svg>
