<svg width="24" height="25" viewBox="0 0 24 25" fill="none" xmlns="http://www.w3.org/2000/svg">
<path d="M13.0893 6.71387C13.2958 6.73237 13.4923 6.81528 13.6508 6.95117L20.6508 12.9512C21.0699 13.3106 21.1184 13.9411 20.7592 14.3604C20.3999 14.7796 19.7694 14.828 19.3501 14.4688L13.8657 9.76758L13.7885 10.915L15.9487 17.3936C16.0503 17.6984 15.9998 18.0342 15.812 18.2949C15.6241 18.5556 15.3217 18.7098 15.0004 18.71H13.27L12.9985 22.7764C12.9635 23.3015 12.5267 23.7098 12.0004 23.71C11.474 23.71 11.0374 23.3017 11.0024 22.7764L10.7309 18.71H9.00045C8.67909 18.71 8.37689 18.5556 8.18893 18.2949C8.00097 18.0342 7.95056 17.6985 8.05221 17.3936L10.2114 10.915L10.1342 9.76758L4.65084 14.4688C4.23158 14.8281 3.60111 14.7795 3.24166 14.3604C2.88224 13.941 2.93073 13.3106 3.35006 12.9512L10.3501 6.95117L10.4194 6.89551C10.5882 6.77512 10.7916 6.70996 11.0004 6.70996H13.0004L13.0893 6.71387Z" fill="#555555"/>
<path d="M12.0004 1.70996C13.1048 1.71017 14.0004 2.60552 14.0004 3.70996C14.0004 4.8144 13.1048 5.70975 12.0004 5.70996C10.8959 5.70996 10.0004 4.81453 10.0004 3.70996C10.0004 2.60539 10.8959 1.70996 12.0004 1.70996Z" fill="#555555"/>
</svg>
