<svg width="24" height="25" viewBox="0 0 24 25" fill="none" xmlns="http://www.w3.org/2000/svg">
<path d="M13.0004 6.70996C13.239 6.71005 13.4697 6.7959 13.6508 6.95117L20.6508 12.9512C21.0698 13.3106 21.1183 13.9411 20.7592 14.3604C20.3999 14.7796 19.7684 14.828 19.3491 14.4688L14.1567 10.0166L14.9985 22.6436C15.0351 23.1944 14.6177 23.6711 14.0668 23.708C13.5158 23.7447 13.0391 23.3274 13.0024 22.7764L12.5317 15.71H11.4692L10.9985 22.7764C10.9618 23.3273 10.4849 23.7445 9.93403 23.708C9.38301 23.6713 8.96572 23.1946 9.00239 22.6436L9.84321 10.0166L4.65082 14.4688C4.23156 14.8281 3.60109 14.7795 3.24164 14.3604C2.88222 13.941 2.93072 13.3106 3.35004 12.9512L10.35 6.95117L10.4194 6.89551C10.5882 6.77512 10.7916 6.70996 11.0004 6.70996H13.0004Z" fill="#000"/>
<path d="M12.0004 1.70996C13.1048 1.71017 14.0004 2.60552 14.0004 3.70996C14.0004 4.8144 13.1048 5.70975 12.0004 5.70996C10.8959 5.70996 10.0004 4.81453 10.0004 3.70996C10.0004 2.60539 10.8959 1.70996 12.0004 1.70996Z" fill="#000"/>
</svg>
