<svg width="24" height="24" viewBox="0 0 24 24" fill="none" xmlns="http://www.w3.org/2000/svg">
<path d="M20 1C20.5523 1 21 1.44772 21 2V12C21 14.7614 18.7614 17 16 17H6.37696L10.7041 21.29C11.0962 21.6789 11.0987 22.3119 10.71 22.7041C10.3211 23.0962 9.68808 23.0987 9.29591 22.71L3.29591 16.7617C3.1078 16.5751 3.00124 16.3216 3.00001 16.0566C2.99886 15.7914 3.10332 15.536 3.29005 15.3477L9.29005 9.2959C9.67889 8.90382 10.3119 8.90125 10.7041 9.29004C11.0962 9.67889 11.0988 10.3119 10.71 10.7041L6.45118 15H16C17.6569 15 19 13.6569 19 12V2C19 1.44772 19.4477 1.00001 20 1Z" fill="#000"/>
</svg>
