<svg width="24" height="24" viewBox="0 0 24 24" fill="none" xmlns="http://www.w3.org/2000/svg">
<path d="M14 17.0003C14.5523 17.0003 15 17.4481 15 18.0003C14.9998 18.5525 14.5522 19.0003 14 19.0003H10C9.44781 19.0003 9.00015 18.5525 9 18.0003C9 17.4481 9.44772 17.0003 10 17.0003H14Z" fill="#555555"/>
<path d="M8 11.0003C9.10457 11.0003 10 11.8958 10 13.0003C9.99985 14.1048 9.10448 15.0003 8 15.0003C6.89552 15.0003 6.00015 14.1048 6 13.0003C6 11.8958 6.89543 11.0003 8 11.0003Z" fill="#555555"/>
<path d="M16 11.0003C17.1046 11.0003 18 11.8958 18 13.0003C17.9998 14.1048 17.1045 15.0003 16 15.0003C14.8955 15.0003 14.0002 14.1048 14 13.0003C14 11.8958 14.8954 11.0003 16 11.0003Z" fill="#555555"/>
<path fill-rule="evenodd" clip-rule="evenodd" d="M15.2109 1.38609C15.5501 0.950439 16.1784 0.872302 16.6143 1.21128C17.0498 1.55044 17.128 2.17882 16.7891 2.6146L14.1553 6.00035H19C20.6569 6.00035 22 7.34349 22 9.00035V11.2699C22.5973 11.6158 23 12.2605 23 13.0003V15.0003C22.9999 15.74 22.597 16.3839 22 16.7298V20.0003C21.9998 21.6571 20.6568 23.0003 19 23.0003H5C3.34324 23.0003 2.00015 21.6571 2 20.0003V16.7298C1.40298 16.3839 1.0001 15.74 1 15.0003V13.0003C1 12.2605 1.40274 11.6158 2 11.2699V9.00035C2 7.34349 3.34315 6.00035 5 6.00035H9.84473L7.21094 2.6146C6.87199 2.17882 6.95021 1.55044 7.38574 1.21128C7.82158 0.872302 8.44993 0.950439 8.78906 1.38609L12 5.51402L15.2109 1.38609ZM5 8.00035C4.44772 8.00035 4 8.44806 4 9.00035V20.0003C4.00015 20.5525 4.44781 21.0003 5 21.0003H19C19.5522 21.0003 19.9998 20.5525 20 20.0003V9.00035C20 8.44806 19.5523 8.00035 19 8.00035H5Z" fill="#555555"/>
</svg>
