<svg width="24" height="25" viewBox="0 0 24 25" fill="none" xmlns="http://www.w3.org/2000/svg">
<path fill-rule="evenodd" clip-rule="evenodd" d="M4 17.2769C5.65685 17.2769 7 18.62 7 20.2769C7 21.9337 5.65685 23.2769 4 23.2769C2.34315 23.2769 1 21.9337 1 20.2769C1 18.62 2.34315 17.2769 4 17.2769ZM4 19.2769C3.44772 19.2769 3 19.7246 3 20.2769C3 20.8291 3.44772 21.2769 4 21.2769C4.55228 21.2769 5 20.8291 5 20.2769C5 19.7246 4.55228 19.2769 4 19.2769Z" fill="#555555"/>
<path d="M3 11.2769C8.52285 11.2769 13 15.754 13 21.2769C13 21.8291 12.5523 22.2769 12 22.2769C11.4477 22.2769 11 21.8291 11 21.2769C11 16.8586 7.41828 13.2769 3 13.2769C2.44772 13.2769 2 12.8291 2 12.2769C2 11.7246 2.44772 11.2769 3 11.2769Z" fill="#555555"/>
<path d="M3 6.27686C11.2843 6.27686 18 12.9926 18 21.2769C18 21.8291 17.5523 22.2769 17 22.2769C16.4477 22.2769 16 21.8291 16 21.2769C16 14.0972 10.1797 8.27686 3 8.27686C2.44772 8.27686 2 7.82914 2 7.27686C2 6.72457 2.44772 6.27686 3 6.27686Z" fill="#555555"/>
<path d="M3 1.27686C14.0457 1.27686 23 10.2312 23 21.2769C23 21.8291 22.5523 22.2769 22 22.2769C21.4477 22.2769 21 21.8291 21 21.2769C21 11.3357 12.9411 3.27686 3 3.27686C2.44772 3.27686 2 2.82914 2 2.27686C2 1.72457 2.44772 1.27686 3 1.27686Z" fill="#555555"/>
</svg>
