<svg width="24" height="25" viewBox="0 0 24 25" fill="none" xmlns="http://www.w3.org/2000/svg">
<path d="M15 5.70996C15.2163 5.70996 15.4265 5.78041 15.5996 5.91016L17.5996 7.41016C18.0296 7.73267 18.1282 8.33735 17.8223 8.7793L16.1113 11.249L18.5547 12.8779C19.0142 13.1843 19.1384 13.8051 18.832 14.2646C18.5257 14.7242 17.9048 14.8483 17.4453 14.542L14.9727 12.8936L13.8643 14.4941L16.5732 16.3906C16.8406 16.5778 17 16.8836 17 17.21V22.21C17 22.7622 16.5523 23.21 16 23.21C15.4477 23.21 15 22.7622 15 22.21V17.7305L10.9678 14.9082L8.84375 18.2471C8.66018 18.5354 8.34185 18.71 8 18.71H4C3.44772 18.71 3 18.2622 3 17.71C3 17.1577 3.44772 16.71 4 16.71H7.45117L13.1777 7.70996H10.5186L10.5 10.2168C10.4961 10.769 10.0453 11.2137 9.49316 11.21C8.94099 11.206 8.49622 10.7553 8.5 10.2031L8.52539 6.70312L8.53125 6.60156C8.58538 6.0999 9.0101 5.70996 9.52539 5.70996H15Z" fill="#555555"/>
<path d="M18 2.70996C19.1046 2.70996 20 3.60539 20 4.70996C20 5.81453 19.1046 6.70996 18 6.70996C16.8954 6.70996 16 5.81453 16 4.70996C16 3.60539 16.8954 2.70996 18 2.70996Z" fill="#555555"/>
</svg>
