<svg width="24" height="25" viewBox="0 0 24 25" fill="none" xmlns="http://www.w3.org/2000/svg">
<path d="M7 13.2065C8.10456 13.2065 8.99998 14.102 9 15.2065C9 16.3111 8.10457 17.2065 7 17.2065C5.89544 17.2065 5 16.3111 5 15.2065C5.00001 14.102 5.89545 13.2066 7 13.2065Z" fill="#555555"/>
<path d="M17 13.3472C18.1045 13.3472 18.9999 14.2427 19 15.3472C19 16.4517 18.1046 17.3472 17 17.3472C15.8954 17.3472 15 16.4517 15 15.3472C15.0001 14.2427 15.8955 13.3472 17 13.3472Z" fill="#555555"/>
<path fill-rule="evenodd" clip-rule="evenodd" d="M18 0.276855C21.3137 0.276855 24 2.96315 24 6.27686V16.2769C24 18.3642 22.9336 20.202 21.3164 21.2769H22L22.1025 21.2817C22.6067 21.3331 23 21.7592 23 22.2769C23 22.7945 22.6067 23.2207 22.1025 23.272L22 23.2769H2C1.44773 23.2768 1 22.8291 1 22.2769C1.00002 21.7246 1.44774 21.2769 2 21.2769H2.68359C1.06636 20.202 0 18.3642 0 16.2769V6.27686C0 2.96315 2.68629 0.276855 6 0.276855H18ZM6 2.27686C3.79086 2.27686 2 4.06772 2 6.27686V16.2769C2 18.486 3.79086 20.2769 6 20.2769H11V2.27686H6ZM13 20.2769H18C20.2091 20.2769 22 18.486 22 16.2769V6.27686C22 4.06772 20.2091 2.27686 18 2.27686H13V20.2769Z" fill="#555555"/>
</svg>
