<?xml version="1.0" encoding="UTF-8"?>
<svg width="24px" height="24px" viewBox="0 0 24 24" version="1.1" xmlns="http://www.w3.org/2000/svg" xmlns:xlink="http://www.w3.org/1999/xlink">
    <!-- Generator: Sketch 46 (44423) - http://www.bohemiancoding.com/sketch -->
    <title>schedule-play</title>
    <desc>Created with Sketch.</desc>
    <defs></defs>
    <g id="Icons" stroke="none" stroke-width="1" fill="none" fill-rule="evenodd">
        <g id="schedule-play" stroke="#000000" stroke-width="2">
            <path d="M14,0 L14,3 M1,7 L19,7 M6,0 L6,3 M4,11 L6,11 M8,11 L16,11 M4,15 L6,15 M8,15 L14,15 M13,19 L1,19 L1,3 L19,3 L19,13 M18,23 C20.7614237,23 23,20.7614237 23,18 C23,15.2385763 20.7614237,13 18,13 C15.2385763,13 13,15.2385763 13,18 C13,20.7614237 15.2385763,23 18,23 Z M17.5,17 L19,18 L17.5,19 L17.5,17 Z" id="Group"></path>
        </g>
    </g>
</svg>