<svg width="24" height="25" viewBox="0 0 24 25" fill="none" xmlns="http://www.w3.org/2000/svg">
<path d="M7 4.27686C7.55228 4.27686 8 4.72457 8 5.27686V9.27686C8 9.82914 7.55228 10.2769 7 10.2769C6.44772 10.2769 6 9.82914 6 9.27686V5.27686C6 4.72457 6.44772 4.27686 7 4.27686Z" fill="#555555"/>
<path d="M10 4.27686C10.5523 4.27686 11 4.72457 11 5.27686V9.27686C11 9.82914 10.5523 10.2769 10 10.2769C9.44772 10.2769 9 9.82914 9 9.27686V5.27686C9 4.72457 9.44772 4.27686 10 4.27686Z" fill="#555555"/>
<path d="M13 4.27686C13.5523 4.27686 14 4.72457 14 5.27686V9.27686C14 9.82914 13.5523 10.2769 13 10.2769C12.4477 10.2769 12 9.82914 12 9.27686V5.27686C12 4.72457 12.4477 4.27686 13 4.27686Z" fill="#555555"/>
<path d="M16 6.27686C16.5523 6.27686 17 6.72457 17 7.27686V9.27686C17 9.82914 16.5523 10.2769 16 10.2769C15.4477 10.2769 15 9.82914 15 9.27686V7.27686C15 6.72457 15.4477 6.27686 16 6.27686Z" fill="#555555"/>
<path fill-rule="evenodd" clip-rule="evenodd" d="M16.1719 1.27686C16.9674 1.27694 17.7304 1.59322 18.293 2.15576L21.1211 4.98389L21.3203 5.20361C21.7578 5.73744 21.9999 6.40873 22 7.10498V20.2769C22 21.9337 20.6569 23.2769 19 23.2769H5C3.34315 23.2769 2 21.9337 2 20.2769V4.27686C2 2.62 3.34315 1.27686 5 1.27686H16.1719ZM5 3.27686C4.44772 3.27686 4 3.72457 4 4.27686V20.2769C4 20.8291 4.44772 21.2769 5 21.2769H19C19.5523 21.2769 20 20.8291 20 20.2769V7.10498C19.9999 6.87291 19.9193 6.6491 19.7734 6.47119L19.707 6.39795L16.8789 3.56982C16.6914 3.38236 16.437 3.27694 16.1719 3.27686H5Z" fill="#555555"/>
</svg>
