<svg width="24" height="24" viewBox="0 0 24 24" fill="none" xmlns="http://www.w3.org/2000/svg">
<path fill-rule="evenodd" clip-rule="evenodd" d="M1.29301 22.707C1.68354 23.0975 2.31655 23.0975 2.70708 22.707L6.67094 18.7421C8.3949 20.1531 10.5985 20.9999 13 20.9999C18.5229 20.9999 23 16.5228 23 10.9999C23 5.47716 18.5228 0.999988 13 0.999939C7.47722 0.999939 3.00009 5.47713 3.00005 10.9999C3.00005 13.401 3.84643 15.6043 5.25688 17.3281L1.29301 21.2929C0.902491 21.6834 0.902491 22.3164 1.29301 22.707ZM13 18.9999C8.58177 18.9999 5.00005 15.4182 5.00005 10.9999C5.00009 6.5817 8.58179 2.99994 13 2.99994C17.4183 2.99999 21 6.58173 21 10.9999C21 15.4182 17.4183 18.9999 13 18.9999Z" fill="#555555"/>
</svg>
