<svg width="24" height="24" viewBox="0 0 24 24" fill="none" xmlns="http://www.w3.org/2000/svg">
<path d="M2 14.7139C2.55215 14.7139 2.99977 15.1618 3 15.7139V18C3 19.6569 4.34315 21 6 21H8.28613C8.83823 21.0002 9.28613 21.4479 9.28613 22C9.28613 22.5521 8.83823 22.9998 8.28613 23H6C3.23858 23 1 20.7614 1 18V15.7139C1.00023 15.1618 1.44785 14.7139 2 14.7139Z" fill="#000"/>
<path d="M22 14.7139C22.5521 14.7139 22.9998 15.1618 23 15.7139V18C23 20.7614 20.7614 23 18 23H15.7139C15.1618 22.9998 14.7139 22.5521 14.7139 22C14.7139 21.4479 15.1618 21.0002 15.7139 21H18C19.6569 21 21 19.6569 21 18V15.7139C21.0002 15.1618 21.4479 14.7139 22 14.7139Z" fill="#000"/>
<path d="M7 12.8574C7.55228 12.8574 8 13.3051 8 13.8574V15C8 15.1042 8.01563 15.2029 8.04395 15.2949C8.1187 15.5375 8.09509 15.7865 7.99805 16.001C8.21258 15.9038 8.46229 15.8812 8.70508 15.9561C8.79708 15.9844 8.89579 16 9 16H10.1426C10.6949 16 11.1426 16.4477 11.1426 17C11.1426 17.5523 10.6949 18 10.1426 18H9C8.69392 18 8.39685 17.9536 8.11621 17.8672C7.58841 17.7046 7.29246 17.145 7.45508 16.6172C7.46754 16.5767 7.48209 16.5376 7.49902 16.5C7.46155 16.5169 7.42309 16.5325 7.38281 16.5449C6.85501 16.7075 6.29543 16.4116 6.13281 15.8838C6.04638 15.6032 6 15.3061 6 15V13.8574C6 13.3051 6.44772 12.8574 7 12.8574Z" fill="#000"/>
<path d="M17 12.8574C17.5523 12.8574 18 13.3051 18 13.8574V15C18 15.3061 17.9536 15.6032 17.8672 15.8838C17.7046 16.4116 17.145 16.7075 16.6172 16.5449C16.5766 16.5324 16.5377 16.517 16.5 16.5C16.517 16.5377 16.5324 16.5766 16.5449 16.6172C16.7075 17.145 16.4116 17.7046 15.8838 17.8672C15.6032 17.9536 15.3061 18 15 18H13.8574C13.3051 18 12.8574 17.5523 12.8574 17C12.8574 16.4477 13.3051 16 13.8574 16H15C15.1042 16 15.2029 15.9844 15.2949 15.9561C15.5374 15.8813 15.7866 15.9041 16.001 16.001C15.9041 15.7866 15.8813 15.5374 15.9561 15.2949C15.9844 15.2029 16 15.1042 16 15V13.8574C16 13.3051 16.4477 12.8574 17 12.8574Z" fill="#000"/>
<path d="M10.1426 6C10.6949 6 11.1426 6.44772 11.1426 7C11.1426 7.55228 10.6949 8 10.1426 8H9C8.89579 8 8.79708 8.01563 8.70508 8.04395C8.46215 8.1188 8.21266 8.09541 7.99805 7.99805C8.09541 8.21266 8.1188 8.46215 8.04395 8.70508C8.01563 8.79708 8 8.89579 8 9V10.1426C8 10.6949 7.55228 11.1426 7 11.1426C6.44772 11.1426 6 10.6949 6 10.1426V9C6 8.69392 6.04638 8.39685 6.13281 8.11621C6.29543 7.58841 6.85501 7.29246 7.38281 7.45508C7.42296 7.46745 7.46166 7.48224 7.49902 7.49902C7.48224 7.46166 7.46745 7.42296 7.45508 7.38281C7.29246 6.85501 7.58841 6.29543 8.11621 6.13281C8.39685 6.04638 8.69392 6 9 6H10.1426Z" fill="#000"/>
<path d="M15 6C15.3061 6 15.6032 6.04638 15.8838 6.13281C16.4116 6.29543 16.7075 6.85501 16.5449 7.38281C16.5325 7.42309 16.5169 7.46155 16.5 7.49902C16.5376 7.48209 16.5767 7.46754 16.6172 7.45508C17.145 7.29246 17.7046 7.58841 17.8672 8.11621C17.9536 8.39685 18 8.69392 18 9V10.1426C18 10.6949 17.5523 11.1426 17 11.1426C16.4477 11.1426 16 10.6949 16 10.1426V9C16 8.89579 15.9844 8.79708 15.9561 8.70508C15.8812 8.46229 15.9038 8.21258 16.001 7.99805C15.7865 8.09509 15.5375 8.1187 15.2949 8.04395C15.2029 8.01563 15.1042 8 15 8H13.8574C13.3051 8 12.8574 7.55228 12.8574 7C12.8574 6.44772 13.3051 6 13.8574 6H15Z" fill="#000"/>
<path d="M8.28613 1C8.83823 1.00023 9.28613 1.44785 9.28613 2C9.28613 2.55215 8.83823 2.99977 8.28613 3H6C4.34315 3 3 4.34315 3 6V8.28613C2.99977 8.83823 2.55215 9.28613 2 9.28613C1.44785 9.28613 1.00023 8.83823 1 8.28613V6C1 3.23858 3.23858 1 6 1H8.28613Z" fill="#000"/>
<path d="M18 1C20.7614 1 23 3.23858 23 6V8.28613C22.9998 8.83823 22.5521 9.28613 22 9.28613C21.4479 9.28613 21.0002 8.83823 21 8.28613V6C21 4.34315 19.6569 3 18 3H15.7139C15.1618 2.99977 14.7139 2.55215 14.7139 2C14.7139 1.44785 15.1618 1.00023 15.7139 1H18Z" fill="#000"/>
</svg>
