<svg width="24" height="24" viewBox="0 0 24 24" fill="none" xmlns="http://www.w3.org/2000/svg">
<path fill-rule="evenodd" clip-rule="evenodd" d="M9.56641 5.09863C9.91287 4.93211 10.3248 4.97861 10.625 5.21875L23.125 15.2188C23.4437 15.4737 23.5755 15.8973 23.458 16.2881C23.3405 16.6788 22.9971 16.9591 22.5908 16.9961L18.6191 17.3564L20.374 20.5146C20.5064 20.753 20.5357 21.0354 20.4551 21.2959C20.3744 21.5563 20.1911 21.7726 19.9473 21.8945L16.9473 23.3945C16.4684 23.634 15.886 23.4534 15.626 22.9854L13.6826 19.4873L10.5996 21.7998C10.2966 22.027 9.89146 22.0639 9.55273 21.8945C9.21395 21.7251 9 21.3788 9 21V6C9 5.61571 9.22012 5.26521 9.56641 5.09863ZM11 19L13.4004 17.2002L13.4893 17.1396C13.7044 17.0119 13.9617 16.9697 14.209 17.0225C14.4913 17.0828 14.7338 17.2622 14.874 17.5146L16.9082 21.1768L18.1182 20.5723L16.126 16.9854C15.9618 16.6898 15.9581 16.3311 16.1162 16.0322C16.2743 15.7335 16.5726 15.5346 16.9092 15.5039L19.9336 15.2285L11 8.08105V19Z" fill="#000"/>
<path d="M13 0C15.7614 0 18 2.23858 18 5V6C18 6.55228 17.5523 7 17 7C16.4477 7 16 6.55228 16 6V5C16 3.34315 14.6569 2 13 2H5C3.34315 2 2 3.34315 2 5V13C2 14.6569 3.34315 16 5 16H6C6.55228 16 7 16.4477 7 17C7 17.5523 6.55228 18 6 18H5C2.23858 18 0 15.7614 0 13V5C0 2.23858 2.23858 0 5 0H13Z" fill="#000"/>
</svg>
