<svg width="24" height="25" viewBox="0 0 24 25" fill="none" xmlns="http://www.w3.org/2000/svg">
<path d="M4.22164 4.57018C4.61212 4.17969 5.24517 4.17977 5.6357 4.57018C6.02621 4.96071 6.02622 5.59372 5.6357 5.98424C2.12136 9.49886 2.12144 15.1971 5.6357 18.7118C6.02621 19.1023 6.02622 19.7363 5.6357 20.1268C5.24518 20.5168 4.61201 20.5171 4.22164 20.1268C-0.0740454 15.8311 -0.0738752 8.86597 4.22164 4.57018Z" fill="#555555"/>
<path d="M18.3642 4.57018C18.7547 4.17977 19.3878 4.17969 19.7783 4.57018C24.0739 8.86596 24.074 15.8311 19.7783 20.1268C19.3878 20.517 18.7547 20.5169 18.3642 20.1268C17.9737 19.7363 17.9738 19.1023 18.3642 18.7118C21.8785 15.1971 21.8787 9.49885 18.3642 5.98424C17.9737 5.59377 17.9738 4.96072 18.3642 4.57018Z" fill="#555555"/>
<path d="M7.04976 7.39831C7.44029 7.00778 8.07428 7.00778 8.4648 7.39831C8.8551 7.78872 8.85494 8.42185 8.4648 8.81237C6.51232 10.765 6.51223 13.9311 8.4648 15.8837C8.85507 16.2741 8.85496 16.9072 8.4648 17.2977C8.07427 17.6881 7.44024 17.6882 7.04976 17.2977C4.31653 14.5641 4.31649 10.1319 7.04976 7.39831Z" fill="#555555"/>
<path d="M15.5351 7.39831C15.9256 7.00778 16.5596 7.00778 16.9502 7.39831C19.6836 10.1319 19.6834 14.5641 16.9502 17.2977C16.5596 17.6881 15.9256 17.6882 15.5351 17.2977C15.145 16.9073 15.145 16.2741 15.5351 15.8837C17.4877 13.931 17.4877 10.765 15.5351 8.81237C15.145 8.4219 15.145 7.78873 15.5351 7.39831Z" fill="#555555"/>
<path fill-rule="evenodd" clip-rule="evenodd" d="M12 9.3485C13.6568 9.3485 15 10.6916 15 12.3485C14.9997 14.0052 13.6567 15.3485 12 15.3485C10.3433 15.3484 9.00017 14.0051 8.99996 12.3485C8.99996 10.6917 10.3432 9.34858 12 9.3485ZM12 11.3485C11.4477 11.3486 11 11.7963 11 12.3485C11.0002 12.9006 11.4479 13.3484 12 13.3485C12.5521 13.3485 12.9997 12.9006 13 12.3485C13 11.7962 12.5522 11.3485 12 11.3485Z" fill="#555555"/>
</svg>
