<svg width="24" height="24" viewBox="0 0 24 24" fill="none" xmlns="http://www.w3.org/2000/svg">
<path d="M6 13C7.10457 13 8 13.8954 8 15C8 16.1046 7.10457 17 6 17C4.89543 17 4 16.1046 4 15C4 13.8954 4.89543 13 6 13Z" fill="#000"/>
<path d="M7 8C7.55228 8 8 8.44772 8 9C8 9.55229 7.55228 10 7 10H5C4.44772 10 4 9.55229 4 9C4 8.44772 4.44772 8 5 8H7Z" fill="#000"/>
<path d="M7 5C7.55228 5 8 5.44772 8 6C8 6.55228 7.55228 7 7 7H5C4.44772 7 4 6.55228 4 6C4 5.44772 4.44772 5 5 5H7Z" fill="#000"/>
<path d="M18 13C19.1046 13 20 13.8954 20 15C20 16.1046 19.1046 17 18 17C16.8954 17 16 16.1046 16 15C16 13.8954 16.8954 13 18 13Z" fill="#000"/>
<path d="M19 8C19.5523 8 20 8.44772 20 9C20 9.55229 19.5523 10 19 10H17C16.4477 10 16 9.55229 16 9C16 8.44772 16.4477 8 17 8H19Z" fill="#000"/>
<path d="M19 5C19.5523 5 20 5.44772 20 6C20 6.55228 19.5523 7 19 7H17C16.4477 7 16 6.55228 16 6C16 5.44772 16.4477 5 17 5H19Z" fill="#000"/>
<path fill-rule="evenodd" clip-rule="evenodd" d="M18 1C20.7614 1 23 3.23858 23 6V15C23 17.4189 21.2822 19.4361 19 19.8994V21H22.5C23.0523 21 23.5 21.4477 23.5 22C23.5 22.5523 23.0523 23 22.5 23H2C1.44772 23 1 22.5523 1 22C1 21.4477 1.44772 21 2 21H5V19.8994C2.71781 19.4361 1 17.4189 1 15V6C1 3.23858 3.23858 1 6 1C8.76142 1 11 3.23858 11 6V15C11 17.4189 9.28218 19.4361 7 19.8994V21H17V19.8994C14.7178 19.4361 13 17.4189 13 15V6C13 3.23858 15.2386 1 18 1ZM6 3C4.34315 3 3 4.34315 3 6V15C3 16.6569 4.34315 18 6 18C7.65685 18 9 16.6569 9 15V6C9 4.34315 7.65685 3 6 3ZM18 3C16.3431 3 15 4.34315 15 6V15C15 16.6569 16.3431 18 18 18C19.6569 18 21 16.6569 21 15V6C21 4.34315 19.6569 3 18 3Z" fill="#000"/>
</svg>
