<?xml version="1.0" encoding="UTF-8"?>
<svg width="24px" height="24px" viewBox="0 0 24 24" version="1.1" xmlns="http://www.w3.org/2000/svg" xmlns:xlink="http://www.w3.org/1999/xlink">
    <!-- Generator: Sketch 46 (44423) - http://www.bohemiancoding.com/sketch -->
    <title>servers</title>
    <desc>Created with Sketch.</desc>
    <defs></defs>
    <g id="Icons" stroke="none" stroke-width="1" fill="none" fill-rule="evenodd">
        <g id="servers" stroke="#000000" stroke-width="2">
            <path d="M7,19 L8,19 L8,18 L7,18 L7,19 Z M18,19 L19,19 L19,18 L18,18 L18,19 Z M1,23 L12,23 L12,1 L1,1 L1,23 Z M12,23 L23,23 L23,1 L12,1 L12,23 Z M4,5 L9,5 L4,5 Z M15,5 L20,5 L15,5 Z M4,9 L9,9 L4,9 Z M15,9 L20,9 L15,9 Z M4,13 L9,13 L4,13 Z M15,13 L20,13 L15,13 Z" id="Servers"></path>
        </g>
    </g>
</svg>