<svg width="24" height="24" viewBox="0 0 24 24" fill="none" xmlns="http://www.w3.org/2000/svg">
<path fill-rule="evenodd" clip-rule="evenodd" d="M14.293 8.29297C14.6835 7.90247 15.3165 7.90246 15.707 8.29297C16.0975 8.68349 16.0975 9.31651 15.707 9.70703L15.4453 9.96777C15.7974 10.5634 16 11.258 16 12C16 12.7417 15.7971 13.4358 15.4453 14.0312L15.707 14.293C16.0976 14.6835 16.0975 15.3165 15.707 15.707C15.3165 16.0976 14.6835 16.0976 14.293 15.707L14.0312 15.4453C13.4358 15.7972 12.7418 16 12 16C11.2579 16 10.5634 15.7974 9.96777 15.4453L9.70703 15.707C9.3165 16.0975 8.68348 16.0975 8.29297 15.707C7.90252 15.3165 7.90251 14.6835 8.29297 14.293L8.55371 14.0312C8.20205 13.4359 8 12.7415 8 12C8.00001 11.2581 8.20176 10.5633 8.55371 9.96777L8.29297 9.70703C7.90261 9.31651 7.90253 8.68345 8.29297 8.29297C8.68344 7.90249 9.31649 7.9026 9.70703 8.29297L9.96777 8.55371C10.5633 8.20179 11.2582 8 12 8C12.7416 8 13.4359 8.20204 14.0312 8.55371L14.293 8.29297ZM12 10C10.8955 10 10 10.8955 10 12C10 13.1046 10.8954 14 12 14C13.1046 14 14 13.1046 14 12C14 10.8955 13.1045 10 12 10Z" fill="#555555"/>
<path fill-rule="evenodd" clip-rule="evenodd" d="M12 1C12.5523 1 13 1.44772 13 2V3.05664C14.7355 3.24853 16.3216 3.93333 17.6162 4.96875L18.3643 4.22168C18.7548 3.83144 19.3879 3.83128 19.7783 4.22168C20.1688 4.61211 20.1686 5.2452 19.7783 5.63574L19.0303 6.38379C20.0659 7.67849 20.7514 9.26427 20.9434 11H22C22.5523 11 23 11.4477 23 12C23 12.5523 22.5523 13 22 13H20.9434C20.7515 14.7355 20.0656 16.3206 19.0303 17.6152L19.7783 18.3643C20.1686 18.7548 20.1688 19.3879 19.7783 19.7783C19.3879 20.1687 18.7548 20.1686 18.3643 19.7783L17.6162 19.0303C16.3215 20.0659 14.7357 20.7505 13 20.9424V22C13 22.5523 12.5523 23 12 23C11.4477 23 11 22.5523 11 22V20.9424C9.26404 20.7504 7.6776 20.0662 6.38281 19.0303L5.63574 19.7783C5.24522 20.1685 4.61212 20.1687 4.22168 19.7783C3.83125 19.3879 3.83143 18.7548 4.22168 18.3643L4.96875 17.6152C3.93359 16.3207 3.2485 14.7353 3.05664 13H2C1.44772 13 1 12.5523 1 12C1 11.4477 1.44772 11 2 11H3.05664C3.24853 9.26448 3.93333 7.6784 4.96875 6.38379L4.22168 5.63574C3.83143 5.2452 3.83125 4.61211 4.22168 4.22168C4.61212 3.83131 5.24522 3.83145 5.63574 4.22168L6.38281 4.96875C7.67754 3.93306 9.26421 3.24856 11 3.05664V2C11 1.44772 11.4477 1 12 1ZM12 5C10.0702 5 8.32191 5.77995 7.05566 7.04297C7.05355 7.04512 7.05195 7.04864 7.0498 7.05078C7.04752 7.05306 7.04429 7.05438 7.04199 7.05664C5.77954 8.32281 5 10.0707 5 12C5 13.929 5.77983 15.6763 7.04199 16.9424C7.04446 16.9448 7.04736 16.9468 7.0498 16.9492C7.05178 16.9512 7.05371 16.9541 7.05566 16.9561C8.32195 18.2194 10.07 19 12 19C15.866 19 19 15.866 19 12C19 10.0705 18.2198 8.32285 16.957 7.05664C16.9549 7.05455 16.9523 7.0529 16.9502 7.05078C16.9479 7.04849 16.9456 7.04528 16.9434 7.04297C15.6772 5.78023 13.9295 5 12 5Z" fill="#555555"/>
</svg>
