<?xml version="1.0" encoding="UTF-8"?>
<svg width="24px" height="24px" viewBox="0 0 24 24" version="1.1" xmlns="http://www.w3.org/2000/svg" xmlns:xlink="http://www.w3.org/1999/xlink">
    <!-- Generator: Sketch 46 (44423) - http://www.bohemiancoding.com/sketch -->
    <title>settings-option</title>
    <desc>Created with Sketch.</desc>
    <defs></defs>
    <g id="Icons" stroke="none" stroke-width="1" fill="none" fill-rule="evenodd">
        <g id="settings-option" stroke="#000000" stroke-width="2">
            <path d="M12,9 L12,0 M15,12 L24,12 M0,12 L9,12 M12,24 L12,15 M12,21 C16.9705627,21 21,16.9705627 21,12 C21,7.02943725 16.9705627,3 12,3 C7.02943725,3 3,7.02943725 3,12 C3,16.9705627 7.02943725,21 12,21 Z M3.5,8.5 L1,7.5 M20.5,15.5 L23,16.5 M3,3 L5.5,5.5 M3,3 L5.5,5.5 M18,18 L20.5,20.5 M20.5,3 L18,5.5 M5.5,18 L3,20.5 M12,15 C13.6568542,15 15,13.6568542 15,12 C15,10.3431458 13.6568542,9 12,9 C10.3431458,9 9,10.3431458 9,12 C9,13.6568542 10.3431458,15 12,15 Z M20.5,8.5 L23,7.5 M15.5,3.5 L16.5,1 M15.5,20.5 L16.5,23 M8.5,20.5 L7.5,23 M3.5,15.5 L1,16.5 M8.5,3.5 L7.5,1" id="Group"></path>
        </g>
    </g>
</svg>