<svg width="24" height="24" viewBox="0 0 24 24" fill="none" xmlns="http://www.w3.org/2000/svg">
<path fill-rule="evenodd" clip-rule="evenodd" d="M18 1C20.2091 1 22 2.79086 22 5C22 7.20914 20.2091 9 18 9C16.9441 9 15.9844 8.59023 15.2695 7.92188L12.623 9.90625C12.8659 10.5583 13 11.2634 13 12C13 12.7363 12.8657 13.441 12.623 14.0928L15.2695 16.0771C15.9844 15.4091 16.9444 15 18 15C20.2091 15 22 16.7909 22 19C22 21.2091 20.2091 23 18 23C15.7909 23 14 21.2091 14 19C14 18.5706 14.0681 18.1572 14.1934 17.7695L11.6133 15.834C10.5127 17.1568 8.85533 18 7 18C3.68629 18 1 15.3137 1 12C1 8.68629 3.68629 6 7 6C8.85506 6 10.5127 6.84253 11.6133 8.16504L14.1934 6.22949C14.0683 5.84206 14 5.42904 14 5C14 2.79086 15.7909 1 18 1ZM18 17C16.8954 17 16 17.8954 16 19C16 20.1046 16.8954 21 18 21C19.1046 21 20 20.1046 20 19C20 17.8954 19.1046 17 18 17ZM7 8C4.79086 8 3 9.79086 3 12C3 14.2091 4.79086 16 7 16C9.20914 16 11 14.2091 11 12C11 9.79086 9.20914 8 7 8ZM18 3C16.8954 3 16 3.89543 16 5C16 6.10457 16.8954 7 18 7C19.1046 7 20 6.10457 20 5C20 3.89543 19.1046 3 18 3Z" fill="#000"/>
</svg>
