<svg width="24" height="25" viewBox="0 0 24 25" fill="none" xmlns="http://www.w3.org/2000/svg">
<path fill-rule="evenodd" clip-rule="evenodd" d="M12 1.70996C14.7614 1.70996 17 3.94854 17 6.70996V7.70996H22C22.5523 7.70996 23 8.15768 23 8.70996V19.71C23 21.9191 21.2091 23.71 19 23.71H5C2.79086 23.71 1 21.9191 1 19.71V8.70996C1 8.15768 1.44772 7.70996 2 7.70996H7V6.70996C7 3.94854 9.23858 1.70996 12 1.70996ZM3 19.71C3 20.8145 3.89543 21.71 5 21.71H19C20.1046 21.71 21 20.8145 21 19.71V9.70996H3V19.71ZM12 3.70996C10.3431 3.70996 9 5.05311 9 6.70996V7.70996H15V6.70996C15 5.05311 13.6569 3.70996 12 3.70996Z" fill="#555555"/>
</svg>
