<svg width="24" height="24" viewBox="0 0 24 24" fill="none" xmlns="http://www.w3.org/2000/svg">
<path fill-rule="evenodd" clip-rule="evenodd" d="M10.5 0C11.8807 6.60258e-05 13 1.11933 13 2.5V8.0498C13.1615 8.01702 13.3288 8.00001 13.5 8C14.0634 8.00003 14.582 8.18847 15 8.50293C15.4181 8.18842 15.9366 8.00003 16.5 8C16.6711 8.00001 16.8385 8.01704 17 8.0498V4.5C17 3.11934 18.1194 2.00008 19.5 2C20.8807 2.00007 22 3.11933 22 4.5V18C22 20.7614 19.7614 22.9999 17 23H12.6572C11.3312 23 10.0588 22.4728 9.12109 21.5352L2.29297 14.707C1.35026 13.7642 1.35026 12.2358 2.29297 11.293C3.23576 10.3502 4.76424 10.3503 5.70703 11.293L8 13.5859V2.5C8 1.11934 9.11936 8.14303e-05 10.5 0ZM10.5 2C10.2239 2.00008 10 2.22391 10 2.5V15.6738L9.98633 15.8574C9.85877 16.6847 8.87744 17.0913 8.20215 16.5967L8.0625 16.4766L4.29297 12.707C4.13122 12.5454 3.86877 12.5454 3.70703 12.707C3.54537 12.8688 3.54537 13.1312 3.70703 13.293L10.5361 20.1211C11.0987 20.6836 11.8617 21 12.6572 21H17C18.6568 20.9999 20 19.6568 20 18V4.5C20 4.2239 19.7761 4.00007 19.5 4C19.2239 4.00008 19 4.22391 19 4.5V15.5C19 16.8807 17.8807 17.9999 16.5 18C15.2694 17.9999 14.2478 17.1104 14.04 15.9395C13.8661 15.9778 13.6855 16 13.5 16C12.1194 15.9999 11 14.8807 11 13.5V2.5C11 2.2239 10.7761 2.00007 10.5 2ZM16.5 10C16.2584 10.0001 16.0573 10.1716 16.0107 10.3994L16 10.5V15.5C16 15.7761 16.2239 15.9999 16.5 16C16.7761 15.9999 17 15.7761 17 15.5V10.5L16.9902 10.3994C16.9437 10.1715 16.7416 10.0001 16.5 10ZM13.5 10C13.2239 10.0001 13 10.2239 13 10.5V13.5C13 13.7761 13.2239 13.9999 13.5 14C13.7416 13.9999 13.9437 13.8285 13.9902 13.6006L14 13.5V10.5C14 10.2239 13.7761 10.0001 13.5 10Z" fill="#000"/>
</svg>
