<svg width="24" height="24" viewBox="0 0 24 24" fill="none" xmlns="http://www.w3.org/2000/svg">
<path fill-rule="evenodd" clip-rule="evenodd" d="M10.1802 4.76432C9.30784 4.45498 8.90877 3.63737 8.90877 3.63737C8.8409 3.54284 8.55623 2.8579 8.55623 2.8579C8.25689 2.06482 7.71089 1.82242 7.71089 1.82242C7.03954 1.42788 6.21047 1.41802 6.21047 1.41802C6.2462 1.41322 6.70394 1.62522 6.70394 1.62522C7.78395 2.13989 7.46048 3.3691 7.46048 3.3691C7.39022 3.70004 7.37382 4.33911 7.37382 4.33911C7.35915 5.19086 7.96582 5.6066 8.03302 5.651C8.36743 5.44779 8.72396 5.26739 9.09757 5.11472C9.4557 4.96832 9.81744 4.85139 10.1802 4.76432ZM5.597 8.17022C4.76099 8.56863 3.90111 8.27249 3.90111 8.27249C3.78604 8.25382 3.10043 7.97116 3.10043 7.97116C2.32803 7.62208 1.77082 7.83649 1.77082 7.83649C1.01681 8.03182 0.423738 8.61143 0.423738 8.61143C0.445338 8.58276 0.919077 8.40889 0.919077 8.40889C2.04669 8.00916 2.68683 9.10717 2.68683 9.10717C2.8715 9.39064 3.31177 9.85411 3.31177 9.85411C3.90338 10.467 4.62685 10.332 4.70539 10.3161C4.79819 9.93531 4.92285 9.55611 5.07912 9.18384C5.22886 8.82703 5.40166 8.48876 5.597 8.17022ZM4.76459 13.8196C4.45512 14.6924 3.63764 15.0916 3.63764 15.0916C3.54311 15.1592 2.85817 15.4443 2.85817 15.4443C2.06509 15.7436 1.82269 16.2895 1.82269 16.2895C1.42788 16.9606 1.41855 17.7898 1.41855 17.7898C1.41362 17.7541 1.62535 17.2963 1.62535 17.2963C2.14002 16.2163 3.3695 16.5402 3.3695 16.5402C3.70004 16.6098 4.33898 16.6265 4.33898 16.6265C5.19086 16.6415 5.60686 16.0343 5.651 15.9676C5.44793 15.6326 5.26766 15.2763 5.11512 14.9027C4.96832 14.5444 4.85125 14.1827 4.76459 13.8196ZM8.17076 18.4033C8.5689 19.2391 8.27316 20.0994 8.27316 20.0994C8.25436 20.2138 7.97129 20.9 7.97129 20.9C7.62195 21.6722 7.83675 22.2297 7.83675 22.2297C8.03196 22.9836 8.6117 23.5768 8.6117 23.5768C8.58303 23.5549 8.40903 23.0813 8.40903 23.0813C8.00942 21.9536 9.1077 21.3136 9.1077 21.3136C9.39104 21.1288 9.85464 20.6885 9.85464 20.6885C10.4673 20.0969 10.3325 19.3735 10.3164 19.2951C9.93571 19.2019 9.55611 19.0774 9.1837 18.9211C8.82703 18.7717 8.48876 18.5985 8.17076 18.4033ZM13.82 19.2359C14.693 19.5449 15.0918 20.3626 15.0918 20.3626C15.1596 20.4572 15.4442 21.1424 15.4442 21.1424C15.7435 21.9353 16.2898 22.1777 16.2898 22.1777C16.961 22.5728 17.7901 22.5823 17.7901 22.5823C17.7546 22.5869 17.2967 22.3749 17.2967 22.3749C16.2163 21.8602 16.5403 20.6312 16.5403 20.6312C16.6103 20.3001 16.6265 19.6613 16.6265 19.6613C16.6417 18.8093 16.0344 18.3933 15.968 18.3493C15.6328 18.5525 15.2767 18.7326 14.9027 18.8853C14.5448 19.0319 14.1834 19.1489 13.82 19.2359ZM18.4035 15.8299C19.2394 15.4312 20.0997 15.7275 20.0997 15.7275C20.2146 15.7463 20.9 16.0294 20.9 16.0294C21.6726 16.3783 22.23 16.1636 22.23 16.1636C22.9841 15.9682 23.5769 15.3887 23.5769 15.3887C23.5552 15.4175 23.0819 15.5911 23.0819 15.5911C21.9538 15.9907 21.3136 14.8928 21.3136 14.8928C21.1288 14.6094 20.6888 14.146 20.6888 14.146C20.097 13.5328 19.3737 13.668 19.2953 13.6839C19.2023 14.0646 19.0775 14.4442 18.9214 14.8163C18.7721 15.1731 18.5989 15.5114 18.4035 15.8299ZM19.2365 10.1802C19.5456 9.30757 20.3629 8.9085 20.3629 8.9085C20.4574 8.84063 21.1429 8.55596 21.1429 8.55596C21.9352 8.25663 22.1777 7.71102 22.1777 7.71102C22.5727 7.03928 22.5827 6.21047 22.5827 6.21047C22.5871 6.24594 22.3753 6.70367 22.3753 6.70367C21.8606 7.78369 20.6313 7.46022 20.6313 7.46022C20.3004 7.39035 19.6616 7.37368 19.6616 7.37368C18.8094 7.35848 18.3937 7.96582 18.3493 8.03236C18.5527 8.36729 18.733 8.72383 18.8854 9.09757C19.0323 9.45557 19.1489 9.81731 19.2365 10.1802ZM15.8303 5.5966C15.4316 4.76112 15.7274 3.90084 15.7274 3.90084C15.7464 3.78604 16.0296 3.1003 16.0296 3.1003C16.3786 2.32789 16.1639 1.77055 16.1639 1.77055C15.9682 1.01641 15.3892 0.423471 15.3892 0.423471C15.4176 0.445338 15.5916 0.91881 15.5916 0.91881C15.991 2.04642 14.8928 2.6867 14.8928 2.6867C14.6096 2.87163 14.1464 3.3115 14.1464 3.3115C13.5331 3.90298 13.6684 4.62658 13.6844 4.70525C14.065 4.79792 14.4446 4.92299 14.8164 5.07886C15.1732 5.22819 15.5118 5.40139 15.8303 5.5966ZM7.58742 5.98367C6.66234 6.02633 5.98473 5.41926 5.98473 5.41926C5.88633 5.35753 5.36433 4.83019 5.36433 4.83019C4.78832 4.20858 4.19125 4.19018 4.19125 4.19018C3.4207 4.07711 2.64896 4.38085 2.64896 4.38085C2.68016 4.36272 3.18417 4.38658 3.18417 4.38658C4.37845 4.45618 4.54178 5.717 4.54178 5.717C4.60205 6.04967 4.82752 6.64781 4.82752 6.64781C5.13472 7.44248 5.85366 7.59875 5.93233 7.61448C6.1658 7.30021 6.42794 6.99874 6.71661 6.71661C6.99314 6.44581 7.28395 6.20114 7.58742 5.98367ZM4.62565 10.8663C4.00151 11.5503 3.09337 11.6004 3.09337 11.6004C2.9799 11.6261 2.23829 11.6224 2.23829 11.6224C1.39108 11.59 0.955744 11.9991 0.955744 11.9991C0.331337 12.4643 0 13.2248 0 13.2248C0.00946677 13.1897 0.382671 12.8503 0.382671 12.8503C1.27641 12.0552 2.28336 12.8309 2.28336 12.8309C2.5611 13.0237 3.14364 13.2873 3.14364 13.2873C3.92271 13.632 4.54178 13.2341 4.60845 13.1896C4.55138 12.8021 4.52338 12.4037 4.52805 12.0003C4.53218 11.6129 4.56498 11.2344 4.62565 10.8663ZM5.98393 16.4127C6.02647 17.3378 5.41953 18.0155 5.41953 18.0155C5.35753 18.1141 4.83032 18.6359 4.83032 18.6359C4.20858 19.2119 4.19005 19.809 4.19005 19.809C4.07711 20.5794 4.38085 21.3513 4.38085 21.3513C4.36285 21.3201 4.38658 20.8162 4.38658 20.8162C4.45632 19.6217 5.71673 19.4585 5.71673 19.4585C6.04967 19.3982 6.64781 19.1729 6.64781 19.1729C7.44248 18.8658 7.59902 18.1466 7.61462 18.0681C7.30021 17.8343 6.99901 17.5722 6.71674 17.2837C6.4458 17.0074 6.20127 16.7163 5.98393 16.4127ZM10.8664 19.3746C11.5504 19.9988 11.6003 20.9069 11.6003 20.9069C11.6263 21.0204 11.6225 21.7622 11.6225 21.7622C11.5903 22.6091 11.9993 23.0447 11.9993 23.0447C12.4644 23.6693 13.2248 24 13.2248 24C13.19 23.9905 12.8504 23.6176 12.8504 23.6176C12.0552 22.7237 12.8311 21.717 12.8311 21.717C13.0239 21.4392 13.2873 20.8566 13.2873 20.8566C13.632 20.0776 13.234 19.4585 13.19 19.3917C12.8023 19.4491 12.4039 19.4767 12.0001 19.4722C11.6132 19.4679 11.2345 19.4354 10.8664 19.3746ZM16.413 18.0166C17.3381 17.9741 18.0155 18.581 18.0155 18.581C18.1141 18.6427 18.6359 19.1699 18.6359 19.1699C19.2119 19.7917 19.8093 19.8105 19.8093 19.8105C20.5798 19.9233 21.3514 19.6196 21.3514 19.6196C21.3202 19.6373 20.8162 19.6137 20.8162 19.6137C19.6218 19.5439 19.4585 18.2834 19.4585 18.2834C19.3983 17.9506 19.1727 17.3526 19.1727 17.3526C18.8657 16.5578 18.1466 16.4012 18.0682 16.3855C17.8346 16.7002 17.5723 17.0014 17.2837 17.2835C17.0074 17.5545 16.7165 17.799 16.413 18.0166ZM19.3749 13.1341C19.9989 12.4497 20.907 12.3999 20.907 12.3999C21.0206 12.374 21.7625 12.378 21.7625 12.378C22.6093 12.4099 23.0447 12.0008 23.0447 12.0008C23.6695 11.5356 24.0004 10.7756 24.0004 10.7756C23.9908 10.8103 23.6177 11.1499 23.6177 11.1499C22.724 11.9452 21.7168 11.1693 21.7168 11.1693C21.4392 10.9764 20.8569 10.7131 20.8569 10.7131C20.0776 10.3682 19.4585 10.766 19.3919 10.8103C19.4492 11.1979 19.4767 11.5965 19.4721 12C19.4683 12.3869 19.4354 12.7655 19.3749 13.1341ZM18.0167 7.58728C17.9739 6.66221 18.5809 5.98473 18.5809 5.98473C18.643 5.8862 19.1702 5.36406 19.1702 5.36406C19.7917 4.78832 19.8105 4.19125 19.8105 4.19125C19.9232 3.4203 19.6198 2.64896 19.6198 2.64896C19.6376 2.68003 19.6137 3.18417 19.6137 3.18417C19.5439 4.37845 18.2835 4.54165 18.2835 4.54165C17.9506 4.60192 17.3527 4.82752 17.3527 4.82752C16.5578 5.13446 16.4014 5.85366 16.3854 5.93207C16.7001 6.16554 17.0014 6.4282 17.2835 6.71647C17.5547 6.99288 17.799 7.28355 18.0167 7.58728ZM13.1341 4.62552C12.45 4.00164 12.3997 3.09323 12.3997 3.09323C12.3743 2.97963 12.3779 2.23789 12.3779 2.23789C12.4101 1.39095 12.0012 0.955744 12.0012 0.955744C11.5359 0.330804 10.7757 0 10.7757 0C10.8104 0.00946677 11.15 0.382538 11.15 0.382538C11.9452 1.27655 11.1693 2.28336 11.1693 2.28336C10.9765 2.56123 10.7133 3.14337 10.7133 3.14337C10.3681 3.92271 10.7663 4.54165 10.8104 4.60858C11.198 4.55098 11.5965 4.52365 12 4.52818C12.3869 4.53192 12.7657 4.56485 13.1341 4.62552Z" fill="#D47B27"/>
</svg>
