<svg width="24" height="24" viewBox="0 0 24 24" fill="none" xmlns="http://www.w3.org/2000/svg">
<path fill-rule="evenodd" clip-rule="evenodd" d="M12 1C12.4089 1 12.7768 1.24925 12.9287 1.62891L13.626 3.37207L15.6289 2.57129C16.0002 2.42294 16.4243 2.51026 16.707 2.79297C16.9898 3.07572 17.077 3.49979 16.9287 3.87109L16.0234 6.13184L18.3711 7.07129C18.7508 7.22315 19 7.5911 19 8C19 8.4089 18.7508 8.77685 18.3711 8.92871L16.0234 9.86719L16.9287 12.1289C17.0879 12.5274 16.9751 12.9835 16.6484 13.2617C16.3216 13.5399 15.8534 13.5782 15.4854 13.3574L13.0088 11.8711C13.003 11.8726 12.997 11.8735 12.9912 11.875C12.9963 11.916 13 11.9576 13 12V17.5205C13.7224 16.6611 14.5735 15.884 15.4326 15.292C16.4757 14.5733 17.7322 13.9857 18.8555 14.1045C19.4759 14.1702 20.065 14.4562 20.4717 15.0293C20.8544 15.5688 21 16.2564 21 17C21 19.6269 18.9526 21.1266 17.0771 21.9209C15.1643 22.731 13.0287 23 12 23C10.9615 23 8.82356 22.7052 6.91309 21.8721C5.03927 21.0549 3.00009 19.5318 3 16.9111C3 16.1683 3.1452 15.48 3.53027 14.9414C3.9405 14.3677 4.5347 14.0871 5.15625 14.0283C5.7431 13.9729 6.34519 14.1121 6.89551 14.3271C7.45561 14.5461 8.02567 14.8686 8.57324 15.252C9.43025 15.852 10.2791 16.6367 11 17.502V12C11 11.9577 11.0027 11.916 11.0078 11.875C11.002 11.8735 10.996 11.8726 10.9902 11.8711L8.51465 13.3574C8.14662 13.5782 7.67836 13.5399 7.35156 13.2617C7.02487 12.9835 6.91211 12.5274 7.07129 12.1289L7.97559 9.86719L5.62891 8.92871C5.24925 8.77685 5 8.4089 5 8C5 7.5911 5.24925 7.22315 5.62891 7.07129L7.97559 6.13184L7.07129 3.87109C6.92297 3.49979 7.01023 3.07572 7.29297 2.79297C7.57574 2.51027 7.99979 2.42292 8.37109 2.57129L10.373 3.37207L11.0713 1.62891L11.1387 1.49219C11.3164 1.19048 11.6424 1 12 1ZM18.6445 16.0938C18.2677 16.0541 17.5241 16.2802 16.5674 16.9395C15.6621 17.5633 14.7455 18.4525 14.0635 19.4062C13.6913 19.9267 13.4154 20.432 13.2373 20.8955C14.1305 20.7693 15.262 20.5178 16.2979 20.0791C17.9638 19.3734 19 18.373 19 17C19 16.4874 18.8956 16.2638 18.8408 16.1865C18.8101 16.1432 18.7738 16.1074 18.6445 16.0938ZM5.34375 16.0195C5.21572 16.0317 5.18446 16.0664 5.15723 16.1045C5.10489 16.1777 5 16.3978 5 16.9111C5.00009 18.2902 6.04429 19.3118 7.71191 20.0391C8.74543 20.4898 9.8721 20.7537 10.7607 20.8877C10.5822 20.4222 10.3065 19.9139 9.93457 19.3896C9.2515 18.4268 8.33353 17.5256 7.42676 16.8906C6.9745 16.574 6.54421 16.3369 6.16699 16.1895C5.78009 16.0383 5.50673 16.0041 5.34375 16.0195ZM12 6C10.8954 6 10 6.89543 10 8C10 9.10457 10.8954 10 12 10C13.1046 10 14 9.10457 14 8C14 6.89543 13.1046 6 12 6Z" fill="#555555"/>
</svg>
