<svg width="24" height="25" viewBox="0 0 24 25" fill="none" xmlns="http://www.w3.org/2000/svg">
<path fill-rule="evenodd" clip-rule="evenodd" d="M12 1.70996C12.4089 1.70996 12.7768 1.95921 12.9287 2.33887L13.626 4.08203L15.6289 3.28125C16.0002 3.1329 16.4243 3.22022 16.707 3.50293C16.9898 3.78568 17.077 4.20975 16.9287 4.58105L16.0234 6.8418L18.3711 7.78125C18.7508 7.93311 19 8.30106 19 8.70996C19 9.11887 18.7508 9.48681 18.3711 9.63867L16.0234 10.5771L16.9287 12.8389C17.0879 13.2373 16.9751 13.6935 16.6484 13.9717C16.3216 14.2499 15.8534 14.2882 15.4854 14.0674L13.0088 12.5811C13.003 12.5826 12.997 12.5835 12.9912 12.585C12.9963 12.626 13 12.6676 13 12.71V18.2305C13.7224 17.371 14.5735 16.594 15.4326 16.002C16.4757 15.2832 17.7322 14.6957 18.8555 14.8145C19.4759 14.8801 20.065 15.1661 20.4717 15.7393C20.8544 16.2787 21 16.9664 21 17.71C21 20.3369 18.9526 21.8365 17.0771 22.6309C15.1643 23.4409 13.0287 23.71 12 23.71C10.9615 23.71 8.82356 23.4151 6.91309 22.582C5.03927 21.7649 3.00009 20.2417 3 17.6211C3 16.8783 3.1452 16.19 3.53027 15.6514C3.9405 15.0777 4.5347 14.7971 5.15625 14.7383C5.7431 14.6829 6.34519 14.822 6.89551 15.0371C7.45561 15.256 8.02567 15.5785 8.57324 15.9619C9.43025 16.562 10.2791 17.3467 11 18.2119V12.71C11 12.6676 11.0027 12.6259 11.0078 12.585C11.002 12.5835 10.996 12.5826 10.9902 12.5811L8.51465 14.0674C8.14662 14.2882 7.67836 14.2499 7.35156 13.9717C7.02487 13.6935 6.91211 13.2373 7.07129 12.8389L7.97559 10.5771L5.62891 9.63867C5.24925 9.48681 5 9.11887 5 8.70996C5 8.30106 5.24925 7.93311 5.62891 7.78125L7.97559 6.8418L7.07129 4.58105C6.92297 4.20975 7.01023 3.78568 7.29297 3.50293C7.57574 3.22023 7.99979 3.13288 8.37109 3.28125L10.373 4.08203L11.0713 2.33887L11.1387 2.20215C11.3164 1.90044 11.6424 1.70996 12 1.70996ZM18.6445 16.8037C18.2677 16.764 17.5241 16.9902 16.5674 17.6494C15.6621 18.2733 14.7455 19.1625 14.0635 20.1162C13.6913 20.6366 13.4154 21.142 13.2373 21.6055C14.1305 21.4793 15.262 21.2278 16.2979 20.7891C17.9638 20.0834 19 19.0829 19 17.71C19 17.1973 18.8956 16.9737 18.8408 16.8965C18.8101 16.8532 18.7738 16.8174 18.6445 16.8037ZM5.34375 16.7295C5.21572 16.7417 5.18446 16.7764 5.15723 16.8145C5.10489 16.8876 5 17.1077 5 17.6211C5.00009 19.0002 6.04429 20.0217 7.71191 20.749C8.74543 21.1997 9.8721 21.4637 10.7607 21.5977C10.5822 21.1322 10.3065 20.6239 9.93457 20.0996C9.2515 19.1368 8.33353 18.2356 7.42676 17.6006C6.9745 17.2839 6.54421 17.0468 6.16699 16.8994C5.78009 16.7482 5.50673 16.7141 5.34375 16.7295ZM12 6.70996C10.8954 6.70996 10 7.60539 10 8.70996C10 9.81453 10.8954 10.71 12 10.71C13.1046 10.71 14 9.81453 14 8.70996C14 7.60539 13.1046 6.70996 12 6.70996Z" fill="#555555"/>
</svg>
