<svg xmlns="http://www.w3.org/2000/svg" width="24" height="24" viewBox="0 0 24 24">
  <g clip-path="url(#a)">
    <path fill="#1ED760" fill-rule="evenodd" d="M0 12C0 5.376 5.376 0 12 0s12 5.376 12 12-5.376 12-12 12S0 18.624 0 12Zm19.05-1.394c.218.126.373.19.624.19.59 0 1.123-.47 1.123-1.128 0-.576-.247-.876-.624-1.094-2.705-1.577-6.407-2.313-9.939-2.313-2.076 0-3.982.237-5.686.736-.435.126-.841.498-.841 1.156 0 .644.488 1.142 1.127 1.142a1.9 1.9 0 0 0 .534-.1l.09-.026c3.987-1.113 10.147-.62 13.592 1.437Zm-1.406 3.708c.152.083.31.168.53.168a.938.938 0 0 0 .939-.943c0-.421-.155-.721-.547-.954-2.39-1.422-5.424-2.201-8.564-2.201-2.013 0-3.387.28-4.733.658-.498.14-.75.484-.75 1.002a.94.94 0 0 0 .94.938c.16 0 .27-.034.41-.077.05-.015.104-.032.165-.049 4.011-1.088 8.52-.367 11.545 1.423l.065.035Zm-1.29 3.168c.19.111.315.174.519.174a.731.731 0 0 0 .735-.745c0-.44-.174-.61-.47-.798-3.454-2.066-7.504-2.144-11.467-1.268-.363.077-.658.315-.658.813 0 .392.295.764.765.764.11 0 .286-.047.447-.091l.128-.034c3.47-.712 6.983-.634 10.002 1.185Z" clip-rule="evenodd"/>
  </g>
  <defs>
    <clipPath id="a">
      <path fill="#fff" d="M0 0h24v24H0z"/>
    </clipPath>
  </defs>
</svg>
