<svg width="24" height="24" viewBox="0 0 24 24" fill="none" xmlns="http://www.w3.org/2000/svg">
<path fill-rule="evenodd" clip-rule="evenodd" d="M19.0984 10.6383C15.2302 8.34118 8.85004 8.12986 5.15729 9.25059C4.56434 9.43063 3.93728 9.09581 3.75759 8.50285C3.5779 7.90954 3.91236 7.28283 4.50585 7.10261C8.74456 5.81598 15.791 6.0644 20.244 8.7078C20.7774 9.02443 20.9525 9.71333 20.6362 10.2457C20.3198 10.7791 19.6305 10.9549 19.0984 10.6383ZM18.9717 14.0407C18.7005 14.481 18.1247 14.619 17.6849 14.3487C14.46 12.3664 9.54265 11.7922 5.72728 12.9504C5.23256 13.0999 4.70993 12.8209 4.55974 12.327C4.41062 11.8323 4.68978 11.3107 5.18362 11.1602C9.54194 9.83771 14.96 10.4782 18.6639 12.7544C19.1037 13.0253 19.242 13.6013 18.9717 14.0407ZM17.5034 17.3082C17.2877 17.6617 16.8272 17.7725 16.4749 17.5571C13.6571 15.8348 10.1102 15.4459 5.93312 16.4C5.53063 16.4922 5.12938 16.2399 5.03768 15.8376C4.94545 15.4351 5.1967 15.0339 5.60025 14.942C10.1713 13.8971 14.0923 14.3467 17.2552 16.2797C17.6078 16.4949 17.719 16.9557 17.5034 17.3082ZM12 0C5.37268 0 0 5.3725 0 11.9998C0 18.6279 5.37268 24 12 24C18.6275 24 24 18.6279 24 11.9998C24 5.3725 18.6275 0 12 0Z" fill="#1ED760"/>
</svg>
