<svg width="24" height="24" viewBox="0 0 24 24" fill="none" xmlns="http://www.w3.org/2000/svg">
<path fill-rule="evenodd" clip-rule="evenodd" d="M14.4444 8.33333H9.55556C8.88089 8.33333 8.33333 8.88089 8.33333 9.55556V14.4444C8.33333 15.1191 8.88089 15.6667 9.55556 15.6667H14.4444C15.1191 15.6667 15.6667 15.1191 15.6667 14.4444V9.55556C15.6667 8.88089 15.1191 8.33333 14.4444 8.33333ZM18.1111 22H5.88889C3.74128 22 2 20.2587 2 18.1111V5.88889C2 3.74128 3.74128 2 5.88889 2H18.1111C20.2587 2 22 3.74128 22 5.88889V18.1111C22 20.2587 20.2587 22 18.1111 22ZM18.1111 24C21.3633 24 24 21.3633 24 18.1111V5.88889C24 2.63672 21.3633 0 18.1111 0H5.88889C2.63672 0 0 2.63672 0 5.88889V18.1111C0 21.3633 2.63672 24 5.88889 24H18.1111Z" fill="#28C101"/>
</svg>
