<svg width="24" height="24" viewBox="0 0 24 24" fill="none" xmlns="http://www.w3.org/2000/svg">
<path d="M12 16C12.5523 16 12.9999 16.4478 13 17V18H14C14.5523 18 14.9999 18.4478 15 19C15 19.5522 14.5523 20 14 20H13V21H14C14.5523 21 14.9999 21.4478 15 22C15 22.5522 14.5523 23 14 23H10C9.44774 23 9.00004 22.5522 9 22C9.00005 21.4478 9.44775 21 10 21H11V20H10C9.44774 20 9.00004 19.5522 9 19C9.00005 18.4478 9.44775 18 10 18H11V17C11.0001 16.4478 11.4477 16 12 16Z" fill="#000"/>
<path fill-rule="evenodd" clip-rule="evenodd" d="M11.0537 0.542968C11.6034 0.0950522 12.3966 0.0950522 12.9463 0.542968L13.0605 0.646484L15.2695 2.85547L17.0254 2.27051L17.208 2.22168C18.1183 2.03824 18.9998 2.73377 19 3.69336V8C19 10.2644 17.9236 12.2762 16.2559 13.5557C17.2404 13.8442 18.1498 14.2526 18.9443 14.8027C20.8537 16.1247 22 18.1902 22 21V22C22 22.5522 21.5523 23 21 23C20.4477 23 20 22.5522 20 22V21C20 18.81 19.1462 17.3753 17.8057 16.4473C16.4113 15.4819 14.3904 15 12 15C9.61222 15 7.59064 15.4879 6.19531 16.457C4.85236 17.3898 4.00003 18.8263 4 21V22H2V13.7295C1.40293 13.3835 1.00003 12.7397 1 12C1.00004 11.2601 1.40271 10.6155 2 10.2695V7C2.00005 6.44776 2.44775 6 3 6C3.55225 6 3.99995 6.44776 4 7V10.2695C4.59729 10.6155 4.99996 11.2601 5 12C4.99997 12.7397 4.59707 13.3835 4 13.7295V15.7051C4.31904 15.3788 4.671 15.081 5.05469 14.8145C5.85041 14.2618 6.76136 13.8504 7.74805 13.5596C6.07785 12.2803 5.00002 10.2664 5 8V3.69238C5.00006 2.72863 5.88529 2.03837 6.79297 2.22168L6.97461 2.27051L8.72949 2.85547L10.9395 0.646484L11.0537 0.542968ZM12 8C10.3435 8 8.92202 8.23718 7.91699 8.47363C7.57648 8.55375 7.28506 8.63513 7.0498 8.70508C7.38078 11.0497 9.33751 12.8714 11.7432 12.9932L12 13L12.2568 12.9932C14.6624 12.8714 16.6182 11.0496 16.9492 8.70508C16.7141 8.63519 16.4231 8.55365 16.083 8.47363C15.078 8.23718 13.6565 8 12 8ZM9.92578 4.48828C9.52403 4.89003 8.92963 5.03025 8.39062 4.85059L7 4.38672V6.64062C7.14289 6.60309 7.29572 6.56456 7.45801 6.52637C8.57796 6.26285 10.1567 6 12 6C13.8433 6 15.422 6.26285 16.542 6.52637C16.7043 6.56456 16.8571 6.60309 17 6.64062V4.38672L15.6094 4.85059C15.1377 5.0078 14.6237 4.92052 14.2334 4.62695L14.0742 4.48828L12 2.41406L9.92578 4.48828Z" fill="#000"/>
</svg>
