<svg width="24" height="25" viewBox="0 0 24 25" fill="none" xmlns="http://www.w3.org/2000/svg">
<path d="M12 1.45361C12.4303 1.45361 12.812 1.72903 12.9482 2.13721L15.2207 8.95361H22C22.4303 8.95361 22.812 9.22903 22.9482 9.63721C23.0844 10.0455 22.944 10.4952 22.5996 10.7534L17.1992 14.8032L19.9365 22.1021C20.093 22.5193 19.9543 22.9905 19.5967 23.2563C19.239 23.5222 18.748 23.5196 18.3936 23.2495L12 18.3784L5.60644 23.2495C5.25195 23.5196 4.76098 23.5222 4.40332 23.2563C4.04565 22.9905 3.90699 22.5193 4.06347 22.1021L6.7998 14.8032L1.40039 10.7534C1.05604 10.4952 0.915641 10.0455 1.05176 9.63721C1.18795 9.22903 1.56967 8.95361 2 8.95361H8.77929L11.0518 2.13721L11.1133 1.99072C11.2835 1.66441 11.6233 1.45361 12 1.45361ZM10.4482 10.27C10.312 10.6782 9.93033 10.9536 9.5 10.9536H4.99902L8.59961 13.6538C8.95489 13.9203 9.09245 14.3894 8.93652 14.8052L7.15527 19.5522L11.3936 16.3247C11.7515 16.052 12.2485 16.052 12.6064 16.3247L16.8437 19.5522L15.0635 14.8052C14.9075 14.3894 15.0451 13.9203 15.4004 13.6538L19.001 10.9536H14.5C14.0697 10.9536 13.688 10.6782 13.5518 10.27L12 5.61475L10.4482 10.27Z" fill="#000"/>
</svg>
