<svg width="24" height="24" viewBox="0 0 24 24" fill="none" xmlns="http://www.w3.org/2000/svg">
<path d="M12 10C12.5523 10 13 10.4477 13 11V17C13 17.5523 12.5523 18 12 18C11.4477 18 11 17.5523 11 17V11C11 10.4477 11.4477 10 12 10Z" fill="#555555"/>
<path d="M12 6.5C12.5523 6.5 13 6.94772 13 7.5V7.59961C13 8.15189 12.5523 8.59961 12 8.59961C11.4477 8.59961 11 8.15189 11 7.59961V7.5C11 6.94772 11.4477 6.5 12 6.5Z" fill="#555555"/>
<path fill-rule="evenodd" clip-rule="evenodd" d="M18 1C20.7614 1 23 3.23858 23 6V18C23 20.7614 20.7614 23 18 23H6C3.23858 23 1 20.7614 1 18V6C1 3.23858 3.23858 1 6 1H18ZM6 3C4.34315 3 3 4.34315 3 6V18C3 19.6569 4.34315 21 6 21H18C19.6569 21 21 19.6569 21 18V6C21 4.34315 19.6569 3 18 3H6Z" fill="#555555"/>
</svg>
