<svg width="24" height="24" viewBox="0 0 24 24" fill="none" xmlns="http://www.w3.org/2000/svg">
<path d="M12.1621 15.29C12.9187 15.3667 13.5088 16.0064 13.5088 16.7832C13.5085 17.6114 12.8371 18.2832 12.0088 18.2832C11.2324 18.283 10.5936 17.6926 10.5166 16.9365L10.5088 16.7832L10.5166 16.6289C10.5936 15.8728 11.2324 15.2834 12.0088 15.2832L12.1621 15.29Z" fill="#555555"/>
<path d="M12 5.5C13.1555 5.5 14.1699 5.78877 14.9082 6.43457C15.664 7.09588 16 8.01748 16 9C16 10.1875 15.6948 11.0282 15.1182 11.668C14.8506 11.9648 14.5543 12.1849 14.29 12.3613C14.1586 12.4491 14.0241 12.5323 13.9043 12.6074C13.7803 12.6852 13.6678 12.7561 13.5576 12.8301C13.2062 13.0661 13.0641 13.2423 13.0059 13.3564C12.9614 13.4436 12.9297 13.5614 12.9785 13.7939C13.0921 14.3343 12.7464 14.8647 12.2061 14.9785C11.6657 15.0921 11.1353 14.7464 11.0215 14.2061C10.8953 13.6057 10.938 13.0089 11.2246 12.4473C11.4975 11.9126 11.9433 11.5051 12.4424 11.1699C12.5821 11.0761 12.7197 10.9896 12.8418 10.9131C12.968 10.8339 13.0758 10.766 13.1787 10.6973C13.383 10.5609 13.5245 10.4481 13.6318 10.3291C13.8052 10.1368 14 9.81253 14 9C14 8.48276 13.8358 8.15413 13.5918 7.94043C13.3301 7.71144 12.8443 7.5 12 7.5C10.5523 7.5 10 8.55228 10 9C10 9.55228 9.55228 10 9 10C8.44772 10 8 9.55228 8 9C8 7.44772 9.44772 5.5 12 5.5Z" fill="#555555"/>
<path fill-rule="evenodd" clip-rule="evenodd" d="M18 1C20.7614 1 23 3.23858 23 6V18C23 20.7614 20.7614 23 18 23H6C3.23858 23 1 20.7614 1 18V6C1 3.23858 3.23858 1 6 1H18ZM6 3C4.34315 3 3 4.34315 3 6V18C3 19.6569 4.34315 21 6 21H18C19.6569 21 21 19.6569 21 18V6C21 4.34315 19.6569 3 18 3H6Z" fill="#555555"/>
</svg>
