<svg width="24" height="24" viewBox="0 0 24 24" fill="none" xmlns="http://www.w3.org/2000/svg">
<path fill-rule="evenodd" clip-rule="evenodd" d="M12 1C14.8561 1 17.4877 1.46132 19.4424 2.24316C20.4169 2.63298 21.2729 3.12243 21.9014 3.7168C22.5319 4.31313 23 5.08426 23 6C23 6.21494 22.9724 6.42149 22.9248 6.62012C22.973 6.73729 23 6.86545 23 7V17C23 17.1825 22.9496 17.3527 22.8643 17.5C22.9496 17.6473 23 17.8175 23 18C23 18.9157 22.5319 19.6869 21.9014 20.2832C21.2729 20.8776 20.4169 21.367 19.4424 21.7568C17.4877 22.5387 14.8561 23 12 23C9.14394 23 6.51226 22.5387 4.55762 21.7568C3.58307 21.367 2.72712 20.8776 2.09863 20.2832C1.46815 19.6869 1 18.9157 1 18C1 17.8175 1.05035 17.6473 1.13574 17.5C1.05035 17.3527 1 17.1825 1 17V7C1 6.86545 1.02701 6.73729 1.0752 6.62012C1.02758 6.42149 1 6.21494 1 6C1 5.08426 1.46815 4.31313 2.09863 3.7168C2.72712 3.12243 3.58307 2.63298 4.55762 2.24316C6.51226 1.46132 9.14394 1 12 1ZM21 14.9727C20.5348 15.2678 20.0093 15.5301 19.4424 15.7568C17.4877 16.5387 14.8561 17 12 17C9.14394 17 6.51226 16.5387 4.55762 15.7568C3.99071 15.5301 3.46516 15.2678 3 14.9727V17C3 17.1825 2.94965 17.3527 2.86426 17.5C2.94965 17.6473 3 17.8175 3 18C3 18.1887 3.09148 18.4695 3.47266 18.8301C3.85623 19.1928 4.46568 19.5664 5.30078 19.9004C6.9654 20.5661 9.33352 21 12 21C14.6665 21 17.0346 20.5661 18.6992 19.9004C19.5343 19.5664 20.1438 19.1928 20.5273 18.8301C20.9085 18.4695 21 18.1887 21 18C21 17.8177 21.0495 17.6472 21.1348 17.5C21.0495 17.3528 21 17.1823 21 17V14.9727ZM21 8.97266C20.5348 9.26781 20.0093 9.53007 19.4424 9.75684C17.4877 10.5387 14.8561 11 12 11C9.14394 11 6.51226 10.5387 4.55762 9.75684C3.99071 9.53007 3.46516 9.26781 3 8.97266V12C3 12.1887 3.09148 12.4695 3.47266 12.8301C3.85623 13.1928 4.46568 13.5664 5.30078 13.9004C6.9654 14.5661 9.33352 15 12 15C14.6665 15 17.0346 14.5661 18.6992 13.9004C19.5343 13.5664 20.1438 13.1928 20.5273 12.8301C20.9085 12.4695 21 12.1887 21 12V8.97266ZM12 3C9.33352 3 6.9654 3.43388 5.30078 4.09961C4.46568 4.43365 3.85623 4.80718 3.47266 5.16992C3.09148 5.53052 3 5.81134 3 6C3 6.18866 3.09148 6.46948 3.47266 6.83008C3.85623 7.19282 4.46568 7.56635 5.30078 7.90039C6.9654 8.56612 9.33352 9 12 9C14.6665 9 17.0346 8.56612 18.6992 7.90039C19.5343 7.56635 20.1438 7.19282 20.5273 6.83008C20.9085 6.46948 21 6.18866 21 6C21 5.81134 20.9085 5.53052 20.5273 5.16992C20.1438 4.80718 19.5343 4.43365 18.6992 4.09961C17.0346 3.43388 14.6665 3 12 3Z" fill="#555555"/>
</svg>
