<?xml version="1.0" encoding="UTF-8"?>
<svg width="24px" height="24px" viewBox="0 0 24 24" version="1.1" xmlns="http://www.w3.org/2000/svg" xmlns:xlink="http://www.w3.org/1999/xlink">
    <!-- Generator: Sketch 46 (44423) - http://www.bohemiancoding.com/sketch -->
    <title>street-view</title>
    <desc>Created with Sketch.</desc>
    <defs></defs>
    <g id="Icons" stroke="none" stroke-width="1" fill="none" fill-rule="evenodd">
        <g id="street-view" stroke="#000000" stroke-width="2">
            <path d="M16,5 C16,7.209 14.209,9 12,9 C9.791,9 8,7.209 8,5 C8,2.791 9.791,1 12,1 C14.209,1 16,2.791 16,5 L16,5 Z M15,23 L15,17 L18,17 L18,15 C18,11.66 15.24,9.03 12,9 C8.79,9.03 6,11.66 6,15 L6,17 L9,17 L9,23 M3.5,23 L20.5,23 L3.5,23 Z" id="Marker"></path>
        </g>
    </g>
</svg>