<svg width="24" height="24" viewBox="0 0 24 24" fill="none" xmlns="http://www.w3.org/2000/svg">
<path d="M12 19C12.5523 19 13 19.4477 13 20V22C13 22.5523 12.5523 23 12 23C11.4477 23 11 22.5523 11 22V20C11 19.4477 11.4477 19 12 19Z" fill="#000"/>
<path d="M5.63574 16.9502C6.02627 16.5597 6.65928 16.5597 7.0498 16.9502C7.44033 17.3407 7.44033 17.9737 7.0498 18.3643L5.63574 19.7783C5.2452 20.1686 4.61213 20.1688 4.22168 19.7783C3.83123 19.3879 3.83138 18.7548 4.22168 18.3643L5.63574 16.9502Z" fill="#000"/>
<path d="M16.9502 16.9502C17.3407 16.5597 17.9737 16.5597 18.3643 16.9502L19.7783 18.3643C20.1686 18.7548 20.1688 19.3879 19.7783 19.7783C19.3879 20.1688 18.7548 20.1686 18.3643 19.7783L16.9502 18.3643C16.5597 17.9737 16.5597 17.3407 16.9502 16.9502Z" fill="#000"/>
<path fill-rule="evenodd" clip-rule="evenodd" d="M12 6C15.3137 6 18 8.68629 18 12C18 15.3137 15.3137 18 12 18C8.68629 18 6 15.3137 6 12C6 8.68629 8.68629 6 12 6ZM12 8C9.79086 8 8 9.79086 8 12C8 14.2091 9.79086 16 12 16C14.2091 16 16 14.2091 16 12C16 9.79086 14.2091 8 12 8Z" fill="#000"/>
<path d="M4 11C4.55228 11 5 11.4477 5 12C5 12.5523 4.55228 13 4 13H2C1.44772 13 1 12.5523 1 12C1 11.4477 1.44772 11 2 11H4Z" fill="#000"/>
<path d="M22 11C22.5523 11 23 11.4477 23 12C23 12.5523 22.5523 13 22 13H20C19.4477 13 19 12.5523 19 12C19 11.4477 19.4477 11 20 11H22Z" fill="#000"/>
<path d="M4.22168 4.22168C4.61213 3.83123 5.2452 3.83138 5.63574 4.22168L7.0498 5.63574C7.44033 6.02627 7.44033 6.65928 7.0498 7.0498C6.65928 7.44033 6.02627 7.44033 5.63574 7.0498L4.22168 5.63574C3.83138 5.2452 3.83123 4.61213 4.22168 4.22168Z" fill="#000"/>
<path d="M18.3643 4.22168C18.7548 3.83138 19.3879 3.83123 19.7783 4.22168C20.1688 4.61213 20.1686 5.2452 19.7783 5.63574L18.3643 7.0498C17.9737 7.44033 17.3407 7.44033 16.9502 7.0498C16.5597 6.65928 16.5597 6.02627 16.9502 5.63574L18.3643 4.22168Z" fill="#000"/>
<path d="M12 1C12.5523 1 13 1.44772 13 2V4C13 4.55228 12.5523 5 12 5C11.4477 5 11 4.55228 11 4V2C11 1.44772 11.4477 1 12 1Z" fill="#000"/>
</svg>
