<svg width="24" height="24" viewBox="0 0 24 24" fill="none" xmlns="http://www.w3.org/2000/svg">
<path fill-rule="evenodd" clip-rule="evenodd" d="M18.1029 21.0183C15.2759 22.6514 11.3888 22.8192 7.47803 21.1431C4.31157 19.7959 1.68424 17.4377 0 14.7433C0.808439 15.4169 1.7516 15.956 2.76212 16.4273C6.8008 18.3203 10.8386 18.1906 13.6802 16.4321C13.6784 16.4303 13.6772 16.4291 13.676 16.4273C9.63379 13.3282 6.19795 9.28604 3.63804 5.98529C3.09885 5.44629 2.69463 4.77257 2.29042 4.16627C5.38939 6.99575 10.3076 10.5661 12.0588 11.5771C8.35401 7.66935 5.05265 2.81908 5.18713 2.95356C11.0484 8.88207 16.5056 12.2507 16.5056 12.2507C16.6862 12.3524 16.8255 12.4372 16.9375 12.513C17.0557 12.2125 17.1592 11.9005 17.2465 11.5771C18.1896 8.14123 17.112 4.23351 14.7538 1C20.2104 4.30105 23.4445 10.4988 22.0967 15.6865C22.0616 15.8264 22.0234 15.9645 21.9823 16.1002C21.998 16.119 22.0138 16.1384 22.0295 16.1584C24.7239 19.527 23.9831 23.0973 23.6463 22.4237C22.1846 19.5633 19.4786 20.438 18.1029 21.0183Z" fill="#D15F3E"/>
</svg>
