<svg width="24" height="24" viewBox="0 0 24 24" fill="none" xmlns="http://www.w3.org/2000/svg">
<path d="M20 16C20.5523 16 21 16.4477 21 17V19H23C23.5523 19 24 19.4477 24 20C24 20.5523 23.5523 21 23 21H21V23C21 23.5523 20.5523 24 20 24C19.4477 24 19 23.5523 19 23V21H17C16.4477 21 16 20.5523 16 20C16 19.4477 16.4477 19 17 19H19V17C19 16.4477 19.4477 16 20 16Z" fill="#000"/>
<path fill-rule="evenodd" clip-rule="evenodd" d="M18 1C20.7614 1 23 3.23858 23 6V13.7646C23 14.3169 22.5523 14.7646 22 14.7646C21.4477 14.7646 21 14.3169 21 13.7646V8H3V11H16.5C17.0523 11 17.5 11.4477 17.5 12C17.5 12.5523 17.0523 13 16.5 13H3V16H12C12.5523 16 13 16.4477 13 17C13 17.5523 12.5523 18 12 18H3C3 19.6569 4.34315 21 6 21H8.5C9.05228 21 9.5 21.4477 9.5 22C9.5 22.5523 9.05228 23 8.5 23H6C3.23858 23 1 20.7614 1 18V6C1 3.23858 3.23858 1 6 1H18ZM6 3C4.39489 3 3.08421 4.26055 3.00391 5.8457L3 6H21C21 4.34315 19.6569 3 18 3H6Z" fill="#000"/>
</svg>
