<svg width="24" height="24" viewBox="0 0 24 24" fill="none" xmlns="http://www.w3.org/2000/svg">
<path d="M12 19.5C12.5523 19.5 13 19.9477 13 20.5V23C13 23.5523 12.5523 24 12 24C11.4477 24 11 23.5523 11 23V20.5C11 19.9477 11.4477 19.5 12 19.5Z" fill="#555555"/>
<path d="M16 19.5C16.5523 19.5 17 19.9477 17 20.5V21.5C17 22.0523 16.5523 22.5 16 22.5C15.4477 22.5 15 22.0523 15 21.5V20.5C15 19.9477 15.4477 19.5 16 19.5Z" fill="#555555"/>
<path d="M8 19.5C8.55228 19.5 9 19.9477 9 20.5V21C9 21.5523 8.55228 22 8 22C7.44772 22 7 21.5523 7 21V20.5C7 19.9477 7.44772 19.5 8 19.5Z" fill="#555555"/>
<path fill-rule="evenodd" clip-rule="evenodd" d="M11.46 5.36621C12.0122 4.40963 13.2358 4.0815 14.1924 4.63379L15.9238 5.63379C16.8804 6.18607 17.2085 7.40963 16.6562 8.36621L15.6562 10.0977C15.104 11.0542 13.8804 11.3824 12.9238 10.8301L11.1924 9.83008C10.2358 9.27779 9.90768 8.05424 10.46 7.09766L11.46 5.36621ZM12.1924 8.09766L13.9238 9.09766L14.9238 7.36621L13.1924 6.36621L12.1924 8.09766Z" fill="#555555"/>
<path fill-rule="evenodd" clip-rule="evenodd" d="M18 0C20.7614 0 23 2.23858 23 5C23 6.33251 22.4773 7.545 21.6279 8.44043C21.1968 8.89491 21.0001 9.29017 21 9.61816V16C21 17.6569 19.6569 19 18 19H6C4.34315 19 3 17.6569 3 16V9.61816C2.99988 9.29017 2.80322 8.89491 2.37207 8.44043C1.52269 7.545 1 6.33251 1 5C1 2.23858 3.23858 0 6 0H18ZM6 2C4.34315 2 3 3.34315 3 5C3 5.80029 3.31218 6.52574 3.82324 7.06445C4.3746 7.64568 4.99989 8.5186 5 9.61816V16C5 16.5523 5.44772 17 6 17H18C18.5523 17 19 16.5523 19 16V9.61816C19.0001 8.5186 19.6254 7.64568 20.1768 7.06445C20.6878 6.52574 21 5.80029 21 5C21 3.34315 19.6569 2 18 2H6Z" fill="#555555"/>
</svg>
