<svg width="24" height="24" viewBox="0 0 24 24" fill="none" xmlns="http://www.w3.org/2000/svg">
<path d="M8.00977 9C8.56205 9 9.00977 9.44772 9.00977 10C9.00977 10.5523 8.56205 11 8.00977 11H8C7.44772 11 7 10.5523 7 10C7 9.44772 7.44772 9 8 9H8.00977Z" fill="#555555"/>
<path d="M12.0098 9C12.5621 9 13.0098 9.44772 13.0098 10C13.0098 10.5523 12.5621 11 12.0098 11H12C11.4477 11 11 10.5523 11 10C11 9.44772 11.4477 9 12 9H12.0098Z" fill="#555555"/>
<path d="M16.0098 9C16.5621 9 17.0098 9.44772 17.0098 10C17.0098 10.5523 16.5621 11 16.0098 11H16C15.4477 11 15 10.5523 15 10C15 9.44772 15.4477 9 16 9H16.0098Z" fill="#555555"/>
<path fill-rule="evenodd" clip-rule="evenodd" d="M18 1C20.7614 1 23 3.23858 23 6V14C23 16.7614 20.7614 19 18 19H15.5664L13.7148 22.085C12.938 23.3796 11.062 23.3796 10.2852 22.085L8.43359 19H6C3.23858 19 1 16.7614 1 14V6C1 3.23858 3.23858 1 6 1H18ZM6 3C4.34315 3 3 4.34315 3 6V14C3 15.6569 4.34315 17 6 17H8.43359C9.13597 17 9.78695 17.3685 10.1484 17.9707L12 21.0566L13.8516 17.9707L13.9219 17.8604C14.2938 17.3236 14.9078 17 15.5664 17H18C19.6569 17 21 15.6569 21 14V6C21 4.34315 19.6569 3 18 3H6Z" fill="#555555"/>
</svg>
