<svg width="24" height="24" viewBox="0 0 24 24" fill="none" xmlns="http://www.w3.org/2000/svg">
<path fill-rule="evenodd" clip-rule="evenodd" d="M10.4384 2.4944C11.2618 1.46118 12.8672 1.49596 13.6386 2.59792L18.6366 9.73854C19.4679 10.9266 18.5991 12.4629 17.286 12.5237L21.3202 18.2864C22.3717 19.7895 21.0141 21.7969 19.2274 21.3801L12.996 19.926C12.9978 19.9504 12.9999 19.9754 12.9999 20.0003V22.0003C12.9996 22.5523 12.5519 23.0002 11.9999 23.0003C11.4479 23.0001 11.0001 22.5523 10.9999 22.0003V20.0003C10.9999 19.9754 11.001 19.9504 11.0028 19.926L4.77236 21.3801C2.98585 21.7967 1.6282 19.7895 2.67958 18.2864L6.71181 12.5237C5.39981 12.4616 4.53236 10.9261 5.36318 9.73854L10.3612 2.59792L10.4384 2.4944ZM7.28603 10.4768C8.59925 10.5376 9.46832 12.0748 8.63662 13.263L4.31826 19.4329L11.5448 17.7464C11.8437 17.6766 12.1551 17.6767 12.454 17.7464L19.6815 19.4329L15.3632 13.263C14.5319 12.0754 15.3997 10.539 16.7118 10.4768L11.9999 3.7444L7.28603 10.4768Z" fill="#000"/>
</svg>
