<svg width="24" height="24" viewBox="0 0 24 24" fill="none" xmlns="http://www.w3.org/2000/svg">
<path fill-rule="evenodd" clip-rule="evenodd" d="M19 17C20.6569 17 22 18.3431 22 20C22 21.6569 20.6569 23 19 23H5C3.34315 23 2 21.6569 2 20C2 18.3431 3.34315 17 5 17H19ZM5 19C4.44772 19 4 19.4477 4 20C4 20.5523 4.44772 21 5 21H19C19.5523 21 20 20.5523 20 20C20 19.4477 19.5523 19 19 19H5Z" fill="#000"/>
<path fill-rule="evenodd" clip-rule="evenodd" d="M5 9C6.65685 9 8 10.3431 8 12C8 13.6569 6.65685 15 5 15C3.34315 15 2 13.6569 2 12C2 10.3431 3.34315 9 5 9ZM5 11C4.44772 11 4 11.4477 4 12C4 12.5523 4.44772 13 5 13C5.55228 13 6 12.5523 6 12C6 11.4477 5.55228 11 5 11Z" fill="#000"/>
<path fill-rule="evenodd" clip-rule="evenodd" d="M12 9C13.6569 9 15 10.3431 15 12C15 13.6569 13.6569 15 12 15C10.3431 15 9 13.6569 9 12C9 10.3431 10.3431 9 12 9ZM12 11C11.4477 11 11 11.4477 11 12C11 12.5523 11.4477 13 12 13C12.5523 13 13 12.5523 13 12C13 11.4477 12.5523 11 12 11Z" fill="#000"/>
<path fill-rule="evenodd" clip-rule="evenodd" d="M19 9C20.6569 9 22 10.3431 22 12C22 13.6569 20.6569 15 19 15C17.3431 15 16 13.6569 16 12C16 10.3431 17.3431 9 19 9ZM19 11C18.4477 11 18 11.4477 18 12C18 12.5523 18.4477 13 19 13C19.5523 13 20 12.5523 20 12C20 11.4477 19.5523 11 19 11Z" fill="#000"/>
<path fill-rule="evenodd" clip-rule="evenodd" d="M5 1C6.65685 1 8 2.34315 8 4C8 5.65685 6.65685 7 5 7C3.34315 7 2 5.65685 2 4C2 2.34315 3.34315 1 5 1ZM5 3C4.44772 3 4 3.44772 4 4C4 4.55228 4.44772 5 5 5C5.55228 5 6 4.55228 6 4C6 3.44772 5.55228 3 5 3Z" fill="#000"/>
<path fill-rule="evenodd" clip-rule="evenodd" d="M12 1C13.6569 1 15 2.34315 15 4C15 5.65685 13.6569 7 12 7C10.3431 7 9 5.65685 9 4C9 2.34315 10.3431 1 12 1ZM12 3C11.4477 3 11 3.44772 11 4C11 4.55228 11.4477 5 12 5C12.5523 5 13 4.55228 13 4C13 3.44772 12.5523 3 12 3Z" fill="#000"/>
<path fill-rule="evenodd" clip-rule="evenodd" d="M19 1C20.6569 1 22 2.34315 22 4C22 5.65685 20.6569 7 19 7C17.3431 7 16 5.65685 16 4C16 2.34315 17.3431 1 19 1ZM19 3C18.4477 3 18 3.44772 18 4C18 4.55228 18.4477 5 19 5C19.5523 5 20 4.55228 20 4C20 3.44772 19.5523 3 19 3Z" fill="#000"/>
</svg>
