<svg width="24" height="24" viewBox="0 0 24 24" fill="none" xmlns="http://www.w3.org/2000/svg">
<path d="M7.89644 4.03702C7.53023 3.6708 6.95036 3.64803 6.55758 3.96866L6.48141 4.03702L2.33102 8.18741C1.88973 8.6287 1.88972 9.34475 2.33102 9.78605L6.48141 13.9364L6.55758 14.0048C6.95036 14.3254 7.53024 14.3026 7.89644 13.9364C8.28671 13.546 8.28666 12.9129 7.89644 12.5224L5.37301 9.99991H16.039C16.8571 9.99991 17.655 10.2536 18.3232 10.7255C20.557 12.3033 20.557 15.6164 18.3232 17.1942C17.655 17.6662 16.8571 17.9198 16.039 17.9198H14.041L13.9384 17.9247C13.4341 17.9758 13.041 18.402 13.041 18.9198C13.041 19.4377 13.4341 19.8638 13.9384 19.915L14.041 19.9198H16.039C17.2704 19.9198 18.4717 19.5385 19.4775 18.828C22.8394 16.4534 22.8394 11.4664 19.4775 9.09171C18.4717 8.38128 17.2704 7.99991 16.039 7.99991H5.34664L7.89644 5.45108C8.28668 5.06061 8.28668 4.42749 7.89644 4.03702Z" fill="#000"/>
</svg>
