<svg width="24" height="24" viewBox="0 0 24 24" fill="none" xmlns="http://www.w3.org/2000/svg">
<path d="M15 18.5C15.5523 18.5 16 18.9477 16 19.5V21C16 21.5523 15.5523 22 15 22C14.4477 22 14 21.5523 14 21V19.5C14 18.9477 14.4477 18.5 15 18.5Z" fill="#000"/>
<path d="M7.29297 10.293C7.68349 9.90244 8.31651 9.90244 8.70703 10.293C9.09756 10.6835 9.09756 11.3165 8.70703 11.707L5.20703 15.207C4.21685 16.1972 4.21685 17.8028 5.20703 18.793C6.19722 19.7832 7.80278 19.7832 8.79297 18.793L12.293 15.293C12.6835 14.9024 13.3165 14.9024 13.707 15.293C14.0976 15.6835 14.0976 16.3165 13.707 16.707L10.207 20.207C8.43579 21.9783 5.56421 21.9783 3.79297 20.207C2.02173 18.4358 2.02174 15.5642 3.79297 13.793L7.29297 10.293Z" fill="#000"/>
<path d="M16.293 16.293C16.6835 15.9024 17.3165 15.9024 17.707 16.293L19.707 18.293C20.0976 18.6835 20.0976 19.3165 19.707 19.707C19.3165 20.0976 18.6835 20.0976 18.293 19.707L16.293 17.707C15.9024 17.3165 15.9024 16.6835 16.293 16.293Z" fill="#000"/>
<path d="M21 14C21.5523 14 22 14.4477 22 15C22 15.5523 21.5523 16 21 16H19.5C18.9477 16 18.5 15.5523 18.5 15C18.5 14.4477 18.9477 14 19.5 14H21Z" fill="#000"/>
<path d="M13.9619 3.63184C15.7423 2.02319 18.4911 2.07708 20.207 3.79297C21.9229 5.50886 21.9768 8.25765 20.3682 10.0381L20.207 10.207L16.707 13.707C16.3165 14.0976 15.6835 14.0976 15.293 13.707C14.9024 13.3165 14.9024 12.6835 15.293 12.293L18.793 8.79297L18.9668 8.60059C19.7793 7.60469 19.7213 6.1354 18.793 5.20703C17.8028 4.21684 16.1972 4.21684 15.207 5.20703L11.707 8.70703C11.3165 9.09755 10.6835 9.09755 10.293 8.70703C9.90244 8.31651 9.90244 7.68349 10.293 7.29297L13.793 3.79297L13.9619 3.63184Z" fill="#000"/>
<path d="M4.5 8C5.05228 8 5.5 8.44772 5.5 9C5.5 9.55228 5.05228 10 4.5 10H3C2.44772 10 2 9.55228 2 9C2 8.44772 2.44772 8 3 8H4.5Z" fill="#000"/>
<path d="M4.29297 4.29297C4.68349 3.90244 5.31651 3.90244 5.70703 4.29297L7.70703 6.29297C8.09756 6.68349 8.09756 7.31651 7.70703 7.70703C7.31651 8.09756 6.68349 8.09756 6.29297 7.70703L4.29297 5.70703C3.90244 5.31651 3.90244 4.68349 4.29297 4.29297Z" fill="#000"/>
<path d="M9 2C9.55228 2 10 2.44772 10 3V4.5C10 5.05228 9.55228 5.5 9 5.5C8.44772 5.5 8 5.05228 8 4.5V3C8 2.44772 8.44772 2 9 2Z" fill="#000"/>
</svg>
