<svg width="24" height="24" viewBox="0 0 24 24" fill="none" xmlns="http://www.w3.org/2000/svg">
<path d="M17.2003 3C17.7524 3.00023 18.2003 3.44786 18.2003 4V17.5859L21.2931 14.4932C21.6836 14.1027 22.3166 14.1027 22.7071 14.4932C23.0975 14.8837 23.0975 15.5168 22.7071 15.9072L17.2003 21.4141L11.6935 15.9072C11.3029 15.5167 11.303 14.8837 11.6935 14.4932C12.084 14.1028 12.7171 14.1027 13.1075 14.4932L16.2003 17.5859V4C16.2003 3.44772 16.648 3.00001 17.2003 3Z" fill="#555555"/>
<path d="M12.3068 8.09277C12.6972 8.48328 12.6972 9.11632 12.3068 9.50684C11.9163 9.89724 11.2832 9.89726 10.8927 9.50684L7.79992 6.41406V20C7.79992 20.5522 7.35214 20.9999 6.79992 21C6.24778 20.9998 5.79993 20.5522 5.79992 20V6.41406L2.70715 9.50684C2.31665 9.89734 1.68362 9.89729 1.29309 9.50684C0.902661 9.11631 0.902599 8.48327 1.29309 8.09277L6.79992 2.58594L12.3068 8.09277Z" fill="#555555"/>
</svg>
