<svg width="24" height="24" viewBox="0 0 24 24" fill="none" xmlns="http://www.w3.org/2000/svg">
<path d="M14.792 11.793C15.1825 11.4025 15.8165 11.4026 16.2071 11.793C18.5303 14.1164 18.5303 17.8836 16.2071 20.207C13.8835 22.5303 10.1155 22.5305 7.79204 20.207C5.46914 17.8836 5.46914 14.1164 7.79204 11.793C8.1825 11.4025 8.81654 11.4026 9.20708 11.793C9.5973 12.1834 9.5973 12.8166 9.20708 13.207C7.66488 14.7495 7.66488 17.2505 9.20708 18.793C10.7494 20.3351 13.2496 20.3349 14.792 18.793C16.3345 17.2505 16.3345 14.7495 14.792 13.207C14.4021 12.8166 14.4021 12.1834 14.792 11.793Z" fill="#000"/>
<path d="M12 2C12.232 2.0001 12.456 2.08081 12.6338 2.22656L12.7071 2.29297L16.7071 6.29297C17.0973 6.68344 17.0973 7.31656 16.7071 7.70703C16.3165 8.09735 15.6825 8.09749 15.292 7.70703L13 5.41504V16C13 16.5521 12.5521 16.9998 12 17C11.4479 16.9998 11 16.5521 11 16V5.41406L8.70708 7.70703C8.31654 8.09735 7.6825 8.09749 7.29204 7.70703C6.90214 7.31663 6.90214 6.68338 7.29204 6.29297L11.292 2.29297C11.4795 2.10553 11.735 2.00011 12 2Z" fill="#000"/>
</svg>
