<svg width="24" height="24" viewBox="0 0 24 24" fill="none" xmlns="http://www.w3.org/2000/svg">
<path fill-rule="evenodd" clip-rule="evenodd" d="M20.793 12.793C21.1835 12.4024 21.8165 12.4024 22.207 12.793C22.5255 13.1114 22.5837 13.5908 22.3828 13.9688L22.707 14.293C23.0976 14.6835 23.0976 15.3165 22.707 15.707C22.3165 16.0976 21.6835 16.0976 21.293 15.707L21 15.4141L20.9141 15.5L21.207 15.793C21.5976 16.1835 21.5976 16.8165 21.207 17.207C20.8165 17.5976 20.1835 17.5976 19.793 17.207L19.5 16.9141L17.707 18.707L17.7041 18.708C17.8915 19.0997 18 19.5367 18 20C18 21.656 16.6573 23 15 23C13.3437 23 12 21.6563 12 20C12 18.3427 13.344 17 15 17C15.4628 17 15.8996 17.1078 16.291 17.2949L20.793 12.793ZM15 19C14.448 19 14 19.4477 14 20C14 20.5517 14.4483 21 15 21C15.5523 21 16 20.552 16 20C16 19.4475 15.5525 19 15 19Z" fill="#000"/>
<path fill-rule="evenodd" clip-rule="evenodd" d="M11 0C14.866 0 18 3.13401 18 7C18 9.26394 16.924 11.2752 15.2568 12.5547C15.6471 12.6691 16.0251 12.8027 16.3887 12.9561C16.8974 13.1707 17.1354 13.7568 16.9209 14.2656C16.7062 14.7744 16.1202 15.0135 15.6113 14.7988C14.3421 14.2633 12.7653 14 11 14C8.61221 14 6.59064 14.4879 5.19531 15.457C3.85234 16.3898 3 17.8262 3 20V21C3 21.5523 2.55228 22 2 22C1.44772 22 1 21.5523 1 21V20C1 17.2032 2.14766 15.139 4.05469 13.8145C4.85042 13.2618 5.76135 12.8504 6.74805 12.5596C5.07783 11.2803 4 9.2664 4 7C4 3.13401 7.13401 0 11 0ZM11 2C8.23858 2 6 4.23858 6 7C6 9.76142 8.23858 12 11 12C13.7614 12 16 9.76142 16 7C16 4.23858 13.7614 2 11 2Z" fill="#000"/>
</svg>
