<svg width="24" height="24" viewBox="0 0 24 24" fill="none" xmlns="http://www.w3.org/2000/svg">
<path fill-rule="evenodd" clip-rule="evenodd" d="M19 15C19.5523 15 20 15.4477 20 16V16.1738C20.0994 16.209 20.1958 16.2499 20.29 16.2949L20.4141 16.1719C20.8046 15.7814 21.4376 15.7814 21.8281 16.1719C22.2186 16.5624 22.2187 17.1954 21.8281 17.5859L21.7041 17.709C21.7494 17.8036 21.7909 17.9002 21.8262 18H22C22.5523 18 23 18.4477 23 19C23 19.5523 22.5523 20 22 20H21.8262C21.791 20.0995 21.7492 20.1956 21.7041 20.29L21.8281 20.4141C22.2186 20.8046 22.2186 21.4376 21.8281 21.8281C21.4376 22.2186 20.8046 22.2186 20.4141 21.8281L20.29 21.7041C20.1957 21.7492 20.0994 21.79 20 21.8252V22C20 22.5523 19.5523 23 19 23C18.4477 23 18 22.5523 18 22V21.8252C17.9003 21.7899 17.8035 21.7493 17.709 21.7041L17.5859 21.8281C17.1954 22.2187 16.5624 22.2186 16.1719 21.8281C15.7814 21.4376 15.7814 20.8046 16.1719 20.4141L16.2949 20.29C16.2499 20.1958 16.209 20.0994 16.1738 20H16C15.4477 20 15 19.5523 15 19C15 18.4477 15.4477 18 16 18H16.1738C16.2091 17.9003 16.2497 17.8035 16.2949 17.709L16.1719 17.5859C15.7814 17.1954 15.7814 16.5624 16.1719 16.1719C16.5624 15.7814 17.1954 15.7814 17.5859 16.1719L17.709 16.2949C17.8035 16.2497 17.9003 16.2091 18 16.1738V16C18 15.4477 18.4477 15 19 15ZM19 18C18.4477 18 18 18.4477 18 19C18 19.5523 18.4477 20 19 20C19.5523 20 20 19.5523 20 19C20 18.4477 19.5523 18 19 18Z" fill="#000"/>
<path fill-rule="evenodd" clip-rule="evenodd" d="M11 0C14.866 0 18 3.13401 18 7C18 9.26394 16.924 11.2752 15.2568 12.5547C15.6471 12.6691 16.0251 12.8027 16.3887 12.9561C16.8974 13.1707 17.1354 13.7568 16.9209 14.2656C16.7062 14.7744 16.1202 15.0135 15.6113 14.7988C14.3421 14.2633 12.7653 14 11 14C8.61221 14 6.59064 14.4879 5.19531 15.457C3.85234 16.3898 3 17.8262 3 20V21C3 21.5523 2.55228 22 2 22C1.44772 22 1 21.5523 1 21V20C1 17.2032 2.14766 15.139 4.05469 13.8145C4.85042 13.2618 5.76135 12.8504 6.74805 12.5596C5.07783 11.2803 4 9.2664 4 7C4 3.13401 7.13401 0 11 0ZM11 2C8.23858 2 6 4.23858 6 7C6 9.76142 8.23858 12 11 12C13.7614 12 16 9.76142 16 7C16 4.23858 13.7614 2 11 2Z" fill="#000"/>
</svg>
