<svg width="24" height="24" viewBox="0 0 24 24" fill="none" xmlns="http://www.w3.org/2000/svg">
<path fill-rule="evenodd" clip-rule="evenodd" d="M12 1C15.0946 1 17.0345 1.68563 18.0732 3.18945C18.5721 3.91184 18.7925 4.73173 18.8975 5.53516C18.9175 5.68863 18.9324 5.84455 18.9453 6.00195C19.3811 5.97785 19.7978 6.24259 19.9463 6.67578C20.1141 7.16567 19.8796 7.69639 19.4189 7.9082L19.3242 7.94629H19.3223L19.3193 7.94824C19.3169 7.94908 19.3134 7.94988 19.3096 7.95117C19.3018 7.95379 19.2908 7.95752 19.2773 7.96191C19.2505 7.97069 19.2124 7.98297 19.1641 7.99805C19.1183 8.01231 19.0624 8.02685 18.998 8.0459C18.9837 10.2819 17.9216 12.2675 16.2773 13.5391C16.3488 13.5596 16.418 13.5892 16.4844 13.626C17.3811 13.9095 18.2116 14.2955 18.9443 14.8027C20.8538 16.1247 22 18.1901 22 21V22C22 22.5523 21.5523 23 21 23C20.4477 23 20 22.5523 20 22V21C20 18.8099 19.1462 17.3753 17.8057 16.4473C17.3519 16.1331 16.8315 15.871 16.2539 15.6592L15.0605 16.8535C14.4748 17.4392 13.5252 17.4393 12.9395 16.8535L12 15.9141L11.0605 16.8535C10.4748 17.4393 9.52523 17.4392 8.93945 16.8535L7.75 15.6641C7.17144 15.8775 6.64993 16.1413 6.19531 16.457C4.85234 17.3898 4 18.8262 4 21V22C4 22.5523 3.55228 23 3 23C2.44772 23 2 22.5523 2 22V21C2 18.2032 3.14766 16.139 5.05469 14.8145C5.78169 14.3095 6.60494 13.9227 7.49414 13.6377C7.56654 13.5952 7.64282 13.5618 7.72168 13.5391C6.07781 12.2675 5.01533 10.2816 5.00098 8.0459C4.93703 8.02696 4.88149 8.01224 4.83594 7.99805C4.78755 7.98297 4.74945 7.97069 4.72266 7.96191C4.70925 7.95752 4.69824 7.95379 4.69043 7.95117C4.68657 7.94988 4.68313 7.94908 4.68066 7.94824L4.67773 7.94629H4.67578L4.58105 7.9082C4.12042 7.69639 3.88586 7.16567 4.05371 6.67578C4.20212 6.24291 4.61831 5.9783 5.05371 6.00195C5.06666 5.84452 5.08249 5.68866 5.10254 5.53516C5.20747 4.73173 5.42793 3.91184 5.92676 3.18945C6.96552 1.68563 8.9054 1 12 1ZM16.9717 8.52832C15.9767 8.71818 14.7064 8.89759 13.248 8.9668C13.1686 8.98713 13.0858 9 13 9C12.9447 9 12.8907 8.99398 12.8379 8.98535C12.5644 8.99409 12.285 9 12 9C11.7147 9 11.4349 8.99411 11.1611 8.98535C11.1086 8.99388 11.0549 9 11 9C10.9139 9 10.8307 8.98728 10.751 8.9668C9.29258 8.89753 8.02219 8.7182 7.02734 8.52832C7.29125 11.0414 9.41701 13 12 13C14.583 13 16.7077 11.0414 16.9717 8.52832ZM12 3C9.0946 3 8.03448 3.65843 7.57324 4.32617C7.32236 4.68943 7.1675 5.16198 7.08496 5.79395C7.05598 6.01582 7.03999 6.24746 7.02734 6.49023C7.07283 6.49971 7.11894 6.51004 7.16602 6.51953C7.92713 6.67303 8.89088 6.82522 10 6.91602V6C10 4.89543 10.8954 4 12 4C13.1046 4 14 4.89543 14 6V6.91602C15.1091 6.82522 16.0729 6.67303 16.834 6.51953C16.8807 6.5101 16.9265 6.49964 16.9717 6.49023C16.959 6.24748 16.944 6.01581 16.915 5.79395C16.8325 5.16198 16.6776 4.68943 16.4268 4.32617C15.9655 3.65843 14.9054 3 12 3Z" fill="#000"/>
<path d="M18 21C18 22.1046 17.1046 23 16 23C14.8954 23 14 22.1046 14 21V19H18V21Z" fill="#000"/>
</svg>
