<svg width="24" height="24" viewBox="0 0 24 24" fill="none" xmlns="http://www.w3.org/2000/svg">
<path d="M19 14C19.5523 14 20 14.4477 20 15V18H23C23.5523 18 24 18.4477 24 19C24 19.5523 23.5523 20 23 20H20V23C20 23.5523 19.5523 24 19 24C18.4477 24 18 23.5523 18 23V20H15C14.4477 20 14 19.5523 14 19C14 18.4477 14.4477 18 15 18H18V15C18 14.4477 18.4477 14 19 14Z" fill="#000"/>
<path fill-rule="evenodd" clip-rule="evenodd" d="M11 0C14.866 0 18 3.13401 18 7C18 9.26394 16.924 11.2752 15.2568 12.5547C15.6471 12.6691 16.0251 12.8027 16.3887 12.9561C16.8974 13.1707 17.1354 13.7568 16.9209 14.2656C16.7062 14.7744 16.1202 15.0135 15.6113 14.7988C14.3421 14.2633 12.7653 14 11 14C8.61221 14 6.59064 14.4879 5.19531 15.457C3.85234 16.3898 3 17.8262 3 20V21C3 21.5523 2.55228 22 2 22C1.44772 22 1 21.5523 1 21V20C1 17.2032 2.14766 15.139 4.05469 13.8145C4.85042 13.2618 5.76135 12.8504 6.74805 12.5596C5.07783 11.2803 4 9.2664 4 7C4 3.13401 7.13401 0 11 0ZM11 2C8.23858 2 6 4.23858 6 7C6 9.76142 8.23858 12 11 12C13.7614 12 16 9.76142 16 7C16 4.23858 13.7614 2 11 2Z" fill="#000"/>
</svg>
