<svg width="24" height="24" viewBox="0 0 24 24" fill="none" xmlns="http://www.w3.org/2000/svg">
<path fill-rule="evenodd" clip-rule="evenodd" d="M12 1C15.0946 1 17.0345 1.68563 18.0732 3.18945C18.5721 3.91184 18.7925 4.73173 18.8975 5.53516C18.9573 5.9931 18.9809 6.47201 18.9912 6.95117C19.0586 6.97108 19.1166 6.98717 19.1641 7.00195C19.2124 7.01703 19.2505 7.02931 19.2773 7.03809C19.2908 7.04248 19.3018 7.04621 19.3096 7.04883C19.3134 7.05012 19.3169 7.05092 19.3193 7.05176L19.3223 7.05371H19.3242L19.4189 7.0918C19.8796 7.30361 20.1141 7.83433 19.9463 8.32422C19.7958 8.76326 19.3699 9.02846 18.9277 8.99609C18.6637 10.8493 17.6745 12.4673 16.2559 13.5557C17.2404 13.8442 18.1497 14.2526 18.9443 14.8027C20.8538 16.1247 22 18.1901 22 21V22C22 22.5523 21.5523 23 21 23C20.4477 23 20 22.5523 20 22V21.9756C18.2848 21.8287 17.0227 20.9296 16.209 19.667C15.4004 18.4123 15.0435 16.8302 15.0029 15.2988C14.3798 15.1625 13.7096 15.0731 13 15.0303V22C13 22.5523 12.5523 23 12 23C11.4477 23 11 22.5523 11 22V15.0303C10.0941 15.0857 9.25218 15.2187 8.49023 15.4277C8.43346 16.9186 8.07691 18.4475 7.29102 19.667C6.55853 20.8036 5.46254 21.6466 4 21.9111V22C4 22.5523 3.55228 23 3 23C2.44772 23 2 22.5523 2 22V21C2 18.2032 3.14766 16.139 5.05469 14.8145C5.85042 14.2618 6.76135 13.8504 7.74805 13.5596C6.32708 12.4712 5.33561 10.8512 5.07129 8.99609C4.62951 9.028 4.20413 8.76293 4.05371 8.32422C3.87473 7.80184 4.15342 7.23281 4.67578 7.05371H4.67773L4.68066 7.05176C4.68313 7.05092 4.68657 7.05012 4.69043 7.04883C4.69824 7.04621 4.70925 7.04248 4.72266 7.03809C4.74945 7.02931 4.78755 7.01703 4.83594 7.00195C4.88316 6.98724 4.94083 6.97097 5.00781 6.95117C5.01809 6.47201 5.04273 5.9931 5.10254 5.53516C5.20747 4.73173 5.42793 3.91184 5.92676 3.18945C6.96552 1.68563 8.9054 1 12 1ZM17.0557 16.0059C17.1676 16.9958 17.4482 17.8964 17.8906 18.583C18.3576 19.3077 19.0087 19.8082 19.9258 19.9541C19.6948 18.3401 18.9198 17.2186 17.8057 16.4473C17.573 16.2862 17.3221 16.14 17.0557 16.0059ZM6.19531 16.457C5.11084 17.2103 4.34695 18.2921 4.09277 19.8252C4.74393 19.5987 5.23575 19.1628 5.60938 18.583C6.00381 17.9709 6.26511 17.1881 6.39746 16.3242C6.32893 16.3678 6.26109 16.4113 6.19531 16.457ZM12 8C10.0382 8 8.35525 8.24062 7.16602 8.48047C7.11797 8.49016 7.0708 8.5001 7.02441 8.50977C7.27973 11.0318 9.41062 13 12 13C14.5893 13 16.7192 11.0318 16.9746 8.50977C16.9285 8.50016 16.8817 8.49009 16.834 8.48047C15.6448 8.24062 13.9618 8 12 8ZM12 3C11.639 3 11.3064 3.00925 11 3.02832V4C11 4.55228 10.5523 5 10 5C9.44772 5 9 4.55228 9 4V3.36914C8.23155 3.62112 7.81801 3.97182 7.57324 4.32617C7.32236 4.68943 7.1675 5.16198 7.08496 5.79395C7.0568 6.00957 7.04096 6.23442 7.02832 6.46973C8.29774 6.2275 10.0158 6 12 6C13.9837 6 15.7014 6.22757 16.9707 6.46973C16.9581 6.23444 16.9432 6.00955 16.915 5.79395C16.8325 5.16198 16.6776 4.68943 16.4268 4.32617C16.182 3.97182 15.7684 3.62112 15 3.36914V4C15 4.55228 14.5523 5 14 5C13.4477 5 13 4.55228 13 4V3.02832C12.6936 3.00925 12.361 3 12 3Z" fill="#000"/>
</svg>
