<?xml version="1.0" encoding="UTF-8"?>
<svg width="24px" height="24px" viewBox="0 0 24 24" version="1.1" xmlns="http://www.w3.org/2000/svg" xmlns:xlink="http://www.w3.org/1999/xlink">
    <!-- Generator: Sketch 46 (44423) - http://www.bohemiancoding.com/sketch -->
    <title>vend</title>
    <desc>Created with Sketch.</desc>
    <defs></defs>
    <g id="Icons" stroke="none" stroke-width="1" fill="none" fill-rule="evenodd">
        <g id="vend" stroke="#000000" stroke-width="2">
            <path d="M3,2.00246167 C3,1.44881738 3.44494629,1 3.99339768,1 L20.0066023,1 C20.5552407,1 21,1.43945834 21,2.00246167 L21,23 L3,23 L3,2.00246167 Z M15,1 L15,23 M3,16 L15,16 M8,17 L10,17 M7,16 L7,12 M7,9 L7,5 M11,16 L11,12 M11,9 L11,5 M17,12 L18,12 M17,9 L19,8.99999994 M17,20 L19,19.9999999 M3,9 L15,9" id="Machine"></path>
        </g>
    </g>
</svg>