<svg width="24" height="24" viewBox="0 0 24 24" fill="none" xmlns="http://www.w3.org/2000/svg">
<path fill-rule="evenodd" clip-rule="evenodd" d="M12 1C14.6224 1 17.0462 1.588 18.8496 2.58984C20.6192 3.57293 22 5.09122 22 7C22 8.0406 21.5897 8.96509 20.9297 9.75C21.5897 10.5349 22 11.4594 22 12.5C22 13.3273 21.7408 14.0813 21.3027 14.75C21.7408 15.4187 22 16.1727 22 17C22 18.9088 20.6192 20.4271 18.8496 21.4102C17.0462 22.412 14.6224 23 12 23C9.37759 23 6.9538 22.412 5.15039 21.4102C3.38084 20.4271 2 18.9088 2 17C2 16.1727 2.25925 15.4187 2.69727 14.75C2.25925 14.0813 2 13.3273 2 12.5C2 11.4594 2.41028 10.5349 3.07031 9.75C2.41028 8.96509 2 8.0406 2 7C2 5.09122 3.38084 3.57293 5.15039 2.58984C6.9538 1.588 9.37759 1 12 1ZM19.8477 16.2637C19.5354 16.4992 19.2001 16.7154 18.8496 16.9102C17.0462 17.912 14.6224 18.5 12 18.5C9.37759 18.5 6.9538 17.912 5.15039 16.9102C4.79988 16.7154 4.46464 16.4992 4.15234 16.2637C4.04926 16.5151 4 16.7625 4 17C4 17.8526 4.63427 18.8346 6.12207 19.6611C7.57599 20.4688 9.65205 21 12 21C14.3479 21 16.424 20.4688 17.8779 19.6611C19.3657 18.8346 20 17.8526 20 17C20 16.7625 19.9507 16.5151 19.8477 16.2637ZM12 13C9.65205 13 7.57599 13.5312 6.12207 14.3389C5.88183 14.4723 5.66343 14.6096 5.4668 14.75C5.66343 14.8904 5.88183 15.0277 6.12207 15.1611C7.57599 15.9688 9.65205 16.5 12 16.5C14.3479 16.5 16.424 15.9688 17.8779 15.1611C18.1182 15.0277 18.3366 14.8904 18.5332 14.75C18.3366 14.6096 18.1182 14.4723 17.8779 14.3389C16.424 13.5312 14.3479 13 12 13ZM4.57812 11.0635C4.1814 11.5502 4 12.0437 4 12.5C4 12.7375 4.04926 12.9849 4.15234 13.2363C4.46464 13.0008 4.79988 12.7846 5.15039 12.5898C5.54039 12.3732 5.95958 12.1762 6.40332 12C5.95958 11.8238 5.54039 11.6268 5.15039 11.4102C4.95445 11.3013 4.76318 11.1852 4.57812 11.0635ZM19.4219 11.0635C19.2368 11.1852 19.0455 11.3013 18.8496 11.4102C18.4596 11.6268 18.0404 11.8238 17.5967 12C18.0404 12.1762 18.4596 12.3732 18.8496 12.5898C19.2001 12.7846 19.5354 13.0008 19.8477 13.2363C19.9507 12.9849 20 12.7375 20 12.5C20 12.0437 19.8186 11.5502 19.4219 11.0635ZM12 8.5C9.73906 8.5 7.73012 8.99235 6.28613 9.75C7.73012 10.5077 9.73906 11 12 11C14.2609 11 16.2699 10.5077 17.7139 9.75C16.2699 8.99235 14.2609 8.5 12 8.5ZM12 3C9.65205 3 7.57599 3.53119 6.12207 4.33887C4.63427 5.16543 4 6.14736 4 7C4 7.45625 4.1814 7.94978 4.57812 8.43652C4.76318 8.31475 4.95445 8.1987 5.15039 8.08984C6.9538 7.088 9.37759 6.5 12 6.5C14.6224 6.5 17.0462 7.088 18.8496 8.08984C19.0455 8.1987 19.2368 8.31475 19.4219 8.43652C19.8186 7.94978 20 7.45625 20 7C20 6.14736 19.3657 5.16543 17.8779 4.33887C16.424 3.53119 14.3479 3 12 3Z" fill="#000"/>
</svg>
