<svg width="24" height="24" viewBox="0 0 24 24" fill="none" xmlns="http://www.w3.org/2000/svg">
<path d="M9 14C10.1046 14 11 14.8954 11 16C11 17.1046 10.1046 18 9 18C7.89543 18 7 17.1046 7 16C7 14.8954 7.89543 14 9 14Z" fill="#000"/>
<path fill-rule="evenodd" clip-rule="evenodd" d="M8.81445 2.77148C9.39273 2.19338 10.265 2.02555 11.0166 2.34766L16.7881 4.82129C17.5232 5.13648 17.9999 5.85931 18 6.65918V7.58594C18 8.11632 17.7891 8.62496 17.4141 9L15.2197 11.1943C15.1389 11.2752 15.0512 11.3468 14.96 11.4102L18.8262 13.7295C19.6299 14.2117 19.9916 15.1879 19.6953 16.0771L17.9482 21.3164C17.7735 21.8402 17.2074 22.1229 16.6836 21.9482C16.1598 21.7735 15.8771 21.2074 16.0518 20.6836L17.7979 15.4443L15.7725 14.2295C15.9199 14.7951 16 15.3882 16 16C16 19.866 12.866 23 9 23C5.13401 23 2 19.866 2 16C2 12.134 5.13401 9 9 9C9.49243 9 9.97281 9.05171 10.4365 9.14844L13.8486 5.73633L10.2285 4.18555L7.70703 6.70703C7.31651 7.09756 6.68349 7.09756 6.29297 6.70703C5.90244 6.31651 5.90244 5.68349 6.29297 5.29297L8.81445 2.77148ZM9 11C6.23858 11 4 13.2386 4 16C4 18.7614 6.23858 21 9 21C11.7614 21 14 18.7614 14 16C14 13.2386 11.7614 11 9 11Z" fill="#000"/>
<path d="M19 1C20.1046 1 21 1.89543 21 3C21 4.10457 20.1046 5 19 5C17.8954 5 17 4.10457 17 3C17 1.89543 17.8954 1 19 1Z" fill="#000"/>
</svg>
