<svg width="24" height="24" viewBox="0 0 24 24" fill="none" xmlns="http://www.w3.org/2000/svg">
<path fill-rule="evenodd" clip-rule="evenodd" d="M19.0001 11.0003C19.9966 11.0004 20.8355 11.35 21.3761 12.1068C21.8685 12.7963 22.0001 13.6737 22.0001 14.5003V15.1741C23.1647 15.5863 24.0001 16.6945 24.0001 18.0003V20.0003C24 21.657 22.6568 23.0002 21.0001 23.0003H17.0001C15.3433 23.0003 14.0002 21.657 14.0001 20.0003V18.0003C14.0001 16.6945 14.8354 15.5863 16.0001 15.1741V14.5003C16.0001 13.6736 16.1316 12.7963 16.6241 12.1068C17.1647 11.3499 18.0035 11.0003 19.0001 11.0003ZM17.0001 17.0003C16.4478 17.0004 16.0001 17.4481 16.0001 18.0003V20.0003C16.0002 20.5525 16.4479 21.0003 17.0001 21.0003H21.0001C21.5522 21.0002 22 20.5524 22.0001 20.0003V18.0003C22.0001 17.4481 21.5523 17.0004 21.0001 17.0003H17.0001ZM19.0001 13.0003C18.4967 13.0003 18.3355 13.1507 18.2511 13.2689C18.1187 13.4543 18.0001 13.8271 18.0001 14.5003V15.0003H20.0001V14.5003L19.9952 14.262C19.9707 13.7372 19.865 13.4312 19.7491 13.2689C19.6647 13.1507 19.5033 13.0003 19.0001 13.0003Z" fill="#000"/>
<path d="M12.0001 15.0003C12.5523 15.0004 13.0001 15.4481 13.0001 16.0003C13 16.5179 12.6066 16.9441 12.1026 16.9954L11.8975 17.0052C11.3935 17.0566 11.0001 17.4827 11.0001 18.0003C11.0002 18.5525 11.4479 19.0003 12.0001 19.0003V21.0003C10.3433 21.0003 9.00019 19.657 9.00009 18.0003C9.00009 16.3435 10.3433 15.0004 12.0001 15.0003Z" fill="#000"/>
<path d="M7.05087 13.0501C9.02144 11.0799 11.8733 10.5312 14.3331 11.3987C14.8535 11.5825 15.1268 12.1536 14.9434 12.6741C14.7598 13.1947 14.1887 13.4686 13.6681 13.2855C11.9067 12.6643 9.87068 13.0594 8.46493 14.4652C8.0746 14.8554 7.44143 14.8551 7.05087 14.4652C6.66034 14.0746 6.66035 13.4406 7.05087 13.0501Z" fill="#000"/>
<path d="M4.22177 10.222C7.6407 6.80306 12.7483 6.107 16.8556 8.12726C17.3508 8.37106 17.555 8.96975 17.3116 9.46516C17.0679 9.9606 16.4682 10.1648 15.9727 9.92121C12.6102 8.2674 8.43107 8.84081 5.63583 11.6361C5.24537 12.0265 4.61229 12.0264 4.22177 11.6361C3.83152 11.2455 3.83137 10.6124 4.22177 10.222Z" fill="#000"/>
<path d="M1.39364 7.39387C7.25149 1.53602 16.7487 1.53604 22.6065 7.39387L21.1925 8.80793C16.1157 3.73115 7.88451 3.73113 2.8077 8.80793C2.41725 9.19833 1.78417 9.1982 1.39364 8.80793C1.00313 8.41742 1.00316 7.78439 1.39364 7.39387Z" fill="#000"/>
</svg>
