<svg width="24" height="24" viewBox="0 0 24 24" fill="none" xmlns="http://www.w3.org/2000/svg">
<path opacity="0.3" d="M1.39355 7.39338C7.2514 1.53553 16.7486 1.53555 22.6064 7.39338C22.997 7.7839 22.997 8.41692 22.6064 8.80744C22.2159 9.19784 21.5829 9.19792 21.1924 8.80744C16.1156 3.73066 7.88442 3.73064 2.80761 8.80744C2.4171 9.19791 1.78406 9.19791 1.39355 8.80744C1.00304 8.41693 1.00307 7.78391 1.39355 7.39338Z" fill="#000"/>
<path fill-rule="evenodd" clip-rule="evenodd" d="M12.0003 15C13.6571 15.0001 15.0003 16.3432 15.0003 18C15.0003 19.6568 13.6571 21 12.0003 21C10.3434 21 9.00027 19.6569 9.00027 18C9.00027 16.3432 10.3434 15 12.0003 15ZM12.0003 17C11.448 17 11.0003 17.4478 11.0003 18C11.0003 18.5523 11.448 19 12.0003 19C12.5525 19 13.0003 18.5523 13.0003 18C13.0003 17.4478 12.5525 17.0001 12.0003 17Z" fill="#000"/>
<path d="M7.05008 13.0499C9.78361 10.3166 14.2159 10.3168 16.9495 13.0499C17.34 13.4404 17.34 14.0744 16.9495 14.4649C16.559 14.8551 15.9259 14.8551 15.5354 14.4649C13.5828 12.5125 10.4167 12.5124 8.46414 14.4649C8.07367 14.8551 7.44052 14.8551 7.05008 14.4649C6.65983 14.0744 6.6597 13.4403 7.05008 13.0499Z" fill="#000"/>
<path d="M4.22195 10.2217C8.51771 5.92612 15.4829 5.92606 19.7786 10.2217C20.1689 10.6121 20.1687 11.2453 19.7786 11.6358C19.3881 12.0263 18.7541 12.0263 18.3636 11.6358C14.8488 8.12155 9.1506 8.12136 5.63601 11.6358C5.24549 12.0263 4.61247 12.0263 4.22195 11.6358C3.83159 11.2453 3.83148 10.6122 4.22195 10.2217Z" fill="#000"/>
</svg>
