<svg width="24" height="24" viewBox="0 0 24 24" fill="none" xmlns="http://www.w3.org/2000/svg">
<g opacity="0.3">
<path d="M4.22177 10.222C8.51755 5.92633 15.4827 5.92626 19.7784 10.222C20.1687 10.6124 20.1686 11.2456 19.7784 11.6361C19.3879 12.0265 18.7539 12.0265 18.3634 11.6361C14.8487 8.12175 9.15044 8.12157 5.63584 11.6361C5.24532 12.0265 4.61228 12.0265 4.22177 11.6361C3.83138 11.2455 3.83134 10.6125 4.22177 10.222Z" fill="#000"/>
<path d="M1.39365 7.39387C7.2515 1.53602 16.7487 1.53604 22.6065 7.39387C22.9968 7.78442 22.997 8.41751 22.6065 8.80793C22.2161 9.19818 21.583 9.19809 21.1925 8.80793C16.1157 3.73115 7.88451 3.73113 2.80771 8.80793C2.41729 9.19825 1.78417 9.19808 1.39365 8.80793C1.00315 8.41743 1.00321 7.7844 1.39365 7.39387Z" fill="#000"/>
</g>
<path fill-rule="evenodd" clip-rule="evenodd" d="M12.0001 15C13.6569 15 15 16.3432 15.0001 18C15.0001 19.6569 13.6569 21 12.0001 21C10.3432 21 9.00006 19.6569 9.00006 18C9.00008 16.3432 10.3432 15 12.0001 15ZM12.0001 17C11.4478 17 11.0001 17.4478 11.0001 18C11.0001 18.5523 11.4478 19 12.0001 19C12.5523 19 13.0001 18.5523 13.0001 18C13 17.4478 12.5523 17 12.0001 17Z" fill="#000"/>
<path d="M7.04987 13.0498C9.78336 10.3166 14.2157 10.3168 16.9493 13.0498C17.3398 13.4404 17.3398 14.0743 16.9493 14.4649C16.5588 14.855 15.9257 14.855 15.5352 14.4649C13.5826 12.5126 10.4164 12.5124 8.46393 14.4649C8.07345 14.855 7.4403 14.8551 7.04987 14.4649C6.65973 14.0744 6.65957 13.4402 7.04987 13.0498Z" fill="#000"/>
</svg>
