<svg width="24" height="24" viewBox="0 0 24 24" fill="none" xmlns="http://www.w3.org/2000/svg">
<g opacity="0.3">
<path d="M7.04989 13.0501C9.78349 10.3168 14.2157 10.3168 16.9493 13.0501C17.3398 13.4406 17.3398 14.0746 16.9493 14.4651C16.5588 14.8551 15.9256 14.8552 15.5352 14.4651C13.5826 12.5126 10.4166 12.5125 8.46395 14.4651C8.07346 14.8551 7.44026 14.8553 7.04989 14.4651C6.65953 14.0747 6.65967 13.4406 7.04989 13.0501Z" fill="#000"/>
<path d="M4.22177 10.222C8.51754 5.92632 15.4827 5.92625 19.7784 10.222C20.1686 10.6124 20.1685 11.2456 19.7784 11.636C19.3879 12.0264 18.7539 12.0264 18.3634 11.636C14.8487 8.12174 9.15043 8.12156 5.63583 11.636C5.24532 12.0264 4.61226 12.0264 4.22177 11.636C3.8314 11.2456 3.83141 10.6125 4.22177 10.222Z" fill="#000"/>
<path d="M1.39364 7.39385C7.25149 1.53603 16.7487 1.53604 22.6065 7.39385C22.9968 7.78439 22.997 8.41747 22.6065 8.80792C22.2161 9.19824 21.583 9.19816 21.1925 8.80792C16.1157 3.73115 7.88451 3.73114 2.8077 8.80792C2.41727 9.19831 1.78418 9.19815 1.39364 8.80792C1.00313 8.41741 1.00316 7.78438 1.39364 7.39385Z" fill="#000"/>
</g>
<path d="M13 18C13 17.4477 12.5523 17 12 17C11.4477 17 11 17.4477 11 18C11 18.5523 11.4477 19 12 19C12.5523 19 13 18.5523 13 18ZM15 18C15 19.6569 13.6569 21 12 21C10.3431 21 9 19.6569 9 18C9 16.3431 10.3431 15 12 15C13.6569 15 15 16.3431 15 18Z" fill="#000"/>
</svg>
