<svg width="24" height="24" viewBox="0 0 24 24" fill="none" xmlns="http://www.w3.org/2000/svg">
<path d="M12.9999 17.9998C12.9999 17.4475 12.5522 16.9998 11.9999 16.9998C11.4477 16.9999 10.9999 17.4476 10.9999 17.9998C10.9999 18.5521 11.4477 18.9998 11.9999 18.9998C12.5522 18.9998 12.9999 18.5521 12.9999 17.9998ZM7.0507 13.0496C9.78439 10.3164 14.2166 10.3161 16.9501 13.0496C17.3406 13.4402 17.3406 14.0741 16.9501 14.4647C16.5596 14.8552 15.9256 14.8552 15.5351 14.4647C13.5825 12.5121 10.4174 12.5121 8.46476 14.4647C8.07437 14.855 7.44124 14.8548 7.0507 14.4647C6.66018 14.0741 6.66018 13.4402 7.0507 13.0496ZM4.2216 10.2215C8.51735 5.92575 15.4825 5.92578 19.7782 10.2215C20.1687 10.612 20.1686 11.245 19.7782 11.6356C19.3877 12.0261 18.7547 12.0261 18.3642 11.6356C14.8495 8.12089 9.15037 8.12086 5.63566 11.6356C5.24513 12.026 4.61211 12.0261 4.2216 11.6356C3.83135 11.245 3.8312 10.6119 4.2216 10.2215ZM1.39347 7.39338C7.25132 1.53553 16.7485 1.53555 22.6064 7.39338C22.9969 7.7839 22.9969 8.41692 22.6064 8.80744C22.2158 9.19784 21.5828 9.19792 21.1923 8.80744C16.1155 3.73066 7.88434 3.73064 2.80754 8.80744C2.41702 9.19791 1.78399 9.19791 1.39347 8.80744C1.00296 8.41693 1.00299 7.78391 1.39347 7.39338ZM14.9999 17.9998C14.9999 19.6567 13.6568 20.9998 11.9999 20.9998C10.3431 20.9998 8.99992 19.6567 8.99992 17.9998C8.99992 16.343 10.3431 14.9999 11.9999 14.9998C13.6568 14.9998 14.9999 16.343 14.9999 17.9998Z" fill="#555555"/>
</svg>
