<svg width="24" height="25" viewBox="0 0 24 25" fill="none" xmlns="http://www.w3.org/2000/svg">
<path d="M4.28613 10.394C4.98497 9.69515 6.09099 9.65185 6.84082 10.2631L6.98633 10.394L13.8828 17.2905C14.6282 18.036 14.6283 19.2452 13.8828 19.9906L13.6162 20.2563C12.6826 21.1899 11.3581 22.3163 9.6709 22.6098C8.11312 22.8806 6.46042 22.4143 4.74902 20.9418L2.70703 22.9838C2.31651 23.3743 1.68349 23.3743 1.29297 22.9838C0.902445 22.5933 0.902445 21.9603 1.29297 21.5697L3.34766 19.5141C1.90277 17.777 1.43568 16.1281 1.69531 14.5815C1.97741 12.9012 3.08582 11.5953 4.02051 10.6606L4.28613 10.394ZM5.43457 12.0746C4.55109 12.9581 3.84043 13.8854 3.66797 14.9125C3.50944 15.8568 3.77113 17.1423 5.44238 18.85C7.10451 20.5484 8.38215 20.8038 9.3291 20.6391C10.3689 20.458 11.3178 19.7266 12.2021 18.8422L12.4033 18.6401L5.63574 11.8725L5.43457 12.0746ZM21.293 1.56975C21.6835 1.17922 22.3165 1.17922 22.707 1.56975C23.0976 1.96027 23.0976 2.59329 22.707 2.98381L20.6621 5.02776C22.1234 6.73913 22.5883 8.39074 22.3223 9.94573C22.0335 11.6326 20.9159 12.9566 19.9795 13.893L19.7139 14.1596C18.9684 14.9051 17.7592 14.905 17.0137 14.1596L16.0908 13.2367L14.5254 14.8022C14.1349 15.1926 13.5019 15.1925 13.1113 14.8022C12.7208 14.4116 12.7208 13.7786 13.1113 13.3881L14.6768 11.8227L12.4541 9.60002L10.8887 11.1655C10.4981 11.556 9.86513 11.556 9.47461 11.1655C9.08426 10.7749 9.08415 10.1419 9.47461 9.75139L11.04 8.18596L10.1172 7.26311C9.37181 6.51756 9.37172 5.30841 10.1172 4.56291L10.3838 4.29729C11.3208 3.36026 12.6338 2.25387 14.3164 1.97209C15.8643 1.71296 17.5126 2.17859 19.2393 3.62248L21.293 1.56975ZM18.5703 5.71623C16.8804 4.04851 15.5953 3.7859 14.6465 3.94475C13.6142 4.11771 12.6788 4.83037 11.7979 5.71135L11.5957 5.91252L18.3633 12.6801L18.5654 12.4789C19.4472 11.5972 20.1726 10.6481 20.3506 9.60783C20.5131 8.65736 20.2543 7.37812 18.5703 5.71623Z" fill="#000"/>
</svg>
