<?xml version="1.0" encoding="UTF-8"?>
<svg width="24px" height="24px" viewBox="0 0 24 24" version="1.1" xmlns="http://www.w3.org/2000/svg" xmlns:xlink="http://www.w3.org/1999/xlink">
    <!-- Generator: Sketch 46 (44423) - http://www.bohemiancoding.com/sketch -->
    <title>actions</title>
    <desc>Created with Sketch.</desc>
    <defs></defs>
    <g id="Icons" stroke="none" stroke-width="1" fill="none" fill-rule="evenodd">
        <g id="actions" stroke="#000000" stroke-width="2">
            <path d="M12,17.5 C15.0375661,17.5 17.5,15.0375661 17.5,12 C17.5,8.96243388 15.0375661,6.5 12,6.5 C8.96243388,6.5 6.5,8.96243388 6.5,12 C6.5,15.0375661 8.96243388,17.5 12,17.5 Z M12,6.5 L12,1 M12,23 L12,17.5 M1,12 L6.5,12 M17.5,12 L23,12 M4.4375,4.4375 L8.5625,8.5625 M15.4375,15.4375 L19.5625,19.5625 M19.5625,4.4375 L15.4375,8.5625 M8.5625,15.4375 L4.4375,19.5625" id="Group"></path>
        </g>
    </g>
</svg>