<?xml version="1.0" encoding="UTF-8"?>
<svg width="24px" height="24px" viewBox="0 0 24 24" version="1.1" xmlns="http://www.w3.org/2000/svg" xmlns:xlink="http://www.w3.org/1999/xlink">
    <!-- Generator: Sketch 46 (44423) - http://www.bohemiancoding.com/sketch -->
    <title>aid-option</title>
    <desc>Created with Sketch.</desc>
    <defs></defs>
    <g id="Icons" stroke="none" stroke-width="1" fill="none" fill-rule="evenodd">
        <g id="aid-option" stroke="#000000" stroke-width="2">
            <path d="M12,9 L12,19 L12,9 Z M17,14 L7,14 L17,14 Z M1,6.99508929 C1,5.8932319 1.88967395,5 2.991155,5 L21.008845,5 C22.1085295,5 23,5.8926228 23,6.99508929 L23,21.0049107 C23,22.1067681 22.1103261,23 21.008845,23 L2.991155,23 C1.89147046,23 1,22.1073772 1,21.0049107 L1,6.99508929 Z M7,5 L7,2.0093689 C7,1.45190985 7.4556644,1 7.99539757,1 L16.0046024,1 C16.5543453,1 17,1.44335318 17,2.0093689 L17,5" id="Shape"></path>
        </g>
    </g>
</svg>