<?xml version="1.0" encoding="UTF-8"?>
<svg width="24px" height="24px" viewBox="0 0 24 24" version="1.1" xmlns="http://www.w3.org/2000/svg" xmlns:xlink="http://www.w3.org/1999/xlink">
    <!-- Generator: Sketch 46 (44423) - http://www.bohemiancoding.com/sketch -->
    <title>alarm</title>
    <desc>Created with Sketch.</desc>
    <defs></defs>
    <g id="Icons" stroke="none" stroke-width="1" fill="none" fill-rule="evenodd">
        <g id="alarm" stroke="#000000" stroke-width="2">
            <path d="M21,13 C21,17.971 16.971,22 12,22 C7.029,22 3,17.971 3,13 C3,8.029 7.029,4 12,4 C16.971,4 21,8.029 21,13 L21,13 Z M5.5,19.5 L2,23 L5.5,19.5 Z M18.5,19.5 L22,23 L18.5,19.5 Z M9,4 C8.29078014,2.90780142 6.88179669,2 5,2 C2.90070922,2 1,3.90070922 1,6 C1,7.88179669 1.90780142,9.29078014 3,10 M21,10 C22.0921986,9.29078014 23,7.88179669 23,6 C23,3.90070922 21.0992908,2 19,2 C17.1182033,2 15.7092199,2.90780142 15,4 M12,8 L12,13 L15,16" id="Clock"></path>
        </g>
    </g>
</svg>