<svg width="24" height="24" viewBox="0 0 24 24" fill="none" xmlns="http://www.w3.org/2000/svg">
<path fill-rule="evenodd" clip-rule="evenodd" d="M13.082 0.0449219L13.4014 0.0751953C16.6951 0.429926 19.6241 2.01876 21.7119 4.36035C22.3907 5.12197 22.3103 6.18066 21.7334 6.87793C22.5388 8.40718 23 10.1513 23 12C23 18.0723 18.0723 23 12 23C5.92772 23 1 18.0723 1 12C1.00003 6.17822 5.5298 1.41192 11.2549 1.02832C11.57 0.464113 12.1525 0.0577736 12.8623 0.0380859L13.082 0.0449219ZM11 3.05664C6.50236 3.55471 3.00003 7.37036 3 12C3 16.9677 7.03228 21 12 21C16.9677 21 21 16.9677 21 12C21 10.623 20.6867 9.31754 20.1328 8.14941L14.2002 12.5996C12.8817 13.5885 11 12.6481 11 11V3.05664ZM13 11L20.1602 5.62891C18.3539 3.63422 15.8286 2.30281 13 2.04688V11Z" fill="#000"/>
</svg>
