<svg width="24" height="24" viewBox="0 0 24 24" fill="none" xmlns="http://www.w3.org/2000/svg">
<path d="M19 16H10C9.44771 16 9 15.5523 9 15C9 14.4477 9.44771 14 10 14H19V16Z" fill="#000"/>
<path d="M12 12H10C9.44771 12 9 11.5523 9 11C9 10.4477 9.44771 10 10 10H12V12Z" fill="#000"/>
<path fill-rule="evenodd" clip-rule="evenodd" d="M17 6C18.6569 6 20 7.34315 20 9C20 10.6569 18.6569 12 17 12C15.3431 12 14 10.6569 14 9C14 7.34315 15.3431 6 17 6ZM17 8C16.4477 8 16 8.44772 16 9C16 9.55228 16.4477 10 17 10C17.5523 10 18 9.55228 18 9C18 8.44772 17.5523 8 17 8Z" fill="#000"/>
<path d="M12 8H10C9.44771 8 9 7.55228 9 7C9 6.44772 9.44771 6 10 6H12V8Z" fill="#000"/>
<path fill-rule="evenodd" clip-rule="evenodd" d="M21 2C22.6569 2 24 3.34315 24 5V18.5C24 20.433 22.433 22 20.5 22H3.5C1.567 22 0 20.433 0 18.5V9C0 7.34315 1.34315 6 3 6H5V5C5 3.34315 6.34315 2 8 2H21ZM3 8C2.44772 8 2 8.44772 2 9V18.5C2 19.3284 2.67157 20 3.5 20C4.32843 20 5 19.3284 5 18.5V8H3ZM8 4C7.44772 4 7 4.44772 7 5V18.5C7 19.0368 6.87907 19.5454 6.66309 20H20.5C21.3284 20 22 19.3284 22 18.5V5C22 4.44772 21.5523 4 21 4H8Z" fill="#000"/>
</svg>
