<svg width="24" height="25" viewBox="0 0 24 25" fill="none" xmlns="http://www.w3.org/2000/svg">
<path d="M17 7.70996H7V21.71H17V7.70996ZM22 6.70996C22 5.05311 20.6569 3.70996 19 3.70996H5C3.34315 3.70996 2 5.05311 2 6.70996C2 8.36682 3.34315 9.70996 5 9.70996V7.70996H4C3.44772 7.70996 3 7.26225 3 6.70996C3 6.15768 3.44772 5.70996 4 5.70996H20C20.5523 5.70996 21 6.15768 21 6.70996C21 7.26225 20.5523 7.70996 20 7.70996H19V9.70996C20.6569 9.70996 22 8.36682 22 6.70996ZM24 6.70996C24 9.47138 21.7614 11.71 19 11.71V21.71C19 22.8145 18.1046 23.71 17 23.71H7C5.89543 23.71 5 22.8145 5 21.71V11.71C2.23858 11.71 0 9.47138 0 6.70996C0 3.94854 2.23858 1.70996 5 1.70996H19C21.7614 1.70996 24 3.94854 24 6.70996Z" fill="#000"/>
<path d="M9 21.71C9 20.6054 8.10457 19.71 7 19.71C6.44772 19.71 6 19.2622 6 18.71C6 18.1577 6.44772 17.71 7 17.71L7.20605 17.7148C9.31944 17.8221 11 19.5699 11 21.71C11 22.2622 10.5523 22.71 10 22.71C9.44772 22.71 9 22.2622 9 21.71ZM13 21.71C13 19.5008 14.7909 17.71 17 17.71C17.5523 17.71 18 18.1577 18 18.71C18 19.2622 17.5523 19.71 17 19.71C15.8954 19.71 15 20.6054 15 21.71C15 22.2622 14.5523 22.71 14 22.71C13.4477 22.71 13 22.2622 13 21.71Z" fill="#000"/>
<path d="M14 12.71C14 11.8008 13.7223 11.0162 13.3213 10.4814C12.9205 9.94706 12.4431 9.70996 12 9.70996C11.5569 9.70996 11.0795 9.94706 10.6787 10.4814C10.2777 11.0162 10 11.8008 10 12.71C10 13.6191 10.2777 14.4037 10.6787 14.9385C11.0795 15.4729 11.5569 15.71 12 15.71C12.4431 15.71 12.9205 15.4729 13.3213 14.9385C13.7223 14.4037 14 13.6191 14 12.71ZM16 12.71C16 14.01 15.6056 15.2257 14.9209 16.1387C14.2359 17.0518 13.2136 17.71 12 17.71C10.7864 17.71 9.76406 17.0518 9.0791 16.1387C8.39437 15.2257 8 14.01 8 12.71C8 11.4099 8.39437 10.1942 9.0791 9.28125C9.76406 8.36817 10.7864 7.70996 12 7.70996C13.2136 7.70996 14.2359 8.36817 14.9209 9.28125C15.6056 10.1942 16 11.4099 16 12.71Z" fill="#000"/>
</svg>
