<?xml version="1.0" encoding="UTF-8"?>
<svg width="24px" height="24px" viewBox="0 0 24 24" version="1.1" xmlns="http://www.w3.org/2000/svg" xmlns:xlink="http://www.w3.org/1999/xlink">
    <!-- Generator: Sketch 46 (44423) - http://www.bohemiancoding.com/sketch -->
    <title>attraction</title>
    <desc>Created with Sketch.</desc>
    <defs></defs>
    <g id="Icons" stroke="none" stroke-width="1" fill="none" fill-rule="evenodd">
        <g id="attraction" stroke="#000000" stroke-width="2">
            <path d="M13,2 L14.5,2.5 L13,3 L13,2 Z M14,18 L15,23 L13,23 L14,18 Z M14,16.5 L16,23 L12,23 L14,16.5 Z M12,6 L21,11 L21,13 L3,13 L3,11 L12,6 Z M4.5,13 L19.5,13 C19.5,17.1666667 21,23 21,23 L3,23 C3,23 4.5,17.1666667 4.5,13 Z M4.5,13 L19.5,13 C19.5,17.1666667 21,23 21,23 L3,23 C3,23 4.5,17.1666667 4.5,13 Z" id="Shape"></path>
        </g>
    </g>
</svg>