<svg width="24" height="25" viewBox="0 0 24 25" fill="none" xmlns="http://www.w3.org/2000/svg">
<path fill-rule="evenodd" clip-rule="evenodd" d="M11.9997 1.70996C12.5519 1.70996 12.9997 2.15768 12.9997 2.70996C13.0408 2.70996 13.0824 2.71263 13.1237 2.71777L17.1237 3.21777C17.6241 3.28033 17.9997 3.70564 17.9997 4.20996C17.9997 4.71428 17.6241 5.13959 17.1237 5.20215L13.1237 5.70215C13.0824 5.70729 13.0408 5.70898 12.9997 5.70898V6.18848L22.5729 12.8906C22.9305 13.1409 23.085 13.5945 22.9538 14.0107C22.8225 14.427 22.4361 14.71 21.9997 14.71H20.5582C20.7191 16.1935 21.1919 17.857 21.693 19.2852C21.9967 20.1507 22.3009 20.9036 22.5289 21.4395C22.6428 21.707 22.7378 21.9199 22.8034 22.0645C22.836 22.1366 22.8616 22.192 22.8786 22.2285C22.8869 22.2463 22.893 22.2599 22.8971 22.2686L22.903 22.2803L22.9498 22.3984C23.0421 22.6796 23.0057 22.9902 22.8454 23.2441C22.6621 23.5341 22.3427 23.71 21.9997 23.71H1.99965C1.65668 23.7098 1.33711 23.5341 1.15395 23.2441C0.970935 22.9542 0.949092 22.5899 1.09633 22.2803L1.10219 22.2686C1.10625 22.2599 1.11244 22.2464 1.12074 22.2285C1.1377 22.1921 1.16326 22.1366 1.19594 22.0645C1.26144 21.9199 1.3565 21.707 1.47035 21.4395C1.69837 20.9036 2.00258 20.1507 2.30629 19.2852C2.8074 17.857 3.2802 16.1935 3.44106 14.71H1.99965C1.56333 14.7098 1.17674 14.4269 1.04555 14.0107C0.914415 13.5946 1.06904 13.1409 1.42641 12.8906L10.9997 6.18848V2.70996C10.9997 2.15779 11.4475 1.71015 11.9997 1.70996ZM5.44985 14.71C5.28482 16.5049 4.72488 18.4314 4.19301 19.9473C3.9595 20.6128 3.72555 21.2139 3.52309 21.71H10.8327L13.0768 16.3252L13.7223 14.71H5.44985ZM12.9997 21.71H15.3815L14.0817 19.1113L12.9997 21.71ZM15.0944 16.6641L17.6178 21.71H20.4762C20.2738 21.2139 20.0398 20.6128 19.8063 19.9473C19.2744 18.4314 18.7145 16.5049 18.5495 14.71H15.8766L15.0944 16.6641ZM5.17153 12.71H18.8278L11.9997 7.92969L5.17153 12.71Z" fill="#000"/>
</svg>
