<svg width="24" height="24" viewBox="0 0 24 24" fill="none" xmlns="http://www.w3.org/2000/svg">
<path d="M12 1C18.0751 1 23 5.92487 23 12C23 18.0751 18.0751 23 12 23C6.67721 23 2.23909 19.2205 1.21973 14.1992C1.10986 13.658 1.45975 13.1294 2.00098 13.0195C2.54211 12.9097 3.06967 13.2597 3.17969 13.8008C4.01349 17.9084 7.64704 21 12 21C16.9706 21 21 16.9706 21 12C21 7.02944 16.9706 3 12 3C8.87062 3 6.12407 4.596 4.56543 7H6C6.55228 7 7 7.44772 7 8C7 8.55228 6.55228 9 6 9H2C1.44772 9 1 8.55228 1 8V4C1 3.44772 1.44772 3 2 3C2.55228 3 3 3.44772 3 4V5.74023C4.93845 2.87413 8.25452 1 12 1Z" fill="#000"/>
<path fill-rule="evenodd" clip-rule="evenodd" d="M14.75 8C15.5371 8 16.2073 8.20612 16.7471 8.59375C17.2788 8.97567 17.6152 9.48435 17.8281 9.98047C18.2391 10.9382 18.25 12.0011 18.25 12.5C18.25 12.9752 18.2611 14.0481 17.8604 15.0098C17.6513 15.5113 17.3146 16.025 16.7744 16.4092C16.2281 16.7975 15.5487 17 14.75 17C13.9513 17 13.2719 16.7975 12.7256 16.4092C12.1854 16.025 11.8487 15.5113 11.6396 15.0098C11.2389 14.0481 11.25 12.9752 11.25 12.5C11.25 12.006 11.2562 10.9411 11.665 9.98242C11.8771 9.48522 12.2136 8.97612 12.7471 8.59375C13.2883 8.20583 13.9604 8 14.75 8ZM14.75 10C14.3192 10 14.0685 10.1067 13.9121 10.2188C13.7481 10.3363 13.6126 10.5149 13.5049 10.7676C13.274 11.3089 13.25 11.9941 13.25 12.5C13.25 13.0248 13.2611 13.702 13.4854 14.2402C13.5887 14.4884 13.7212 14.6625 13.8838 14.7783C14.0405 14.8898 14.299 15 14.75 15C15.201 15 15.4595 14.8898 15.6162 14.7783C15.7788 14.6625 15.9113 14.4884 16.0146 14.2402C16.2389 13.702 16.25 13.0248 16.25 12.5C16.25 11.9989 16.2229 11.3118 15.9902 10.7695C15.8813 10.5157 15.7444 10.3368 15.5801 10.2188C15.4238 10.1065 15.1754 10 14.75 10Z" fill="#000"/>
<path d="M10 16.75H8V11.1641C7.7637 11.2765 7.54411 11.3598 7.36719 11.4297L6.63281 9.57031C7.00901 9.42162 7.23639 9.33157 7.42676 9.19629C7.57794 9.08881 7.70512 8.95008 7.79395 8.68359L8.02148 8H10V16.75Z" fill="#000"/>
</svg>
