<?xml version="1.0" encoding="UTF-8"?>
<svg width="24px" height="24px" viewBox="0 0 24 24" version="1.1" xmlns="http://www.w3.org/2000/svg" xmlns:xlink="http://www.w3.org/1999/xlink">
    <!-- Generator: Sketch 46 (44423) - http://www.bohemiancoding.com/sketch -->
    <title>blog</title>
    <desc>Created with Sketch.</desc>
    <defs></defs>
    <g id="Icons" stroke="none" stroke-width="1" fill="none" fill-rule="evenodd">
        <g id="blog" stroke="#000000" stroke-width="2">
            <path d="M5,16 C3.343,16 2,17.343 2,19 C2,20.657 3.343,22 5,22 C6.657,22 8,20.657 8,19 C8,17.343 6.657,16 5,16 L5,16 L5,16 Z M5,1 C14.925,1 23,9.075 23,19 L23,19 M18,19 C18,11.832 12.168,6 5,6 M13,19 C13,14.589 9.411,11 5,11 M2,11 L2,19 L2,19" id="Path"></path>
        </g>
    </g>
</svg>