<svg width="24" height="24" viewBox="0 0 24 24" fill="none" xmlns="http://www.w3.org/2000/svg">
<path fill-rule="evenodd" clip-rule="evenodd" d="M14 1C15.6569 1 17 2.34315 17 4V6H18C20.7614 6 23 8.23858 23 11V18C23 20.7614 20.7614 23 18 23H6C3.23858 23 1 20.7614 1 18V11C1 8.23858 3.23858 6 6 6H7V4C7 2.34315 8.34315 1 10 1H14ZM6 8C4.34315 8 3 9.34315 3 11V18C3 19.6569 4.34315 21 6 21H7V8H6ZM9 21H15V8H9V21ZM17 21H18C19.6569 21 21 19.6569 21 18V11C21 9.34315 19.6569 8 18 8H17V21ZM10 3C9.44772 3 9 3.44772 9 4V6H15V4C15 3.44772 14.5523 3 14 3H10Z" fill="#000"/>
</svg>
