<?xml version="1.0" encoding="UTF-8"?>
<svg width="24px" height="24px" viewBox="0 0 24 24" version="1.1" xmlns="http://www.w3.org/2000/svg" xmlns:xlink="http://www.w3.org/1999/xlink">
    <!-- Generator: Sketch 46 (44423) - http://www.bohemiancoding.com/sketch -->
    <title>calculator</title>
    <desc>Created with Sketch.</desc>
    <defs></defs>
    <g id="Icons" stroke="none" stroke-width="1" fill="none" fill-rule="evenodd">
        <g id="calculator" stroke="#000000" stroke-width="2">
            <path d="M22,23 L2,23 L2,1 L22,1 L22,23 Z M16,17 L18,17 L18,19 L16,19 L16,17 Z M11,17 L13,17 L13,19 L11,19 L11,17 Z M16,12 L18,12 L18,14 L16,14 L16,12 Z M11,12 L13,12 L13,14 L11,14 L11,12 Z M6,17 L8,17 L8,19 L6,19 L6,17 Z M6,12 L8,12 L8,14 L6,14 L6,12 Z M18,9 L6,9 L6,5 L18,5 L18,9 Z" id="Calc"></path>
        </g>
    </g>
</svg>