<svg width="24" height="24" viewBox="0 0 24 24" fill="none" xmlns="http://www.w3.org/2000/svg">
<path d="M9 19C10.1048 19 11 19.8952 11 21C11 22.1048 10.1048 23 9 23C7.89522 23 7 22.1048 7 21C7 19.8952 7.89522 19 9 19Z" fill="#000"/>
<path d="M19 19C20.1048 19 21 19.8952 21 21C21 22.1048 20.1048 23 19 23C17.8952 23 17 22.1048 17 21C17 19.8952 17.8952 19 19 19Z" fill="#000"/>
<path fill-rule="evenodd" clip-rule="evenodd" d="M2.83105 1C4.28066 1.0001 5.52269 2.03674 5.78223 3.46289L5.87988 4H20.8672C22.0702 4 23.0008 5.05434 22.8516 6.24805L22.2109 11.3721C22.0233 12.8734 20.7473 14 19.2344 14H8.16895C7.94022 14 7.71633 13.9739 7.50098 13.9248L7.70801 15.1641C7.78837 15.6463 8.2055 16 8.69434 16H20C20.5523 16 21 16.4477 21 17C21 17.5523 20.5523 18 20 18H8.69434C7.22782 18 5.97645 16.9397 5.73535 15.4932L4.01367 5.16406C3.99759 5.06739 3.9956 4.9715 4.00684 4.87891L3.81445 3.82129C3.72801 3.34587 3.31425 3.0001 2.83105 3H1C0.447715 3 0 2.55228 0 2C0 1.44772 0.447715 1 1 1H2.83105ZM7.18555 11.1787C7.27199 11.6541 7.68575 11.9999 8.16895 12H19.2344C19.7387 12 20.164 11.6244 20.2266 11.124L20.8672 6H6.24414L7.18555 11.1787Z" fill="#000"/>
</svg>
