<svg width="24" height="24" viewBox="0 0 24 24" fill="none" xmlns="http://www.w3.org/2000/svg">
<path d="M18 17C18.5523 17 19 17.4477 19 18C19 18.5523 18.5523 19 18 19H6C5.44772 19 5 18.5523 5 18C5 17.4477 5.44772 17 6 17H18Z" fill="#000"/>
<path d="M6.29297 7.29297C6.65908 6.92685 7.23808 6.90426 7.63086 7.22461L7.70703 7.29297L10.707 10.293L10.7734 10.3662C10.9193 10.5442 11 10.7679 11 11C11 11.2321 10.9193 11.4558 10.7734 11.6338L10.707 11.707L7.70703 14.707C7.3165 15.0975 6.68349 15.0975 6.29297 14.707C5.90246 14.3165 5.90245 13.6835 6.29297 13.293L8.58594 11L6.29297 8.70703L6.22461 8.63086C5.90426 8.23809 5.92687 7.65909 6.29297 7.29297Z" fill="#000"/>
<path d="M13 4C13.5523 4 14 4.44772 14 5V5.00977C14 5.56205 13.5523 6.00977 13 6.00977C12.4477 6.00977 12 5.56205 12 5.00977V5C12 4.44772 12.4477 4 13 4Z" fill="#000"/>
<path d="M16 4C16.5523 4 17 4.44772 17 5V5.00977C17 5.56205 16.5523 6.00977 16 6.00977C15.4477 6.00977 15 5.56205 15 5.00977V5C15 4.44772 15.4477 4 16 4Z" fill="#000"/>
<path d="M19 4C19.5523 4 20 4.44772 20 5V5.00977C20 5.56205 19.5523 6.00977 19 6.00977C18.4477 6.00977 18 5.56205 18 5.00977V5C18 4.44772 18.4477 4 19 4Z" fill="#000"/>
<path fill-rule="evenodd" clip-rule="evenodd" d="M20 1C21.6569 1 23 2.34315 23 4V20C23 21.6569 21.6569 23 20 23H4C2.34315 23 1 21.6569 1 20V4C1 2.34315 2.34315 1 4 1H20ZM4 3C3.44772 3 3 3.44772 3 4V20C3 20.5523 3.44772 21 4 21H20C20.5523 21 21 20.5523 21 20V4C21 3.44772 20.5523 3 20 3H4Z" fill="#000"/>
</svg>
