<svg width="24" height="24" viewBox="0 0 24 24" fill="none" xmlns="http://www.w3.org/2000/svg">
<path d="M1 10.833C1.55218 10.833 1.99982 11.2809 2 11.833V13C2 14.6569 3.34315 16 5 16H6.16699C6.66658 16.0002 7.07905 16.3669 7.15332 16.8457C7.63267 16.9195 7.99984 17.333 8 17.833V19C8 20.6569 9.34315 22 11 22H12.167C12.7191 22.0002 13.167 22.4478 13.167 23C13.167 23.5522 12.7191 23.9998 12.167 24H11C8.23858 24 6 21.7614 6 19V18H5C2.23858 18 0 15.7614 0 13V11.833C0.000175711 11.2809 0.447824 10.833 1 10.833Z" fill="#000"/>
<path d="M23 16.833C23.5522 16.833 23.9998 17.2809 24 17.833V19C24 21.7614 21.7614 24 19 24H17.833C17.2809 23.9998 16.833 23.5522 16.833 23C16.833 22.4478 17.2809 22.0002 17.833 22H19C20.6569 22 22 20.6569 22 19V17.833C22.0002 17.2809 22.4478 16.833 23 16.833Z" fill="#000"/>
<path d="M17 10.833C17.5522 10.833 17.9998 11.2809 18 11.833V13C18 15.7614 15.7614 18 13 18H11.833C11.2809 17.9998 10.833 17.5522 10.833 17C10.833 16.4478 11.2809 16.0002 11.833 16H13C14.6569 16 16 14.6569 16 13V11.833C16.0002 11.2809 16.4478 10.833 17 10.833Z" fill="#000"/>
<path d="M12.167 6C12.7191 6.00018 13.167 6.44782 13.167 7C13.167 7.55218 12.7191 7.99982 12.167 8H11C9.34315 8 8 9.34315 8 11V12.167C7.99982 12.7191 7.55218 13.167 7 13.167C6.44782 13.167 6.00018 12.7191 6 12.167V11C6 8.23858 8.23858 6 11 6H12.167Z" fill="#000"/>
<path d="M13 0C15.7614 0 18 2.23858 18 5V6H19C21.7614 6 24 8.23858 24 11V12.167C23.9998 12.7191 23.5522 13.167 23 13.167C22.4478 13.167 22.0002 12.7191 22 12.167V11C22 9.34315 20.6569 8 19 8H17.833C17.333 7.99984 16.9195 7.63267 16.8457 7.15332C16.3669 7.07905 16.0002 6.66658 16 6.16699V5C16 3.34315 14.6569 2 13 2H11.833C11.2809 1.99982 10.833 1.55218 10.833 1C10.833 0.447824 11.2809 0.000175712 11.833 0H13Z" fill="#000"/>
<path d="M6.16699 0C6.71913 0.000175712 7.16699 0.447824 7.16699 1C7.16699 1.55218 6.71913 1.99982 6.16699 2H5C3.34315 2 2 3.34315 2 5V6.16699C1.99982 6.71913 1.55218 7.16699 1 7.16699C0.447824 7.16699 0.000175969 6.71913 0 6.16699V5C0 2.23858 2.23858 0 5 0H6.16699Z" fill="#000"/>
</svg>
