<?xml version="1.0" encoding="UTF-8"?>
<svg width="24px" height="24px" viewBox="0 0 24 24" version="1.1" xmlns="http://www.w3.org/2000/svg" xmlns:xlink="http://www.w3.org/1999/xlink">
    <!-- Generator: Sketch 46 (44423) - http://www.bohemiancoding.com/sketch -->
    <title>cloud-computer</title>
    <desc>Created with Sketch.</desc>
    <defs></defs>
    <g id="Icons" stroke="none" stroke-width="1" fill="none" fill-rule="evenodd">
        <g id="cloud-computer" stroke="#000000" stroke-width="2">
            <path d="M6,6 L6,5 C6,2 7.5,1 10,1 L14,1 C16.5,1 18,2.5 18,5 L18,6 C21,6 23,8 23,11 C23,14 21,16 18,16 M14,6 L6,6 C3,6 1,7.5 1,11 C1,14.5 3,16 6,16 M8,19 L16,19 L16,12 L8,12 L8,19 Z M12,19 L12,23 L12,19 Z M9,23 L15,23 L9,23 Z" id="Group"></path>
        </g>
    </g>
</svg>