<svg width="24" height="24" viewBox="0 0 24 24" fill="none" xmlns="http://www.w3.org/2000/svg">
<path d="M9.29299 7.29297C9.68352 6.90247 10.3165 6.90245 10.7071 7.29297C11.0976 7.68349 11.0976 8.31652 10.7071 8.70703L8.41408 11L10.7071 13.293C11.0976 13.6835 11.0976 14.3165 10.7071 14.707C10.3165 15.0975 9.68352 15.0975 9.29299 14.707L6.29299 11.707C6.10545 11.5195 6.00002 11.2652 6.00002 11C6.00002 10.7348 6.10545 10.4805 6.29299 10.293L9.29299 7.29297Z" fill="#000"/>
<path d="M13.293 7.29297C13.6835 6.90246 14.3165 6.90246 14.7071 7.29297L17.7071 10.293C17.8946 10.4805 18 10.7348 18 11C18 11.2652 17.8946 11.5195 17.7071 11.707L14.7071 14.707C14.3165 15.0975 13.6835 15.0975 13.293 14.707C12.9025 14.3165 12.9025 13.6835 13.293 13.293L15.586 11L13.293 8.70703C12.9025 8.31651 12.9025 7.6835 13.293 7.29297Z" fill="#000"/>
<path fill-rule="evenodd" clip-rule="evenodd" d="M21 1C21.276 1.00001 21.5395 1.1143 21.7285 1.31543C21.9175 1.51662 22.0153 1.78699 21.9981 2.0625L20.9981 18.0625C20.9758 18.4181 20.766 18.7352 20.4473 18.8945L12.4473 22.8945C12.1658 23.0353 11.8343 23.0353 11.5528 22.8945L3.55276 18.8945C3.23403 18.7352 3.02425 18.4181 3.00198 18.0625L2.00198 2.0625C1.98476 1.78699 2.0825 1.51662 2.27151 1.31543C2.46051 1.1143 2.72402 1 3.00002 1H21ZM4.96194 17.3623L12 20.8818L19.0371 17.3623L19.9356 3H4.06448L4.96194 17.3623Z" fill="#000"/>
</svg>
