<svg width="24" height="24" viewBox="0 0 24 24" fill="none" xmlns="http://www.w3.org/2000/svg">
<path fill-rule="evenodd" clip-rule="evenodd" d="M19 2C20.6569 2 22 3.34315 22 5C22 6.65685 20.6569 8 19 8C18.5371 8 18.1005 7.89135 17.709 7.7041L16.1709 9.24219C16.6947 10.0327 17 10.9807 17 12C17 13.0191 16.6944 13.9664 16.1709 14.7568L17.709 16.2949C18.1004 16.1078 18.5372 16 19 16C20.6569 16 22 17.3431 22 19C22 20.6569 20.6569 22 19 22C17.3431 22 16 20.6569 16 19C16 18.5372 16.1078 18.1004 16.2949 17.709L14.7568 16.1709C13.9664 16.6944 13.0191 17 12 17C10.9807 17 10.0327 16.6947 9.24219 16.1709L7.7041 17.709C7.89135 18.1005 8 18.5371 8 19C8 20.6569 6.65685 22 5 22C3.34315 22 2 20.6569 2 19C2 17.3431 3.34315 16 5 16C5.46245 16 5.89885 16.108 6.29004 16.2949L7.82812 14.7568C7.30481 13.9665 7 13.0189 7 12C7 10.9808 7.30454 10.0327 7.82812 9.24219L6.29004 7.7041C5.89875 7.89111 5.4626 8 5 8C3.34315 8 2 6.65685 2 5C2 3.34315 3.34315 2 5 2C6.65685 2 8 3.34315 8 5C8 5.4626 7.89111 5.89875 7.7041 6.29004L9.24219 7.82812C10.0327 7.30454 10.9808 7 12 7C13.0189 7 13.9665 7.30481 14.7568 7.82812L16.2949 6.29004C16.108 5.89885 16 5.46245 16 5C16 3.34315 17.3431 2 19 2ZM5 18C4.44772 18 4 18.4477 4 19C4 19.5523 4.44772 20 5 20C5.55228 20 6 19.5523 6 19C6 18.4477 5.55228 18 5 18ZM19 18C18.4477 18 18 18.4477 18 19C18 19.5523 18.4477 20 19 20C19.5523 20 20 19.5523 20 19C20 18.4477 19.5523 18 19 18ZM12 9C10.3431 9 9 10.3431 9 12C9 13.6569 10.3431 15 12 15C13.6569 15 15 13.6569 15 12C15 10.3431 13.6569 9 12 9ZM5 4C4.44772 4 4 4.44772 4 5C4 5.55228 4.44772 6 5 6C5.55228 6 6 5.55228 6 5C6 4.44772 5.55228 4 5 4ZM19 4C18.4477 4 18 4.44772 18 5C18 5.55228 18.4477 6 19 6C19.5523 6 20 5.55228 20 5C20 4.44772 19.5523 4 19 4Z" fill="#000"/>
</svg>
