<?xml version="1.0" encoding="UTF-8"?>
<svg width="24px" height="24px" viewBox="0 0 24 24" version="1.1" xmlns="http://www.w3.org/2000/svg" xmlns:xlink="http://www.w3.org/1999/xlink">
    <!-- Generator: Sketch 46 (44423) - http://www.bohemiancoding.com/sketch -->
    <title>contact-info</title>
    <desc>Created with Sketch.</desc>
    <defs></defs>
    <g id="Icons" stroke="none" stroke-width="1" fill="none" fill-rule="evenodd">
        <g id="contact-info" stroke="#000000" stroke-width="2">
            <path d="M5,12 C3.343,12 2,10.657 2,9 C2,7.343 3.343,6 5,6 C6.657,6 8,7.343 8,9 C8,10.657 6.657,12 5,12 Z M9,18 L9,16 C9,13.7504 7.2128,12 4.964,12 L5.0184,12 C2.7688,12 1,13.7504 1,16 L1,18 M12,7 L24,7 M12,17 L22,17 M12,12 L19,12" id="Details"></path>
        </g>
    </g>
</svg>