<?xml version="1.0" encoding="UTF-8"?>
<svg width="24px" height="24px" viewBox="0 0 24 24" version="1.1" xmlns="http://www.w3.org/2000/svg" xmlns:xlink="http://www.w3.org/1999/xlink">
    <!-- Generator: Sketch 46 (44423) - http://www.bohemiancoding.com/sketch -->
    <title>cubes</title>
    <desc>Created with Sketch.</desc>
    <defs></defs>
    <g id="Icons" stroke="none" stroke-width="1" fill="none" fill-rule="evenodd">
        <g id="cubes" stroke="#000000" stroke-width="2">
            <path d="M6.5,10.5 L12,13.5 L17.5,10.5 L17.5,4.5 L12,1.5 L6.5,4.5 L6.5,10.5 Z M6.5,4.5 L12,7.5 L17.5,4.5 M12,7.5 L12,13.5 L12,7.5 Z M1,19.5 L6.5,22.5 L12,19.5 L12,13.5 L6.5,10.5 L1,13.5 L1,19.5 Z M1,13.5 L6.5,16.5 L12,13.5 M6.5,16.5 L6.5,22.5 L6.5,16.5 Z M12,19.5 L17.5,22.5 L23,19.5 L23,13.5 L17.5,10.5 L12,13.5 L12,19.5 Z M12,13.5 L17.5,16.5 L23,13.5 M17.5,16.5 L17.5,22.5 L17.5,16.5 Z" id="Stack"></path>
        </g>
    </g>
</svg>