<?xml version="1.0" encoding="UTF-8"?>
<svg width="24px" height="24px" viewBox="0 0 24 24" version="1.1" xmlns="http://www.w3.org/2000/svg" xmlns:xlink="http://www.w3.org/1999/xlink">
    <!-- Generator: Sketch 46 (44423) - http://www.bohemiancoding.com/sketch -->
    <title>currency</title>
    <desc>Created with Sketch.</desc>
    <defs></defs>
    <g id="Icons" stroke="none" stroke-width="1" fill="none" fill-rule="evenodd">
        <g id="currency" stroke="#000000" stroke-width="2">
            <path d="M1,5 L23,5 L23,19 L1,19 L1,5 Z M2,9 L2,9 C3.65685425,9 5,7.65685425 5,6 M2,15 L2,15 C3.65685425,15 5,16.3431458 5,18 M22,9 L22,9 C20.3431458,9 19,7.65685425 19,6 M22,15 L22,15 C20.3431458,15 19,16.3431458 19,18 M12,16 C13.6568542,16 15,14.209139 15,12 C15,9.790861 13.6568542,8 12,8 C10.3431458,8 9,9.790861 9,12 C9,14.209139 10.3431458,16 12,16 Z" id="Group"></path>
        </g>
    </g>
</svg>