<svg width="24" height="24" viewBox="0 0 24 24" fill="none" xmlns="http://www.w3.org/2000/svg">
<path fill-rule="evenodd" clip-rule="evenodd" d="M9 1C11.7614 1 14 3.23858 14 6V7H17.0391C17.9503 7.00009 18.8126 7.41441 19.3818 8.12598L22.3428 11.8271L22.4932 12.0332C22.8224 12.5252 22.9999 13.1054 23 13.7012V18C23.5523 18 24 18.4477 24 19C24 19.5523 23.5523 20 23 20H19.874C19.43 21.7252 17.8638 23 16 23C14.1362 23 12.57 21.7252 12.126 20H4.87402C4.42998 21.7252 2.86384 23 1 23C0.447715 23 0 22.5523 0 22C0 21.4477 0.447715 21 1 21C2.10457 21 3 20.1046 3 19C3 17.8954 2.10457 17 1 17C0.447715 17 0 16.5523 0 16C0 15.4477 0.447715 15 1 15C2.86384 15 4.42998 16.2748 4.87402 18H12.126C12.57 16.2748 14.1362 15 16 15C17.8638 15 19.43 16.2748 19.874 18H21V13.7012C20.9999 13.5311 20.9564 13.365 20.875 13.2178L20.7812 13.0771L17.8193 9.375C17.6296 9.13806 17.3426 9.00009 17.0391 9H14V13C14 13.5523 13.5523 14 13 14C12.4477 14 12 13.5523 12 13V6C12 4.34315 10.6569 3 9 3H1C0.447715 3 0 2.55228 0 2C0 1.44772 0.447715 1 1 1H9ZM16 17C14.8954 17 14 17.8954 14 19C14 20.1046 14.8954 21 16 21C17.1046 21 18 20.1046 18 19C18 17.8954 17.1046 17 16 17Z" fill="#000"/>
<path d="M8 10C8.55228 10 9 10.4477 9 11C9 11.5523 8.55228 12 8 12H4C3.44772 12 3 11.5523 3 11C3 10.4477 3.44772 10 4 10H8Z" fill="#000"/>
<path d="M4 6C4.55228 6 5 6.44772 5 7C5 7.55228 4.55228 8 4 8H1C0.447715 8 0 7.55228 0 7C0 6.44772 0.447715 6 1 6H4Z" fill="#000"/>
<path d="M8 6C8.55228 6 9 6.44772 9 7C9 7.55228 8.55228 8 8 8H7C6.44772 8 6 7.55228 6 7C6 6.44772 6.44772 6 7 6H8Z" fill="#000"/>
</svg>
