<svg width="24" height="24" viewBox="0 0 24 24" fill="none" xmlns="http://www.w3.org/2000/svg">
<path d="M17 10C17.5523 10 18 10.4477 18 11V18.6055L20.29 16.2959C20.6789 15.9038 21.3119 15.9013 21.7041 16.29C22.0962 16.6789 22.0987 17.3119 21.71 17.7041L17.7451 21.7041C17.5584 21.8924 17.3043 21.9988 17.0391 22C16.807 22.001 16.5829 21.9214 16.4043 21.7764L16.3311 21.71L12.2959 17.71C11.9038 17.3211 11.9012 16.6881 12.29 16.2959C12.6789 15.9038 13.3119 15.9012 13.7041 16.29L16 18.5664V11C16 10.4477 16.4477 10 17 10Z" fill="#000"/>
<path d="M5 14C5.55228 14 6 14.4477 6 15C6 15.5523 5.55228 16 5 16H3C2.44772 16 2 15.5523 2 15C2 14.4477 2.44772 14 3 14H5Z" fill="#000"/>
<path d="M9 10C9.55228 10 10 10.4477 10 11C10 11.5523 9.55228 12 9 12H3C2.44772 12 2 11.5523 2 11C2 10.4477 2.44772 10 3 10H9Z" fill="#000"/>
<path d="M13 6C13.5523 6 14 6.44772 14 7C14 7.55228 13.5523 8 13 8H3C2.44772 8 2 7.55228 2 7C2 6.44772 2.44772 6 3 6H13Z" fill="#000"/>
<path d="M17 2C17.5523 2 18 2.44772 18 3C18 3.55228 17.5523 4 17 4H3C2.44772 4 2 3.55228 2 3C2 2.44772 2.44772 2 3 2H17Z" fill="#000"/>
</svg>
