<svg width="24" height="24" viewBox="0 0 24 24" fill="none" xmlns="http://www.w3.org/2000/svg">
<path fill-rule="evenodd" clip-rule="evenodd" d="M8 9C11.2023 9 12.9933 9.78104 13.9648 10.5244C14.83 11.1865 15 12.2131 15 12.9443V20.0557C15 20.7869 14.83 21.8135 13.9648 22.4756C12.9933 23.219 11.2023 24 8 24C4.99729 24 3.23548 23.3136 2.22656 22.6152L2.03516 22.4756C1.17 21.8135 1 20.7869 1 20.0557V12.9443C1 12.2131 1.17 11.1865 2.03516 10.5244L2.22656 10.3848C3.23548 9.68637 4.99729 9 8 9ZM12.9473 18.8945C11.825 19.4557 10.1728 20 8 20C5.82724 20 4.17502 19.4557 3.05273 18.8945C3.03478 18.8856 3.01768 18.8752 3 18.8662V20.0557C3 20.5659 3.12907 20.795 3.25 20.8877C3.79321 21.3033 5.12526 22 8 22C10.8747 22 12.2068 21.3033 12.75 20.8877C12.8709 20.795 13 20.5659 13 20.0557V18.8662C12.9823 18.8752 12.9652 18.8856 12.9473 18.8945ZM12.9473 14.8945C11.825 15.4557 10.1728 16 8 16C5.82724 16 4.17502 15.4557 3.05273 14.8945C3.03478 14.8856 3.01768 14.8752 3 14.8662V16.5303C3.20818 16.6844 3.5238 16.8937 3.94727 17.1055C4.82498 17.5443 6.17276 18 8 18C9.82724 18 11.175 17.5443 12.0527 17.1055C12.4762 16.8937 12.7918 16.6844 13 16.5303V14.8662C12.9823 14.8752 12.9652 14.8856 12.9473 14.8945ZM2.70605 16.292L2.70508 16.29L2.70312 16.2891L2.70605 16.292ZM13.2949 16.29L13.2939 16.292L13.2969 16.2891L13.2949 16.29ZM8 11C5.12526 11 3.79321 11.6967 3.25 12.1123C3.16576 12.1769 3.07902 12.308 3.0332 12.5537C3.2412 12.7051 3.54544 12.9046 3.94727 13.1055C4.82498 13.5443 6.17276 14 8 14C9.82724 14 11.175 13.5443 12.0527 13.1055C12.4541 12.9048 12.7578 12.7051 12.9658 12.5537C12.92 12.3081 12.8342 12.1769 12.75 12.1123C12.2068 11.6967 10.8747 11 8 11ZM2.70605 12.292L2.70508 12.29L2.70312 12.2891L2.70605 12.292ZM13.2949 12.29L13.2939 12.292L13.2969 12.2891L13.2949 12.29Z" fill="#000"/>
<path fill-rule="evenodd" clip-rule="evenodd" d="M13.5205 1C14.714 1.00005 15.8682 1.42739 16.7744 2.2041L21.2529 6.04297C22.3612 6.99288 23 8.38022 23 9.83984V18C23 20.7614 20.7614 23 18 23H17.5C16.9477 23 16.5 22.5523 16.5 22C16.5 21.4477 16.9477 21 17.5 21H18C19.6569 21 21 19.6569 21 18V9.83984C21 9.55255 20.9577 9.27017 20.8789 9H17C15.3431 9 14 7.65685 14 6V3.04004C13.8423 3.01447 13.6821 3.00001 13.5205 3H6C4.34315 3 3 4.34315 3 6V8C3 8.55228 2.55228 9 2 9C1.44772 9 1 8.55228 1 8V6C1 3.23858 3.23858 1 6 1H13.5205ZM16 6C16 6.55228 16.4477 7 17 7H19.2969L16 4.17383V6Z" fill="#000"/>
</svg>
