<svg width="24" height="24" viewBox="0 0 24 24" fill="none" xmlns="http://www.w3.org/2000/svg">
<path fill-rule="evenodd" clip-rule="evenodd" d="M8 6C9.65685 6 11 7.34315 11 9V10C11 10.5523 11.4477 11 12 11H14V13H12C10.3431 13 9 11.6569 9 10V9C9 8.44772 8.55228 8 8 8C7.44772 8 7 8.44772 7 9V10.2695C7.59733 10.6155 8 11.2601 8 12V12.3418C10.3303 13.1655 12 15.3876 12 18C12 21.3137 9.31371 24 6 24C2.68629 24 0 21.3137 0 18C0 15.3876 1.66968 13.1655 4 12.3418V12C4 11.2601 4.40267 10.6155 5 10.2695V9C5 7.34315 6.34315 6 8 6ZM6 14C3.79086 14 2 15.7909 2 18C2 20.2091 3.79086 22 6 22C8.20914 22 10 20.2091 10 18C10 15.7909 8.20914 14 6 14Z" fill="#000"/>
<path fill-rule="evenodd" clip-rule="evenodd" d="M13.5205 1C14.714 1.00005 15.8682 1.42739 16.7744 2.2041L21.2529 6.04297C22.3612 6.99288 23 8.38022 23 9.83984V18C23 20.7614 20.7614 23 18 23H15C14.4477 23 14 22.5523 14 22C14 21.4477 14.4477 21 15 21H18C19.6569 21 21 19.6569 21 18V9.83984C21 9.55255 20.9577 9.27017 20.8789 9H17C15.3431 9 14 7.65685 14 6V3.04004C13.8423 3.01447 13.6821 3.00001 13.5205 3H6C4.34315 3 3 4.34315 3 6V8C3 8.55228 2.55228 9 2 9C1.44772 9 1 8.55228 1 8V6C1 3.23858 3.23858 1 6 1H13.5205ZM16 6C16 6.55228 16.4477 7 17 7H19.2969L16 4.17383V6Z" fill="#000"/>
</svg>
