<svg width="24" height="24" viewBox="0 0 24 24" fill="none" xmlns="http://www.w3.org/2000/svg">
<path fill-rule="evenodd" clip-rule="evenodd" d="M13.5205 1C14.714 1.00005 15.8682 1.42739 16.7744 2.2041L21.2529 6.04297C22.3612 6.99288 23 8.38022 23 9.83984V18C23 20.7614 20.7614 23 18 23H15C14.4477 23 14 22.5523 14 22C14 21.4477 14.4477 21 15 21H18C19.6569 21 21 19.6569 21 18V9.83984C21 9.55255 20.9577 9.27017 20.8789 9H17C15.3431 9 14 7.65685 14 6V3.04004C13.8423 3.01447 13.6821 3.00001 13.5205 3H6C4.34315 3 3 4.34315 3 6V8C3 8.55228 2.55228 9 2 9C1.44772 9 1 8.55228 1 8V6C1 3.23858 3.23858 1 6 1H13.5205ZM16 6C16 6.55228 16.4477 7 17 7H19.2969L16 4.17383V6Z" fill="#000"/>
<path fill-rule="evenodd" clip-rule="evenodd" d="M6.5 13C7.54612 13 8.62973 13.1244 9.48145 13.5928C9.92539 13.8369 10.3195 14.1818 10.5967 14.6543C10.8735 15.1261 11 15.6665 11 16.25C11 16.8335 10.8735 17.3739 10.5967 17.8457C10.3195 18.3182 9.92539 18.6631 9.48145 18.9072C8.62973 19.3756 7.54612 19.5 6.5 19.5H6.25V22H4V13H6.5ZM6 17.5H6.5C7.45377 17.5 8.12031 17.3743 8.51855 17.1553C8.69944 17.0557 8.80558 16.9473 8.87207 16.834C8.93904 16.7198 9 16.5415 9 16.25C9 15.9585 8.93904 15.7802 8.87207 15.666C8.80558 15.5527 8.69944 15.4443 8.51855 15.3447C8.12031 15.1257 7.45377 15 6.5 15H6V17.5Z" fill="#000"/>
</svg>
