<svg width="24" height="24" viewBox="0 0 24 24" fill="none" xmlns="http://www.w3.org/2000/svg">
<path fill-rule="evenodd" clip-rule="evenodd" d="M13.5205 1C14.714 1.00005 15.8682 1.42739 16.7744 2.2041L21.2529 6.04297C22.3612 6.99288 23 8.38022 23 9.83984V18C23 20.7614 20.7614 23 18 23H17.5C16.9477 23 16.5 22.5523 16.5 22C16.5 21.4477 16.9477 21 17.5 21H18C19.6569 21 21 19.6569 21 18V9.83984C21 9.55255 20.9577 9.27017 20.8789 9H17C15.3431 9 14 7.65685 14 6V3.04004C13.8423 3.01447 13.6821 3.00001 13.5205 3H6C4.34315 3 3 4.34315 3 6V8C3 8.55228 2.55228 9 2 9C1.44772 9 1 8.55228 1 8V6C1 3.23858 3.23858 1 6 1H13.5205ZM16 6C16 6.55228 16.4477 7 17 7H19.2969L16 4.17383V6Z" fill="#000"/>
<path fill-rule="evenodd" clip-rule="evenodd" d="M5.43652 10.6074C6.61668 9.12916 9 9.9639 9 11.8555V20.1592C9 21.9905 6.76617 22.8319 5.55273 21.541L5.43848 21.4092L3.51953 19.0107H2C0.89554 19.0107 0.000178308 18.1152 0 17.0107V15.0107C0 13.9062 0.89543 13.0107 2 13.0107H3.51855L5.43652 10.6074ZM5.08203 14.2578C4.70252 14.7332 4.12683 15.0107 3.51855 15.0107H2V17.0107H3.51953C4.12696 17.0108 4.70154 17.2865 5.08105 17.7607L7 20.1592V11.8555L5.08203 14.2578Z" fill="#000"/>
<path d="M11 10C14.3137 10 17 12.6863 17 16C17 19.3137 14.3137 22 11 22C10.4477 22 10 21.5523 10 21C10 20.4477 10.4477 20 11 20C13.2091 20 15 18.2091 15 16C15 13.7909 13.2091 12 11 12C10.4477 12 10 11.5523 10 11C10 10.4477 10.4477 10 11 10Z" fill="#000"/>
<path d="M11 13C12.6569 13 14 14.3431 14 16C14 17.6569 12.6569 19 11 19C10.4477 19 10 18.5523 10 18C10 17.4823 10.3933 17.0562 10.8975 17.0049L11.1025 16.9951C11.6067 16.9438 12 16.5177 12 16C12 15.4823 11.6067 15.0562 11.1025 15.0049L10.8975 14.9951C10.3933 14.9438 10 14.5177 10 14C10 13.4477 10.4477 13 11 13Z" fill="#000"/>
</svg>
