<svg width="24" height="24" viewBox="0 0 24 24" fill="none" xmlns="http://www.w3.org/2000/svg">
<path d="M9 16.4141L5.41406 20H9V22H3V19.5859L6.58594 16H3V14H9V16.4141Z" fill="#000"/>
<path d="M12.75 22H10.75V14H12.75V22Z" fill="#000"/>
<path fill-rule="evenodd" clip-rule="evenodd" d="M18.5 14C20.1573 14 21.5 15.3427 21.5 17C21.5 18.6573 20.1573 20 18.5 20H16.5V22H14.5V14H18.5ZM16.5 18H18.5C19.0527 18 19.5 17.5527 19.5 17C19.5 16.4473 19.0527 16 18.5 16H16.5V18Z" fill="#000"/>
<path fill-rule="evenodd" clip-rule="evenodd" d="M13.5205 1C14.714 1.00005 15.8682 1.42739 16.7744 2.2041L21.2529 6.04297C22.3612 6.99288 23 8.38022 23 9.83984V11C23 11.5523 22.5523 12 22 12C21.4477 12 21 11.5523 21 11V9.83984C21 9.55255 20.9577 9.27017 20.8789 9H17C15.3431 9 14 7.65685 14 6V3.04004C13.8423 3.01447 13.6821 3.00001 13.5205 3H6C4.34315 3 3 4.34315 3 6V11C3 11.5523 2.55228 12 2 12C1.44772 12 1 11.5523 1 11V6C1 3.23858 3.23858 1 6 1H13.5205ZM16 6C16 6.55228 16.4477 7 17 7H19.2969L16 4.17383V6Z" fill="#000"/>
</svg>
