<svg width="24" height="24" viewBox="0 0 24 24" fill="none" xmlns="http://www.w3.org/2000/svg">
<path d="M7 16H5V22H3V16H1V14H7V16Z" fill="#000"/>
<path d="M12 16.0498L13.4912 14H16.25L13.249 18L16.25 22H13.4912L12 19.9492L10.5088 22H7.75L10.75 18L7.75 14H10.5088L12 16.0498Z" fill="#000"/>
<path d="M23 16H21V22H19V16H17V14H23V16Z" fill="#000"/>
<path fill-rule="evenodd" clip-rule="evenodd" d="M13.5205 1C14.714 1.00005 15.8682 1.42739 16.7744 2.2041L21.2529 6.04297C22.3612 6.99288 23 8.38022 23 9.83984V11C23 11.5523 22.5523 12 22 12C21.4477 12 21 11.5523 21 11V9.83984C21 9.55255 20.9577 9.27017 20.8789 9H17C15.3431 9 14 7.65685 14 6V3.04004C13.8423 3.01447 13.6821 3.00001 13.5205 3H6C4.34315 3 3 4.34315 3 6V11C3 11.5523 2.55228 12 2 12C1.44772 12 1 11.5523 1 11V6C1 3.23858 3.23858 1 6 1H13.5205ZM16 6C16 6.55228 16.4477 7 17 7H19.2969L16 4.17383V6Z" fill="#000"/>
</svg>
