<?xml version="1.0" encoding="UTF-8"?>
<svg width="24px" height="24px" viewBox="0 0 24 24" version="1.1" xmlns="http://www.w3.org/2000/svg" xmlns:xlink="http://www.w3.org/1999/xlink">
    <!-- Generator: Sketch 46 (44423) - http://www.bohemiancoding.com/sketch -->
    <title>document-sound</title>
    <desc>Created with Sketch.</desc>
    <defs></defs>
    <g id="Icons" stroke="none" stroke-width="1" fill="none" fill-rule="evenodd">
        <g id="document-sound" stroke="#000000" stroke-width="2">
            <path d="M2.99787498,8.99999999 L2.99787498,0.999999992 L17.4999998,0.999999992 L20.9999998,4.50000005 L21,23 L18,23 M16,1 L16,6 L21,6 M1,14.0104121 L1,18.0104121 L4,18.0104121 L8,21.0104121 L8,11 L4,14.0104121 L1,14.0104121 Z M11,18 L11,18 C12.1045695,18 13,17.1045695 13,16 C13,14.8954305 12.1045695,14 11,14 M11,22 L11,22 C14.3137085,22 17,19.3137085 17,16 C17,12.6862915 14.3137085,10 11,10" id="Group"></path>
        </g>
    </g>
</svg>