<svg width="24" height="24" viewBox="0 0 24 24" fill="none" xmlns="http://www.w3.org/2000/svg">
<path fill-rule="evenodd" clip-rule="evenodd" d="M13.5205 1C14.714 1.00005 15.8682 1.42739 16.7744 2.2041L21.2529 6.04297C22.3612 6.99288 23 8.38022 23 9.83984V18C23 20.7614 20.7614 23 18 23H15C14.4477 23 14 22.5523 14 22C14 21.4477 14.4477 21 15 21H18C19.6569 21 21 19.6569 21 18V9.83984C21 9.55255 20.9577 9.27017 20.8789 9H17C15.3431 9 14 7.65685 14 6V3.04004C13.8423 3.01447 13.6821 3.00001 13.5205 3H6C4.34315 3 3 4.34315 3 6V8C3 8.55228 2.55228 9 2 9C1.44772 9 1 8.55228 1 8V6C1 3.23858 3.23858 1 6 1H13.5205ZM16 6C16 6.55228 16.4477 7 17 7H19.2969L16 4.17383V6Z" fill="#000"/>
<path d="M5.29297 11.293C5.68349 10.9024 6.31651 10.9024 6.70703 11.293C7.09756 11.6835 7.09756 12.3165 6.70703 12.707L4.41406 15H17C17.5523 15 18 15.4477 18 16C18 16.5523 17.5523 17 17 17H4.41406L6.70703 19.293C7.09756 19.6835 7.09756 20.3165 6.70703 20.707C6.31651 21.0976 5.68349 21.0976 5.29297 20.707L0.585938 16L5.29297 11.293Z" fill="#000"/>
</svg>
