<svg width="24" height="24" viewBox="0 0 24 24" fill="none" xmlns="http://www.w3.org/2000/svg">
<path fill-rule="evenodd" clip-rule="evenodd" d="M0 4.54604L4.93388 4.42225C5.89173 4.40128 6.77759 4.50448 7.67367 4.81357V4.98877C6.90125 5.64776 6.34521 6.43066 5.84032 7.30628L2.84298 7.32713L2.86345 15.8249L4.63515 15.9482L6.44803 15.9276C7.52954 15.917 8.52857 14.1868 8.62154 13.2494L8.88908 10.2935C9.00263 8.99563 9.75446 7.9966 10.9183 7.46077C11.6497 8.68653 11.9689 10.0462 11.9689 11.4779C11.9689 15.9795 9.17796 18.822 4.77927 18.6572L0 18.4719V4.54604ZM20.7035 8.71766C20.4667 7.34751 19.3235 6.66781 17.9531 6.66781C17.0164 6.66781 15.4814 7.07935 15.4301 8.25383C15.4194 8.31585 15.4301 8.36701 15.4506 8.41905L16.0066 10.0154C16.1201 10.3449 16.1406 10.7052 16.1406 11.0556C16.1406 11.4571 16.0891 11.8589 16.0378 12.2607C14.0602 11.7045 12.6694 10.7468 12.6694 8.52174C12.6694 5.52427 15.0901 4.12306 17.8505 4.12306C20.9199 4.12306 23.3199 5.55547 23.5158 8.71766H20.7035ZM12.4635 14.0839L15.2136 14.1046C15.502 15.8659 16.6659 16.3501 18.3964 16.3501C19.4779 16.3501 21.095 16.0927 21.095 14.7123C21.095 13.9913 20.5285 13.6202 19.9517 13.3011L20.0957 10.5511C22.2897 11.1481 24 11.9723 24 14.5472C24 17.5965 21.095 18.8839 18.417 18.8839C16.5013 18.8839 14.0189 18.3276 12.9989 16.515C12.6797 15.9586 12.3812 15.2377 12.3812 14.5887C12.3812 14.5373 12.3912 14.4857 12.4017 14.4343L12.4635 14.0839ZM19.7047 11.457C19.7047 13.0332 19.2824 14.506 18.5614 15.8864C18.3757 15.8965 18.1904 15.917 18.005 15.917C17.4075 15.917 15.9553 15.5157 15.9553 14.7844C15.9553 14.661 15.9757 14.5372 16.017 14.4237L16.5627 12.6008C16.6763 12.2402 16.6351 11.8074 16.6351 11.4472C16.6351 10.0357 15.9965 9.15001 15.9448 8.1818C15.9141 7.50235 17.2016 7.18252 17.655 7.18252C17.9639 7.18252 18.2727 7.18252 18.5816 7.21334C19.3235 8.52184 19.7047 9.94327 19.7047 11.457ZM10.6096 17.0297L11.2584 16.103L12.3398 16.1233C12.855 17.2461 13.6995 18.0084 14.7295 18.6676C13.9776 18.915 13.236 19.0384 12.4531 19.0384C11.3098 19.0384 10.2384 18.7808 9.17769 18.3791L10.6096 17.0297ZM12.5357 6.70871C12.3706 6.69848 12.2059 6.68837 12.0413 6.68837C10.3004 6.68837 8.71412 8.2125 8.50822 9.92243L8.05488 13.6409C7.99311 14.1664 7.53976 14.7018 7.19972 15.0831C6.91159 15.3918 6.57168 15.4537 6.14928 15.4537H6.09774C5.56217 14.2179 5.28402 12.9406 5.28402 11.5912C5.28402 7.35785 7.65307 4 12.0617 4C12.927 4 13.7508 4.16472 14.5644 4.39133C13.6995 5.02985 13.0196 5.74075 12.5357 6.70871Z" fill="#333333"/>
</svg>
