<?xml version="1.0" encoding="UTF-8"?>
<svg width="24px" height="24px" viewBox="0 0 24 24" version="1.1" xmlns="http://www.w3.org/2000/svg" xmlns:xlink="http://www.w3.org/1999/xlink">
    <!-- Generator: Sketch 46 (44423) - http://www.bohemiancoding.com/sketch -->
    <title>drive-cage</title>
    <desc>Created with Sketch.</desc>
    <defs></defs>
    <g id="Icons" stroke="none" stroke-width="1" fill="none" fill-rule="evenodd">
        <g id="drive-cage" stroke="#000000" stroke-width="2">
            <path d="M1,23 L1,2 L23,2 L23,23 M1,8 L23,8 L1,8 Z M1,14 L23,14 L1,14 Z M1,20 L23,20 L1,20 Z M4,5 L16,5 L4,5 Z M18,5 L20,5 L18,5 Z M18,11 L20,11 L18,11 Z M18,17 L20,17 L18,17 Z M4,11 L16,11 L4,11 Z M4,17 L16,17 L4,17 Z" id="Cage"></path>
        </g>
    </g>
</svg>