<svg width="24" height="24" viewBox="0 0 24 24" fill="none" xmlns="http://www.w3.org/2000/svg">
<path d="M17.2933 8.29297C17.6838 7.90261 18.3169 7.9025 18.7074 8.29297C19.0977 8.68345 19.0977 9.31655 18.7074 9.70703L15.9144 12.5L18.7074 15.293C19.0977 15.6835 19.0977 16.3165 18.7074 16.707C18.3169 17.0975 17.6838 17.0974 17.2933 16.707L14.5003 13.9141L11.7074 16.707C11.3169 17.0975 10.6838 17.0974 10.2933 16.707C9.90278 16.3165 9.90278 15.6835 10.2933 15.293L13.0863 12.5L10.2933 9.70703C9.90278 9.31651 9.90278 8.68349 10.2933 8.29297C10.6838 7.90261 11.3169 7.9025 11.7074 8.29297L14.5003 11.0859L17.2933 8.29297Z" fill="#000"/>
<path fill-rule="evenodd" clip-rule="evenodd" d="M19.0003 3C21.7616 3.00018 24.0003 5.23868 24.0003 8V17C24.0003 19.7613 21.7616 21.9998 19.0003 22H8.88803C7.39413 22 5.97845 21.3318 5.02865 20.1787L1.3226 15.6787C-0.197865 13.8324 -0.197866 11.1676 1.3226 9.32129L5.02865 4.82129C5.97845 3.66821 7.39413 3 8.88803 3H19.0003ZM8.88803 5C8.04755 5 7.24815 5.35249 6.68197 5.9668L6.57162 6.09277L2.86655 10.5928C1.95427 11.7005 1.95427 13.2995 2.86655 14.4072L6.57162 18.9072C7.1415 19.5992 7.99162 20 8.88803 20H19.0003C20.657 19.9998 22.0003 18.6567 22.0003 17V8C22.0003 6.34325 20.657 5.00018 19.0003 5H8.88803Z" fill="#000"/>
</svg>
