<svg width="24" height="24" viewBox="0 0 24 24" fill="none" xmlns="http://www.w3.org/2000/svg">
<path d="M16 16C18.2091 16 20 14.2091 20 12C20 9.79086 18.2091 8 16 8C13.7909 8 12 9.79086 12 12C12 14.2091 13.7909 16 16 16Z" fill="#19BCFE"/>
<path fill-rule="evenodd" clip-rule="evenodd" d="M8 24C10.2091 24 12 22.2091 12 20C12 19.3969 12 18.0636 12 16C10.203 16 8.86971 16 8 16C5.79086 16 4 17.7909 4 20C4 22.2091 5.79086 24 8 24Z" fill="#09CF83"/>
<path fill-rule="evenodd" clip-rule="evenodd" d="M8 16C8.73638 16 10.0697 16 12 16V8C10.0697 8 8.73638 8 8 8C5.79086 8 4 9.79086 4 12C4 14.2091 5.79086 16 8 16Z" fill="#A259FF"/>
<path fill-rule="evenodd" clip-rule="evenodd" d="M8 8C8.73638 8 10.0697 8 12 8V0C10.0697 0 8.73638 0 8 0C5.79086 0 4 1.79086 4 4C4 6.20914 5.79086 8 8 8Z" fill="#F24E1E"/>
<path fill-rule="evenodd" clip-rule="evenodd" d="M16 8H12V0H16C18.2091 0 20 1.79086 20 4C20 6.20914 18.2091 8 16 8Z" fill="#FF7262"/>
</svg>
