<svg width="24" height="24" viewBox="0 0 24 24" fill="none" xmlns="http://www.w3.org/2000/svg">
<path fill-rule="evenodd" clip-rule="evenodd" d="M6 0.99992C8.69705 0.99992 10.4678 1.68374 11.9609 2.33293C13.4525 2.98143 14.4992 3.49993 16 3.49992C17.3799 3.49991 18.7657 3.24127 20.166 2.71379C21.4394 2.2341 22.9999 3.09641 23 4.61808V13.1718C22.9999 13.9398 22.7063 14.782 21.9941 15.3368C20.3988 16.5793 18.5416 17.0125 16.9922 16.9999C14.7919 16.9819 12.858 16.1402 11.1328 15.4081C9.34985 14.6515 7.76584 13.9999 6 13.9999C5.22989 13.9999 4.57369 14.0034 3.99121 14.1093C3.59 14.1823 3.26593 14.2985 3 14.4716V21.9999C3 22.5522 2.55228 22.9999 2 22.9999C1.44772 22.9999 1 22.5522 1 21.9999V3.82805C1.0001 3.10734 1.26723 2.12444 2.18848 1.62785L2.41797 1.51359C3.57992 0.979492 4.94354 0.99992 6 0.99992ZM6 2.99992C4.73288 2.99992 3.81524 3.02348 3.1377 3.38859C3.12546 3.39519 3.09688 3.41327 3.06445 3.48332C3.02882 3.56039 3.00005 3.67943 3 3.82805V12.2929C3.21086 12.2287 3.42328 12.1798 3.63379 12.1415C4.42628 11.9975 5.27015 11.9999 6 11.9999C8.23378 11.9999 10.1814 12.8321 11.9141 13.5673C13.7047 14.3271 15.272 14.9856 17.0078 14.9999C18.195 15.0096 19.5891 14.6751 20.7646 13.7597C20.889 13.6628 20.9999 13.4643 21 13.1718V4.61613C20.9983 4.61365 20.9924 4.60585 20.9795 4.59758C20.9452 4.57575 20.9045 4.5723 20.8711 4.58488C19.2607 5.19151 17.6367 5.49991 16 5.49992C14.0009 5.49993 12.5474 4.76839 11.1641 4.16691C9.78227 3.56614 8.30279 2.99992 6 2.99992Z" fill="#000"/>
</svg>
