<?xml version="1.0" encoding="UTF-8"?>
<svg width="24px" height="24px" viewBox="0 0 24 24" version="1.1" xmlns="http://www.w3.org/2000/svg" xmlns:xlink="http://www.w3.org/1999/xlink">
    <!-- Generator: Sketch 46 (44423) - http://www.bohemiancoding.com/sketch -->
    <title>folder-cycle</title>
    <desc>Created with Sketch.</desc>
    <defs></defs>
    <g id="Icons" stroke="none" stroke-width="1" fill="none" fill-rule="evenodd">
        <g id="folder-cycle" stroke="#000000" stroke-width="2">
            <path d="M7.0001,18 C7.0001,15.239 9.2391,13 12.0001,13 C13.9851,13 15.6991,14.156 16.5,16 M17.0001,18 C17.0001,20.761 14.7611,23 12.0001,23 C10.0151,23 8.3011,21.844 7.5,20 M13.0001,16 L17.0001,16 L17.0001,12 M11.0001,20 L7.0001,20 L7.0001,24 M4.0001,23 L1.0001,23 L1.0001,5 L1.0001,1 L9.0001,1 L12.0001,5 L23.0001,5 L23.0001,23 L19.0001,23 M1.0001,9 L23.0001,9 M4,23 L1,23 L1,1 L9,1 L12,5 L23,5 L23,23 L19,23 M1,9 L23,9" id="Group"></path>
        </g>
    </g>
</svg>