<?xml version="1.0" encoding="UTF-8"?>
<svg width="24px" height="24px" viewBox="0 0 24 24" version="1.1" xmlns="http://www.w3.org/2000/svg" xmlns:xlink="http://www.w3.org/1999/xlink">
    <!-- Generator: Sketch 46 (44423) - http://www.bohemiancoding.com/sketch -->
    <title>form-cut</title>
    <desc>Created with Sketch.</desc>
    <defs></defs>
    <g id="Icons" stroke="none" stroke-width="1" fill="none" fill-rule="evenodd">
        <g id="form-cut" stroke="#000000" stroke-width="2">
            <path d="M18,7.52380952 L10.1428571,13.8095238 L18,7.52380952 Z M18,15.9047619 L10.1428571,9.61904762 L18,15.9047619 Z M8.57142857,10.1428571 C9.43930461,10.1428571 10.1428571,9.43930461 10.1428571,8.57142857 C10.1428571,7.70355254 9.43930461,7 8.57142857,7 C7.70355254,7 7,7.70355254 7,8.57142857 C7,9.43930461 7.70355254,10.1428571 8.57142857,10.1428571 Z M8.57142857,16.4285714 C9.43930461,16.4285714 10.1428571,15.7250189 10.1428571,14.8571429 C10.1428571,13.9892668 9.43930461,13.2857143 8.57142857,13.2857143 C7.70355254,13.2857143 7,13.9892668 7,14.8571429 C7,15.7250189 7.70355254,16.4285714 8.57142857,16.4285714 Z" id="Scissors"></path>
        </g>
    </g>
</svg>