<?xml version="1.0" encoding="UTF-8"?>
<svg width="24px" height="24px" viewBox="0 0 24 24" version="1.1" xmlns="http://www.w3.org/2000/svg" xmlns:xlink="http://www.w3.org/1999/xlink">
    <!-- Generator: Sketch 46 (44423) - http://www.bohemiancoding.com/sketch -->
    <title>gamepad</title>
    <desc>Created with Sketch.</desc>
    <defs></defs>
    <g id="Icons" stroke="none" stroke-width="1" fill="none" fill-rule="evenodd">
        <g id="gamepad" stroke="#000000" stroke-width="2">
            <path d="M12,16 C11,16 10.0029053,16.9956421 9,18 C8.00290526,18.9985389 7.99709474,19.0029053 7,20 C4,23 1,21 1,18 C1,15 1.00000002,13.969213 1,11 C0.999999979,8.03078698 3,6 6,6 C8.00000008,6 12,6 12,6 C12,6 15.9999999,6 18,6 C21,6 23,8.03078698 23,11 C23,13.969213 23,15 23,18 C23,21 20,23 17,20 C16.0029053,19.0029053 15.9970947,18.9985389 15,18 C13.9970947,16.9956421 13,16 12,16 Z M12,6 L12,2 M19,15 C19.5522847,15 20,14.5522847 20,14 C20,13.4477153 19.5522847,13 19,13 C18.4477153,13 18,13.4477153 18,14 C18,14.5522847 18.4477153,15 19,15 Z M15,12 C15.5522847,12 16,11.5522847 16,11 C16,10.4477153 15.5522847,10 15,10 C14.4477153,10 14,10.4477153 14,11 C14,11.5522847 14.4477153,12 15,12 Z M4,12 L10,12 M7,9 L7,15" id="Controller"></path>
        </g>
    </g>
</svg>