<?xml version="1.0" encoding="UTF-8"?>
<svg width="24px" height="24px" viewBox="0 0 24 24" version="1.1" xmlns="http://www.w3.org/2000/svg" xmlns:xlink="http://www.w3.org/1999/xlink">
    <!-- Generator: Sketch 46 (44423) - http://www.bohemiancoding.com/sketch -->
    <title>gift</title>
    <desc>Created with Sketch.</desc>
    <defs></defs>
    <g id="Icons" stroke="none" stroke-width="1" fill="none" fill-rule="evenodd">
        <g id="gift" stroke="#000000" stroke-width="2">
            <path d="M3,11 L21,11 L21,23 L3,23 L3,11 Z M2,11 L2,7 L22,7 L22,11 L2,11 Z M12,23 L12,7 L12,23 Z M7,7 L12,7 C12,7 10,2 7,2 C3.5,2 3,7 7,7 Z M17.1843819,7 L12.1843819,7 C12.1843819,7 14,2 17.1843819,2 C20.5,2 21.1843819,7 17.1843819,7 Z" id="Combined-Shape"></path>
        </g>
    </g>
</svg>