<svg width="24" height="25" viewBox="0 0 24 25" fill="none" xmlns="http://www.w3.org/2000/svg">
<path fill-rule="evenodd" clip-rule="evenodd" d="M5 1.70996C7.76142 1.70996 10 3.94854 10 6.70996V11.5029L12.5586 9.1416C13.6482 8.13583 15.3088 8.07684 16.4668 9.00293L22.625 13.9287C23.0563 14.2737 23.1263 14.9037 22.7812 15.335C22.5839 15.5817 22.2931 15.7088 22 15.709V21.71C22.5523 21.71 23 22.1577 23 22.71C23 23.2622 22.5523 23.71 22 23.71H2C1.44772 23.71 1 23.2622 1 22.71C1 22.1577 1.44772 21.71 2 21.71H4V19.6094C1.71781 19.1461 0 17.1289 0 14.71V6.70996C0 3.94854 2.23858 1.70996 5 1.70996ZM8 18.709C7.41848 19.1459 6.73911 19.4593 6 19.6094V21.71H8V18.709ZM15.2178 10.5645C14.8318 10.2559 14.2782 10.2761 13.915 10.6113L10 14.2246V21.71H12V18.71C12 17.6054 12.8954 16.71 14 16.71H16C17.1046 16.71 18 17.6054 18 18.71V21.71H20V14.71C20 14.6106 20.014 14.5144 20.041 14.4238L15.2178 10.5645ZM14 21.71H16V18.71H14V21.71ZM5 3.70996C3.34315 3.70996 2 5.05311 2 6.70996V14.71C2 16.0157 2.83548 17.123 4 17.5352V10.71C4 10.1577 4.44772 9.70996 5 9.70996C5.55228 9.70996 6 10.1577 6 10.71V17.5352C6.85662 17.2319 7.53248 16.5531 7.83105 15.6943C7.62134 15.6585 7.42117 15.557 7.26562 15.3887C6.89116 14.983 6.9159 14.3502 7.32129 13.9756L8 13.3486V6.70996C8 5.05311 6.65685 3.70996 5 3.70996Z" fill="#000"/>
<path fill-rule="evenodd" clip-rule="evenodd" d="M19.5 1.70996C21.433 1.70996 23 3.27696 23 5.20996C23 7.14296 21.433 8.70996 19.5 8.70996C17.567 8.70996 16 7.14296 16 5.20996C16 3.27696 17.567 1.70996 19.5 1.70996ZM19.5 3.70996C18.6716 3.70996 18 4.38153 18 5.20996C18 6.03839 18.6716 6.70996 19.5 6.70996C20.3284 6.70996 21 6.03839 21 5.20996C21 4.38153 20.3284 3.70996 19.5 3.70996Z" fill="#000"/>
</svg>
