<?xml version="1.0" encoding="UTF-8"?>
<svg width="24px" height="24px" viewBox="0 0 24 24" version="1.1" xmlns="http://www.w3.org/2000/svg" xmlns:xlink="http://www.w3.org/1999/xlink">
    <!-- Generator: Sketch 46 (44423) - http://www.bohemiancoding.com/sketch -->
    <title>host-maintenance</title>
    <desc>Created with Sketch.</desc>
    <defs></defs>
    <g id="Icons" stroke="none" stroke-width="1" fill="none" fill-rule="evenodd">
        <g id="host-maintenance" stroke="#000000" stroke-width="2">
            <path d="M14,23 L20,17 M21,14 C19.8954305,14 19,14.8954305 19,16 C19,17.1045695 19.8954305,18 21,18 C22.1045695,18 23,17.1045695 23,16 M17,4 L18,4 L18,5 L17,5 L17,4 Z M10,23 L3,23 L3,1 L3,1 L21,1 L21,11 M3,13 L17,13 M3,18 L13,18 M3,8 L21,8" id="Group"></path>
        </g>
    </g>
</svg>