<svg width="24" height="24" viewBox="0 0 24 24" fill="none" xmlns="http://www.w3.org/2000/svg">
<path fill-rule="evenodd" clip-rule="evenodd" d="M12 0C16.5523 0 20 3.44838 20 8.00098C19.9998 10.3537 18.8097 12.0874 17.8086 13.4639C17.2863 14.1819 16.8356 14.7741 16.498 15.3789C16.1707 15.9656 16 16.4824 16 17.001V20.001C15.9999 21.1548 15.7105 22.2045 14.957 22.958C14.2034 23.7114 13.1539 24.001 12 24.001C10.8461 24.001 9.79662 23.7114 9.04297 22.958C8.3835 22.2985 8.07933 21.4121 8.01367 20.4277L8 20.001V17.001C8 16.4824 7.82935 15.9656 7.50195 15.3789C7.1644 14.7741 6.71368 14.1819 6.19141 13.4639C5.19028 12.0874 4.00016 10.3537 4 8.00098C4 3.44838 7.44774 0 12 0ZM10 20.001C10.0001 20.8463 10.2108 21.2977 10.457 21.5439C10.7034 21.7901 11.1546 22.001 12 22.001C12.8454 22.001 13.2966 21.7901 13.543 21.5439C13.7892 21.2977 13.9999 20.8463 14 20.001V19.001H10V20.001ZM12 2.00098C8.55226 2.00098 6 4.553 6 8.00098C6.00016 9.64799 6.80991 10.915 7.80859 12.2881C8.28615 12.9447 8.83574 13.6656 9.24805 14.4043C9.67038 15.1611 10 16.0197 10 17.001H14C14 16.0197 14.3296 15.1611 14.752 14.4043C15.1643 13.6656 15.7139 12.9447 16.1914 12.2881C17.1901 10.915 17.9998 9.64799 18 8.00098C18 4.553 15.4477 2.00098 12 2.00098Z" fill="#000"/>
</svg>
