<?xml version="1.0" encoding="UTF-8"?>
<svg width="24px" height="24px" viewBox="0 0 24 24" version="1.1" xmlns="http://www.w3.org/2000/svg" xmlns:xlink="http://www.w3.org/1999/xlink">
    <!-- Generator: Sketch 46 (44423) - http://www.bohemiancoding.com/sketch -->
    <title>install</title>
    <desc>Created with Sketch.</desc>
    <defs></defs>
    <g id="Icons" stroke="none" stroke-width="1" fill="none" fill-rule="evenodd">
        <g id="install" stroke="#000000" stroke-width="2">
            <path d="M19,13.5 L19,17.5 L12,22 L5,17.5 L5,13.5 M12,22 L12,13.5 M18.5,8.5 L12,4.5 L15.5,2 L22,6 L18.5,8.5 L18.5,8.5 L18.5,8.5 Z M5.5,8.5 L12,4.5 L8.5,2 L2,6 L5.5,8.5 L5.5,8.5 L5.5,8.5 Z M18.5,9 L12,13 L15.5,15.5 L22,11.5 L18.5,9 L18.5,9 L18.5,9 Z M5.5,9 L12,13 L8.5,15.5 L2,11.5 L5.5,9 L5.5,9 Z" id="box"></path>
        </g>
    </g>
</svg>