<svg width="24" height="24" viewBox="0 0 24 24" fill="none" xmlns="http://www.w3.org/2000/svg">
<path fill-rule="evenodd" clip-rule="evenodd" d="M15.735 1C17.4829 1.00029 18.8481 2.48453 18.7281 4.20508L18.7115 4.37207L18.6178 5.11621C19.9229 5.4896 20.8523 6.72212 20.7877 8.13379L20.775 8.29883L20.5885 10.165C21.9393 10.6335 22.8281 12.0368 22.5553 13.5371L21.2828 20.5371C21.0233 21.9633 19.7803 22.9999 18.3307 23H5.66955C4.21983 23 2.97692 21.9634 2.7174 20.5371L1.44494 13.5371C1.17215 12.0368 2.06091 10.6335 3.41173 10.165L3.22521 8.29883C3.07727 6.81947 4.02619 5.50334 5.38146 5.11523L5.28869 4.37207C5.06491 2.58154 6.46175 1 8.26622 1H15.735ZM4.39708 12C3.77325 12 3.30123 12.5649 3.41271 13.1787L4.68517 20.1787C4.77164 20.6542 5.18627 21 5.66955 21H18.3307C18.8139 20.9999 19.2286 20.6541 19.3151 20.1787L20.5875 13.1787C20.699 12.5651 20.2277 12.0003 19.6041 12H4.39708ZM6.21056 7C5.61894 7 5.15657 7.51092 5.21544 8.09961L5.40587 10H18.5953L18.7858 8.09961L18.7906 7.99023C18.7862 7.4492 18.345 7.00032 17.7906 7H6.21056ZM8.26622 3C7.66475 3 7.1985 3.5272 7.27306 4.12402L7.38341 5H16.6178L16.7272 4.12402L16.735 4.0127C16.7429 3.46331 16.2985 3.00028 15.735 3H8.26622Z" fill="#000"/>
</svg>
