<svg width="24" height="24" viewBox="0 0 24 24" fill="none" xmlns="http://www.w3.org/2000/svg">
<path fill-rule="evenodd" clip-rule="evenodd" d="M20.4517 20.4503H16.8923V14.8807C16.8923 13.5525 16.8698 11.844 15.0428 11.844C13.191 11.844 12.9082 13.2915 12.9082 14.7855V20.4503H9.3525V8.997H12.765V10.563H12.8138C13.2885 9.66225 14.4495 8.71275 16.1812 8.71275C19.7857 8.71275 20.4517 11.0842 20.4517 14.169V20.4503ZM5.33925 7.4325C4.1955 7.4325 3.27375 6.50775 3.27375 5.36775C3.27375 4.2285 4.1955 3.30375 5.33925 3.30375C6.47775 3.30375 7.4025 4.2285 7.4025 5.36775C7.4025 6.50775 6.47775 7.4325 5.33925 7.4325ZM7.11975 20.4503H3.5565V8.997H7.11975V20.4503ZM23.0002 0H1.0005C0.44775 0 0 0.44775 0 0.99975V22.9995C0 23.5522 0.44775 24 1.0005 24H23.0002C23.5522 24 24 23.5522 24 22.9995V0.99975C24 0.44775 23.5522 0 23.0002 0Z" fill="#0077B5"/>
</svg>
