<svg width="24" height="24" viewBox="0 0 24 24" fill="none" xmlns="http://www.w3.org/2000/svg">
<path d="M4.00977 17C4.56205 17 5.00977 17.4477 5.00977 18C5.00977 18.5523 4.56205 19 4.00977 19H4C3.44772 19 3 18.5523 3 18C3 17.4477 3.44772 17 4 17H4.00977Z" fill="#000"/>
<path d="M14 17C14.5523 17 15 17.4477 15 18C15 18.5523 14.5523 19 14 19H8C7.44772 19 7 18.5523 7 18C7 17.4477 7.44772 17 8 17H14Z" fill="#000"/>
<path d="M4.00977 13C4.56205 13 5.00977 13.4477 5.00977 14C5.00977 14.5523 4.56205 15 4.00977 15H4C3.44772 15 3 14.5523 3 14C3 13.4477 3.44772 13 4 13H4.00977Z" fill="#000"/>
<path d="M20 13C20.5523 13 21 13.4477 21 14C21 14.5523 20.5523 15 20 15H8C7.44772 15 7 14.5523 7 14C7 13.4477 7.44772 13 8 13H20Z" fill="#000"/>
<path d="M4.00977 9C4.56205 9 5.00977 9.44772 5.00977 10C5.00977 10.5523 4.56205 11 4.00977 11H4C3.44772 11 3 10.5523 3 10C3 9.44772 3.44772 9 4 9H4.00977Z" fill="#000"/>
<path d="M17 9C17.5523 9 18 9.44772 18 10C18 10.5523 17.5523 11 17 11H8C7.44772 11 7 10.5523 7 10C7 9.44772 7.44772 9 8 9H17Z" fill="#000"/>
<path d="M4.00977 5C4.56205 5 5.00977 5.44772 5.00977 6C5.00977 6.55228 4.56205 7 4.00977 7H4C3.44772 7 3 6.55228 3 6C3 5.44772 3.44772 5 4 5H4.00977Z" fill="#000"/>
<path d="M20 5C20.5523 5 21 5.44772 21 6C21 6.55228 20.5523 7 20 7H8C7.44772 7 7 6.55228 7 6C7 5.44772 7.44772 5 8 5H20Z" fill="#000"/>
</svg>
