<svg width="24" height="24" viewBox="0 0 24 24" fill="none" xmlns="http://www.w3.org/2000/svg">
<path d="M18 1C20.7614 1.00003 23 3.23862 23 6V18C23 20.7614 20.7614 23 18 23H16C15.4478 23 15 22.5523 15 22C15 21.4478 15.4478 21 16 21H18C19.6568 21 21 19.6568 21 18V6C21 4.34319 19.6568 3.00003 18 3H16C15.4478 2.99995 15 2.55225 15 2C15 1.44777 15.4478 1.00005 16 1H18Z" fill="#000"/>
<path d="M9.29297 6.29297C9.6835 5.90251 10.3165 5.90246 10.707 6.29297L15.707 11.293C16.0975 11.6835 16.0975 12.3165 15.707 12.707L10.707 17.707C10.3165 18.0976 9.68349 18.0976 9.29297 17.707C8.90244 17.3165 8.90244 16.6835 9.29297 16.293L12.5859 13H2C1.44772 13 1 12.5523 1 12C1.00003 11.4477 1.44774 11 2 11H12.5859L9.29297 7.70703C8.90244 7.31651 8.90244 6.68349 9.29297 6.29297Z" fill="#000"/>
</svg>
