<?xml version="1.0" encoding="UTF-8"?>
<svg width="24px" height="24px" viewBox="0 0 24 24" version="1.1" xmlns="http://www.w3.org/2000/svg" xmlns:xlink="http://www.w3.org/1999/xlink">
    <!-- Generator: Sketch 46 (44423) - http://www.bohemiancoding.com/sketch -->
    <title>magic</title>
    <desc>Created with Sketch.</desc>
    <defs></defs>
    <g id="Icons" stroke="none" stroke-width="1" fill="none" fill-rule="evenodd">
        <g id="magic" stroke="#000000" stroke-width="2">
            <path d="M2.5,19.5 L19.5,2.5 L21.5,4.5 L4.5,21.5 L2.5,19.5 Z M3,20 L15,8 L16,9 L4,21 L3,20 Z M5.5,3 L5,3.5 L5.5,4 L6,3.5 L5.5,3 Z M11.5,3 L11,3.5 L11.5,4 L12,3.5 L11.5,3 Z M8.5,6 L8,6.5 L8.5,7 L9,6.5 L8.5,6 Z M20.5,12 L20,12.5 L20.5,13 L21,12.5 L20.5,12 Z M20.5,17 L20,17.5 L20.5,18 L21,17.5 L20.5,17 Z" id="Group"></path>
        </g>
    </g>
</svg>