<?xml version="1.0" encoding="UTF-8"?>
<svg width="24px" height="24px" viewBox="0 0 24 24" version="1.1" xmlns="http://www.w3.org/2000/svg" xmlns:xlink="http://www.w3.org/1999/xlink">
    <!-- Generator: Sketch 46 (44423) - http://www.bohemiancoding.com/sketch -->
    <title>manual</title>
    <desc>Created with Sketch.</desc>
    <defs></defs>
    <g id="Icons" stroke="none" stroke-width="1" fill="none" fill-rule="evenodd">
        <g id="manual" stroke="#000000" stroke-width="2">
            <path d="M14,9 L14,17 L14,9 Z M10,9 L10,17 L10,9 Z M8,5 C8,7.209 9.791,9 12,9 C14.209,9 16,7.209 16,5 C16,2.791 14.209,1 12,1 C9.791,1 8,2.791 8,5 Z M4,23 L20,23 L20,20 L4,20 L4,23 Z M7,20 L17,20 L17,17 L7,17 L7,20 Z" id="Gear"></path>
        </g>
    </g>
</svg>