<svg width="24" height="24" viewBox="0 0 24 24" fill="none" xmlns="http://www.w3.org/2000/svg">
<path d="M12 5C13.1046 5 14 5.89538 14 7C14 8.10462 13.1046 9 12 9C10.8954 9 10 8.10462 10 7C10 5.89538 10.8954 5 12 5Z" fill="#000"/>
<path fill-rule="evenodd" clip-rule="evenodd" d="M12 0C15.2261 0 18.5044 2.26469 18.9473 6.10742C18.9634 6.11555 18.9802 6.12275 18.9961 6.13184L22.4961 8.13184C22.8077 8.30988 23 8.64114 23 9V22C23 22.3466 22.8202 22.6684 22.5254 22.8506C22.2306 23.0327 21.8626 23.0495 21.5527 22.8945L15.9424 20.0889L8.35156 22.9365C8.0912 23.0342 7.80145 23.0189 7.55273 22.8945L1.55273 19.8945C1.21395 19.7251 1 19.3788 1 19V6C1 5.66392 1.16868 5.3501 1.44922 5.16504C1.72977 4.98004 2.08465 4.94876 2.39355 5.08105L5.03809 6.21387C5.43191 2.30633 8.74408 0 12 0ZM15 14.8164C14.4876 15.3623 14.0073 15.8306 13.6143 16.1924C13.3222 16.4612 13.0782 16.6744 12.9053 16.8213C12.8189 16.8946 12.7502 16.9518 12.7021 16.9912C12.6781 17.0109 12.6588 17.0264 12.6455 17.0371C12.6389 17.0424 12.6337 17.0467 12.6299 17.0498C12.628 17.0513 12.625 17.0537 12.625 17.0537L12.623 17.0547L12 16.2725L12.6221 17.0557C12.2578 17.3451 11.7422 17.3451 11.3779 17.0557L12 16.2725L11.377 17.0547L11.375 17.0537C11.375 17.0537 11.372 17.0513 11.3701 17.0498C11.3663 17.0467 11.3611 17.0424 11.3545 17.0371C11.3412 17.0264 11.3219 17.0109 11.2979 16.9912C11.2498 16.9518 11.1811 16.8946 11.0947 16.8213C10.9218 16.6744 10.6778 16.4612 10.3857 16.1924C9.99273 15.8306 9.51239 15.3623 9 14.8164V20.5566L15 18.3066V14.8164ZM3 18.3818L7 20.3818V13C7 12.8322 7.04123 12.674 7.11426 12.5352C6.25621 11.325 5.486 9.9159 5.16211 8.43945C5.14361 8.43278 5.12476 8.42679 5.10645 8.41895L3 7.51562V18.3818ZM18.8545 8.35352C18.542 9.86126 17.7595 11.3016 16.8848 12.5352C16.9579 12.6741 17 12.832 17 13V18.3818L21 20.3818V9.58008L18.8545 8.35352ZM12 2C9.4686 2 7 3.88241 7 7C7 8.86323 8.27892 10.9394 9.76074 12.6738C10.4779 13.5132 11.1974 14.2219 11.7393 14.7207C11.8313 14.8055 11.9195 14.8832 12 14.9551C12.0805 14.8832 12.1687 14.8055 12.2607 14.7207C12.8026 14.2219 13.5221 13.5132 14.2393 12.6738C15.7211 10.9394 17 8.86323 17 7C17 3.88241 14.5314 2 12 2Z" fill="#000"/>
</svg>
