<svg width="24" height="25" viewBox="0 0 24 25" fill="none" xmlns="http://www.w3.org/2000/svg">
<path fill-rule="evenodd" clip-rule="evenodd" d="M20 1.27686C21.6569 1.27686 23 2.62 23 4.27686V16.2769C23 17.9337 21.6569 19.2769 20 19.2769H16.5967L16.9307 21.2769H18V23.2769H6V21.2769H7.06934L7.40332 19.2769H4C2.34315 19.2769 1 17.9337 1 16.2769V4.27686C1 2.62 2.34315 1.27686 4 1.27686H20ZM9.09668 21.2769H14.9033L14.5693 19.2769H9.43066L9.09668 21.2769ZM4 3.27686C3.44772 3.27686 3 3.72457 3 4.27686V16.2769C3 16.8291 3.44772 17.2769 4 17.2769H20C20.5523 17.2769 21 16.8291 21 16.2769V4.27686C21 3.72457 20.5523 3.27686 20 3.27686H4Z" fill="#000"/>
</svg>
