<svg width="24" height="24" viewBox="0 0 24 24" fill="none" xmlns="http://www.w3.org/2000/svg">
<path fill-rule="evenodd" clip-rule="evenodd" d="M9.65095 3.981C11.1726 3.14554 12.9181 2.9152 14.4752 3.02593C16.121 3.14306 17.7005 3.65204 18.7164 4.39995C19.0235 4.62622 19.1749 5.00792 19.107 5.38335C19.039 5.75869 18.763 6.06324 18.3961 6.16753L18.1568 6.23979C15.6996 7.03282 13.9904 9.07495 13.8814 11.6617C13.7274 15.3265 16.4402 17.3164 18.3677 17.8033C18.7488 17.8997 19.0381 18.2102 19.107 18.5972C19.1757 18.9842 19.0116 19.3763 18.6871 19.5982C16.7106 20.9495 14.4033 21.0637 13.1959 20.98L12.7496 20.9351C8.76982 20.386 4.99929 17.0963 4.87947 12.2583C4.76082 7.45338 7.80676 5.10695 9.35017 4.15679L9.65095 3.981ZM14.3336 5.02007C12.9632 4.92258 11.5359 5.15943 10.398 5.85991C9.09763 6.66054 6.7869 8.45831 6.87947 12.2085C6.97144 15.9259 9.86747 18.5193 13.023 18.9546L13.3687 18.9878C13.9189 19.0234 14.7637 19.0006 15.6636 18.7749C13.6367 17.5071 11.7335 15.1443 11.8834 11.5777C11.9995 8.81924 13.4703 6.5585 15.6314 5.21929C15.2295 5.12481 14.793 5.05276 14.3336 5.02007Z" fill="#000"/>
</svg>
