<svg width="24" height="25" viewBox="0 0 24 25" fill="none" xmlns="http://www.w3.org/2000/svg">
<path fill-rule="evenodd" clip-rule="evenodd" d="M12 1.70996C12.5523 1.70997 13 2.15768 13 2.70996V6.70996H20C20.3344 6.70996 20.6466 6.87708 20.8321 7.15527L22.8321 10.1553C23.056 10.4912 23.056 10.9288 22.8321 11.2646L20.8321 14.2646C20.6466 14.5428 20.3344 14.71 20 14.71H13V22.71H11V11.71H4.00004C3.66569 11.71 3.35348 11.5428 3.16801 11.2646L1.16801 8.26465C0.944078 7.92875 0.944078 7.49117 1.16801 7.15527L3.16801 4.15527L3.24321 4.05664C3.43179 3.83813 3.70737 3.70996 4.00004 3.70996H11V2.70996C11 2.15768 11.4478 1.70996 12 1.70996ZM13 12.71H19.4649L20.7979 10.71L19.4649 8.70996H13V12.71ZM3.20121 7.70996L4.5352 9.70996H11V5.70996H4.5352L3.20121 7.70996Z" fill="#000"/>
</svg>
