<svg width="24" height="24" viewBox="0 0 24 24" fill="none" xmlns="http://www.w3.org/2000/svg">
<path fill-rule="evenodd" clip-rule="evenodd" d="M12.8584 23C13.9635 23 15.0381 22.634 15.9131 21.959L21.0537 17.9932C22.2808 17.0465 22.9999 15.584 23 14.0342V6C23 3.23858 20.7614 1 18 1H6C3.23858 1 1 3.23858 1 6V18C1 20.7614 3.23858 23 6 23H12.8584ZM6 21C4.34315 21 3 19.6569 3 18V6C3 4.34315 4.34315 3 6 3H18C19.6569 3 21 4.34315 21 6V14H16C14.3431 14 13 15.3431 13 17V20.9941C12.953 20.9964 12.9057 21 12.8584 21H6ZM15 17C15 16.4477 15.4477 16 16 16H20.2637C20.1345 16.1487 19.9908 16.2867 19.832 16.4092L15 20.1367V17Z" fill="#000"/>
</svg>
