<?xml version="1.0" encoding="UTF-8"?>
<svg width="24px" height="24px" viewBox="0 0 24 24" version="1.1" xmlns="http://www.w3.org/2000/svg" xmlns:xlink="http://www.w3.org/1999/xlink">
    <!-- Generator: Sketch 46 (44423) - http://www.bohemiancoding.com/sketch -->
    <title>object-ungroup</title>
    <desc>Created with Sketch.</desc>
    <defs></defs>
    <g id="Icons" stroke="none" stroke-width="1" fill="none" fill-rule="evenodd">
        <g id="object-ungroup" stroke="#000000" stroke-width="2">
            <path d="M1,1 L4,1 L4,4 L1,4 L1,1 Z M13,1 L16,1 L16,4 L13,4 L13,1 Z M4,2 L13,2 M15,9 L20,9 M4,15 L13,15 M1,13 L4,13 L4,16 L1,16 L1,13 Z M13,13 L16,13 L16,16 L13,16 L13,13 Z M2,4 L2,13 M15,4 L15,13 M20,8 L23,8 L23,11 L20,11 L20,8 Z M11,22 L20,22 M8,20 L11,20 L11,23 L8,23 L8,20 Z M20,20 L23,20 L23,23 L20,23 L20,20 Z M9,16 L9,20 M22,11 L22,20" id="Group"></path>
        </g>
    </g>
</svg>