<svg width="24" height="24" viewBox="0 0 24 24" fill="none" xmlns="http://www.w3.org/2000/svg">
<path fill-rule="evenodd" clip-rule="evenodd" d="M14.5 0C15.8807 0 17 1.11929 17 2.5C17 3.31703 16.6061 4.0399 16 4.49609V8H19.5039C19.9601 7.39389 20.683 7 21.5 7C22.8807 7 24 8.11929 24 9.5C24 10.317 23.6061 11.0399 23 11.4961V19.5029C23.6064 19.9591 24 20.6828 24 21.5C24 22.8807 22.8807 24 21.5 24C20.683 24 19.9601 23.6061 19.5039 23H11.4961C11.0399 23.6061 10.317 24 9.5 24C8.11929 24 7 22.8807 7 21.5C7 20.6828 7.39363 19.9591 8 19.5029V16H4.49609C4.0399 16.6061 3.31703 17 2.5 17C1.11929 17 0 15.8807 0 14.5C0 13.6828 0.393627 12.9591 1 12.5029V4.49609C0.393895 4.0399 0 3.31703 0 2.5C0 1.11929 1.11929 0 2.5 0C3.31703 0 4.0399 0.393895 4.49609 1H12.5039C12.9601 0.393895 13.683 0 14.5 0ZM9.5 21C9.22386 21 9 21.2239 9 21.5C9 21.7761 9.22386 22 9.5 22C9.77614 22 10 21.7761 10 21.5C10 21.2239 9.77614 21 9.5 21ZM21.5 21C21.2239 21 21 21.2239 21 21.5C21 21.7761 21.2239 22 21.5 22C21.7761 22 22 21.7761 22 21.5C22 21.2239 21.7761 21 21.5 21ZM16 12.5029C16.6064 12.9591 17 13.6828 17 14.5C17 15.8807 15.8807 17 14.5 17C13.683 17 12.9601 16.6061 12.5039 16H10V19.0498C10.9796 19.2486 11.7514 20.0204 11.9502 21H19.0498C19.2486 20.0204 20.0204 19.2486 21 19.0498V11.9492C20.0205 11.7503 19.2486 10.9795 19.0498 10H16V12.5029ZM2.5 14C2.22386 14 2 14.2239 2 14.5C2 14.7761 2.22386 15 2.5 15C2.77614 15 3 14.7761 3 14.5C3 14.2239 2.77614 14 2.5 14ZM14.5 14C14.2239 14 14 14.2239 14 14.5C14 14.7761 14.2239 15 14.5 15C14.7761 15 15 14.7761 15 14.5C15 14.2239 14.7761 14 14.5 14ZM4.9502 3C4.75138 3.97953 3.97951 4.75033 3 4.94922V12.0498C3.9796 12.2486 4.75136 13.0204 4.9502 14H12.0498C12.2486 13.0204 13.0204 12.2486 14 12.0498V4.94922C13.0205 4.75033 12.2486 3.97953 12.0498 3H4.9502ZM21.5 9C21.2239 9 21 9.22386 21 9.5C21 9.77614 21.2239 10 21.5 10C21.7761 10 22 9.77614 22 9.5C22 9.22386 21.7761 9 21.5 9ZM2.5 2C2.22386 2 2 2.22386 2 2.5C2 2.77614 2.22386 3 2.5 3C2.77614 3 3 2.77614 3 2.5C3 2.22386 2.77614 2 2.5 2ZM14.5 2C14.2239 2 14 2.22386 14 2.5C14 2.77614 14.2239 3 14.5 3C14.7761 3 15 2.77614 15 2.5C15 2.22386 14.7761 2 14.5 2Z" fill="#000"/>
</svg>
