<?xml version="1.0" encoding="UTF-8"?>
<svg width="24px" height="24px" viewBox="0 0 24 24" version="1.1" xmlns="http://www.w3.org/2000/svg" xmlns:xlink="http://www.w3.org/1999/xlink">
    <!-- Generator: Sketch 46 (44423) - http://www.bohemiancoding.com/sketch -->
    <title>object-group</title>
    <desc>Created with Sketch.</desc>
    <defs></defs>
    <g id="Icons" stroke="none" stroke-width="1" fill="none" fill-rule="evenodd">
        <g id="object-group" stroke="#000000" stroke-width="2">
            <path d="M1,1 L4,1 L4,4 L1,4 L1,1 Z M20,1 L23,1 L23,4 L20,4 L20,1 Z M4,2 L20,2 M4,22 L20,22 M1,20 L4,20 L4,23 L1,23 L1,20 Z M20,20 L23,20 L23,23 L20,23 L20,20 Z M2,4 L2,20 M22,4 L22,20 M7,7 L14,7 L14,13 L7,13 L7,7 Z M17,10 L17,17 L10,17 L10,15" id="Group"></path>
        </g>
    </g>
</svg>