<svg width="24" height="24" viewBox="0 0 24 24" fill="none" xmlns="http://www.w3.org/2000/svg">
<path fill-rule="evenodd" clip-rule="evenodd" d="M12 0C17.0238 0 19.9663 0.852297 21.5303 2.80371C22.3084 3.77469 22.6637 4.92201 22.834 6.12305C23.0021 7.30953 23 8.63904 23 10C23 10.5523 22.5523 11 22 11H21V20C21 20.8028 20.5628 21.4481 20.0352 21.916C19.5062 22.385 18.7973 22.7616 18.0078 23.0576C16.4215 23.6524 14.2972 24 12 24C9.70276 24 7.57848 23.6525 5.99219 23.0576C5.20273 22.7616 4.49379 22.385 3.96484 21.916C3.43717 21.4481 3 20.8028 3 20V11H2C1.44772 11 1 10.5523 1 10C1 8.63904 0.997885 7.30953 1.16602 6.12305C1.33626 4.92201 1.69156 3.77469 2.46973 2.80371C4.03372 0.852296 6.9762 2.52191e-07 12 0ZM5 20C5 20.0255 5.01013 20.17 5.29199 20.4199C5.5727 20.6687 6.03626 20.9378 6.69434 21.1846C8.00346 21.6755 9.87903 22 12 22C14.121 22 15.9965 21.6755 17.3057 21.1846C17.9637 20.9378 18.4273 20.6687 18.708 20.4199C18.9899 20.17 19 20.0255 19 20V13.5C19 14.8807 17.8807 16 16.5 16C15.1193 16 14 14.8807 14 13.5V17C14 18.933 12.433 20.5 10.5 20.5C8.56701 20.5 7 18.933 7 17V13C6.33051 13 5.62905 12.8441 5 12.4629V20ZM5.50391 10.2188C5.56218 10.3089 5.61998 10.3886 5.68067 10.4561C6.01758 10.8304 6.47491 11 7 11C8.10457 11 9 11.8954 9 13V17C9 17.8284 9.67157 18.5 10.5 18.5C11.3284 18.5 12 17.8284 12 17V13C12 11.8954 12.8954 11 14 11C15.1046 11 16 11.8954 16 13V13.5C16 13.7761 16.2239 14 16.5 14C16.7761 14 17 13.7761 17 13.5V11.5C17 11.2362 17.0289 10.9069 17.1074 10.5557C15.6719 10.8356 13.8999 11 12 11C9.73376 11 7.6484 10.7717 6.10059 10.3848C5.89568 10.3335 5.6963 10.2777 5.50391 10.2188ZM12 7C9.84816 7 7.93353 7.2188 6.58594 7.55566C6.01716 7.69786 5.5895 7.85472 5.29688 8C5.5895 8.14528 6.01716 8.30214 6.58594 8.44434C7.93353 8.7812 9.84816 9 12 9C14.1518 9 16.0665 8.7812 17.4141 8.44434C17.9823 8.30227 18.4095 8.14517 18.7022 8C18.4095 7.85483 17.9823 7.69773 17.4141 7.55566C16.0665 7.2188 14.1518 7 12 7ZM12 2C7.0238 2 4.96628 2.88681 4.03027 4.05469C3.5587 4.64319 3.28874 5.40039 3.14649 6.4043C3.08992 6.80355 3.05449 7.227 3.0332 7.67871C3.17286 7.01772 3.72427 6.59432 4.12012 6.36035C4.64362 6.051 5.33453 5.80675 6.10059 5.61523C7.6484 5.22829 9.73376 5 12 5C14.2662 5 16.3516 5.22829 17.8994 5.61523C18.6655 5.80675 19.3564 6.051 19.8799 6.36035C20.2757 6.5943 20.8261 7.01784 20.9658 7.67871C20.9445 7.22702 20.9101 6.80354 20.8535 6.4043C20.7113 5.40039 20.4413 4.64319 19.9697 4.05469C19.0337 2.88682 16.9762 2 12 2Z" fill="#000"/>
</svg>
