<?xml version="1.0" encoding="UTF-8"?>
<svg width="24px" height="24px" viewBox="0 0 24 24" version="1.1" xmlns="http://www.w3.org/2000/svg" xmlns:xlink="http://www.w3.org/1999/xlink">
    <!-- Generator: Sketch 46 (44423) - http://www.bohemiancoding.com/sketch -->
    <title>pause-fill</title>
    <desc>Created with Sketch.</desc>
    <defs></defs>
    <g id="Icons" stroke="none" stroke-width="1" fill="none" fill-rule="evenodd">
        <g id="pause-fill" stroke="#000000" stroke-width="2">
            <path d="M3,21 L9,21 L9,3 L3,3 L3,21 Z M4,19 L8,19 L8,5 L4,5 L4,19 Z M5,17 L7,17 L7,7 L5,7 L5,17 Z M15,21 L21,21 L21,3 L15,3 L15,21 Z M16,19 L20,19 L20,5 L16,5 L16,19 Z M17,17 L19,17 L19,7 L17,7 L17,17 Z" id="Pause"></path>
        </g>
    </g>
</svg>