<svg width="24" height="25" viewBox="0 0 24 25" fill="none" xmlns="http://www.w3.org/2000/svg">
<path d="M5 10.2769C5.55228 10.2769 6 10.7246 6 11.2769V13.2769C6 13.8291 5.55228 14.2769 5 14.2769C4.44772 14.2769 4 13.8291 4 13.2769V11.2769C4 10.7246 4.44772 10.2769 5 10.2769Z" fill="#000"/>
<path fill-rule="evenodd" clip-rule="evenodd" d="M20.1543 5.28076C21.7394 5.36107 23 6.67175 23 8.27686V16.2769L22.9961 16.4312C22.9184 17.9652 21.6883 19.1952 20.1543 19.2729L20 19.2769H4C2.3949 19.2769 1.08421 18.0163 1.00391 16.4312L1 16.2769V8.27686C1 6.62 2.34315 5.27686 4 5.27686H20L20.1543 5.28076ZM4 7.27686C3.44772 7.27686 3 7.72457 3 8.27686V16.2769L3.00488 16.3794C3.05621 16.8835 3.48232 17.2769 4 17.2769H17V7.27686H4ZM19 17.2769H20L20.1025 17.272C20.573 17.2241 20.9472 16.8498 20.9951 16.3794L21 16.2769V8.27686L20.9951 8.17432C20.9472 7.70389 20.573 7.32964 20.1025 7.28174L20 7.27686H19V17.2769Z" fill="#000"/>
</svg>
