<svg width="24" height="24" viewBox="0 0 24 24" fill="none" xmlns="http://www.w3.org/2000/svg">
<path fill-rule="evenodd" clip-rule="evenodd" d="M10.1162 4.04883C11.215 4.05262 12 4.99673 12 6.00098V13.5859L12.001 13.5879L12.0029 13.5889L12.0039 13.5908L12.0059 13.5918L12.0078 13.5938L12.0088 13.5957L12.0107 13.5967L12.0117 13.5986L12.0137 13.5996L12.0186 13.6045L12.0195 13.6064L12.0215 13.6074L12.0264 13.6123L12.0273 13.6143L12.0293 13.6152L12.0312 13.6172L12.0322 13.6191L12.0342 13.6201L12.0352 13.6221L12.0371 13.623L12.0391 13.625L12.04 13.627L12.042 13.6279L12.0439 13.6299L12.0449 13.6318L12.0469 13.6328L12.0479 13.6348L12.0498 13.6357L12.0518 13.6377L12.0527 13.6396L12.0547 13.6406L12.0566 13.6426L12.0576 13.6445L12.0596 13.6455L12.0615 13.6475L12.0625 13.6494L12.0645 13.6504L12.0664 13.6523L12.0674 13.6543L12.0693 13.6553L12.0713 13.6572L12.0723 13.6592L12.0742 13.6602L12.0762 13.6621L12.0771 13.6641L12.0791 13.665L12.0811 13.667L12.082 13.6689L12.084 13.6699L12.0859 13.6719L12.0869 13.6738L12.0889 13.6758L12.0908 13.6768L12.0928 13.6787L12.0938 13.6807L12.0957 13.6816L12.0977 13.6836L12.0986 13.6855L12.1006 13.6865L12.1045 13.6904L12.1055 13.6924L12.1074 13.6934L12.1094 13.6953L12.1104 13.6973L12.1123 13.6982L12.1162 13.7021L12.1172 13.7041L12.1191 13.7051L12.1211 13.707L12.1221 13.709L12.124 13.7109L12.126 13.7119L12.1279 13.7139L12.1289 13.7158L12.1309 13.7178L12.1328 13.7188L12.1348 13.7207L12.1357 13.7227L12.1377 13.7236L12.1416 13.7275L12.1426 13.7295L12.1445 13.7305L12.1484 13.7344L12.1494 13.7363L12.1514 13.7383L12.1533 13.7393L12.1553 13.7412L12.1562 13.7432L12.1582 13.7451L12.1602 13.7461L12.1641 13.75L12.165 13.752L12.167 13.7529L12.1709 13.7568L12.1719 13.7588L12.1738 13.7607L12.1758 13.7617L12.1797 13.7656L12.1807 13.7676L12.1826 13.7686L12.1885 13.7744L12.1895 13.7764L12.1914 13.7773L12.1953 13.7812L12.1963 13.7832L12.1982 13.7852L12.2002 13.7861L12.2061 13.792L12.207 13.7939L12.209 13.7949L12.2148 13.8008L12.2158 13.8027L12.2178 13.8047L12.2197 13.8057L12.2236 13.8096L12.2246 13.8115L12.2266 13.8135L12.2285 13.8145L12.2344 13.8203L12.2354 13.8223L12.2373 13.8242L12.2393 13.8252L12.2451 13.8311L12.2461 13.833L12.248 13.835L12.25 13.8359L12.2559 13.8418L12.2568 13.8438L12.2588 13.8457L12.2607 13.8467L12.2666 13.8525L12.2676 13.8545L12.2695 13.8564L12.2715 13.8574L12.2773 13.8633L12.2783 13.8652L12.2803 13.8672L12.2822 13.8682L12.29 13.876L12.291 13.8779L12.293 13.8799L12.2949 13.8809L12.3008 13.8867L12.3018 13.8887L12.3057 13.8926L12.3076 13.8936L12.3135 13.8994L12.3145 13.9014L12.3184 13.9053L12.3203 13.9062L12.3281 13.9141L12.3291 13.916L12.3311 13.918L12.333 13.9189L12.3408 13.9268L12.3418 13.9287L12.3457 13.9326L12.3477 13.9336L12.3555 13.9414L12.3564 13.9434L12.3584 13.9453L12.3604 13.9463L12.3682 13.9541L12.3691 13.9561L12.373 13.96L12.375 13.9609L12.3828 13.9688L12.3838 13.9707L12.3877 13.9746L12.3896 13.9756L12.3975 13.9834L12.3984 13.9854L12.4004 13.9873L12.4023 13.9883L12.4102 13.9961L12.4111 13.998L12.415 14.002L12.417 14.0029L12.4248 14.0107L12.4258 14.0127L12.4297 14.0166L12.4316 14.0176L12.4375 14.0234L12.4385 14.0254L12.4424 14.0293L12.4443 14.0303L12.4521 14.0381L12.4531 14.04L12.457 14.0439L12.459 14.0449L12.4648 14.0508L12.4658 14.0527L12.4697 14.0566L12.4717 14.0576L12.4775 14.0635L12.4785 14.0654L12.4824 14.0693L12.4844 14.0703L12.4902 14.0762L12.4912 14.0781L12.4951 14.082L12.4971 14.083L12.5029 14.0889L12.5039 14.0908L12.5059 14.0928L12.5078 14.0938L12.5156 14.1016L12.5166 14.1035L12.5186 14.1055L12.5205 14.1064L12.5264 14.1123L12.5273 14.1143L12.5293 14.1162L12.5312 14.1172L12.5371 14.123L12.5381 14.125L12.54 14.127L12.542 14.1279L12.5479 14.1338L12.5488 14.1357L12.5508 14.1377L12.5527 14.1387L12.5586 14.1445L12.5596 14.1465L12.5615 14.1484L12.5635 14.1494L12.5674 14.1533L12.5684 14.1553L12.5703 14.1572L12.5723 14.1582L12.5781 14.1641L12.5791 14.166L12.5811 14.168L12.583 14.1689L12.5869 14.1729L12.5879 14.1748L12.5898 14.1768L12.5918 14.1777L12.5957 14.1816L12.5967 14.1836L12.5986 14.1855L12.6006 14.1865L12.6045 14.1904L12.6055 14.1924L12.6074 14.1943L12.6094 14.1953L12.6133 14.1992L12.6143 14.2012L12.6162 14.2021L12.6201 14.2061L12.6211 14.208L12.623 14.21L12.625 14.2109L12.6289 14.2148L12.6299 14.2168L12.6318 14.2178L12.6357 14.2217L12.6367 14.2236L12.6387 14.2256L12.6406 14.2266L12.6426 14.2285L12.6436 14.2305L12.6455 14.2324L12.6475 14.2334L12.6494 14.2354L12.6504 14.2373L12.6523 14.2393L12.6543 14.2402L12.6562 14.2422L12.6572 14.2441L12.6592 14.2461L12.6611 14.2471L12.6631 14.249L12.6641 14.251L12.666 14.252L12.6699 14.2559L12.6709 14.2578L12.6729 14.2588L12.6768 14.2627L12.6777 14.2646L12.6797 14.2656L12.6816 14.2676L12.6826 14.2695L12.6846 14.2705L12.6885 14.2744L12.6895 14.2764L12.6914 14.2773L12.6934 14.2793L12.6943 14.2812L12.6963 14.2822L12.6982 14.2842L12.6992 14.2861L12.7012 14.2881L12.7031 14.2891L12.7051 14.291L12.7061 14.293L12.708 14.2939L12.71 14.2959L12.7109 14.2979L12.7129 14.2988L12.7148 14.3008L12.7158 14.3027L12.7178 14.3037L12.7197 14.3057L12.7207 14.3076L12.7227 14.3086L12.7246 14.3105L12.7256 14.3125L12.7275 14.3135L12.7295 14.3154L12.7305 14.3174L12.7324 14.3184L12.7344 14.3203L12.7354 14.3223L12.7373 14.3232L12.7393 14.3252L12.7402 14.3271L12.7422 14.3281L12.7441 14.3301L12.7451 14.332L12.7471 14.333L12.748 14.335L12.75 14.3359L12.752 14.3379L12.7529 14.3398L12.7549 14.3408L12.7568 14.3428L12.7578 14.3447L12.7598 14.3457L12.7607 14.3477L12.7627 14.3486L12.7646 14.3506L12.7656 14.3525L12.7676 14.3535L12.7686 14.3555L12.7705 14.3564L12.7725 14.3584L12.7734 14.3604L12.7754 14.3613L12.7764 14.3633L12.7783 14.3643L12.7803 14.3662L12.7812 14.3682L12.7832 14.3691L12.7842 14.3711L12.7861 14.3721L12.791 14.377L12.792 14.3789L12.7939 14.3799L12.7949 14.3818L12.7969 14.3828L12.7979 14.3848L12.7998 14.3857L12.8047 14.3906L12.8057 14.3926L12.8076 14.3936L12.8086 14.3955L12.8105 14.3965L12.8115 14.3984L12.8135 14.3994L12.8145 14.4014L12.8164 14.4023L12.8174 14.4043L12.8193 14.4053L12.8203 14.4072L12.8223 14.4082L12.8232 14.4102L12.8252 14.4111L12.8262 14.4131L12.8281 14.4141L12.8291 14.416L12.8311 14.417L12.832 14.4189L12.834 14.4199L12.835 14.4219L12.8369 14.4229L12.8379 14.4248L12.8398 14.4258L12.8408 14.4277L12.8428 14.4287L12.8496 14.4355L12.8506 14.4375L12.8525 14.4385L12.8535 14.4404L12.8555 14.4414L12.8564 14.4434L12.8584 14.4443L12.8594 14.4453L12.8604 14.4473L12.8623 14.4482L12.8633 14.4502L12.8652 14.4512L17.3643 18.9502C18.121 19.7074 18.1987 21.0474 17.2441 21.8115C15.5333 23.1806 13.3609 24.001 11 24.001C5.47748 24.001 1.00052 19.5234 1 14.001C1 8.85254 4.88992 4.61372 9.8916 4.06152L10.1162 4.04883ZM10 6.06348C6.05424 6.55503 3 9.92168 3 14.001C3.00052 18.4188 6.58205 22.001 11 22.001C12.8498 22.001 14.5494 21.3717 15.9043 20.3184C15.3528 19.7668 14.5618 18.9768 13.7549 18.1699C12.9253 17.3404 12.0782 16.4923 11.4551 15.8691L11.4531 15.8682L11.4521 15.8672L11.4512 15.8652L11.4492 15.8643L11.4482 15.8623L11.4463 15.8613L11.4424 15.8574L11.4414 15.8555L11.4395 15.8545L11.4385 15.8525L11.4365 15.8516L11.4355 15.8496L11.4336 15.8486L11.4297 15.8447L11.4287 15.8428L11.4268 15.8418L11.4258 15.8398L11.4238 15.8389L11.4229 15.8369L11.4209 15.8359L11.4199 15.834L11.418 15.833L11.417 15.8311L11.415 15.8301L11.4141 15.8281L11.4121 15.8271L11.4111 15.8252L11.4092 15.8242L11.4082 15.8223L11.4062 15.8213L11.4053 15.8193L11.4033 15.8184L11.4023 15.8164L11.4004 15.8154L11.3994 15.8135L11.3975 15.8125L11.3965 15.8105L11.3945 15.8096L11.3936 15.8076L11.3916 15.8066L11.3867 15.8018L11.3857 15.7998L11.3838 15.7988L11.3828 15.7969L11.3809 15.7959L11.3799 15.7939L11.3779 15.793L11.373 15.7881L11.3721 15.7861L11.3701 15.7852L11.3691 15.7832L11.3672 15.7822L11.3623 15.7773L11.3613 15.7754L11.3594 15.7744L11.3584 15.7725L11.3564 15.7715L11.3545 15.7695L11.3535 15.7676L11.3516 15.7666L11.3506 15.7646L11.3486 15.7637L11.3467 15.7617L11.3457 15.7598L11.3438 15.7588L11.3418 15.7568L11.3408 15.7549L11.3389 15.7539L11.3379 15.752L11.3359 15.751L11.334 15.749L11.333 15.7471L11.3311 15.7461L11.3291 15.7441L11.3281 15.7422L11.3262 15.7412L11.3242 15.7393L11.3232 15.7373L11.3213 15.7363L11.3203 15.7344L11.3184 15.7334L11.3164 15.7314L11.3154 15.7295L11.3135 15.7285L11.3115 15.7266L11.3105 15.7246L11.3086 15.7236L11.3066 15.7217L11.3057 15.7197L11.3037 15.7188L11.3018 15.7168L11.3008 15.7148L11.2988 15.7139L11.2949 15.71L11.2939 15.708L11.292 15.707L11.29 15.7051L11.2891 15.7031L11.2871 15.7021L11.2852 15.7002L11.2842 15.6982L11.2822 15.6973L11.2803 15.6953L11.2793 15.6934L11.2773 15.6914L11.2754 15.6904L11.2734 15.6885L11.2725 15.6865L11.2705 15.6855L11.2686 15.6836L11.2676 15.6816L11.2656 15.6797L11.2637 15.6787L11.2617 15.6768L11.2607 15.6748L11.2588 15.6738L11.2549 15.6699L11.2539 15.668L11.252 15.667L11.25 15.665L11.249 15.6631L11.2471 15.6611L11.2451 15.6602L11.2432 15.6582L11.2422 15.6562L11.2402 15.6543L11.2383 15.6533L11.2363 15.6514L11.2354 15.6494L11.2334 15.6475L11.2314 15.6465L11.2295 15.6445L11.2285 15.6426L11.2266 15.6406L11.2246 15.6396L11.2207 15.6357L11.2197 15.6338L11.2178 15.6328L11.2139 15.6289L11.2129 15.627L11.2109 15.626L11.207 15.6221L11.2061 15.6201L11.2041 15.6182L11.2021 15.6172L11.1982 15.6133L11.1973 15.6113L11.1953 15.6094L11.1934 15.6084L11.1895 15.6045L11.1885 15.6025L11.1865 15.6016L11.1807 15.5957L11.1797 15.5938L11.1777 15.5928L11.1719 15.5869L11.1709 15.585L11.1689 15.583L11.167 15.582L11.1631 15.5781L11.1621 15.5762L11.1602 15.5742L11.1582 15.5732L11.1543 15.5693L11.1533 15.5674L11.1514 15.5654L11.1494 15.5645L11.1436 15.5586L11.1426 15.5566L11.1406 15.5547L11.1387 15.5537L11.1328 15.5479L11.1318 15.5459L11.1299 15.5439L11.1279 15.543L11.1221 15.5371L11.1211 15.5352L11.1191 15.5332L11.1172 15.5322L11.1113 15.5264L11.1104 15.5244L11.1084 15.5225L11.1064 15.5215L11.1006 15.5156L11.0996 15.5137L11.0977 15.5117L11.0957 15.5107L11.0879 15.5029L11.0869 15.501L11.085 15.499L11.083 15.498L11.0752 15.4902L11.0742 15.4883L11.0723 15.4863L11.0703 15.4854L11.0625 15.4775L11.0615 15.4756L11.0596 15.4736L11.0576 15.4727L11.0498 15.4648L11.0488 15.4629L11.0469 15.4609L11.0449 15.46L11.0371 15.4521L11.0361 15.4502L11.0322 15.4463L11.0303 15.4453L11.0225 15.4375L11.0215 15.4355L11.0195 15.4336L11.0176 15.4326L11.0098 15.4248L11.0088 15.4229L11.0049 15.4189L11.0029 15.418L10.9951 15.4102L10.9941 15.4082L10.9902 15.4043L10.9883 15.4033L10.9805 15.3955L10.9795 15.3936L10.9775 15.3916L10.9756 15.3906L10.9678 15.3828L10.9668 15.3809L10.9629 15.377L10.9609 15.376L10.9531 15.3682L10.9521 15.3662L10.9482 15.3623L10.9463 15.3613L10.9385 15.3535L10.9375 15.3516L10.9355 15.3496L10.9336 15.3486L10.9258 15.3408L10.9248 15.3389L10.9209 15.335L10.9189 15.334L10.9131 15.3281L10.9121 15.3262L10.9082 15.3223L10.9062 15.3213L10.8984 15.3135L10.8975 15.3115L10.8955 15.3096L10.8936 15.3086L10.8857 15.3008L10.8848 15.2988L10.8828 15.2969L10.8809 15.2959L10.875 15.29L10.874 15.2881L10.8701 15.2842L10.8682 15.2832L10.8623 15.2773L10.8613 15.2754L10.8594 15.2734L10.8574 15.2725L10.8516 15.2666L10.8506 15.2646L10.8486 15.2627L10.8467 15.2617L10.8408 15.2559L10.8398 15.2539L10.8379 15.252L10.8359 15.251L10.8301 15.2451L10.8291 15.2432L10.8271 15.2412L10.8252 15.2402L10.8193 15.2344L10.8184 15.2324L10.8164 15.2305L10.8145 15.2295L10.8086 15.2236L10.8076 15.2217L10.8057 15.2197L10.8037 15.2188L10.7998 15.2148L10.7988 15.2129L10.7969 15.2109L10.7949 15.21L10.791 15.2061L10.79 15.2041L10.7881 15.2021L10.7861 15.2012L10.7822 15.1973L10.7812 15.1953L10.7793 15.1934L10.7773 15.1924L10.7734 15.1885L10.7725 15.1865L10.7705 15.1846L10.7686 15.1836L10.7646 15.1797L10.7637 15.1777L10.7617 15.1768L10.7559 15.1709L10.7549 15.1689L10.7529 15.168L10.749 15.1641L10.748 15.1621L10.7461 15.1611L10.7422 15.1572L10.7412 15.1553L10.7393 15.1533L10.7373 15.1523L10.7354 15.1504L10.7344 15.1484L10.7324 15.1465L10.7305 15.1455L10.7266 15.1416L10.7256 15.1396L10.7236 15.1387L10.7197 15.1348L10.7188 15.1328L10.7168 15.1318L10.7148 15.1299L10.7139 15.1279L10.7119 15.126L10.71 15.125L10.708 15.123L10.707 15.1211L10.7051 15.1201L10.7012 15.1162L10.7002 15.1143L10.6982 15.1133L10.6963 15.1113L10.6953 15.1094L10.6934 15.1074L10.6914 15.1064L10.6895 15.1045L10.6885 15.1025L10.6865 15.1016L10.6846 15.0996L10.6836 15.0977L10.6816 15.0957L10.6797 15.0947L10.6777 15.0928L10.6768 15.0908L10.6748 15.0898L10.6729 15.0879L10.6719 15.0859L10.6699 15.085L10.668 15.083L10.667 15.0811L10.665 15.0801L10.6631 15.0781L10.6621 15.0762L10.6602 15.0752L10.6582 15.0732L10.6572 15.0713L10.6553 15.0703L10.6533 15.0684L10.6523 15.0664L10.6504 15.0654L10.6484 15.0635L10.6475 15.0615L10.6455 15.0605L10.6436 15.0586L10.6426 15.0566L10.6406 15.0557L10.6387 15.0537L10.6377 15.0518L10.6357 15.0508L10.6338 15.0488L10.6328 15.0469L10.6309 15.0459L10.6289 15.0439L10.6279 15.042L10.626 15.041L10.625 15.0391L10.623 15.0381L10.6211 15.0361L10.6201 15.0342L10.6182 15.0332L10.6162 15.0312L10.6152 15.0293L10.6133 15.0283L10.6123 15.0264L10.6104 15.0254L10.6084 15.0234L10.6074 15.0215L10.6055 15.0205L10.6045 15.0186L10.6025 15.0176L10.6006 15.0156L10.5996 15.0137L10.5977 15.0127L10.5967 15.0107L10.5947 15.0098L10.5898 15.0049L10.5889 15.0029L10.5869 15.002L10.5859 15C10.2108 14.6248 10.0001 14.1159 10 13.5859V6.06348Z" fill="#000"/>
<path fill-rule="evenodd" clip-rule="evenodd" d="M21 12.001C22.0708 12.001 23.0735 12.8932 22.9395 14.1084C22.7632 15.7047 22.2107 17.1886 21.374 18.4678C20.6633 19.5538 19.2244 19.5329 18.4209 18.7441L15.0439 15.4277C13.7664 14.1732 14.6549 12.0012 16.4453 12.001H21ZM19.7666 17.2627C20.3776 16.295 20.7874 15.1893 20.9355 14.001H16.4453L19.7666 17.2627Z" fill="#000"/>
<path fill-rule="evenodd" clip-rule="evenodd" d="M15.1084 0.0615234L15.54 0.118164C19.9734 0.803849 23.4435 4.39919 23.9395 8.89258C24.0731 10.107 23.0711 11.001 22 11.001H15C13.8958 11.001 13.0005 10.1051 13 9.00098V2.00098C13 0.996729 13.785 0.0516413 14.8838 0.0478516L15.1084 0.0615234ZM15 9.00098H21.9365C21.486 5.38294 18.618 2.51421 15 2.06348V9.00098Z" fill="#000"/>
</svg>
