<svg width="24" height="24" viewBox="0 0 24 24" fill="none" xmlns="http://www.w3.org/2000/svg">
<path fill-rule="evenodd" clip-rule="evenodd" d="M13.2931 1.29314C13.6836 0.902613 14.3166 0.902613 14.7071 1.29314L22.7071 9.29314C23.0975 9.68367 23.0976 10.3167 22.7071 10.7072C22.3166 11.0977 21.6836 11.0976 21.2931 10.7072L20.5001 9.91423L16.5226 13.8908C16.5235 13.9616 16.5252 14.039 16.5235 14.1222C16.5144 14.5668 16.46 15.1852 16.2852 15.9191C15.9339 17.3948 15.0996 19.3147 13.2071 21.2072C12.8166 21.5977 12.1836 21.5976 11.7931 21.2072L8.00009 17.4142L2.70712 22.7072C2.31663 23.0976 1.68358 23.0976 1.29306 22.7072C0.902546 22.3167 0.902569 21.6837 1.29306 21.2931L6.58603 16.0002L2.79306 12.2072C2.60558 12.0197 2.50013 11.7653 2.50009 11.5002C2.50011 11.235 2.60556 10.9807 2.79306 10.7931C4.68563 8.90058 6.60546 8.06636 8.08114 7.71501C8.81506 7.54029 9.43346 7.48581 9.87802 7.47673C9.96087 7.47504 10.0379 7.47578 10.1085 7.47673L14.086 3.50017L13.2931 2.7072C12.9025 2.31669 12.9026 1.68366 13.2931 1.29314ZM11.2071 9.2072C10.9846 9.42972 10.67 9.53488 10.3585 9.4904C10.3574 9.49028 10.356 9.48955 10.3546 9.48943C10.3406 9.48794 10.3142 9.48608 10.2765 9.48357C10.2008 9.47852 10.0793 9.47347 9.91903 9.47673C9.59802 9.48328 9.12246 9.52261 8.54404 9.66033C7.57138 9.89193 6.29058 10.4051 4.9454 11.5314L12.4679 19.0539C13.5941 17.7088 14.1083 16.4288 14.3399 15.4562C14.4776 14.8779 14.517 14.4022 14.5235 14.0812C14.5268 13.921 14.5217 13.7995 14.5167 13.7238C14.5142 13.6862 14.5123 13.6597 14.5108 13.6457L14.5089 13.6359C14.4661 13.3259 14.5717 13.0145 14.7931 12.7931L19.086 8.50017L15.5001 4.91423L11.2071 9.2072Z" fill="#000"/>
</svg>
