<svg width="24" height="24" viewBox="0 0 24 24" fill="none" xmlns="http://www.w3.org/2000/svg">
<path d="M17.9999 8H9.99988V6H17.9999V8Z" fill="#000"/>
<path fill-rule="evenodd" clip-rule="evenodd" d="M6.99988 2C7.87059 2 8.69334 2.3791 9.26062 3.03027C9.39445 3.01196 9.53055 3.00002 9.66882 3H18.6034C20.4165 3 21.8014 4.59073 21.5819 6.36426L21.5555 6.53711L21.0995 9.04004C22.717 9.30751 23.8601 10.8622 23.5555 12.5371L22.2821 19.5371C22.0226 20.9633 20.7806 21.9999 19.3309 22H4.78992C3.26135 21.9999 1.97728 20.8503 1.80847 19.3311L0.252807 5.33105C0.0555177 3.55415 1.44644 2.00016 3.23425 2H6.99988ZM6.66882 11C6.18568 11.0002 5.77186 11.3459 5.68542 11.8213L4.41296 18.8213C4.30143 19.4351 4.77253 20 5.39636 20H19.3309C19.8142 19.9999 20.2279 19.6542 20.3143 19.1787L21.5878 12.1787C21.6992 11.565 21.2272 11 20.6034 11H6.66882ZM3.23425 4C2.63839 4.00016 2.1753 4.51809 2.24109 5.11035L3.23816 14.0957L3.71765 11.4629C3.94007 10.2407 4.88451 9.30629 6.06238 9.06348L6.71765 5.46289C6.81369 4.93513 7.04411 4.46055 7.37 4.07227C7.25363 4.02585 7.12845 4 6.99988 4H3.23425ZM9.66882 5C9.18568 5.00016 8.77186 5.34591 8.68542 5.82129L8.1073 9H19.0751L19.5878 6.17871L19.6014 6.06445C19.6393 5.4966 19.1883 5 18.6034 5H9.66882Z" fill="#000"/>
</svg>
