<svg width="24" height="24" viewBox="0 0 24 24" fill="none" xmlns="http://www.w3.org/2000/svg">
<path d="M13.0893 6.00391C13.2958 6.02241 13.4923 6.10532 13.6508 6.24121L20.6508 12.2412C21.0699 12.6006 21.1184 13.2311 20.7592 13.6504C20.3999 14.0696 19.7694 14.118 19.35 13.7588L13.8657 9.05762L13.7885 10.2051L15.9487 16.6836C16.0503 16.9884 15.9998 17.3243 15.812 17.585C15.6241 17.8456 15.3217 17.9999 15.0004 18H13.27L12.9985 22.0664C12.9635 22.5916 12.5267 22.9998 12.0004 23C11.474 23 11.0374 22.5917 11.0024 22.0664L10.7309 18H9.00043C8.67908 18 8.37687 17.8456 8.18891 17.585C8.00096 17.3242 7.95054 16.9885 8.05219 16.6836L10.2114 10.2051L10.1342 9.05762L4.65082 13.7588C4.23156 14.1182 3.60109 14.0695 3.24164 13.6504C2.88222 13.2311 2.93072 12.6006 3.35004 12.2412L10.35 6.24121L10.4194 6.18555C10.5882 6.06516 10.7916 6 11.0004 6H13.0004L13.0893 6.00391Z" fill="#000"/>
<path d="M12.0004 1C13.1048 1.00021 14.0004 1.89556 14.0004 3C14.0004 4.10444 13.1048 4.99979 12.0004 5C10.8959 5 10.0004 4.10457 10.0004 3C10.0004 1.89543 10.8959 1 12.0004 1Z" fill="#000"/>
</svg>
