<?xml version="1.0" encoding="UTF-8"?>
<svg width="24px" height="24px" viewBox="0 0 24 24" version="1.1" xmlns="http://www.w3.org/2000/svg" xmlns:xlink="http://www.w3.org/1999/xlink">
    <!-- Generator: Sketch 46 (44423) - http://www.bohemiancoding.com/sketch -->
    <title>run</title>
    <desc>Created with Sketch.</desc>
    <defs></defs>
    <g id="Icons" stroke="none" stroke-width="1" fill="none" fill-rule="evenodd" stroke-linecap="round" stroke-linejoin="round">
        <g id="run" stroke="#000000" stroke-width="2">
            <path d="M15,11 L18,13 M18,5 C18.5522847,5 19,4.55228475 19,4 C19,3.44771525 18.5522847,3 18,3 C17.4477153,3 17,3.44771525 17,4 C17,4.55228475 17.4477153,5 18,5 Z M9.5,9.5 L9.52493781,6 L14.0249378,6 L15,6 L8,17 L4,17 M15,8 L12,13 L12.5,14 L17,7.5 L15,6 M11,13 L16,16.5 L16,21.5" id="Group"></path>
        </g>
    </g>
</svg>