<svg width="24" height="24" viewBox="0 0 24 24" fill="none" xmlns="http://www.w3.org/2000/svg">
<path fill-rule="evenodd" clip-rule="evenodd" d="M15.9997 1C18.2088 1 19.9997 2.79086 19.9997 5V5.07129L19.9899 5.1416L18.153 18H21.9997C22.5447 18 23.0737 18.2249 23.4352 18.626C23.8146 19.047 24.0027 19.6673 23.7809 20.3086C23.2391 21.8735 21.7519 23 19.9997 23H7.99967C5.79068 22.9998 3.99967 21.209 3.99967 19V18.9287L4.01041 18.8584L5.84733 6H1.99967C1.45477 5.99991 0.925539 5.77499 0.564125 5.37402C0.184859 4.95303 -0.00239936 4.33254 0.219398 3.69141L0.331703 3.40234C0.947913 1.98946 2.35727 1.00013 3.99967 1H15.9997ZM7.46354 3C7.80408 3.58847 7.99967 4.27119 7.99967 5V5.07129L7.98991 5.1416L6.00163 19.0527C6.02959 20.1328 6.91289 20.9998 7.99967 21C8.87343 21 9.61873 20.4387 9.8903 19.6543C10.1434 18.9235 10.8475 18.0002 11.9997 18H16.1335L17.9967 4.9502C17.9703 3.86867 17.0876 3 15.9997 3H7.46354ZM12.0036 20C12.0148 19.9988 11.9975 19.9932 11.9489 20.0371C11.8902 20.0901 11.8235 20.1858 11.7809 20.3086C11.6971 20.5507 11.5881 20.7815 11.4616 21H19.9997C20.7386 21 21.3848 20.5982 21.7311 20H12.0036ZM3.99967 3C3.26097 3.00012 2.61554 3.402 2.2692 4H5.73014C5.38419 3.40275 4.73954 3 3.99967 3Z" fill="#000"/>
</svg>
