<svg width="24" height="24" viewBox="0 0 24 24" fill="none" xmlns="http://www.w3.org/2000/svg">
<path fill-rule="evenodd" clip-rule="evenodd" d="M11 1C16.5228 1 21 5.47715 21 11C21 13.4013 20.1529 15.6043 18.7422 17.3281L22.707 21.293C23.0976 21.6835 23.0976 22.3165 22.707 22.707C22.3165 23.0976 21.6835 23.0976 21.293 22.707L17.3281 18.7422C15.6043 20.1529 13.4013 21 11 21C5.47715 21 1 16.5228 1 11C1 5.47715 5.47715 1 11 1ZM11 3C6.58172 3 3 6.58172 3 11C3 15.4183 6.58172 19 11 19C15.4183 19 19 15.4183 19 11C19 6.58172 15.4183 3 11 3Z" fill="#000"/>
</svg>
