<svg width="24" height="25" viewBox="0 0 24 25" fill="none" xmlns="http://www.w3.org/2000/svg">
<path d="M6 18.2769H5V16.2769H6V18.2769Z" fill="#000"/>
<path d="M19 18.2769H10V16.2769H19V18.2769Z" fill="#000"/>
<path d="M6 12.2769H5V10.2769H6V12.2769Z" fill="#000"/>
<path d="M19 12.2769H10V10.2769H19V12.2769Z" fill="#000"/>
<path d="M6 6.27686H5V4.27686H6V6.27686Z" fill="#000"/>
<path d="M19 6.27686H10V4.27686H19V6.27686Z" fill="#000"/>
<path fill-rule="evenodd" clip-rule="evenodd" d="M20 1.27686C21.6569 1.27686 23 2.62 23 4.27686V6.27686C23 7.04633 22.7077 7.74582 22.2314 8.27686C22.7077 8.80789 23 9.50738 23 10.2769V12.2769C23 13.0463 22.7077 13.7458 22.2314 14.2769C22.7077 14.8079 23 15.5074 23 16.2769V18.2769C23 19.9337 21.6569 21.2769 20 21.2769H22C22.5523 21.2769 23 21.7246 23 22.2769C23 22.8291 22.5523 23.2769 22 23.2769H2C1.44772 23.2769 1 22.8291 1 22.2769C1 21.7246 1.44772 21.2769 2 21.2769H4C2.34315 21.2769 1 19.9337 1 18.2769V16.2769C1 15.5074 1.29228 14.8079 1.76855 14.2769C1.29228 13.7458 1 13.0463 1 12.2769V10.2769C1 9.50738 1.29228 8.80789 1.76855 8.27686C1.29228 7.74582 1 7.04633 1 6.27686V4.27686C1 2.62 2.34315 1.27686 4 1.27686H20ZM4 15.2769C3.44772 15.2769 3 15.7246 3 16.2769V18.2769C3 18.8291 3.44772 19.2769 4 19.2769H20C20.5523 19.2769 21 18.8291 21 18.2769V16.2769C21 15.7246 20.5523 15.2769 20 15.2769H4ZM4 9.27686C3.44772 9.27686 3 9.72457 3 10.2769V12.2769C3 12.8291 3.44772 13.2769 4 13.2769H20C20.5523 13.2769 21 12.8291 21 12.2769V10.2769C21 9.72457 20.5523 9.27686 20 9.27686H4ZM4 3.27686C3.44772 3.27686 3 3.72457 3 4.27686V6.27686C3 6.82914 3.44772 7.27686 4 7.27686H20C20.5523 7.27686 21 6.82914 21 6.27686V4.27686C21 3.72457 20.5523 3.27686 20 3.27686H4Z" fill="#000"/>
</svg>
