<?xml version="1.0" encoding="UTF-8"?>
<svg width="24px" height="24px" viewBox="0 0 24 24" version="1.1" xmlns="http://www.w3.org/2000/svg" xmlns:xlink="http://www.w3.org/1999/xlink">
    <!-- Generator: Sketch 46 (44423) - http://www.bohemiancoding.com/sketch -->
    <title>stakeholder</title>
    <desc>Created with Sketch.</desc>
    <defs></defs>
    <g id="Icons" stroke="none" stroke-width="1" fill="none" fill-rule="evenodd">
        <g id="stakeholder" stroke="#000000" stroke-width="2">
            <path d="M14,9 L18.5,11 L23,9 L23,4 L18.5,2 L14,4 L14,9 Z M7,7 C4.791,7 3,8.791 3,11 C3,13.209 4.791,15 7,15 C9.209,15 11,13.209 11,11 C11,8.791 9.209,7 7,7 L7,7 Z M1,23 L1,21 C1,17 3.5,15 7,15 C10.5,15 13,17 13,21 L13,23 L1,23 Z M14,4 L18.5,6 L23,4 M18.5,6 L18.5,11 L18.5,6 Z" id="Stakes"></path>
        </g>
    </g>
</svg>