<?xml version="1.0" encoding="UTF-8"?>
<svg width="24px" height="24px" viewBox="0 0 24 24" version="1.1" xmlns="http://www.w3.org/2000/svg" xmlns:xlink="http://www.w3.org/1999/xlink">
    <!-- Generator: Sketch 46 (44423) - http://www.bohemiancoding.com/sketch -->
    <title>standards-device</title>
    <desc>Created with Sketch.</desc>
    <defs></defs>
    <g id="Icons" stroke="none" stroke-width="1" fill="none" fill-rule="evenodd">
        <g id="standards-device" fill="#000000">
            <path d="M17.4191981,5.86998785 L22.2891859,1 L17.0692588,1 L12.0145808,6.05467801 L6.95018226,1 L1.73025516,1 L6.60024301,5.86998785 L0,5.86998785 L0,23.6488457 L3.47023086,23.6488457 L7.23207776,23.6488457 L8.68043742,23.6488457 L11.9951397,20.3341434 L15.309842,23.6488457 L17.2345079,23.6488457 L20.5297691,23.6488457 L24,23.6488457 L24,5.86998785 L17.4191981,5.86998785 L17.4191981,5.86998785 Z M12.0048603,15.1044957 L7.16403402,19.9550425 L3.69380316,19.9550425 L3.69380316,9.56379101 L20.3256379,9.56379101 L20.3256379,19.9550425 L16.855407,19.9550425 L12.0048603,15.1044957 L12.0048603,15.1044957 Z" id="Shape"></path>
        </g>
    </g>
</svg>