<svg width="24" height="25" viewBox="0 0 24 25" fill="none" xmlns="http://www.w3.org/2000/svg">
<path fill-rule="evenodd" clip-rule="evenodd" d="M18 13.2769C20.7614 13.2769 23 15.5154 23 18.2769C23 21.0383 20.7614 23.2769 18 23.2769H6C3.23858 23.2769 1 21.0383 1 18.2769C1 15.5154 3.23858 13.2769 6 13.2769H18ZM6 15.2769C4.34315 15.2769 3 16.62 3 18.2769C3 19.9337 4.34315 21.2769 6 21.2769C7.65685 21.2769 9 19.9337 9 18.2769C9 16.62 7.65685 15.2769 6 15.2769ZM10 15.2769C10.6278 16.1125 11 17.1512 11 18.2769C11 19.4025 10.6278 20.4412 10 21.2769H18C19.6569 21.2769 21 19.9337 21 18.2769C21 16.62 19.6569 15.2769 18 15.2769H10Z" fill="#000"/>
<path fill-rule="evenodd" clip-rule="evenodd" d="M18 1.27686C20.7614 1.27686 23 3.51543 23 6.27686C23 9.03828 20.7614 11.2769 18 11.2769H6C3.23858 11.2769 1 9.03828 1 6.27686C1 3.51543 3.23858 1.27686 6 1.27686H18ZM6 3.27686C4.34315 3.27686 3 4.62 3 6.27686C3 7.93371 4.34315 9.27686 6 9.27686H14C13.3722 8.44116 13 7.40254 13 6.27686C13 5.15117 13.3722 4.11255 14 3.27686H6ZM18 3.27686C16.3431 3.27686 15 4.62 15 6.27686C15 7.93371 16.3431 9.27686 18 9.27686C19.6569 9.27686 21 7.93371 21 6.27686C21 4.62 19.6569 3.27686 18 3.27686Z" fill="#000"/>
</svg>
