<?xml version="1.0" encoding="UTF-8"?>
<svg width="24px" height="24px" viewBox="0 0 24 24" version="1.1" xmlns="http://www.w3.org/2000/svg" xmlns:xlink="http://www.w3.org/1999/xlink">
    <!-- Generator: Sketch 46 (44423) - http://www.bohemiancoding.com/sketch -->
    <title>tasks</title>
    <desc>Created with Sketch.</desc>
    <defs></defs>
    <g id="Icons" stroke="none" stroke-width="1" fill="none" fill-rule="evenodd">
        <g id="tasks" stroke="#000000" stroke-width="2">
            <path d="M1,3 L23,3 L23,7 L1,7 L1,3 Z M1,10 L23,10 L23,14 L1,14 L1,10 Z M1,17 L23,17 L23,21 L1,21 L1,17 Z M1,4 L16,4 L16,6 L1,6 L1,4 Z M1,11 L6,11 L6,13 L1,13 L1,11 Z M1,18 L11,18 L11,20 L1,20 L1,18 Z" id="Group"></path>
        </g>
    </g>
</svg>