<svg width="24" height="24" viewBox="0 0 24 24" fill="none" xmlns="http://www.w3.org/2000/svg">
<path fill-rule="evenodd" clip-rule="evenodd" d="M14 7C16.2091 7 18 8.79086 18 11V13C18 15.2091 16.2091 17 14 17H10C7.79086 17 6 15.2091 6 13V11C6 8.79086 7.79086 7 10 7H14ZM10 9C8.89543 9 8 9.89543 8 11V13C8 14.1046 8.89543 15 10 15H14C15.1046 15 16 14.1046 16 13V11C16 9.89543 15.1046 9 14 9H10Z" fill="#000"/>
<path fill-rule="evenodd" clip-rule="evenodd" d="M22 3C23.1046 3 24 3.89543 24 5V8C24 9.15519 23.0745 9.88568 22.2236 10.0752C21.7572 10.1791 21.4919 10.3748 21.3242 10.6172C21.1427 10.8796 21 11.3084 21 12C21 12.6916 21.1427 13.1204 21.3242 13.3828C21.4919 13.6252 21.7572 13.8209 22.2236 13.9248C23.0745 14.1143 24 14.8448 24 16V19C24 20.1046 23.1046 21 22 21H2C0.895431 21 0 20.1046 0 19V16C0 14.8448 0.925494 14.1143 1.77637 13.9248C2.24282 13.8209 2.50807 13.6252 2.67578 13.3828C2.85732 13.1204 3 12.6916 3 12C3 11.3084 2.85732 10.8796 2.67578 10.6172C2.50807 10.3748 2.24282 10.1791 1.77637 10.0752C0.925494 9.88568 0 9.15519 0 8V5C0 3.89543 0.895431 3 2 3H22ZM2 7.99707C2.00191 8.00081 2.00776 8.00999 2.02051 8.02344C2.05522 8.06004 2.12209 8.10326 2.21094 8.12305C3.08204 8.31707 3.81919 8.75514 4.32031 9.47949C4.80763 10.1839 5 11.056 5 12C5 12.944 4.80763 13.8161 4.32031 14.5205C3.81919 15.2449 3.08204 15.6829 2.21094 15.877C2.12209 15.8967 2.05522 15.94 2.02051 15.9766C2.00776 15.99 2.00191 15.9992 2 16.0029V19H22V16.0029C21.9981 15.9992 21.9922 15.99 21.9795 15.9766C21.9448 15.94 21.8779 15.8967 21.7891 15.877C20.918 15.6829 20.1808 15.2449 19.6797 14.5205C19.1924 13.8161 19 12.944 19 12C19 11.056 19.1924 10.1839 19.6797 9.47949C20.1808 8.75514 20.918 8.31707 21.7891 8.12305C21.8779 8.10326 21.9448 8.06004 21.9795 8.02344C21.9922 8.00999 21.9981 8.00081 22 7.99707V5H2V7.99707Z" fill="#000"/>
</svg>
