<svg width="24" height="24" viewBox="0 0 24 24" fill="none" xmlns="http://www.w3.org/2000/svg">
<path fill-rule="evenodd" clip-rule="evenodd" d="M9.60156 1.2002C11.0563 2.29318 12 4.03668 12 6C12 8.22049 10.7929 10.1578 9 11.1953V20.8184C8.99991 22.4923 7.73735 24 6 24C4.26265 24 3.00009 22.4923 3 20.8184V11.1953C1.20707 10.1578 0 8.22049 0 6C0 4.03668 0.94375 2.29318 2.39844 1.2002L3.4668 0.398438L5.19336 5H6.80664L8.5332 0.398438L9.60156 1.2002ZM7 11.915C6.67469 11.9696 6.34083 12 6 12C5.65917 12 5.32531 11.9696 5 11.915V20.8184C5.00008 21.5551 5.52745 22 6 22C6.47255 22 6.99992 21.5551 7 20.8184V11.915ZM8.19336 7H3.80664L2.62598 3.85156C2.22966 4.47252 2 5.20927 2 6C2 8.20914 3.79086 10 6 10C8.20914 10 10 8.20914 10 6C10 5.20908 9.76954 4.47261 9.37305 3.85156L8.19336 7Z" fill="#000"/>
<path fill-rule="evenodd" clip-rule="evenodd" d="M19 0C20.6573 0 22 1.34272 22 3V13H20V19.5C20.3161 19.5 20.614 19.6497 20.8027 19.9033C20.9911 20.1568 21.0487 20.4846 20.958 20.7871L20.208 23.2871C20.0811 23.7101 19.6916 24 19.25 24H18.75C18.3084 24 17.9189 23.7101 17.792 23.2871L17.042 20.7871C16.9513 20.4846 17.0089 20.1568 17.1973 19.9033C17.386 19.6497 17.6839 19.5 18 19.5V13H16V3C16 1.34272 17.3427 0 19 0ZM19 2C18.4473 2 18 2.44728 18 3V11H20V3C20 2.44728 19.5527 2 19 2Z" fill="#000"/>
</svg>
