<svg width="24" height="24" viewBox="0 0 24 24" fill="none" xmlns="http://www.w3.org/2000/svg">
<path fill-rule="evenodd" clip-rule="evenodd" d="M12 1C15.866 1 19 4.13401 19 8C19 10.2644 17.9236 12.2762 16.2559 13.5557C17.2404 13.8442 18.1497 14.2526 18.9443 14.8027C20.8538 16.1247 22 18.1901 22 21V22C22 22.5523 21.5523 23 21 23C20.4477 23 20 22.5523 20 22V21C20 18.8099 19.1462 17.3753 17.8057 16.4473C17.3509 16.1324 16.8291 15.8702 16.25 15.6582C16.2358 15.6744 16.2225 15.6916 16.207 15.707L13.8789 18.0352C13.3163 18.5978 13 19.3616 13 20.1572V22.5C13 23.0523 12.5523 23.5 12 23.5C11.4477 23.5 11 23.0523 11 22.5V19.6572C11 18.961 10.7577 18.2897 10.3203 17.7559L10.1211 17.5352L8.12207 15.5361C7.39322 15.7683 6.74544 16.0749 6.19531 16.457C4.85234 17.3898 4 18.8262 4 21V22C4 22.5523 3.55228 23 3 23C2.44772 23 2 22.5523 2 22V21C2 18.2032 3.14766 16.139 5.05469 14.8145C5.85042 14.2618 6.76135 13.8504 7.74805 13.5596C6.07783 12.2803 5 10.2664 5 8C5 4.13401 8.13401 1 12 1ZM12 15C11.4766 15 10.9708 15.0244 10.4854 15.0713L11.5352 16.1211C11.7815 16.3674 11.999 16.6375 12.1865 16.9248C12.2749 16.8205 12.3674 16.7185 12.4648 16.6211L13.9639 15.1211C13.3438 15.0414 12.6873 15 12 15ZM13.0039 5.9541C12.7412 6.441 12.4249 6.92814 12.0459 7.38672C11.0009 8.65082 9.47701 9.70989 7.39355 9.94824C8.15305 11.7418 9.92968 13 12 13C14.7614 13 17 10.7614 17 8C17 7.97128 16.9976 7.94266 16.9971 7.91406C16.2729 7.75939 15.1447 7.51155 14.1758 6.93457C13.7579 6.6857 13.3516 6.36595 13.0039 5.9541ZM11.9795 3C9.23531 3.01102 7.01259 5.23275 7 7.97656C8.58436 7.84233 9.70765 7.07633 10.5039 6.11328C11.3496 5.09029 11.8074 3.85765 11.9795 3ZM14.0244 3.42773C14.074 3.84396 14.1948 4.16015 14.3457 4.40723C14.5474 4.73751 14.8368 5 15.1992 5.21582C15.5864 5.44638 16.0163 5.60284 16.4521 5.72559C15.9314 4.70826 15.0734 3.89286 14.0244 3.42773Z" fill="#000"/>
</svg>
