<?xml version="1.0" encoding="UTF-8"?>
<svg width="24px" height="24px" viewBox="0 0 24 24" version="1.1" xmlns="http://www.w3.org/2000/svg" xmlns:xlink="http://www.w3.org/1999/xlink">
    <!-- Generator: Sketch 46 (44423) - http://www.bohemiancoding.com/sketch -->
    <title>user-add</title>
    <desc>Created with Sketch.</desc>
    <defs></defs>
    <g id="Icons" stroke="none" stroke-width="1" fill="none" fill-rule="evenodd">
        <g id="user-add" stroke="#000000" stroke-width="2">
            <path d="M5,24 L5,19 M11,24 L11,19 M1,24 L1,18 C1,13.0294373 4.13400675,11 8,11 C11.8659932,11 15,13 15,18 L15,24 M8,11 C10.7614237,11 13,8.76142375 13,6 C13,3.23857625 10.7614237,1 8,1 C5.23857625,1 3,3.23857625 3,6 C3,8.76142375 5.23857625,11 8,11 Z M16,11 L24,11 M20,7 L20,15" id="User"></path>
        </g>
    </g>
</svg>