<svg width="24" height="24" viewBox="0 0 24 24" fill="none" xmlns="http://www.w3.org/2000/svg">
<path fill-rule="evenodd" clip-rule="evenodd" d="M21 23C21.5523 23 22 22.5523 22 22V21C22 18.2032 20.8523 16.139 18.9453 14.8145C18.4638 14.48 17.9399 14.1978 17.3828 13.9619C18.3041 13.7832 19 12.9735 19 12V8C19 4.13401 15.866 1 12 1C8.13401 1 5 4.13401 5 8V14.8428C3.1243 16.1662 2 18.2178 2 21V22C2 22.5523 2.44772 23 3 23C3.55228 23 4 22.5523 4 22V21C4 19.2265 4.55955 17.9481 5.48438 17.0332C6.26509 17.8668 7.78413 17.8927 8.4707 16.6914L8.55078 16.5352C8.72829 16.1475 8.75806 15.7412 8.70508 15.3652C9.68796 15.1211 10.7973 15 12 15C14.3878 15 16.4094 15.4879 17.8047 16.457C19.1477 17.3898 20 18.8262 20 21V22C20 22.5523 20.4477 23 21 23ZM7 7.97656C7.01259 5.23275 9.23531 3.01102 11.9795 3C11.8074 3.85765 11.3496 5.09029 10.5039 6.11328C9.70765 7.07633 8.58436 7.84233 7 7.97656ZM16.4521 5.72559C16.0163 5.60284 15.5864 5.44638 15.1992 5.21582C14.8368 5 14.5474 4.73751 14.3457 4.40723C14.1948 4.16015 14.074 3.84396 14.0244 3.42773C15.0734 3.89286 15.9314 4.70826 16.4521 5.72559ZM12 13C9.92968 13 8.15305 11.7418 7.39355 9.94824C9.47701 9.70989 11.0009 8.65082 12.0459 7.38672C12.4249 6.92814 12.7412 6.441 13.0039 5.9541C13.3516 6.36595 13.7579 6.6857 14.1758 6.93457C15.1447 7.51155 16.2729 7.75939 16.9971 7.91406C16.9976 7.94266 17 7.97128 17 8C17 10.7614 14.7614 13 12 13Z" fill="#000"/>
</svg>
