<svg width="24" height="24" viewBox="0 0 24 24" fill="none" xmlns="http://www.w3.org/2000/svg">
<path fill-rule="evenodd" clip-rule="evenodd" d="M11.3594 2.23155C11.6574 1.98319 12.0725 1.93034 12.4238 2.09484C12.7752 2.25942 13 2.6121 13 3.00011V21.0001C13 21.3894 12.774 21.7435 12.4209 21.9073C12.0675 22.0711 11.6507 22.0146 11.3535 21.7628L5.73242 17.0001H3C1.34316 17.0001 2.86733e-05 15.6569 0 14.0001V10.0001C0 8.34326 1.34315 7.00011 3 7.00011H5.63672L11.3594 2.23155ZM6.64062 8.76866C6.46091 8.91841 6.23392 9.00011 6 9.00011H3C2.44772 9.00011 2 9.44782 2 10.0001V14.0001C2.00003 14.5524 2.44773 15.0001 3 15.0001H6.09863L6.1875 15.004C6.39233 15.0222 6.58712 15.1036 6.74512 15.2374L11 18.8419V5.13585L6.64062 8.76866Z" fill="#000"/>
<path d="M15 7.00011C17.7614 7.00011 20 9.23869 20 12.0001C20 14.7615 17.7614 17.0001 15 17.0001V15.0001C16.6568 15.0001 18 13.6569 18 12.0001C18 10.3433 16.6569 9.00011 15 9.00011C14.4477 9.00011 14 8.55237 14 8.00011C14 7.44782 14.4477 7.00011 15 7.00011Z" fill="#000"/>
</svg>
