<svg width="24" height="25" viewBox="0 0 24 25" fill="none" xmlns="http://www.w3.org/2000/svg">
<g opacity="0.3">
<path d="M7.04989 13.327C9.78349 10.5936 14.2157 10.5937 16.9493 13.327C17.3398 13.7175 17.3398 14.3515 16.9493 14.742C16.5588 15.132 15.9256 15.1321 15.5352 14.742C13.5826 12.7894 10.4166 12.7894 8.46395 14.742C8.07346 15.1319 7.44026 15.1321 7.04989 14.742C6.65953 14.3516 6.65967 13.7175 7.04989 13.327Z" fill="#000"/>
<path d="M4.22177 10.4988C8.51754 6.20318 15.4827 6.2031 19.7784 10.4988C20.1686 10.8893 20.1685 11.5224 19.7784 11.9129C19.3879 12.3033 18.7539 12.3033 18.3634 11.9129C14.8487 8.39859 9.15043 8.39842 5.63583 11.9129C5.24532 12.3033 4.61226 12.3033 4.22177 11.9129C3.8314 11.5224 3.83141 10.8893 4.22177 10.4988Z" fill="#000"/>
<path d="M1.39364 7.67071C7.25149 1.81288 16.7487 1.81289 22.6065 7.67071C22.9968 8.06125 22.997 8.69433 22.6065 9.08477C22.2161 9.47509 21.583 9.47502 21.1925 9.08477C16.1157 4.008 7.88451 4.00799 2.8077 9.08477C2.41727 9.47516 1.78418 9.475 1.39364 9.08477C1.00313 8.69426 1.00316 8.06124 1.39364 7.67071Z" fill="#000"/>
</g>
<path d="M13 18.2769C13 17.7246 12.5523 17.2769 12 17.2769C11.4477 17.2769 11 17.7246 11 18.2769C11 18.8291 11.4477 19.2769 12 19.2769C12.5523 19.2769 13 18.8291 13 18.2769ZM15 18.2769C15 19.9337 13.6569 21.2769 12 21.2769C10.3431 21.2769 9 19.9337 9 18.2769C9 16.62 10.3431 15.2769 12 15.2769C13.6569 15.2769 15 16.62 15 18.2769Z" fill="#000"/>
</svg>
